<?xml version="1.0" encoding="iso-8859-1"?>
<!-- Generator: Adobe Illustrator 19.0.0, SVG Export Plug-In . SVG Version: 6.00 Build 0)  -->
<svg version="1.1" id="Capa_1" xmlns="http://www.w3.org/2000/svg" xmlns:xlink="http://www.w3.org/1999/xlink" x="0px" y="0px"
	 viewBox="0 0 512 512" style="enable-background:new 0 0 512 512;" xml:space="preserve">
<g>
	<g>
		<path d="M490.667,320h-128c-5.888,0-10.667,4.779-10.667,10.667V352c0,37.504,27.904,68.352,64,73.579v65.088h-32
			c-5.888,0-10.667,4.779-10.667,10.667c0,5.888,4.779,10.667,10.667,10.667h85.333c5.888,0,10.667-4.779,10.667-10.667
			c0-5.888-4.779-10.667-10.667-10.667h-32v-65.088c36.096-5.227,64-36.075,64-73.579v-21.333
			C501.333,324.779,496.555,320,490.667,320z"/>
	</g>
</g>
<g>
	<g>
		<path d="M149.333,320h-128c-5.888,0-10.667,4.779-10.667,10.667V352c0,37.504,27.904,68.352,64,73.579v65.088h-32
			c-5.888,0-10.667,4.779-10.667,10.667C32,507.221,36.779,512,42.667,512H128c5.888,0,10.667-4.779,10.667-10.667
			c0-5.888-4.779-10.667-10.667-10.667H96v-65.088c36.096-5.227,64-36.075,64-73.579v-21.333C160,324.779,155.221,320,149.333,320z"
			/>
	</g>
</g>
<g>
	<g>
		<path d="M301.184,141.184l-7.296-3.648C290.261,135.723,288,132.075,288,128V64h-64v64c0,4.075-2.261,7.723-5.888,9.536
			l-7.296,3.648c-18.176,9.088-29.483,27.371-29.483,47.701v88.448v96V480c0,17.643,14.357,32,32,32h85.333
			c17.643,0,32-14.357,32-32V373.333v-96v-88.448C330.667,168.555,319.36,150.272,301.184,141.184z M309.333,362.667H202.667
			v-77.099c12.075-2.987,35.776-8.235,53.333-8.235c17.707,0,41.323,5.248,53.333,8.235V362.667z"/>
	</g>
</g>
<g>
	<g>
		<path d="M277.333,0h-42.667C228.779,0,224,4.779,224,10.667v32h64v-32C288,4.779,283.221,0,277.333,0z"/>
	</g>
</g>
<g>
</g>
<g>
</g>
<g>
</g>
<g>
</g>
<g>
</g>
<g>
</g>
<g>
</g>
<g>
</g>
<g>
</g>
<g>
</g>
<g>
</g>
<g>
</g>
<g>
</g>
<g>
</g>
<g>
</g>
</svg>
