<?xml version="1.0" encoding="iso-8859-1"?>
<!-- Generator: Adobe Illustrator 19.0.0, SVG Export Plug-In . SVG Version: 6.00 Build 0)  -->
<svg version="1.1" id="Capa_1" xmlns="http://www.w3.org/2000/svg" xmlns:xlink="http://www.w3.org/1999/xlink" x="0px" y="0px"
	 viewBox="0 0 512 512" style="enable-background:new 0 0 512 512;" xml:space="preserve">
<g>
	<g>
		<path d="M490.667,490.667H480v-51.605c0-48.064-14.464-94.891-27.072-130.347l-4.011-11.264
			c-7.68-21.675-11.584-44.459-11.584-67.755V224c0-17.643-13.291-32-29.632-32h-47.424c-16.32,0-29.611,14.357-29.611,32v5.696
			c0,23.296-3.904,46.101-11.584,67.733l-4.011,11.307C302.464,344.171,288,390.997,288,439.061v51.605h-21.333V105.579
			c24.32-4.949,42.667-26.496,42.667-52.245C309.333,23.936,285.397,0,256,0s-53.333,23.936-53.333,53.333
			c0,25.749,18.347,47.296,42.667,52.245v385.088H224v-51.605c0-48.064-14.464-94.891-27.051-130.347l-4.011-11.264
			c-7.701-21.675-11.605-44.459-11.605-67.755V224c0-17.643-13.291-32-29.632-32h-47.403c-16.341,0-29.632,14.357-29.632,32v5.696
			c0,23.296-3.904,46.101-11.584,67.733l-4.011,11.307C46.464,344.171,32,390.997,32,439.061v51.605H21.333
			c-5.888,0-10.667,4.779-10.667,10.667c0,5.888,4.779,10.667,10.667,10.667h21.333h170.667h85.333h170.667h21.333
			c5.888,0,10.667-4.779,10.667-10.667C501.333,495.445,496.555,490.667,490.667,490.667z M130.411,384.277
			C148.459,387.499,160,399.68,160,416c0,17.643-14.357,32-32,32c-17.643,0-32-14.357-32-32c0-5.888,4.779-10.667,10.667-10.667
			s10.667,4.779,10.667,10.667c0,5.867,4.779,10.667,10.667,10.667s10.667-4.8,10.667-10.667c0-5.696-4.224-9.344-12.544-10.837
			C106.773,400.661,96,389.099,96,373.333c0-17.643,14.357-32,32-32c17.643,0,32,14.357,32,32c0,5.888-4.779,10.667-10.667,10.667
			s-10.667-4.779-10.667-10.667c0-5.867-4.779-10.667-10.667-10.667s-10.667,4.8-10.667,10.667
			C117.333,375.509,117.333,381.227,130.411,384.277z M384,405.333h-10.667v32c0,5.888-4.779,10.667-10.667,10.667
			c-5.888,0-10.667-4.779-10.667-10.667V352c0-5.888,4.779-10.667,10.667-10.667H384c17.643,0,32,14.357,32,32
			C416,390.976,401.643,405.333,384,405.333z"/>
	</g>
</g>
<g>
	<g>
		<path d="M384,362.667h-10.667V384H384c5.867,0,10.667-4.8,10.667-10.667C394.667,367.467,389.867,362.667,384,362.667z"/>
	</g>
</g>
<g>
</g>
<g>
</g>
<g>
</g>
<g>
</g>
<g>
</g>
<g>
</g>
<g>
</g>
<g>
</g>
<g>
</g>
<g>
</g>
<g>
</g>
<g>
</g>
<g>
</g>
<g>
</g>
<g>
</g>
</svg>
