<?xml version="1.0" encoding="iso-8859-1"?>
<!-- Generator: Adobe Illustrator 19.0.0, SVG Export Plug-In . SVG Version: 6.00 Build 0)  -->
<svg version="1.1" id="Capa_1" xmlns="http://www.w3.org/2000/svg" xmlns:xlink="http://www.w3.org/1999/xlink" x="0px" y="0px"
	 viewBox="0 0 512 512" style="enable-background:new 0 0 512 512;" xml:space="preserve">
<g>
	<g>
		<path d="M306.155,295.616c12.8,3.264,28.885,4.928,36.843-3.029c15.723-15.723,23.317-41.003,26.987-60.8L306.155,295.616z"/>
	</g>
</g>
<g>
	<g>
		<path d="M448,128h-39.253L286.613,40.768C287.424,37.973,288,35.051,288,32c0-17.643-14.357-32-32-32c-17.643,0-32,14.357-32,32
			c0,3.051,0.576,5.973,1.365,8.768L103.253,128H64c-29.397,0-53.333,23.936-53.333,53.333v277.333
			C10.667,488.085,34.603,512,64,512h384c29.419,0,53.333-23.915,53.333-53.333V181.333C501.333,151.936,477.419,128,448,128z
			 M237.696,58.176C242.901,61.824,249.195,64,256,64c6.805,0,13.099-2.176,18.304-5.824L372.053,128H139.947L237.696,58.176z
			 M370.133,429.867c4.16,4.16,4.16,10.923,0,15.083c-2.091,2.091-4.821,3.115-7.552,3.115c-2.731,0-5.461-1.045-7.552-3.115
			l-99.115-99.136l-99.051,99.051c-2.069,2.091-4.8,3.136-7.531,3.136s-5.461-1.045-7.552-3.115c-4.16-4.16-4.16-10.923,0-15.083
			l99.051-99.051l-17.813-17.813c-7.573,4.843-16.533,7.787-26.432,7.787c-15.531,0-33.152-7.04-50.56-24.448
			c-10.944-10.944-20.629-28.139-25.259-44.885c-5.76-20.885-3.2-38.144,7.232-48.576c22.635-22.677,71.253-4.16,93.461,18.048
			c28.523,28.523,29.163,57.557,16.683,77.035l17.771,17.771l120.533-120.533c3.093-3.093,7.765-3.989,11.712-2.261
			c4.032,1.685,6.592,5.653,6.507,9.984c-0.064,2.837-1.707,69.931-36.587,104.811c-19.84,19.861-53.931,10.517-68.992,4.992
			l-18.069,18.069L370.133,429.867z"/>
	</g>
</g>
<g>
	<g>
		<path d="M206.379,235.947c-13.227-13.227-35.221-22.101-50.197-22.101c-5.675,0-10.304,1.28-13.099,4.053
			c-4.629,4.629-5.291,15.019-1.749,27.797c3.648,13.205,11.413,27.115,19.776,35.499c20.139,20.117,41.301,23.979,55.253,10.027
			C230.336,277.248,226.496,256.064,206.379,235.947z"/>
	</g>
</g>
<g>
</g>
<g>
</g>
<g>
</g>
<g>
</g>
<g>
</g>
<g>
</g>
<g>
</g>
<g>
</g>
<g>
</g>
<g>
</g>
<g>
</g>
<g>
</g>
<g>
</g>
<g>
</g>
<g>
</g>
</svg>
