<?xml version="1.0" encoding="iso-8859-1"?>
<!-- Generator: Adobe Illustrator 19.0.0, SVG Export Plug-In . SVG Version: 6.00 Build 0)  -->
<svg version="1.1" id="Capa_1" xmlns="http://www.w3.org/2000/svg" xmlns:xlink="http://www.w3.org/1999/xlink" x="0px" y="0px"
	 viewBox="0 0 511.989 511.989" style="enable-background:new 0 0 511.989 511.989;" xml:space="preserve">
<g>
	<g>
		<path d="M127.995,149.323c-5.888,0-10.667,4.779-10.667,10.667v42.667c0,5.888,4.779,10.667,10.667,10.667
			c5.888,0,10.667-4.779,10.667-10.667v-42.667C138.661,154.101,133.883,149.323,127.995,149.323z"/>
	</g>
</g>
<g>
	<g>
		<path d="M213.328,149.323h-10.667v21.333h10.667c5.888,0,10.667-4.779,10.667-10.667S219.216,149.323,213.328,149.323z"/>
	</g>
</g>
<g>
	<g>
		<path d="M426.661,63.989h-19.136L260.197,0.864c-2.667-1.152-5.739-1.152-8.405,0L104.485,63.989H85.328
			c-41.173,0-74.667,33.493-74.667,74.667v298.667c0,41.173,33.493,74.667,74.667,74.667h341.333
			c41.173,0,74.667-33.493,74.667-74.667V138.656C501.328,97.483,467.835,63.989,426.661,63.989z M255.995,22.261l97.365,41.728
			H158.629L255.995,22.261z M309.328,170.656c5.888,0,10.667,4.779,10.667,10.667s-4.779,10.667-10.667,10.667h-21.333v21.333h32
			c5.888,0,10.667,4.779,10.667,10.667s-4.779,10.667-10.667,10.667h-42.667c-5.888,0-10.667-4.779-10.667-10.667v-85.333
			c0-5.888,4.779-10.667,10.667-10.667h42.667c5.888,0,10.667,4.779,10.667,10.667s-4.779,10.667-10.667,10.667h-32v21.333H309.328z
			 M245.328,159.989c0,17.643-14.357,32-32,32h-10.667v32c0,5.888-4.779,10.667-10.667,10.667s-10.667-4.779-10.667-10.667v-85.333
			c0-5.888,4.779-10.667,10.667-10.667h21.333C230.971,127.989,245.328,142.347,245.328,159.989z M159.995,202.656
			c0,17.643-14.357,32-32,32c-17.643,0-32-14.357-32-32v-42.667c0-17.643,14.357-32,32-32c17.643,0,32,14.357,32,32V202.656z
			 M351.781,289.931c-0.789,4.331-8.213,42.88-24.299,58.965c-8.149,8.171-24.363,6.741-36.224,4.224l-20.181,20.203l56.469,56.448
			c4.16,4.16,4.16,10.923,0,15.083c-2.091,2.091-4.821,3.136-7.552,3.136c-2.731,0-5.461-1.045-7.552-3.115l-56.448-56.469
			l-56.448,56.448c-2.091,2.091-4.821,3.136-7.552,3.136c-2.731,0-5.461-1.045-7.552-3.115c-4.16-4.16-4.16-10.923,0-15.083
			l56.448-56.448l-22.187-22.187c-4.459,2.069-9.408,3.285-14.549,3.285c-9.003,0-17.6-3.413-23.552-9.365
			c-7.637-7.637-31.04-46.187-15.104-62.165c16.021-15.979,54.549,7.445,62.187,15.083c9.899,9.899,11.648,25.557,5.931,37.931
			l22.336,22.336l77.781-77.781c3.285-3.285,8.363-4.096,12.501-1.899C350.352,280.757,352.613,285.344,351.781,289.931z
			 M415.995,223.989c0,4.949-3.392,9.259-8.213,10.389c-0.832,0.192-1.643,0.277-2.453,0.277c-3.989,0-7.701-2.219-9.536-5.888
			l-22.464-44.928v40.149c0,5.888-4.779,10.667-10.667,10.667c-5.888,0-10.667-4.779-10.667-10.667v-85.333
			c0-4.949,3.392-9.259,8.213-10.389c4.885-1.109,9.792,1.195,11.989,5.611l22.464,44.928v-40.149
			c0-5.888,4.779-10.667,10.667-10.667s10.667,4.779,10.667,10.667V223.989z"/>
	</g>
</g>
<g>
</g>
<g>
</g>
<g>
</g>
<g>
</g>
<g>
</g>
<g>
</g>
<g>
</g>
<g>
</g>
<g>
</g>
<g>
</g>
<g>
</g>
<g>
</g>
<g>
</g>
<g>
</g>
<g>
</g>
</svg>
