<?xml version="1.0" encoding="iso-8859-1"?>
<!-- Generator: Adobe Illustrator 19.0.0, SVG Export Plug-In . SVG Version: 6.00 Build 0)  -->
<svg version="1.1" id="Capa_1" xmlns="http://www.w3.org/2000/svg" xmlns:xlink="http://www.w3.org/1999/xlink" x="0px" y="0px"
	 viewBox="0 0 512 512" style="enable-background:new 0 0 512 512;" xml:space="preserve">
<g>
	<g>
		<path d="M260.651,363.989c-2.709-1.365-4.715-3.84-5.504-6.763c-2.475-9.365-10.901-15.893-20.48-15.893
			c0.512,0.107-0.491,0.299-1.536,0.363c-5.141,0.555-9.131-2.667-10.688-7.168C219.413,325.717,211.648,320,202.667,320
			c-9.92,0-18.667,7.04-20.8,16.747c-0.747,3.413-3.136,6.251-6.379,7.573s-6.955,0.981-9.856-0.939
			c-2.155-1.408-3.947-2.048-5.632-2.048c-5.888,0-10.667,4.8-10.667,10.667c0,4.48,3.072,7.253,4.907,8.512
			c2.731,1.877,4.437,4.907,4.608,8.235c0.171,3.307-1.195,6.507-3.712,8.661c-0.405,0.341-0.875,0.832-1.344,1.323
			c-0.107,0.128-0.149,0.299-0.256,0.427c-0.107,0.107-0.256,0.149-0.363,0.235c-1.899,2.219-3.84,5.525-3.84,9.941
			c0,8.811,7.168,16,16,16c4.971,0,7.808,2.773,12.523,7.36c3.563,3.456,14.4,13.973,19.477,13.973c3.179,0,6.293-1.216,9.493-3.669
			c1.92-1.472,4.203-2.219,6.507-2.219s4.587,0.725,6.507,2.219c12.075,9.259,25.493-0.341,25.493-12.331
			c0-4.629-2.261-8.171-4.16-10.347c-3.179-3.627-3.541-8.96-0.832-12.971c2.688-4.011,7.744-5.739,12.331-4.117
			c8.277,2.901,13.995-3.072,13.995-9.877C266.667,368.661,263.552,365.44,260.651,363.989z"/>
	</g>
</g>
<g>
	<g>
		<path d="M364.864,341.909c-40.149-40.149-66.475-64.533-93.504-64.533c-36.629,0-126.72-19.093-141.184-101.525
			c-15.275,23.829-23.509,51.499-23.509,80.149c0,29.675,8.704,57.856,24.725,81.984c6.165-12.267,19.925-20.245,34.069-17.472
			c7.424-13.141,21.589-21.845,37.205-21.845c15.275,0,29.184,8.427,36.651,21.589c15.765,1.749,29.333,12.245,35.051,27.136
			C282.88,353.344,288,362.923,288,373.333c0,14.165-9.259,26.197-22.016,30.4c0.064,0.341,0.043,0.683,0.107,1.024
			c41.323-2.731,79.04-22.251,105.493-54.805C370.197,347.755,368.299,345.344,364.864,341.909z"/>
	</g>
</g>
<g>
	<g>
		<path d="M320.043,208.469c0-1.216-2.816-123.136-103.467-123.136c-35.435,0-67.243,45.675-67.243,67.243
			c0,100.651,120.811,103.467,122.027,103.467c13.163,0,25.472,3.733,38.037,10.688c4.523-5.333,11.733-9.472,22.528-9.472
			c2.645,0,4.352-0.235,5.483-0.491C326.123,240.576,320.043,225.451,320.043,208.469z"/>
	</g>
</g>
<g>
	<g>
		<path d="M256,0C114.624,0,0,114.624,0,256s114.624,256,256,256s256-114.624,256-256S397.376,0,256,0z M434.261,362.048
			C432.256,372.459,425.365,384,404.885,384c-9.728,0-19.797-3.541-25.621-10.176c-30.464,32.085-71.616,50.603-116.117,52.437
			c-5.931,12.8-18.816,21.739-33.813,21.739c-5.547,0-10.901-1.323-16-3.947c-5.099,2.624-10.453,3.947-16,3.947
			c-13.76,0-26.645-12.544-34.347-20.011c-0.576-0.555-1.088-1.067-1.557-1.515C142.677,424.512,128,408.597,128,389.333
			c0-5.803,1.664-11.264,4.245-16.299C102.037,341.184,85.333,300.053,85.333,256c0-42.155,15.637-82.432,43.947-113.899
			C136.32,108.821,174.059,64,216.576,64c31.723,0,55.744,10.048,73.835,25.067C369.557,105.301,426.667,174.848,426.667,256
			c0,18.368-3.179,36.501-9.088,54.08c15.104,0.085,30.421,8.427,30.421,24.299C448,348.992,441.877,358.016,434.261,362.048z"/>
	</g>
</g>
<g>
	<g>
		<path d="M316.715,120.171c18.88,31.317,24.661,67.989,24.661,88.299c0,25.344,21.227,48.875,58.624,86.443
			c3.477-12.736,5.333-25.771,5.333-38.912C405.333,196.032,369.472,143.701,316.715,120.171z"/>
	</g>
</g>
<g>
	<g>
		<path d="M417.195,331.392c-10.091,0-18.539-7.616-27.029-16.107c-15.595-15.616-28.672-28.992-39.296-41.365
			c-4.224,2.773-10.219,4.651-18.944,4.651c-1.685,0-2.752,0.384-3.84,0.747c15.595,11.925,32.235,27.883,51.861,47.509
			c13.291,13.269,15.616,21.547,15.616,34.027c0.704,0.213,5.568,1.813,9.323,1.813c6.592,0,8.811,0,8.811-8.811
			c0-5.717,4.885-10.411,10.581-10.667c0.704-0.469,2.389-3.2,2.389-8.811C425.92,333.035,421.077,331.392,417.195,331.392z"/>
	</g>
</g>
<g>
</g>
<g>
</g>
<g>
</g>
<g>
</g>
<g>
</g>
<g>
</g>
<g>
</g>
<g>
</g>
<g>
</g>
<g>
</g>
<g>
</g>
<g>
</g>
<g>
</g>
<g>
</g>
<g>
</g>
</svg>
