<?xml version="1.0" encoding="iso-8859-1"?>
<!-- Generator: Adobe Illustrator 19.0.0, SVG Export Plug-In . SVG Version: 6.00 Build 0)  -->
<svg version="1.1" id="Capa_1" xmlns="http://www.w3.org/2000/svg" xmlns:xlink="http://www.w3.org/1999/xlink" x="0px" y="0px"
	 viewBox="0 0 512.011 512.011" style="enable-background:new 0 0 512.011 512.011;" xml:space="preserve">
<g>
	<g>
		<polygon points="256.005,234.656 256.005,234.677 266.672,234.677 		"/>
	</g>
</g>
<g>
	<g>
		<path d="M256.005,256.011c-62.485,0-115.947,45.995-126.528,106.667h253.077C371.995,302.005,318.533,256.011,256.005,256.011z
			 M246.512,298.613c-24.597,2.709-47.083,16.661-61.653,38.272c-2.069,3.051-5.419,4.693-8.853,4.693
			c-2.048,0-4.117-0.576-5.952-1.835c-4.885-3.285-6.165-9.92-2.88-14.805c18.112-26.795,46.165-44.117,77.013-47.531
			c6.016-0.64,11.115,3.584,11.776,9.429C256.624,292.683,252.357,297.973,246.512,298.613z"/>
	</g>
</g>
<g>
	<g>
		<path d="M113.264,384.011l1.813,3.648c5.461,10.923,16.427,17.685,28.629,17.685h224.597c12.203,0,23.168-6.763,28.629-17.685
			l1.813-3.648H113.264z"/>
	</g>
</g>
<g>
	<g>
		<path d="M458.672,128.011H419.76L262.683,2.336c-3.904-3.115-9.429-3.115-13.333,0L92.251,128.011H53.339
			c-29.397,0-53.333,23.936-53.333,53.333v277.333c0,29.419,23.936,53.333,53.333,53.333h405.333
			c29.419,0,53.333-23.915,53.333-53.333V181.344C512.005,151.947,488.091,128.011,458.672,128.011z M256.005,24.331l129.579,103.68
			H126.427L256.005,24.331z M425.541,378.123l-9.536,19.072c-9.088,18.197-27.371,29.483-47.701,29.483H143.707
			c-20.331,0-38.613-11.285-47.701-29.483l-9.536-19.093c-1.664-3.307-1.472-7.232,0.469-10.368
			c1.941-3.136,5.376-5.056,9.067-5.056h11.968c9.771-65.536,62.272-117.013,127.04-126.336c-0.043-0.576-0.341-1.067-0.341-1.664
			c0-11.755,9.579-21.333,21.333-21.333c11.755,0,21.333,9.579,21.333,21.333c0,0.597-0.299,1.088-0.341,1.664
			c64.768,9.323,117.291,60.8,127.019,126.336h11.989c3.691,0,7.125,1.92,9.088,5.056
			C427.035,370.891,427.184,374.795,425.541,378.123z"/>
	</g>
</g>
<g>
</g>
<g>
</g>
<g>
</g>
<g>
</g>
<g>
</g>
<g>
</g>
<g>
</g>
<g>
</g>
<g>
</g>
<g>
</g>
<g>
</g>
<g>
</g>
<g>
</g>
<g>
</g>
<g>
</g>
</svg>
