<?xml version="1.0" encoding="iso-8859-1"?>
<!-- Generator: Adobe Illustrator 19.0.0, SVG Export Plug-In . SVG Version: 6.00 Build 0)  -->
<svg version="1.1" id="Capa_1" xmlns="http://www.w3.org/2000/svg" xmlns:xlink="http://www.w3.org/1999/xlink" x="0px" y="0px"
	 viewBox="0 0 512.006 512.006" style="enable-background:new 0 0 512.006 512.006;" xml:space="preserve">
<g>
	<g>
		<path d="M213.336,443.142v68.864h202.667c5.888,0,10.667-4.779,10.667-10.667V304.454L213.336,443.142z"/>
	</g>
</g>
<g>
	<g>
		<path d="M416.003,85.34H213.336v332.352l21.333-13.867V181.34c0-5.888,4.779-10.667,10.667-10.667h128
			c5.888,0,10.667,4.779,10.667,10.667v125.397l42.667-27.733V96.006C426.67,90.118,421.891,85.34,416.003,85.34z"/>
	</g>
</g>
<g>
	<g>
		<path d="M330.67,234.673h-42.667c-5.888,0-10.667,4.779-10.667,10.667s4.779,10.667,10.667,10.667h42.667
			c5.888,0,10.667-4.779,10.667-10.667S336.558,234.673,330.67,234.673z"/>
	</g>
</g>
<g>
	<g>
		<path d="M330.67,277.34h-42.667c-5.888,0-10.667,4.779-10.667,10.667s4.779,10.667,10.667,10.667h42.667
			c5.888,0,10.667-4.779,10.667-10.667S336.558,277.34,330.67,277.34z"/>
	</g>
</g>
<g>
	<g>
		<path d="M298.67,320.006h-10.667c-5.888,0-10.667,4.779-10.667,10.667s4.779,10.667,10.667,10.667h10.667
			c5.888,0,10.667-4.779,10.667-10.667S304.558,320.006,298.67,320.006z"/>
	</g>
</g>
<g>
	<g>
		<path d="M102.659,2.332c-3.2-2.56-7.616-3.051-11.285-1.28c-3.691,1.792-6.037,5.525-6.037,9.621v405.333
			c0,3.243,1.472,6.315,3.989,8.341l102.677,82.133V73.798L102.659,2.332z"/>
	</g>
</g>
<g>
</g>
<g>
</g>
<g>
</g>
<g>
</g>
<g>
</g>
<g>
</g>
<g>
</g>
<g>
</g>
<g>
</g>
<g>
</g>
<g>
</g>
<g>
</g>
<g>
</g>
<g>
</g>
<g>
</g>
</svg>
