<?xml version="1.0" encoding="iso-8859-1"?>
<!-- Generator: Adobe Illustrator 19.0.0, SVG Export Plug-In . SVG Version: 6.00 Build 0)  -->
<svg xmlns="http://www.w3.org/2000/svg" xmlns:xlink="http://www.w3.org/1999/xlink" version="1.1" id="Capa_1" x="0px" y="0px" viewBox="0 0 496 496" style="enable-background:new 0 0 496 496;" xml:space="preserve">
<g>
	<g>
		<g>
			<path d="M288,361c46.528-16.528,80-60.872,80-113c0-66.168-53.832-120-120-120s-120,53.832-120,120     c0,52.128,33.472,96.472,80,113v23h-16v16h16v56c0,22.056,17.944,40,40,40c22.056,0,40-17.944,40-40v-56h16v-16h-16V361z      M272,456c0,13.232-10.768,24-24,24s-24-10.768-24-24v-56h48V456z M272,384h-48v-18.416c7.76,1.576,15.784,2.416,24,2.416     s16.24-0.84,24-2.416V384z M248,352c-57.344,0-104-46.656-104-104s46.656-104,104-104s104,46.656,104,104S305.344,352,248,352z"/>
			<path d="M496,155.312V0H340.688l40,40l-22.44,22.44C324.904,42.584,286.96,32,248,32c-38.96,0-76.904,10.584-110.248,30.44     L115.312,40l40-40H0v155.312l40-40l22.44,22.44C42.584,171.096,32,209.04,32,248s10.584,76.904,30.44,110.248L40,380.688l-40-40     V496h155.312l-40-40l74.344-74.344l-11.312-11.312L92.688,456l24,24H16V379.312l24,24l85.656-85.656l-11.312-11.312     L74.12,346.568C57.064,316.552,48,282.712,48,248c0-34.712,9.064-68.552,26.12-98.568l40.224,40.224l11.312-11.312L40,92.688     l-24,24V16h100.688l-24,24l85.656,85.656l11.312-11.312L149.432,74.12C179.448,57.064,213.288,48,248,48     c34.712,0,68.552,9.064,98.568,26.12l-40.224,40.224l11.312,11.312L403.312,40l-24-24H480v100.688l-24-24l-85.656,85.656     l11.312,11.312l40.224-40.224C438.936,179.448,448,213.288,448,248c0,34.712-9.064,68.552-26.12,98.568l-40.224-40.224     l-11.312,11.312L456,403.312l24-24V480H379.312l24-24l-85.656-85.656l-11.312,11.312L380.688,456l-40,40H496V340.688l-40,40     l-22.44-22.44C453.416,324.904,464,286.96,464,248c0-38.96-10.584-76.904-30.44-110.248l22.44-22.44L496,155.312z"/>
			<rect x="340.683" y="135.963" transform="matrix(0.7071 -0.7071 0.7071 0.7071 1.2993 291.0634)" width="22.624" height="16"/>
			
				<rect x="375.995" y="100.677" transform="matrix(0.7071 0.7071 -0.7071 0.7071 191.6576 -238.7248)" width="16" height="22.624"/>
			<rect x="404.683" y="72.006" transform="matrix(0.7071 -0.7071 0.7071 0.7071 65.2691 317.5863)" width="22.624" height="16"/>
			<rect x="135.998" y="132.688" transform="matrix(0.7071 -0.7071 0.7071 0.7071 -59.6472 143.9989)" width="16" height="22.624"/>
			<rect x="104" y="100.688" transform="matrix(-0.7071 0.7071 -0.7071 -0.7071 270.3919 112)" width="16" height="22.624"/>
			<rect x="68.69" y="72" transform="matrix(-0.7071 -0.7071 0.7071 -0.7071 80.0027 193.1382)" width="22.624" height="16"/>
			
				<rect x="132.723" y="343.997" transform="matrix(-0.7071 0.7071 -0.7071 -0.7071 494.7828 499.0478)" width="22.624" height="16"/>
			
				<rect x="104.035" y="372.683" transform="matrix(-0.7071 -0.7071 0.7071 -0.7071 -80.2695 734.7416)" width="16" height="22.624"/>
			
				<rect x="68.723" y="408.002" transform="matrix(-0.7071 0.7071 -0.7071 -0.7071 430.7862 653.5657)" width="22.624" height="16"/>
			
				<rect x="343.992" y="340.688" transform="matrix(-0.7071 0.7071 -0.7071 -0.7071 849.7895 352.0057)" width="16" height="22.624"/>
			<rect x="375.99" y="372.688" transform="matrix(0.7071 -0.7071 0.7071 0.7071 -159.0608 383.9932)" width="16" height="22.624"/>
			<rect x="404.685" y="408" transform="matrix(0.7071 0.7071 -0.7071 0.7071 415.9991 -172.3106)" width="22.624" height="16"/>
			<path d="M334.248,253l4-5l-4-5c-1.408-1.752-34.992-43-86.248-43c-51.256,0-84.84,41.248-86.248,43l-4,5l4,5     c1.408,1.752,34.992,43,86.248,43S332.84,254.752,334.248,253z M204.208,267.568c-11.656-6.696-20.424-14.584-25.376-19.584     c4.952-5.016,13.72-12.928,25.416-19.632C201.544,234.36,200,241,200,248C200,254.968,201.528,261.584,204.208,267.568z M248,280     c-17.648,0-32-14.352-32-32s14.352-32,32-32s32,14.352,32,32S265.648,280,248,280z M291.752,267.648     C294.456,261.64,296,255,296,248c0-6.968-1.528-13.584-4.208-19.568c11.656,6.696,20.424,14.584,25.376,19.584     C312.216,253.032,303.448,260.944,291.752,267.648z"/>
		</g>
	</g>
</g>
<g>
</g>
<g>
</g>
<g>
</g>
<g>
</g>
<g>
</g>
<g>
</g>
<g>
</g>
<g>
</g>
<g>
</g>
<g>
</g>
<g>
</g>
<g>
</g>
<g>
</g>
<g>
</g>
<g>
</g>
</svg>
