<?xml version="1.0" encoding="iso-8859-1"?>
<!-- Generator: Adobe Illustrator 19.0.0, SVG Export Plug-In . SVG Version: 6.00 Build 0)  -->
<svg xmlns="http://www.w3.org/2000/svg" xmlns:xlink="http://www.w3.org/1999/xlink" version="1.1" id="Capa_1" x="0px" y="0px" viewBox="0 0 496 496" style="enable-background:new 0 0 496 496;" xml:space="preserve">
<g>
	<g>
		<g>
			<path d="M338.104,416h-320V64h320v80h16V40c0-22.056-17.944-40-40-40h-272c-22.056,0-40,17.944-40,40v416     c0,22.056,17.944,40,40,40h272c22.056,0,40-17.944,40-40V336h-16V416z M18.104,40c0-13.232,10.768-24,24-24h272     c13.232,0,24,10.768,24,24v8h-320V40z M338.104,456c0,13.232-10.768,24-24,24h-272c-13.232,0-24-10.768-24-24v-24h320V456z"/>
			<rect x="122.104" y="448" width="112" height="16"/>
			<polygon points="138.104,317.728 53.896,240 138.104,162.272 138.104,176 322.104,176 322.104,160 154.104,160 154.104,125.728      30.312,240 154.104,354.272 154.104,320 354.104,320 354.104,304 138.104,304    "/>
			<rect x="338.104" y="160" width="16" height="16"/>
			<polygon points="493.896,240 370.104,125.728 370.104,192 242.104,192 242.104,208 386.104,208 386.104,162.272 470.312,240      386.104,317.728 386.104,272 274.104,272 274.104,288 370.104,288 370.104,354.272    "/>
			<rect x="242.104" y="272" width="16" height="16"/>
			<path d="M170.104,192c-51.936,0-77.784,42.096-78.856,43.88L88.776,240l2.472,4.12c1.072,1.784,26.92,43.88,78.856,43.88     c51.936,0,77.784-42.096,78.856-43.88l2.472-4.12l-2.472-4.12C247.888,234.096,222.04,192,170.104,192z M170.104,272     c-34.384,0-55.056-22.48-62.272-32c7.216-9.52,27.888-32,62.272-32c34.392,0,55.072,22.496,62.272,32     C225.16,249.52,204.488,272,170.104,272z"/>
			<path d="M170.104,216c-13.232,0-24,10.768-24,24s10.768,24,24,24s24-10.768,24-24S183.336,216,170.104,216z M170.104,248     c-4.408,0-8-3.592-8-8s3.592-8,8-8s8,3.592,8,8S174.512,248,170.104,248z"/>
			<path d="M426.104,384h16c8.824,0,16,7.176,16,16h16c0-17.648-14.352-32-32-32v-16h-16v16c-17.648,0-32,14.352-32,32     s14.352,32,32,32h16c8.824,0,16,7.176,16,16c0,8.824-7.176,16-16,16h-16c-8.824,0-16-7.176-16-16h-16c0,17.648,14.352,32,32,32     v16h16v-16c17.648,0,32-14.352,32-32s-14.352-32-32-32h-16c-8.824,0-16-7.176-16-16C410.104,391.176,417.28,384,426.104,384z"/>
			<path d="M442.104,112h-16c-8.824,0-16-7.176-16-16h-16c0,17.648,14.352,32,32,32v16h16v-16c17.648,0,32-14.352,32-32     s-14.352-32-32-32h-16c-8.824,0-16-7.176-16-16s7.176-16,16-16h16c8.824,0,16,7.176,16,16h16c0-17.648-14.352-32-32-32V0h-16v16     c-17.648,0-32,14.352-32,32s14.352,32,32,32h16c8.824,0,16,7.176,16,16S450.928,112,442.104,112z"/>
		</g>
	</g>
</g>
<g>
</g>
<g>
</g>
<g>
</g>
<g>
</g>
<g>
</g>
<g>
</g>
<g>
</g>
<g>
</g>
<g>
</g>
<g>
</g>
<g>
</g>
<g>
</g>
<g>
</g>
<g>
</g>
<g>
</g>
</svg>
