<?xml version="1.0" encoding="iso-8859-1"?>
<!-- Generator: Adobe Illustrator 19.0.0, SVG Export Plug-In . SVG Version: 6.00 Build 0)  -->
<svg xmlns="http://www.w3.org/2000/svg" xmlns:xlink="http://www.w3.org/1999/xlink" version="1.1" id="Capa_1" x="0px" y="0px" viewBox="0 0 497.832 497.832" style="enable-background:new 0 0 497.832 497.832;" xml:space="preserve">
<g>
	<g>
		<g>
			<path d="M129.832,368.916c-83.16,0-124.776,56.928-126.512,59.352L0,432.916l3.32,4.648     c1.736,2.424,43.352,59.352,126.512,59.352s124.776-56.928,126.512-59.352l3.32-4.648l-3.32-4.648     C254.608,425.844,212.992,368.916,129.832,368.916z M79.544,472.372c-31.576-11.24-51.472-30.608-59.344-39.456     c7.88-8.856,27.776-28.216,59.344-39.456c-8.56,10.888-13.712,24.568-13.712,39.456S70.984,461.484,79.544,472.372z      M129.832,480.916c-26.472,0-48-21.528-48-48s21.528-48,48-48s48,21.528,48,48S156.304,480.916,129.832,480.916z M180.12,472.372     c8.56-10.88,13.712-24.568,13.712-39.456s-5.152-28.576-13.712-39.456c31.568,11.24,51.464,30.6,59.344,39.456     C231.584,441.772,211.688,461.132,180.12,472.372z"/>
			<polygon points="137.832,400.916 121.832,400.916 121.832,424.916 97.832,424.916 97.832,440.916 121.832,440.916      121.832,464.916 137.832,464.916 137.832,440.916 161.832,440.916 161.832,424.916 137.832,424.916    "/>
			<path d="M393.832,208.916c57.344,0,104-46.656,104-104c0-21.088-6.352-40.704-17.176-57.104     c9.896-2.968,17.176-12.048,17.176-22.896c0-13.232-10.768-24-24-24c-10.848,0-19.928,7.28-22.896,17.176     c-16.4-10.824-36.016-17.176-57.104-17.176c-0.112,0-0.216,0.016-0.328,0.016V0.924l-338,14.08     C25.408,16.26,1.832,40.844,1.832,70.956v211.912c0,30.12,23.576,54.696,53.664,55.952l330.336,13.768v32.328h-56v-16h-64v128h64     v-16h112c30.88,0,56-25.12,56-56v-144c0-30.88-25.12-56-56-56h-264v-16H393.832z M473.832,16.916c4.408,0,8,3.592,8,8     s-3.592,8-8,8c-4.408,0-8-3.592-8-8S469.424,16.916,473.832,16.916z M393.896,16.916c24.536,0.016,46.728,10.152,62.696,26.416     l-12.6,37.792c-0.72-0.056-1.424-0.208-2.16-0.208c-3.696,0-7.152,0.904-10.28,2.408l-16.12-16.12     c1.496-3.136,2.4-6.592,2.4-10.288c0-13.232-10.768-24-24-24s-24,10.768-24,24c0,6.312,2.496,12.016,6.488,16.304l-19.216,32.032     c-1.08-0.152-2.152-0.336-3.272-0.336c-13.232,0-24,10.768-24,24s10.768,24,24,24s24-10.768,24-24     c0-6.312-2.496-12.016-6.488-16.304L390.56,80.58c1.08,0.152,2.152,0.336,3.272,0.336c3.696,0,7.152-0.904,10.28-2.408     l16.12,16.12c-1.496,3.136-2.4,6.592-2.4,10.288c0,13.232,10.768,24,24,24s24-10.768,24-24c0-6.696-2.768-12.744-7.2-17.096     l9.792-29.376c8.44,13.504,13.408,29.4,13.408,46.472c0,48.52-39.48,88-88,88c-48.52,0-88-39.48-88-88     c0-48.296,39.12-87.6,87.328-87.968L393.896,16.916z M449.832,104.916c0,4.408-3.592,8-8,8c-4.408,0-8-3.592-8-8s3.592-8,8-8     C446.24,96.916,449.832,100.508,449.832,104.916z M401.832,56.916c0,4.408-3.592,8-8,8c-4.408,0-8-3.592-8-8s3.592-8,8-8     C398.24,48.916,401.832,52.508,401.832,56.916z M361.832,128.916c0,4.408-3.592,8-8,8c-4.408,0-8-3.592-8-8s3.592-8,8-8     C358.24,120.916,361.832,124.508,361.832,128.916z M193.832,25.252l140.984-5.872c-27.144,18.784-44.984,50.104-44.984,85.536     c0,37.072,19.552,69.584,48.824,88H193.832V25.252z M481.832,424.916c0,22.056-17.944,40-40,40h-112v-16h-16v32h-32v-96h32v48h16     v-32h72v-32h80V424.916z M257.832,240.916h184c22.056,0,40,17.944,40,40v72h-80v-15.672l-144-6V240.916z M241.832,240.916v89.664     l-185.664-7.736c-21.496-0.904-38.336-18.456-38.336-39.968v-57.96h144v16H241.832z M161.832,192.916v16h-144V70.956     c0-21.512,16.84-39.072,38.336-39.968l121.664-5.064v166.992H161.832z"/>
			<rect x="209.832" y="160.916" width="16" height="16"/>
			<rect x="209.832" y="128.916" width="16" height="16"/>
			<rect x="209.832" y="96.916" width="16" height="16"/>
			<rect x="209.832" y="64.916" width="16" height="16"/>
			<rect x="209.832" y="32.916" width="16" height="16"/>
			<rect x="273.832" y="248.916" width="16" height="16"/>
			<rect x="273.832" y="280.916" width="16" height="16"/>
			<rect x="273.832" y="312.916" width="16" height="16"/>
			<rect x="417.832" y="384.916" width="16" height="16"/>
			<rect x="449.832" y="384.916" width="16" height="16"/>
			<rect x="33.832" y="240.916" width="16" height="16"/>
			<rect x="65.832" y="240.916" width="16" height="16"/>
			<rect x="97.832" y="240.916" width="16" height="16"/>
			<rect x="129.832" y="240.916" width="16" height="16"/>
		</g>
	</g>
</g>
<g>
</g>
<g>
</g>
<g>
</g>
<g>
</g>
<g>
</g>
<g>
</g>
<g>
</g>
<g>
</g>
<g>
</g>
<g>
</g>
<g>
</g>
<g>
</g>
<g>
</g>
<g>
</g>
<g>
</g>
</svg>
