<?xml version="1.0" encoding="iso-8859-1"?>
<!-- Generator: Adobe Illustrator 19.0.0, SVG Export Plug-In . SVG Version: 6.00 Build 0)  -->
<svg xmlns="http://www.w3.org/2000/svg" xmlns:xlink="http://www.w3.org/1999/xlink" version="1.1" id="Capa_1" x="0px" y="0px" viewBox="0 0 495.987 495.987" style="enable-background:new 0 0 495.987 495.987;" xml:space="preserve">
<g>
	<g>
		<g>
			<path d="M206.846,404.163l-17.08-2.192v-4.464c8.968-8.056,15.904-18.296,19.944-29.92c15.776-1.968,28.056-15.304,28.056-31.6     v-40c0-52.936-43.064-96-96-96c-52.936,0-96,43.064-96,96v40c0,16.296,12.28,29.632,28.056,31.6     c4.048,11.616,10.976,21.864,19.944,29.92v4.464l-17.08,2.192c-25.936,3.32-47.008,18.608-54.992,39.896L2.222,495.987h279.096     l-19.48-51.92C253.854,422.771,232.782,407.483,206.846,404.163z M213.462,349.923c0.168-1.96,0.304-3.928,0.304-5.936v-21.776     c4.76,2.776,8,7.88,8,13.776C221.766,342.003,218.39,347.195,213.462,349.923z M61.766,335.987c0-5.896,3.24-11,8-13.776v21.776     c0,2,0.136,3.968,0.304,5.936C65.142,347.195,61.766,342.003,61.766,335.987z M69.766,295.987v9.128     c-2.848,0.744-5.52,1.864-8,3.312v-12.44c0-44.112,35.888-80,80-80s80,35.888,80,80v12.448c-2.48-1.448-5.152-2.576-8-3.312     v-9.136c0-13.232-10.768-24-24-24h-96C80.534,271.987,69.766,282.755,69.766,295.987z M85.766,343.987v-48c0-4.408,3.584-8,8-8     h96c4.416,0,8,3.592,8,8v48c0,30.88-25.128,56-56,56S85.766,374.867,85.766,343.987z M173.766,408.387v17.464l-18.608-11.16     C161.726,413.451,167.958,411.291,173.766,408.387z M146.686,428.267l-4.92,9.832l-4.92-9.832l4.92-2.952L146.686,428.267z      M128.374,414.699l-18.608,11.16v-17.464C115.574,411.291,121.806,413.451,128.374,414.699z M118.358,444.947l-7.12,35.04H25.31     l11.368-30.312c5.808-15.48,22.304-27.12,42.04-29.648l15.048-1.928v36.016l29.32-17.592l1.056,2.12L118.358,444.947z      M127.558,479.987l5.608-27.504l8.6-9.384l8.6,9.384l5.608,27.504H127.558z M172.294,479.987l-7.136-35.04l-5.784-6.304     l1.056-2.12l29.336,17.592v-36.016l15.048,1.928c19.736,2.528,36.232,14.168,42.04,29.648l11.368,30.312H172.294z"/>
			<rect x="165.766" y="303.987" width="16" height="16"/>
			<rect x="101.766" y="303.987" width="16" height="16"/>
			<path d="M109.766,343.987v8c0,17.648,14.352,32,32,32s32-14.352,32-32v-8h-16v8c0,8.824-7.176,16-16,16c-8.824,0-16-7.176-16-16     v-8H109.766z"/>
			<path d="M445.766,319.987h-16v-128h-48v128h-16v-96h-48v96h-24v16h24h48h16h48h16h48v-16v-160h-48V319.987z M349.766,319.987h-16     v-80h16V319.987z M413.766,319.987h-16v-112h16V319.987z M461.766,175.987h16v144h-16V175.987z"/>
			<rect x="333.766" y="375.987" width="112" height="16"/>
			<rect x="333.766" y="407.987" width="112" height="16"/>
			<rect x="429.766" y="439.987" width="16" height="16"/>
			<rect x="333.766" y="439.987" width="80" height="16"/>
			<path d="M405.43,47.211l39.08,24.424l-18.296,28.752c-22.192,34.88-53.776,62.48-91.312,79.808     c-28.056,12.952-59.224,19.792-90.128,19.792h-15.008v16h15.008c33.2,0,66.688-7.352,96.832-21.272     c40.336-18.616,74.256-48.264,98.112-85.744l18.368-28.864l35.68,22.312V3.043L405.43,47.211z M477.766,73.555l-39.664-24.792     l39.664-19.832V73.555z"/>
			<path d="M101.766,131.771v12.216h-8v16h8v32h80v-32h8v-16h-8v-12.216c19.848-13.288,32-35.784,32-59.784     c0-20.48-8.768-40.056-24.048-53.704C174.454,4.635,153.95-1.853,133.406,0.459c-32.416,3.664-58.92,29.784-63.04,62.104     C66.878,89.963,79.11,116.619,101.766,131.771z M165.766,175.987h-48v-16h48V175.987z M133.766,71.987c0-4.408,3.584-8,8-8     s8,3.592,8,8s-3.584,8-8,8S133.766,76.395,133.766,71.987z M86.246,64.587c3.192-25.096,23.792-45.384,48.96-48.232     c16.28-1.808,31.816,3.088,43.856,13.848c11.88,10.624,18.704,25.856,18.704,41.784c0,19.872-10.736,38.432-28.008,48.424     l-3.992,2.312v21.264h-16V94.515c9.288-3.312,16-12.112,16-22.528c0-13.232-10.768-24-24-24s-24,10.768-24,24     c0,10.416,6.712,19.216,16,22.528v49.472h-16v-21.272l-3.992-2.312C94.174,109.059,83.358,87.147,86.246,64.587z"/>
		</g>
	</g>
</g>
<g>
</g>
<g>
</g>
<g>
</g>
<g>
</g>
<g>
</g>
<g>
</g>
<g>
</g>
<g>
</g>
<g>
</g>
<g>
</g>
<g>
</g>
<g>
</g>
<g>
</g>
<g>
</g>
<g>
</g>
</svg>
