<?xml version="1.0" encoding="iso-8859-1"?>
<!-- Generator: Adobe Illustrator 19.0.0, SVG Export Plug-In . SVG Version: 6.00 Build 0)  -->
<svg xmlns="http://www.w3.org/2000/svg" xmlns:xlink="http://www.w3.org/1999/xlink" version="1.1" id="Capa_1" x="0px" y="0px" viewBox="0 0 495.991 495.991" style="enable-background:new 0 0 495.991 495.991;" xml:space="preserve">
<g>
	<g>
		<g>
			<path d="M247.995,335.991c-22.056,0-40,17.944-40,40c0,22.056,17.944,40,40,40c22.056,0,40-17.944,40-40     C287.995,353.935,270.051,335.991,247.995,335.991z M247.995,399.991c-13.232,0-24-10.768-24-24s10.768-24,24-24     c13.232,0,24,10.768,24,24S261.227,399.991,247.995,399.991z"/>
			<path d="M247.995,311.991c-35.288,0-64,28.712-64,64c0,35.288,28.712,64,64,64c15.568,0,30.576-5.664,42.256-15.936     l-10.56-12.016c-8.76,7.712-20.016,11.952-31.696,11.952c-26.472,0-48-21.528-48-48s21.528-48,48-48s48,21.528,48,48     c0,9.264-2.64,18.248-7.632,25.992l13.44,8.68c6.672-10.336,10.192-22.328,10.192-34.672     C311.995,340.703,283.283,311.991,247.995,311.991z"/>
			<path d="M334.595,334.639l20.872-20.872l-45.248-45.256l-20.88,20.88c-3.024-1.44-6.144-2.728-9.344-3.856v-29.544h-64v29.544     c-3.2,1.128-6.32,2.416-9.344,3.848l-20.88-20.88l-45.248,45.256l20.872,20.872c-1.44,3.024-2.728,6.152-3.848,9.352h-29.552v64     h29.544c1.128,3.2,2.416,6.328,3.848,9.344l-20.872,20.88l45.248,45.256l20.88-20.88c3.024,1.44,6.144,2.728,9.344,3.848v29.56     h64v-29.544c3.2-1.128,6.32-2.416,9.344-3.848l20.88,20.88l45.248-45.256l-20.872-20.88c1.44-3.024,2.728-6.144,3.848-9.344     h29.56v-64h-29.544C337.323,340.791,336.035,337.663,334.595,334.639z M351.995,391.991h-25.448l-1.648,5.816     c-1.72,6.064-4.104,11.832-7.08,17.152l-2.952,5.28l17.976,17.976l-22.624,22.632l-17.976-17.976l-5.28,2.952     c-5.32,2.976-11.088,5.352-17.152,7.072l-5.816,1.648v25.448h-32v-25.448l-5.824-1.648c-6.064-1.72-11.832-4.096-17.152-7.072     l-5.28-2.952l-17.976,17.976l-22.624-22.632l17.976-17.976l-2.952-5.28c-2.976-5.32-5.36-11.088-7.08-17.152l-1.64-5.816h-25.448     v-32h25.448l1.648-5.816c1.728-6.072,4.104-11.84,7.072-17.152l2.96-5.288l-17.976-17.976l22.624-22.632l17.976,17.976     l5.28-2.952c5.32-2.976,11.088-5.352,17.152-7.072l5.816-1.64v-25.448h32v25.448l5.824,1.648     c6.064,1.72,11.832,4.096,17.152,7.072l5.28,2.952l17.976-17.976l22.624,22.632l-17.976,17.976l2.96,5.288     c2.968,5.304,5.344,11.072,7.072,17.152l1.64,5.808h25.448V391.991z"/>
			<rect x="391.995" y="239.991" width="16" height="16"/>
			<polygon points="423.995,10.039 352.627,111.991 391.995,111.991 391.995,223.991 407.995,223.991 407.995,95.991      383.363,95.991 423.995,37.943 464.627,95.991 439.995,95.991 439.995,255.991 455.995,255.991 455.995,111.991 495.363,111.991         "/>
			<polygon points="103.995,207.991 103.995,63.991 87.995,63.991 87.995,223.991 112.627,223.991 71.995,282.039 31.363,223.991      55.995,223.991 55.995,63.991 39.995,63.991 39.995,207.991 0.627,207.991 71.995,309.943 143.363,207.991    "/>
			<path d="M191.995,173.791v10.2h-16v16h16v32h112v-32h16v-16h-16v-10.168c25.128-18.048,40-46.824,40-77.832     c0-27.328-11.704-53.44-32.104-71.648C291.515,6.159,264.139-2.506,236.739,0.631c-42.824,4.88-78.088,39.384-83.848,82.032     C148.059,118.463,162.979,152.975,191.995,173.791z M287.995,215.991h-80v-16h80V215.991z M168.755,84.807     c4.8-35.504,34.16-64.216,69.808-68.28c23.184-2.664,45.448,4.368,62.688,19.752c16.992,15.184,26.744,36.944,26.744,59.712     c0,27.048-13.592,52.064-36.368,66.92l-3.632,2.368v18.712h-32v-57.136c13.768-3.576,24-16,24-30.864c0-17.648-14.352-32-32-32     s-32,14.352-32,32c0,14.864,10.232,27.288,24,30.864v57.136h-32v-18.744l-3.624-2.368     C178.195,145.807,164.547,115.887,168.755,84.807z M247.995,111.991c-8.824,0-16-7.176-16-16s7.176-16,16-16     c8.824,0,16,7.176,16,16S256.819,111.991,247.995,111.991z"/>
		</g>
	</g>
</g>
<g>
</g>
<g>
</g>
<g>
</g>
<g>
</g>
<g>
</g>
<g>
</g>
<g>
</g>
<g>
</g>
<g>
</g>
<g>
</g>
<g>
</g>
<g>
</g>
<g>
</g>
<g>
</g>
<g>
</g>
</svg>
