<?xml version="1.0" encoding="iso-8859-1"?>
<!-- Generator: Adobe Illustrator 19.0.0, SVG Export Plug-In . SVG Version: 6.00 Build 0)  -->
<svg xmlns="http://www.w3.org/2000/svg" xmlns:xlink="http://www.w3.org/1999/xlink" version="1.1" id="Capa_1" x="0px" y="0px" viewBox="0 0 498 498" style="enable-background:new 0 0 498 498;" xml:space="preserve">
<g>
	<g>
		<g>
			<rect x="241" y="264" width="16" height="16"/>
			<path d="M273,68.856V48h-16v16.2c-1.32-0.12-2.648-0.2-4-0.2h-8c-1.352,0-2.68,0.08-4,0.2V48h-16v20.856     c-14.224,7.296-24,22.088-24,39.144c0,24.264,19.744,44,44,44h8c15.44,0,28,12.56,28,28s-12.56,28-28,28h-8     c-15.44,0-28-12.56-28-28v-12h-16v12c0,17.056,9.776,31.84,24,39.144V240h16v-16.2c1.32,0.12,2.648,0.2,4,0.2h8     c1.352,0,2.68-0.08,4-0.2V240h16v-20.856c14.224-7.296,24-22.088,24-39.144c0-24.264-19.744-44-44-44h-8c-15.44,0-28-12.56-28-28     s12.56-28,28-28h8c15.44,0,28,12.56,28,28v12h16v-12C297,90.944,287.224,76.16,273,68.856z"/>
			<path d="M457,104c-19.312,0-35.472,13.768-39.192,32h-25.216c-0.296-5.416-0.88-10.752-1.76-16H409v-16h-21.768     C369.84,44.016,314.512,0,249,0S128.16,44.016,110.768,104H89v16h18.168c-0.888,5.248-1.464,10.584-1.76,16H80.192     c-3.72-18.232-19.88-32-39.192-32c-22.056,0-40,17.944-40,40c0,22.056,17.944,40,40,40c19.312,0,35.472-13.768,39.192-32h25.072     c0.296,5.4,0.928,10.736,1.816,16H89v16h21.712c10.192,35.288,33.624,65.808,66.288,84.688V444l72,54l72-54v-40l-32-24v-40l32-24     v-47.312c32.672-18.88,56.096-49.4,66.288-84.688H409v-16h-18.08c0.888-5.264,1.52-10.6,1.816-16h25.072     c3.72,18.232,19.872,32,39.192,32c22.056,0,40-17.944,40-40C497,121.944,479.056,104,457,104z M41,168c-13.232,0-24-10.768-24-24     s10.768-24,24-24s24,10.768,24,24S54.232,168,41,168z M374.688,168H361v16h9.544c-10.128,30.792-31.728,57.112-61.312,72.928     L305,259.192V308l-32,24v56l32,24v24l-48,36V296h-16v176l-48-36V259.192l-4.224-2.264     c-29.584-15.816-51.184-42.136-61.312-72.928H137v-16h-13.688c-1-5.256-1.704-10.584-2.04-16H153v-16h-31.592     c0.336-5.424,0.936-10.776,1.928-16H137v-16h-9.512C144.336,52.968,192.4,16,249,16c56.6,0,104.664,36.968,121.512,88H361v16     h13.664c0.992,5.224,1.592,10.576,1.928,16H345v16h31.728C376.392,157.416,375.688,162.744,374.688,168z M457,168     c-13.232,0-24-10.768-24-24s10.768-24,24-24s24,10.768,24,24S470.232,168,457,168z"/>
			<rect x="313" y="136" width="16" height="16"/>
			<rect x="329" y="104" width="16" height="16"/>
			<rect x="329" y="168" width="16" height="16"/>
			<rect x="169" y="136" width="16" height="16"/>
			<rect x="153" y="168" width="16" height="16"/>
			<rect x="153" y="104" width="16" height="16"/>
		</g>
	</g>
</g>
<g>
</g>
<g>
</g>
<g>
</g>
<g>
</g>
<g>
</g>
<g>
</g>
<g>
</g>
<g>
</g>
<g>
</g>
<g>
</g>
<g>
</g>
<g>
</g>
<g>
</g>
<g>
</g>
<g>
</g>
</svg>
