<?xml version="1.0" encoding="iso-8859-1"?>
<!-- Generator: Adobe Illustrator 19.0.0, SVG Export Plug-In . SVG Version: 6.00 Build 0)  -->
<svg xmlns="http://www.w3.org/2000/svg" xmlns:xlink="http://www.w3.org/1999/xlink" version="1.1" id="Capa_1" x="0px" y="0px" viewBox="0 0 496 496" style="enable-background:new 0 0 496 496;" xml:space="preserve">
<g>
	<g>
		<g>
			<path d="M248,80c-13.232,0-24,10.768-24,24s10.768,24,24,24s24-10.768,24-24S261.232,80,248,80z M248,112c-4.416,0-8-3.584-8-8     s3.584-8,8-8s8,3.584,8,8S252.416,112,248,112z"/>
			<path d="M315.88,70.056L281.936,36.12L272,46.056V32h-48v14.056l-9.936-9.936L180.12,70.056L190.064,80H176v48h14.056     l-9.936,9.936l33.944,33.944l9.936-9.936V176h48v-14.056l9.936,9.936l33.944-33.944L305.944,128H320V80h-14.064L315.88,70.056z      M304,112h-16.448l-1.888,5.336c-0.472,1.328-1.008,2.616-1.6,3.864l-2.44,5.104l11.632,11.632l-11.32,11.32l-11.608-11.624     l-5.104,2.424c-1.264,0.6-2.552,1.144-3.888,1.608L256,143.552V160h-16v-16.448l-5.336-1.888     c-1.336-0.472-2.624-1.008-3.888-1.608l-5.104-2.424l-11.608,11.624l-11.32-11.32l11.632-11.632l-2.44-5.104     c-0.592-1.248-1.136-2.536-1.6-3.864L208.448,112H192V96h16.448l1.888-5.336c0.472-1.336,1.008-2.624,1.608-3.888l2.424-5.104     l-11.624-11.616l11.32-11.312l11.632,11.632l5.104-2.44c1.248-0.592,2.536-1.136,3.864-1.6L240,64.448V48h16v16.448l5.336,1.888     c1.328,0.472,2.616,1.008,3.864,1.6l5.104,2.44l11.632-11.632l11.32,11.312l-11.624,11.616l2.424,5.104     c0.6,1.264,1.144,2.552,1.608,3.888L287.552,96H304V112z"/>
			<path d="M447.32,390.4C462.2,380.32,472,363.28,472,344c0-28.152-20.912-51.456-48-55.36V256c0-13.232-10.768-24-24-24H256     v-24.192c117.736-4.016,187.424-95.048,190.4-99.008l3.6-4.8l-3.6-4.8C443.36,95.152,370.592,0,248,0S52.64,95.152,49.6,99.2     L46,104l3.6,4.8c2.976,3.968,72.664,95,190.4,99.008V232H96c-13.232,0-24,10.768-24,24v32.64c-27.088,3.904-48,27.208-48,55.36     c0,19.28,9.8,36.32,24.68,46.4C20.096,402.608,0,431,0,464v32h160v-32c0-33-20.096-61.392-48.68-73.6     C126.2,380.32,136,363.28,136,344c0-28.152-20.912-51.456-48-55.36V256c0-4.416,3.584-8,8-8h144v40.64     c-27.088,3.904-48,27.208-48,55.36c0,19.28,9.8,36.32,24.68,46.4C188.096,402.608,168,431,168,464v32h160v-32     c0-33-20.096-61.392-48.68-73.6C294.2,380.32,304,363.28,304,344c0-28.152-20.912-51.456-48-55.36V248h144c4.416,0,8,3.584,8,8     v32.64c-27.088,3.904-48,27.208-48,55.36c0,19.28,9.8,36.32,24.68,46.4C356.096,402.608,336,431,336,464v32h160v-32     C496,431,475.904,402.608,447.32,390.4z M144,464v16H16v-16c0-35.288,28.712-64,64-64S144,428.712,144,464z M120,344     c0,22.056-17.944,40-40,40c-22.056,0-40-17.944-40-40c0-22.056,17.944-40,40-40C102.056,304,120,321.944,120,344z M312,464v16     H184v-16c0-35.288,28.712-64,64-64C283.288,400,312,428.712,312,464z M288,344c0,22.056-17.944,40-40,40     c-22.056,0-40-17.944-40-40c0-22.056,17.944-40,40-40C270.056,304,288,321.944,288,344z M248,192     c-99.128,0-165.288-68.968-181.648-88C82.712,84.968,148.872,16,248,16s165.288,68.968,181.648,88     C413.288,123.032,347.128,192,248,192z M376,344c0-22.056,17.944-40,40-40c22.056,0,40,17.944,40,40c0,22.056-17.944,40-40,40     C393.944,384,376,366.056,376,344z M480,480H352v-16c0-35.288,28.712-64,64-64c35.288,0,64,28.712,64,64V480z"/>
		</g>
	</g>
</g>
<g>
</g>
<g>
</g>
<g>
</g>
<g>
</g>
<g>
</g>
<g>
</g>
<g>
</g>
<g>
</g>
<g>
</g>
<g>
</g>
<g>
</g>
<g>
</g>
<g>
</g>
<g>
</g>
<g>
</g>
</svg>
