<?xml version="1.0" encoding="iso-8859-1"?>
<!-- Generator: Adobe Illustrator 19.0.0, SVG Export Plug-In . SVG Version: 6.00 Build 0)  -->
<svg xmlns="http://www.w3.org/2000/svg" xmlns:xlink="http://www.w3.org/1999/xlink" version="1.1" id="Capa_1" x="0px" y="0px" viewBox="0 0 496 496" style="enable-background:new 0 0 496 496;" xml:space="preserve">
<g>
	<g>
		<g>
			<path d="M456,0H40C17.944,0,0,17.944,0,40v272c0,22.056,17.944,40,40,40h64v32H72v16h136v56c0,22.056,17.944,40,40,40     c22.056,0,40-17.944,40-40v-56h136v-16h-32v-32h64c22.056,0,40-17.944,40-40V40C496,17.944,478.056,0,456,0z M208,384h-88v-32h88     V384z M208,336H40c-13.232,0-24-10.768-24-24v-8h192V336z M272,456c0,13.232-10.768,24-24,24s-24-10.768-24-24V320h48V456z      M272,304h-48v-33.096c7.76,0.688,15.736,1.096,24,1.096c8.264,0,16.24-0.408,24-1.096V304z M248,256     c-57.344,0-104-46.656-104-104S190.656,48,248,48s104,46.656,104,104S305.344,256,248,256z M170.664,243.616     c-72.128-24.2-111.312-76.768-121.208-91.624c9.864-14.88,48.968-67.52,121.288-91.68C144.64,82.344,128,115.248,128,152     C128,188.712,144.608,221.584,170.664,243.616z M325.336,60.384c72.128,24.2,111.312,76.768,121.208,91.624     c-9.864,14.88-48.968,67.52-121.288,91.68C351.36,221.656,368,188.752,368,152C368,115.288,351.392,82.416,325.336,60.384z      M376,384h-88v-32h88V384z M480,288h-16v16h16v8c0,13.232-10.768,24-24,24H288v-32h160v-16H288v-18.968     c119.208-17.992,174.344-112.008,174.944-113.056l2.264-3.976l-2.264-3.968C462.28,146.864,394.944,32,248,32     S33.72,146.864,33.056,148.032L30.792,152l2.264,3.968c0.6,1.056,55.736,95.072,174.944,113.064V288H16V40     c0-13.232,10.768-24,24-24h416c13.232,0,24,10.768,24,24V288z"/>
			<path d="M256,80V64h-16v16c-22.056,0-40,17.944-40,40c0,22.056,17.944,40,40,40h16c13.232,0,24,10.768,24,24s-10.768,24-24,24     h-16c-13.232,0-24-10.768-24-24v-8h-16v8c0,22.056,17.944,40,40,40v16h16v-16c22.056,0,40-17.944,40-40c0-22.056-17.944-40-40-40     h-16c-13.232,0-24-10.768-24-24s10.768-24,24-24h16c13.232,0,24,10.768,24,24v8h16v-8C296,97.944,278.056,80,256,80z"/>
			<rect x="384" y="144" width="16" height="16"/>
			<rect x="96" y="144" width="16" height="16"/>
		</g>
	</g>
</g>
<g>
</g>
<g>
</g>
<g>
</g>
<g>
</g>
<g>
</g>
<g>
</g>
<g>
</g>
<g>
</g>
<g>
</g>
<g>
</g>
<g>
</g>
<g>
</g>
<g>
</g>
<g>
</g>
<g>
</g>
</svg>
