<?xml version="1.0" encoding="iso-8859-1"?>
<!-- Generator: Adobe Illustrator 19.0.0, SVG Export Plug-In . SVG Version: 6.00 Build 0)  -->
<svg xmlns="http://www.w3.org/2000/svg" xmlns:xlink="http://www.w3.org/1999/xlink" version="1.1" id="Capa_1" x="0px" y="0px" viewBox="0 0 496 496" style="enable-background:new 0 0 496 496;" xml:space="preserve">
<g>
	<g>
		<g>
			<rect x="216" y="32" width="64" height="16"/>
			<rect x="216" y="96" width="64" height="16"/>
			<rect x="216" y="64" width="16" height="16"/>
			<rect x="248" y="64" width="32" height="16"/>
			<rect x="32" y="288" width="64" height="16"/>
			<rect x="32" y="352" width="64" height="16"/>
			<rect x="32" y="320" width="16" height="16"/>
			<rect x="64" y="320" width="32" height="16"/>
			<path d="M440,256v-64H256v-48h56V0H184v144h56v48H48v64H0v144h128V256H64v-48h360v48h-56v144h128V256H440z M112,272v112H16V272     H112z M200,128V16h96v112H200z M480,384h-96V272h96V384z"/>
			<rect x="400" y="288" width="64" height="16"/>
			<rect x="400" y="352" width="64" height="16"/>
			<rect x="400" y="320" width="16" height="16"/>
			<rect x="432" y="320" width="32" height="16"/>
			<path d="M344,336c0-27.328-11.704-53.44-32.104-71.64c-20.384-18.2-47.816-26.856-75.152-23.712     c-42.824,4.872-78.088,39.376-83.848,82.032c-4.832,35.8,10.088,70.312,39.104,91.128V416h-16v16h16v16h-16v16h16v32h112v-32h16     v-16h-16v-16h16v-16h-16v-2.168C329.128,395.792,344,367.008,344,336z M288,448h-16v16h16v16h-80v-16h48v-16h-48v-16h80V448z      M291.624,402.92L288,405.288V416h-32v-49.136c13.768-3.576,24-15.992,24-30.864c0-17.648-14.352-32-32-32s-32,14.352-32,32     c0,14.872,10.232,27.288,24,30.864V416h-32v-10.752l-3.632-2.368c-26.168-17.072-39.816-46.976-35.608-78.064     c4.8-35.504,34.16-64.208,69.808-68.28c23.176-2.608,45.448,4.376,62.68,19.76C318.248,291.472,328,313.224,328,336     C328,363.048,314.408,388.064,291.624,402.92z M248,352c-8.824,0-16-7.176-16-16c0-8.824,7.176-16,16-16c8.824,0,16,7.176,16,16     C264,344.824,256.824,352,248,352z"/>
			<path d="M424,79.192V128h16V79.192c18.232-3.72,32-19.872,32-39.192c0-22.056-17.944-40-40-40c-22.056,0-40,17.944-40,40     C392,59.312,405.768,75.472,424,79.192z M432,16c13.232,0,24,10.768,24,24s-10.768,24-24,24s-24-10.768-24-24S418.768,16,432,16z     "/>
			<rect x="424" y="144" width="16" height="16"/>
			<path d="M48,79.192V128h16V79.192C82.232,75.472,96,59.32,96,40C96,17.944,78.056,0,56,0C33.944,0,16,17.944,16,40     C16,59.312,29.768,75.472,48,79.192z M56,16c13.232,0,24,10.768,24,24S69.232,64,56,64S32,53.232,32,40S42.768,16,56,16z"/>
			<rect x="48" y="144" width="16" height="16"/>
		</g>
	</g>
</g>
<g>
</g>
<g>
</g>
<g>
</g>
<g>
</g>
<g>
</g>
<g>
</g>
<g>
</g>
<g>
</g>
<g>
</g>
<g>
</g>
<g>
</g>
<g>
</g>
<g>
</g>
<g>
</g>
<g>
</g>
</svg>
