<?xml version="1.0" encoding="iso-8859-1"?>
<!-- Generator: Adobe Illustrator 19.0.0, SVG Export Plug-In . SVG Version: 6.00 Build 0)  -->
<svg xmlns="http://www.w3.org/2000/svg" xmlns:xlink="http://www.w3.org/1999/xlink" version="1.1" id="Capa_1" x="0px" y="0px" viewBox="0 0 496 496" style="enable-background:new 0 0 496 496;" xml:space="preserve">
<g>
	<g>
		<g>
			<path d="M272,72c0-13.232-10.768-24-24-24s-24,10.768-24,24s10.768,24,24,24S272,85.232,272,72z M240,72c0-4.416,3.592-8,8-8     s8,3.584,8,8s-3.592,8-8,8C243.592,80,240,76.416,240,72z"/>
			<path d="M324.688,232h-16.472C325.272,215.936,336,193.224,336,168v-8h-8c-29.76,0-56.064,14.888-72,37.56V144h16v-14.056     l9.944,9.936l33.944-33.944L305.944,96H320V48h-14.064l9.944-9.944L281.936,4.12L272,14.056V0h-48v14.056l-9.944-9.936     l-33.944,33.936L190.064,48H176v48h14.056l-9.936,9.936l33.944,33.944l9.936-9.936V144h16v53.56     C224.064,174.888,197.76,160,168,160h-8v8c0,29.76,14.888,56.064,37.56,72h-10.248L0,52.688v174.624l120,120v24l24.456,24.456     c-0.288,1.528-0.456,3.088-0.456,4.68c0,6.6,2.568,12.808,7.232,17.472l0.008,0.008c4.56,4.552,10.488,6.88,16.472,7.12     c0.248,6.232,2.712,12.064,7.136,16.496c4.568,4.568,10.496,6.896,16.488,7.136c0.24,5.992,2.56,11.92,7.128,16.48     c4.432,4.432,10.264,6.896,16.488,7.136c0.24,5.992,2.56,11.912,7.128,16.48c4.672,4.656,10.88,7.224,17.472,7.224     s12.8-2.568,17.464-7.232l15.744-15.752c0.84-0.84,1.528-1.776,2.232-2.704l3.352,3.352c4.864,4.864,11.264,7.296,17.656,7.296     c6.392,0,12.792-2.432,17.656-7.296c4.512-4.504,7.016-10.448,7.232-16.792c6.096-0.216,12.128-2.568,16.768-7.208     c4.512-4.504,7.016-10.448,7.232-16.792c6.096-0.216,12.128-2.568,16.768-7.208c4.72-4.712,7.32-10.984,7.32-17.656     c0-5.872-2.12-11.376-5.824-15.84L408,347.312v-32l88-88V60.688L324.688,232z M319.504,176.496c-3.888,32.92-30.072,59.12-63,63     C260.384,206.576,286.576,180.384,319.504,176.496z M261.896,254.792L256,260.688V256v-0.408     C257.992,255.408,259.944,255.104,261.896,254.792z M234.664,109.664c-1.328-0.472-2.624-1.008-3.88-1.608l-5.096-2.424     l-11.624,11.624l-11.32-11.32l11.632-11.632l-2.432-5.104c-0.6-1.248-1.144-2.536-1.608-3.864L208.448,80H192V64h16.448     l1.88-5.336c0.472-1.336,1.016-2.624,1.616-3.888l2.416-5.104l-11.624-11.616l11.32-11.312l11.624,11.624l5.096-2.424     c1.264-0.6,2.552-1.144,3.88-1.608L240,32.448V16h16v16.448l5.336,1.888c1.336,0.472,2.624,1.008,3.88,1.608l5.096,2.424     l11.624-11.624l11.32,11.312l-11.624,11.616l2.416,5.104c0.6,1.264,1.144,2.552,1.616,3.888L287.552,64H304v16h-16.448     l-1.88,5.336c-0.472,1.328-1.008,2.616-1.608,3.864l-2.432,5.104l11.632,11.632l-11.32,11.32l-11.624-11.624l-5.096,2.424     c-1.264,0.6-2.552,1.144-3.88,1.608L256,111.552V128h-16v-16.448L234.664,109.664z M176.496,176.496     c32.928,3.88,59.112,30.08,63,63C206.576,235.616,180.384,209.424,176.496,176.496z M162.544,406.6     c-1.64-1.64-2.544-3.824-2.544-6.152c0-2.32,0.904-4.504,2.544-6.152l15.744-15.752c3.288-3.28,9.016-3.28,12.304,0     c3.392,3.392,3.392,8.912,0,12.304L174.848,406.6C171.464,409.984,165.944,410,162.544,406.6z M186.16,430.216     c-1.64-1.64-2.544-3.824-2.544-6.152c0-2.32,0.904-4.504,2.544-6.152l15.744-15.752c3.288-3.28,9.016-3.28,12.304,0     c3.392,3.392,3.392,8.912,0,12.304l-15.736,15.752C195.08,433.608,189.56,433.608,186.16,430.216z M209.784,453.832     c-3.392-3.392-3.392-8.912,0-12.304l15.736-15.752c1.696-1.696,3.928-2.544,6.16-2.544c2.224,0,4.456,0.848,6.152,2.544     c1.648,1.64,2.552,3.832,2.552,6.16c0,2.32-0.904,4.504-2.544,6.152l-15.744,15.752C218.8,457.12,213.072,457.12,209.784,453.832     z M261.456,461.704l-15.744,15.752c-3.288,3.28-9.016,3.28-12.304,0c-3.392-3.392-3.392-8.912,0-12.304l15.744-15.752     c1.696-1.696,3.928-2.536,6.152-2.536s4.456,0.84,6.152,2.536c1.64,1.64,2.544,3.824,2.544,6.152     C264,457.872,263.096,460.064,261.456,461.704z M302.344,462.344c-3.504,3.504-9.184,3.504-12.688,0l-9.968-9.96     c-0.688-5.392-3.024-10.392-6.928-14.304c-4.56-4.552-10.48-6.872-16.472-7.112c-0.248-6.232-2.712-12.064-7.136-16.496     c-4.568-4.56-10.496-6.888-16.488-7.128c-0.232-5.992-2.56-11.92-7.128-16.496c-4.416-4.416-10.408-6.672-16.472-6.904     c-0.184-6.072-2.528-12.088-7.152-16.712c-9.328-9.328-25.608-9.328-34.936,0l-14.216,14.216L136,364.688v-24l-120-120V91.312     L180.688,256h48l16,16l-41.376,41.376c-6.04,6.04-9.368,14.08-9.368,22.624s3.328,16.584,9.368,22.624l27.032,27.032     c4.64,4.64,10.424,7.424,16.456,8.456l3.544,3.544l52,52c1.696,1.696,2.632,3.944,2.632,6.344     C304.976,458.4,304.04,460.648,302.344,462.344z M326.344,438.344c-3.504,3.504-9.184,3.504-12.688,0l-47.4-47.4     c2.648-1.392,5.184-3.064,7.4-5.288c2.224-2.224,3.888-4.76,5.288-7.4l47.4,47.4c1.696,1.696,2.632,3.944,2.632,6.344     C328.976,434.4,328.04,436.648,326.344,438.344z M480,220.688l-88,88v32l-40,40L305.112,333.8L293.8,345.112l56.544,56.544     c1.696,1.696,2.632,3.944,2.632,6.344c0,2.4-0.936,4.648-2.632,6.344c-3.504,3.504-9.184,3.504-12.688,0l-52-52l-3.544-3.544     c-1.032-6.032-3.816-11.816-8.456-16.456L263.312,332l8.688-8.688l10.344,10.344l11.312-11.312L283.312,312l18.344-18.344     l-11.312-11.312L240.688,332l21.656,21.656c3.24,3.24,4.576,7.632,4.128,11.872l-0.128,0.128l0.112,0.112     c-0.376,3.136-1.704,6.176-4.112,8.576c-2.408,2.4-5.44,3.728-8.576,4.112l-0.112-0.112l-0.128,0.128     c-4.24,0.44-8.632-0.888-11.872-4.128l-27.032-27.032c-3.016-3.024-4.68-7.04-4.68-11.312c0-4.272,1.664-8.288,4.68-11.312     L291.312,248h40L480,99.312V220.688z"/>
			<polygon points="112,35.312 112,120 128,120 128,35.312 146.344,53.656 157.656,42.344 120,4.688 82.344,42.344 93.656,53.656         "/>
			<polygon points="368,35.312 368,120 384,120 384,35.312 402.344,53.656 413.656,42.344 376,4.688 338.344,42.344 349.656,53.656         "/>
			<rect x="112" y="136" width="16" height="16"/>
			<rect x="368" y="136" width="16" height="16"/>
		</g>
	</g>
</g>
<g>
</g>
<g>
</g>
<g>
</g>
<g>
</g>
<g>
</g>
<g>
</g>
<g>
</g>
<g>
</g>
<g>
</g>
<g>
</g>
<g>
</g>
<g>
</g>
<g>
</g>
<g>
</g>
<g>
</g>
</svg>
