<?xml version="1.0" encoding="iso-8859-1"?>
<!-- Generator: Adobe Illustrator 19.0.0, SVG Export Plug-In . SVG Version: 6.00 Build 0)  -->
<svg xmlns="http://www.w3.org/2000/svg" xmlns:xlink="http://www.w3.org/1999/xlink" version="1.1" id="Capa_1" x="0px" y="0px" viewBox="0 0 496 496" style="enable-background:new 0 0 496 496;" xml:space="preserve">
<g>
	<g>
		<g>
			<rect x="32" y="32" width="16" height="16"/>
			<rect x="64" y="32" width="16" height="16"/>
			<rect x="96" y="32" width="16" height="16"/>
			<path d="M448,144V0H0v496h448v-48h48V144H448z M467.432,160L308.288,305.88C298.352,314.984,285.472,320,272,320     s-26.352-5.016-36.288-14.12L76.568,160H181.6c-3.56,10.024-5.6,20.768-5.6,32c0,52.936,43.064,96,96,96     c52.936,0,96-43.064,96-96c0-11.232-2.04-21.976-5.6-32H467.432z M201.248,296L64,421.816V170.184L201.248,296z M192,192     c0-44.112,35.888-80,80-80s80,35.888,80,80s-35.888,80-80,80S192,236.112,192,192z M16,16h416v48H16V16z M416,432v16h16v32H16V80     h416v64h-76.992C338.384,115.352,307.44,96,272,96s-66.384,19.352-83.008,48H48v304h352v-16H76.568l136.52-125.144l11.808,10.824     C237.792,329.496,254.52,336,272,336c17.48,0,34.208-6.504,47.096-18.32l11.808-10.824L467.432,432H416z M480,421.808     L342.752,296L480,170.184V421.808z"/>
			<path d="M260,240h4v16h16v-16h4c15.44,0,28-12.56,28-28s-12.56-28-28-28h-24c-6.616,0-12-5.384-12-12c0-6.616,5.384-12,12-12h24     c6.616,0,12,5.384,12,12v4h16v-4c0-15.44-12.56-28-28-28h-4v-16h-16v16h-4c-15.44,0-28,12.56-28,28s12.56,28,28,28h24     c6.616,0,12,5.384,12,12c0,6.616-5.384,12-12,12h-24c-6.616,0-12-5.384-12-12v-4h-16v4C232,227.44,244.56,240,260,240z"/>
		</g>
	</g>
</g>
<g>
</g>
<g>
</g>
<g>
</g>
<g>
</g>
<g>
</g>
<g>
</g>
<g>
</g>
<g>
</g>
<g>
</g>
<g>
</g>
<g>
</g>
<g>
</g>
<g>
</g>
<g>
</g>
<g>
</g>
</svg>
