<?xml version="1.0" encoding="iso-8859-1"?>
<!-- Generator: Adobe Illustrator 19.0.0, SVG Export Plug-In . SVG Version: 6.00 Build 0)  -->
<svg xmlns="http://www.w3.org/2000/svg" xmlns:xlink="http://www.w3.org/1999/xlink" version="1.1" id="Capa_1" x="0px" y="0px" viewBox="0 0 496 496" style="enable-background:new 0 0 496 496;" xml:space="preserve">
<g>
	<g>
		<g>
			<path d="M400,269.352c0-62.392-38.376-118.36-96-141.224V85.352h37.04L248,2.648l-93.04,82.704H192v42.776     c-57.648,22.856-96,78.76-96,141.224c0,49.368,23.84,95.368,64,123.912v20.088h-16v16h16v16h-16v16h16v32h176v-32h16v-16h-16v-16     h16v-16h-16v-20.088C376.16,364.72,400,318.72,400,269.352z M320,477.352H176v-16h144V477.352z M320,445.352H176v-16h144V445.352     z M323.544,382.424L320,384.8v28.552H176V384.8l-3.544-2.376C134.6,357.08,112,314.808,112,269.352     c0-53.752,31.704-102.112,80-123.928v19.928h16v-96h-10.96L248,24.056l50.96,45.296H288v96h16v-19.944     c48.28,21.832,80,70.256,80,123.944C384,314.808,361.4,357.08,323.544,382.424z"/>
			<path d="M248,237.352c-17.648,0-32,14.352-32,32s14.352,32,32,32s32-14.352,32-32S265.648,237.352,248,237.352z M248,285.352     c-8.824,0-16-7.176-16-16c0-8.824,7.176-16,16-16c8.824,0,16,7.176,16,16C264,278.176,256.824,285.352,248,285.352z"/>
			<rect x="192" y="181.352" width="16" height="16"/>
			<rect x="288" y="181.352" width="16" height="16"/>
			<path d="M88,405.352c-8.32,0-16.048,2.56-22.456,6.928C33.656,371.6,16,321.224,16,269.352     C16,193.056,53.584,121.6,116.536,78.216l-9.08-13.168C40.168,111.416,0,187.792,0,269.352     c0,56.224,19.264,110.904,54.272,154.704C50.352,430.232,48,437.504,48,445.352c0,22.056,17.944,40,40,40     c22.056,0,40-17.944,40-40C128,423.296,110.056,405.352,88,405.352z M88,469.352c-13.232,0-24-10.768-24-24s10.768-24,24-24     s24,10.768,24,24S101.232,469.352,88,469.352z"/>
			<path d="M441.728,114.648c3.92-6.176,6.272-13.448,6.272-21.296c0-22.056-17.944-40-40-40c-22.056,0-40,17.944-40,40     c0,22.056,17.944,40,40,40c8.32,0,16.048-2.56,22.456-6.928C462.344,167.104,480,217.48,480,269.352     c0,65.52-27.944,128.312-76.656,172.264l10.72,11.872C466.136,406.52,496,339.4,496,269.352     C496,213.128,476.736,158.448,441.728,114.648z M408,117.352c-13.232,0-24-10.768-24-24s10.768-24,24-24s24,10.768,24,24     S421.232,117.352,408,117.352z"/>
			<path d="M379.464,460.48l9.072,13.184c4.64-3.192,9.288-6.632,13.8-10.224l-9.96-12.512     C388.152,454.272,383.808,457.496,379.464,460.48z"/>
			<path d="M361.216,269.352l-2.272-3.968c-1.4-2.456-35.176-60.032-110.944-60.032s-109.544,57.576-110.944,60.032l-2.272,3.968     l2.272,3.968c1.4,2.456,35.176,60.032,110.944,60.032s109.544-57.576,110.944-60.032L361.216,269.352z M248,317.352     c-56.048,0-85.856-35.696-94.456-47.968c8.616-12.128,38.824-48.032,94.456-48.032c56.064,0,85.872,35.712,94.456,47.968     C333.84,281.44,303.632,317.352,248,317.352z"/>
			<rect x="192" y="341.352" width="16" height="16"/>
			<rect x="192" y="373.352" width="16" height="16"/>
			<rect x="288" y="341.352" width="16" height="16"/>
			<rect x="288" y="373.352" width="16" height="16"/>
		</g>
	</g>
</g>
<g>
</g>
<g>
</g>
<g>
</g>
<g>
</g>
<g>
</g>
<g>
</g>
<g>
</g>
<g>
</g>
<g>
</g>
<g>
</g>
<g>
</g>
<g>
</g>
<g>
</g>
<g>
</g>
<g>
</g>
</svg>
