<?xml version="1.0" encoding="iso-8859-1"?>
<!-- Generator: Adobe Illustrator 19.0.0, SVG Export Plug-In . SVG Version: 6.00 Build 0)  -->
<svg xmlns="http://www.w3.org/2000/svg" xmlns:xlink="http://www.w3.org/1999/xlink" version="1.1" id="Capa_1" x="0px" y="0px" viewBox="0 0 490.848 490.848" style="enable-background:new 0 0 490.848 490.848;" xml:space="preserve">
<g>
	<g>
		<g>
			<path d="M197.424,234.848h-16c0,13.232-10.768,24-24,24s-24-10.768-24-24h-16c0,22.056,17.944,40,40,40     C179.48,274.848,197.424,256.904,197.424,234.848z"/>
			<path d="M333.424,274.848c22.056,0,40-17.944,40-40h-16c0,13.232-10.768,24-24,24s-24-10.768-24-24h-16     C293.424,256.904,311.368,274.848,333.424,274.848z"/>
			<path d="M245.424,386.848c-39.832,0-76.672-23.328-93.848-59.44l-14.456,6.872c19.824,41.656,62.336,68.568,108.304,68.568     s88.48-26.912,108.304-68.56l-14.456-6.872C322.096,363.52,285.256,386.848,245.424,386.848z"/>
			<rect x="293.424" y="162.848" width="16" height="16"/>
			<path d="M429.424,179.488v-8.64c0-11.48-10.576-20.864-32-28.648v-19.352h52.56L333.424,16l-35.272,32.336L245.424,0     l-52.72,48.328L157.424,16L40.864,122.848h52.56V142.2c-21.416,7.784-32,17.176-32,28.648v8.64c-27.088,3.904-48,27.208-48,55.36     c0,28.216,21.008,51.568,48.184,55.392c2.776,69.656,44.416,129.488,103.816,158.28v42.328h16v-35.496     c19.944,7.424,41.504,11.496,64,11.496c22.496,0,44.056-4.072,64-11.496v35.496h16V448.52     c59.4-28.8,101.04-88.624,103.816-158.288c27.176-3.816,48.184-27.168,48.184-55.384     C477.424,206.696,456.512,183.392,429.424,179.488z M61.424,274.04c-18.232-3.72-32-19.88-32-39.192s13.768-35.472,32-39.192     V274.04z M413.424,282.848c0,92.632-75.368,168-168,168s-168-75.368-168-168v-90.584c34.856,20.52,118.544,26.584,168,26.584     s133.144-6.064,168-26.584V282.848z M245.424,202.848c-108.704,0-168-21.144-168-32c0-1.544,3.288-6.104,16-11.496v11.496h16v-64     h-27.44l75.44-69.152l23.44,21.48l-52,47.672h52.56v72h16v-88h-27.44l75.44-69.152l75.44,69.152h-27.44v56h16v-40h52.56     l-51.992-47.664l23.432-21.488l75.44,69.152h-27.44v72h16v-19.496c12.712,5.392,16,9.952,16,11.496     C413.424,181.704,354.128,202.848,245.424,202.848z M429.424,274.04v-78.384c18.232,3.72,32,19.872,32,39.192     S447.656,270.32,429.424,274.04z"/>
		</g>
	</g>
</g>
<g>
</g>
<g>
</g>
<g>
</g>
<g>
</g>
<g>
</g>
<g>
</g>
<g>
</g>
<g>
</g>
<g>
</g>
<g>
</g>
<g>
</g>
<g>
</g>
<g>
</g>
<g>
</g>
<g>
</g>
</svg>
