<?xml version="1.0" encoding="iso-8859-1"?>
<!-- Generator: Adobe Illustrator 19.0.0, SVG Export Plug-In . SVG Version: 6.00 Build 0)  -->
<svg xmlns="http://www.w3.org/2000/svg" xmlns:xlink="http://www.w3.org/1999/xlink" version="1.1" id="Capa_1" x="0px" y="0px" viewBox="0 0 496.011 496.011" style="enable-background:new 0 0 496.011 496.011;" xml:space="preserve">
<g>
	<g>
		<g>
			<path d="M376,440.005c0,13.232,10.768,24,24,24s24-10.768,24-24s-10.768-24-24-24S376,426.773,376,440.005z M408,440.005     c0,4.416-3.584,8-8,8c-4.416,0-8-3.584-8-8c0-4.416,3.584-8,8-8C404.416,432.005,408,435.589,408,440.005z"/>
			<path d="M472,208.005h-72c-13.232,0-24,10.768-24,24v24h-66.8l-27.496-61.872C290.52,185.429,296,173.349,296,160.005     c0-26.472-21.528-48-48-48c-11.2,0-21.496,3.888-29.672,10.344l-90.552-62.688C125.528,26.397,97.824,0.005,64,0.005     c-35.288,0-64,28.712-64,64c0,35.288,28.712,64,64,64c30.424,0,55.912-21.36,62.376-49.856l81.144,56.176     c-4.736,7.432-7.52,16.232-7.52,25.68c0,26.472,21.528,48,48,48c7.272,0,14.136-1.672,20.32-4.576l23.368,52.576h-97.024     c-19.12,0-34.664,15.544-34.664,34.664c0,4.608,0.896,9.104,2.672,13.336l33.488,80.384c-11.4,1.856-20.16,11.696-20.16,23.616     c0,8.552,4.528,16.024,11.28,20.272c-6.952,7.2-11.28,16.952-11.28,27.728c0,22.056,17.944,40,40,40c22.056,0,40-17.944,40-40     c0-9.04-3.128-17.296-8.208-24h96.848c-0.376,2.624-0.64,5.28-0.64,8c0,30.872,25.128,56,56,56s56-25.128,56-56     c0-22.28-13.112-41.504-32-50.52v-133.48h48c13.232,0,24-10.768,24-24S485.232,208.005,472,208.005z M64,112.005     c-26.472,0-48-21.528-48-48s21.528-48,48-48s48,21.528,48,48S90.472,112.005,64,112.005z M248,192.005c-17.648,0-32-14.352-32-32     s14.352-32,32-32s32,14.352,32,32S265.648,192.005,248,192.005z M177.44,297.837c-0.952-2.28-1.44-4.68-1.44-7.168     c0-10.288,8.376-18.664,18.664-18.664H376v112H213.336L177.44,297.837z M216,480.005c-13.232,0-24-10.768-24-24s10.768-24,24-24     s24,10.768,24,24S229.232,480.005,216,480.005z M200,416.005c-4.416,0-8-3.584-8-8c0-4.416,3.584-8,8-8h160.888     c-4.696,4.592-8.544,10.008-11.408,16H200z M440,440.005c0,22.056-17.944,40-40,40c-22.056,0-40-17.944-40-40     c0-22.056,17.944-40,40-40C422.056,400.005,440,417.949,440,440.005z M472,240.005h-64v144.64c-2.624-0.376-5.28-0.64-8-0.64     c-2.72,0-5.376,0.264-8,0.64v-0.64v-152c0-4.416,3.584-8,8-8h72c4.416,0,8,3.584,8,8S476.416,240.005,472,240.005z"/>
			<path d="M0,392.005h144v-176H0V392.005z M16,232.005h112v144H16V232.005z"/>
			<rect x="32" y="248.005" width="80" height="16"/>
			<rect x="32" y="280.005" width="16" height="16"/>
			<rect x="64" y="280.005" width="48" height="16"/>
			<rect x="32" y="312.005" width="80" height="16"/>
			<rect x="32" y="344.005" width="16" height="16"/>
			<rect x="64" y="344.005" width="48" height="16"/>
			<rect x="400" y="48.005" width="16" height="16"/>
			<rect x="432" y="48.005" width="16" height="16"/>
			<rect x="368" y="48.005" width="16" height="16"/>
			<path d="M352,106.557v27.32c0,9.992,8.136,18.128,18.128,18.128c6.488,0,12.512-3.504,15.736-9.136l17.64-30.864h34.488     c31.08,0,57.088-24.352,57.992-54.28c0.464-15.288-5.152-29.752-15.784-40.712C469.552,6.045,455.28,0.005,440,0.005h-62.32     c-29.4,0-54.032,21.216-57.296,49.36C317.576,73.621,330.408,96.365,352,106.557z M336.272,51.205     c2.288-19.736,20.48-35.2,41.408-35.2H440c10.912,0,21.112,4.312,28.712,12.152c7.592,7.832,11.6,18.16,11.264,29.088     c-0.64,21.368-19.48,38.76-41.992,38.76h-43.768l-22.248,38.928c-0.96,1.672-3.968,0.88-3.968-1.056v-38.32l-5.328-1.88     C344.968,87.405,334.112,69.933,336.272,51.205z"/>
			<rect x="344" y="352.005" width="16" height="16"/>
			<rect x="216" y="352.005" width="112" height="16"/>
			<rect x="216" y="320.005" width="144" height="16"/>
			<rect x="216" y="288.005" width="144" height="16"/>
		</g>
	</g>
</g>
<g>
</g>
<g>
</g>
<g>
</g>
<g>
</g>
<g>
</g>
<g>
</g>
<g>
</g>
<g>
</g>
<g>
</g>
<g>
</g>
<g>
</g>
<g>
</g>
<g>
</g>
<g>
</g>
<g>
</g>
</svg>
