<?xml version="1.0" encoding="iso-8859-1"?>
<!-- Generator: Adobe Illustrator 19.0.0, SVG Export Plug-In . SVG Version: 6.00 Build 0)  -->
<svg xmlns="http://www.w3.org/2000/svg" xmlns:xlink="http://www.w3.org/1999/xlink" version="1.1" id="Capa_1" x="0px" y="0px" viewBox="0 0 496 496" style="enable-background:new 0 0 496 496;" xml:space="preserve">
<g>
	<g>
		<g>
			<path d="M496,32c0-17.648-14.352-32-32-32s-32,14.352-32,32c0,9.144,3.904,17.352,10.072,23.192l-27.728,44.36     C410.016,97.352,405.184,96,400,96c-8.456,0-16.096,3.352-21.824,8.728l-30.328-25.272C350.408,74.856,352,69.632,352,64     c0-17.648-14.352-32-32-32s-32,14.352-32,32c0,6.344,1.912,12.224,5.104,17.2l-16.296,21.728C268.136,98.536,258.368,96,248,96     c-35.288,0-64,28.712-64,64c0,32.576,24.48,59.488,56,63.448v17.44C229.824,230.48,215.664,224,200,224h-72v8     c0,30.872,25.128,56,56,56h56v32H112v48h16v88c0,22.056,17.944,40,40,40h160c22.056,0,40-17.944,40-40v-88h16v-48H256v-32h56     c30.872,0,56-25.128,56-56v-8h-72c-15.664,0-29.824,6.48-40,16.888v-17.44c31.52-3.96,56-30.872,56-63.448     c0-19.176-8.52-36.368-21.928-48.104l14.872-19.832C309.456,94.496,314.528,96,320,96c6.192,0,11.92-1.84,16.824-4.896     l32.8,27.336c-0.96,3.04-1.624,6.208-1.624,9.56c0,17.648,14.352,32,32,32s32-14.352,32-32c0-6.592-2.008-12.72-5.432-17.816     l29.552-47.288C458.656,63.552,461.264,64,464,64C481.648,64,496,49.648,496,32z M184,272c-19.32,0-35.48-13.768-39.192-32H200     c19.32,0,35.48,13.768,39.192,32H184z M296,240h55.192c-3.72,18.232-19.872,32-39.192,32h-55.192     C260.52,253.768,276.68,240,296,240z M368,336v16h-32v16h16v88c0,13.232-10.768,24-24,24H168c-13.232,0-24-10.768-24-24v-88h176     v-16H128v-16H368z M296,160c0,26.472-21.528,48-48,48s-48-21.528-48-48s21.528-48,48-48c6.76,0,13.192,1.424,19.04,3.96     l-10.104,13.472C254.08,128.592,251.12,128,248,128c-17.648,0-32,14.352-32,32s14.352,32,32,32s32-14.352,32-32     c0-8.72-3.528-16.624-9.2-22.4l9.648-12.864C289.984,133.512,296,146.048,296,160z M264,160c0,8.824-7.176,16-16,16     c-8.824,0-16-7.176-16-16c0-8.824,7.176-16,16-16C256.824,144,264,151.176,264,160z M320,80c-8.824,0-16-7.176-16-16     s7.176-16,16-16c8.824,0,16,7.176,16,16S328.824,80,320,80z M400,144c-8.824,0-16-7.176-16-16c0-8.824,7.176-16,16-16     c8.824,0,16,7.176,16,16S408.824,144,400,144z M448,32c0-8.824,7.176-16,16-16c8.824,0,16,7.176,16,16s-7.176,16-16,16     C455.176,48,448,40.824,448,32z"/>
			<rect x="40" y="80" width="16" height="24"/>
			<rect x="10.545" y="94.55" transform="matrix(-0.7071 -0.7071 0.7071 -0.7071 -34.0269 191.0049)" width="24" height="16"/>
			<rect y="120" width="24" height="16"/>
			<rect x="14.542" y="141.439" transform="matrix(-0.7071 -0.7071 0.7071 -0.7071 -70.0169 277.8759)" width="16" height="24"/>
			<rect x="40" y="152" width="16" height="24"/>
			<rect x="65.459" y="141.448" transform="matrix(-0.7071 0.7071 -0.7071 -0.7071 233.9066 210.0087)" width="16" height="24"/>
			<rect x="72" y="120" width="24" height="16"/>
			<rect x="65.451" y="90.544" transform="matrix(0.7071 0.7071 -0.7071 0.7071 94.023 -21.9034)" width="16" height="24"/>
			<rect x="440" y="208" width="16" height="24"/>
			<rect x="410.542" y="222.555" transform="matrix(-0.7071 -0.7071 0.7071 -0.7071 558.2973 692.3633)" width="24" height="16"/>
			<rect x="400" y="248" width="24" height="16"/>
			<rect x="410.544" y="273.438" transform="matrix(-0.7071 0.7071 -0.7071 -0.7071 920.3345 181.6611)" width="24" height="16"/>
			<rect x="440" y="280" width="16" height="24"/>
			<rect x="461.445" y="273.448" transform="matrix(-0.7071 -0.7071 0.7071 -0.7071 609.2065 815.2379)" width="24" height="16"/>
			<rect x="472" y="248" width="24" height="16"/>
			<rect x="465.448" y="218.557" transform="matrix(-0.7071 -0.7071 0.7071 -0.7071 645.1978 728.3636)" width="16" height="24"/>
			<rect x="136" width="16" height="16"/>
			<rect x="136" y="32" width="16" height="16"/>
			<rect x="152" y="16" width="16" height="16"/>
			<rect x="120" y="16" width="16" height="16"/>
			<rect x="64" y="240" width="16" height="16"/>
			<rect x="64" y="272" width="16" height="16"/>
			<rect x="80" y="256" width="16" height="16"/>
			<rect x="48" y="256" width="16" height="16"/>
			<rect x="424" y="400" width="16" height="16"/>
			<rect x="424" y="432" width="16" height="16"/>
			<rect x="440" y="416" width="16" height="16"/>
			<rect x="408" y="416" width="16" height="16"/>
		</g>
	</g>
</g>
<g>
</g>
<g>
</g>
<g>
</g>
<g>
</g>
<g>
</g>
<g>
</g>
<g>
</g>
<g>
</g>
<g>
</g>
<g>
</g>
<g>
</g>
<g>
</g>
<g>
</g>
<g>
</g>
<g>
</g>
</svg>
