<?xml version="1.0" encoding="iso-8859-1"?>
<!-- Generator: Adobe Illustrator 19.0.0, SVG Export Plug-In . SVG Version: 6.00 Build 0)  -->
<svg xmlns="http://www.w3.org/2000/svg" xmlns:xlink="http://www.w3.org/1999/xlink" version="1.1" id="Capa_1" x="0px" y="0px" viewBox="0 0 496 496" style="enable-background:new 0 0 496 496;" xml:space="preserve">
<g>
	<g>
		<g>
			<path d="M440.08,272H400V112h-64v160h-16V152h-64v120h-16V120h-64v152h-16v-80H96v80H55.92L2.376,368H40v128h416V368h37.624     L440.08,272z M192,136h32v136h-32V136z M112,208h32v64h-32V208z M29.624,352l35.696-64h169.064l-35.696,64H29.624z M240,480H56     V368h152.08L240,310.768V480z M352,128h32v144h-32V128z M272,168h32v104h-32V168z M424,352v16h16v112H256V310.768L287.92,368H408     v-16H297.32l-35.696-64h169.064l35.696,64H424z"/>
			<path d="M128,176c17.648,0,32-14.352,32-32c0-6.44-1.944-12.408-5.232-17.432l44.704-63.864C202.208,63.464,205.032,64,208,64     c6.192,0,11.92-1.848,16.824-4.896l35.328,29.44C257.592,93.144,256,98.368,256,104c0,17.648,14.352,32,32,32s32-14.352,32-32     c0-3.176-0.608-6.184-1.472-9.08l70.032-53.872l-11.912,27.8l14.704,6.296L420.848,6.32l-77.84,9.736l1.984,15.872l34.816-4.352     l-69.552,53.496C304.496,75.488,296.656,72,288,72c-6.192,0-11.92,1.848-16.824,4.896l-35.328-29.44     C238.408,42.856,240,37.632,240,32c0-17.648-14.352-32-32-32s-32,14.352-32,32c0,8.888,3.656,16.928,9.52,22.736l-42.736,61.056     C138.336,113.448,133.36,112,128,112c-17.648,0-32,14.352-32,32S110.352,176,128,176z M288,88c8.824,0,16,7.176,16,16     s-7.176,16-16,16c-8.824,0-16-7.176-16-16S279.176,88,288,88z M208,16c8.824,0,16,7.176,16,16s-7.176,16-16,16     c-8.824,0-16-7.176-16-16S199.176,16,208,16z M128,128c8.824,0,16,7.176,16,16c0,8.824-7.176,16-16,16c-8.824,0-16-7.176-16-16     C112,135.176,119.176,128,128,128z"/>
			<rect x="408" y="448" width="16" height="16"/>
			<rect x="336" y="448" width="56" height="16"/>
			<rect x="336" y="416" width="88" height="16"/>
		</g>
	</g>
</g>
<g>
</g>
<g>
</g>
<g>
</g>
<g>
</g>
<g>
</g>
<g>
</g>
<g>
</g>
<g>
</g>
<g>
</g>
<g>
</g>
<g>
</g>
<g>
</g>
<g>
</g>
<g>
</g>
<g>
</g>
</svg>
