<?xml version="1.0" encoding="iso-8859-1"?>
<!-- Generator: Adobe Illustrator 19.0.0, SVG Export Plug-In . SVG Version: 6.00 Build 0)  -->
<svg xmlns="http://www.w3.org/2000/svg" xmlns:xlink="http://www.w3.org/1999/xlink" version="1.1" id="Capa_1" x="0px" y="0px" viewBox="0 0 496 496" style="enable-background:new 0 0 496 496;" xml:space="preserve">
<g>
	<g>
		<g>
			<path d="M217.76,385.592c1.224,6.032,3.096,11.952,5.56,17.6l14.664-6.408c-2.016-4.616-3.544-9.456-4.544-14.384L217.76,385.592     z"/>
			<rect x="264" y="200" width="16" height="16"/>
			<rect x="368" y="256" width="16" height="16"/>
			<path d="M469.928,200L400,80.128L330.072,200H368v40h16v-56h-26.072L400,111.872L442.072,184H416v188.712     c-7.416-3.016-15.512-4.712-24-4.712c0-13.008-2.912-25.328-8-36.448V288h-16v19.792C351.936,290.728,329.224,280,304,280     c-8.192,0-16.264,1.176-24,3.384V232h-16v57.688c-7.232,3.712-13.976,8.416-20,14.048c-3.736-3.488-7.768-6.584-12-9.352V104     h-26.072L248,31.872L290.072,104H264v80h16v-64h37.928L248,0.128L178.072,120H216v166.08c-10.096-3.968-20.936-6.08-32-6.08     c-14.408,0-27.984,3.552-40,9.712V272h-16v28.168C108.472,316.32,96,340.728,96,368V184H69.928L112,111.872L154.072,184H128v72     h16v-56h37.928L112,80.128L42.072,200H80v172.712c-23.424,9.512-40,32.48-40,59.288c0,35.288,28.712,64,64,64h288     c35.288,0,64-28.712,64-64c0-20.16-9.392-38.144-24-49.88V200H469.928z M440,432c0,26.472-21.528,48-48,48H104     c-26.472,0-48-21.528-48-48c0-26.464,21.52-47.992,47.928-47.992h0.016l5.424,0.312C133.32,387,152,407.352,152,432h16     c0-32.568-24.464-59.472-55.968-63.44c-0.008-0.192-0.032-0.368-0.032-0.56c0-39.704,32.304-72,72-72     c18.4,0,36.024,7.16,49.36,19.76C222.504,330.392,216,348.424,216,368h16c0-18.712,7.256-35.712,19-48.52     c13.656-14.912,32.864-23.48,53-23.48c27.864,0,52.04,15.944,64,39.168V336h0.4c4.816,9.656,7.6,20.496,7.6,32     c0,0.728-0.096,1.432-0.12,2.16C348.384,377.328,328,402.288,328,432h16c0-24.304,18.184-44.368,41.648-47.496     C388,384.184,390.072,384,392,384C418.472,384,440,405.528,440,432z"/>
			<rect y="112" width="16" height="96"/>
			<rect y="224" width="16" height="16"/>
			<rect x="152" width="16" height="88"/>
			<rect x="152" y="104" width="16" height="16"/>
			<rect x="480" y="64" width="16" height="136"/>
			<rect x="480" y="216" width="16" height="16"/>
			<rect x="328" width="16" height="88"/>
			<rect x="328" y="104" width="16" height="16"/>
		</g>
	</g>
</g>
<g>
</g>
<g>
</g>
<g>
</g>
<g>
</g>
<g>
</g>
<g>
</g>
<g>
</g>
<g>
</g>
<g>
</g>
<g>
</g>
<g>
</g>
<g>
</g>
<g>
</g>
<g>
</g>
<g>
</g>
</svg>
