<?xml version="1.0" encoding="iso-8859-1"?>
<!-- Generator: Adobe Illustrator 19.0.0, SVG Export Plug-In . SVG Version: 6.00 Build 0)  -->
<svg xmlns="http://www.w3.org/2000/svg" xmlns:xlink="http://www.w3.org/1999/xlink" version="1.1" id="Capa_1" x="0px" y="0px" viewBox="0 0 496 496" style="enable-background:new 0 0 496 496;" xml:space="preserve">
<g>
	<g>
		<g>
			<path d="M464,416V184c0-22.056-17.944-40-40-40h-2.96c6.952-14.576,10.96-30.808,10.96-48V16h-88V0H152v16H64v80     c0,17.192,4.008,33.424,10.96,48H72c-22.056,0-40,17.944-40,40v232H0v56c0,13.232,10.768,24,24,24h448c13.232,0,24-10.768,24-24     v-56H464z M424,160c13.232,0,24,10.768,24,24v232h-16V176h-33.768c5-4.888,9.528-10.248,13.544-16H424z M304,432v8     c0,4.408-3.592,8-8,8h-96c-4.408,0-8-3.592-8-8v-8h80v-16H80V192h38.608c16.808,10.088,36.4,16,57.392,16v-0.712     c12.512,14.216,29.128,24.672,48,29.552V352h-24c-13.232,0-24,10.768-24,24v24h144v-24c0-13.232-10.768-24-24-24h-24V236.84     c18.872-4.888,35.488-15.336,48-29.552V208c20.992,0,40.584-5.912,57.392-16H416v224H288v16H304z M296,368c4.408,0,8,3.592,8,8v8     H192v-8c0-4.408,3.592-8,8-8H296z M240,352V239.592c2.648,0.224,5.296,0.408,8,0.408s5.352-0.184,8-0.408V352H240z M344,144V64     h40v32c0,26.904-16.376,50.224-40.776,59.624C343.688,151.808,344,147.944,344,144z M339.272,173.608     C375.096,164.76,400,133.096,400,96V48h-56V32h72v64c0,49.048-36.992,89.552-84.536,95.248     C334.624,185.68,337.264,179.792,339.272,173.608z M168,16h160v128c0,44.112-35.888,80-80,80s-80-35.888-80-80V16z      M152.776,155.624C128.376,146.224,112,122.904,112,96V64h40v80C152,147.944,152.312,151.808,152.776,155.624z M80,32h72v16H96     v48c0,37.096,24.904,68.76,60.72,77.608c2.008,6.184,4.648,12.08,7.808,17.64C116.992,185.552,80,145.048,80,96V32z M48,184     c0-13.232,10.768-24,24-24h12.216c4.024,5.752,8.544,11.112,13.544,16H64v240H48V184z M480,472c0,4.408-3.592,8-8,8H24     c-4.408,0-8-3.592-8-8v-40h160v8c0,13.232,10.768,24,24,24h96c13.232,0,24-10.768,24-24v-8h160V472z"/>
			<polygon points="208,152 224,152 224,80 213.624,80 248,50.536 282.376,80 272,80 272,152 288,152 288,96 325.624,96 248,29.464      170.376,96 208,96    "/>
			<rect x="272" y="168" width="16" height="16"/>
			<rect x="208" y="168" width="16" height="16"/>
		</g>
	</g>
</g>
<g>
</g>
<g>
</g>
<g>
</g>
<g>
</g>
<g>
</g>
<g>
</g>
<g>
</g>
<g>
</g>
<g>
</g>
<g>
</g>
<g>
</g>
<g>
</g>
<g>
</g>
<g>
</g>
<g>
</g>
</svg>
