<?xml version="1.0" encoding="iso-8859-1"?>
<!-- Generator: Adobe Illustrator 19.0.0, SVG Export Plug-In . SVG Version: 6.00 Build 0)  -->
<svg xmlns="http://www.w3.org/2000/svg" xmlns:xlink="http://www.w3.org/1999/xlink" version="1.1" id="Capa_1" x="0px" y="0px" viewBox="0 0 496 496" style="enable-background:new 0 0 496 496;" xml:space="preserve">
<g>
	<g>
		<g>
			<path d="M112,256h192V64H112V16h184c13.232,0,24,10.768,24,24v232h16V40c0-22.056-17.944-40-40-40H0v416h256v-16H112V256z      M112,80h176v160H112V80z M64,240H48V80h16V240z M64,64H32v192h32v144H16V16h48V64z M96,400H80V16h16V400z"/>
			<path d="M128,120v80c0,13.232,10.768,24,24,24h56v-48h-32v-32h32V96h-56C138.768,96,128,106.768,128,120z M192,128h-32v64h32v16     h-40c-4.408,0-8-3.584-8-8v-80c0-4.416,3.592-8,8-8h40V128z"/>
			<path d="M496,416v-64h-30.024c-0.44-1.112-0.904-2.216-1.392-3.328l21.24-21.24l-45.248-45.248l-21.248,21.24     c-1.104-0.496-2.216-0.952-3.328-1.392V272h-64v30.032c-1.112,0.44-2.216,0.896-3.328,1.392l-21.248-21.24l-45.248,45.248     l21.24,21.24c-0.488,1.112-0.952,2.216-1.392,3.328H272v64h30.024c0.44,1.112,0.904,2.216,1.392,3.328l-21.24,21.24     l45.248,45.248l21.248-21.24c1.104,0.496,2.216,0.952,3.328,1.392V496h64v-30.032c1.112-0.44,2.216-0.896,3.328-1.392     l21.248,21.24l45.248-45.248l-21.24-21.24c0.488-1.112,0.952-2.216,1.392-3.328H496z M463.192,440.568l-22.624,22.624     l-18.104-18.104l-5.208,2.72c-3.872,2.024-7.8,3.664-11.664,4.88L400,454.464V480h-32v-25.536l-5.6-1.768     c-3.864-1.216-7.792-2.856-11.664-4.88l-5.208-2.72L327.424,463.2L304.8,440.576l18.104-18.104l-2.72-5.2     c-2.016-3.856-3.656-7.784-4.88-11.672l-1.768-5.6H288v-32h25.536l1.76-5.592c1.224-3.888,2.864-7.816,4.88-11.672l2.72-5.2     l-18.104-18.104l22.624-22.624l18.104,18.104l5.208-2.72c3.872-2.024,7.8-3.664,11.664-4.88l5.6-1.768V288h32v25.536l5.6,1.768     c3.864,1.216,7.792,2.856,11.664,4.88l5.208,2.72l18.104-18.104l22.624,22.624l-18.104,18.104l2.72,5.2     c2.016,3.856,3.656,7.784,4.88,11.672l1.776,5.6H480v32h-25.536l-1.76,5.592c-1.224,3.888-2.864,7.816-4.88,11.672l-2.72,5.2     L463.192,440.568z"/>
			<path d="M384,344c-22.056,0-40,17.944-40,40c0,22.056,17.944,40,40,40c22.056,0,40-17.944,40-40C424,361.944,406.056,344,384,344     z M384,408c-13.232,0-24-10.768-24-24s10.768-24,24-24s24,10.768,24,24S397.232,408,384,408z"/>
			<rect x="128" y="272" width="144" height="16"/>
			<rect x="256" y="304" width="16" height="16"/>
			<rect x="128" y="304" width="112" height="16"/>
			<rect x="384" y="240" width="16" height="16"/>
			<polygon points="384,224 400,224 400,88 383.36,88 424,29.952 464.64,88 448,88 448,256 464,256 464,104 495.368,104 424,2.048      352.632,104 384,104    "/>
			<rect x="416" y="224" width="16" height="32"/>
			<rect x="416" y="88" width="16" height="120"/>
		</g>
	</g>
</g>
<g>
</g>
<g>
</g>
<g>
</g>
<g>
</g>
<g>
</g>
<g>
</g>
<g>
</g>
<g>
</g>
<g>
</g>
<g>
</g>
<g>
</g>
<g>
</g>
<g>
</g>
<g>
</g>
<g>
</g>
</svg>
