<?xml version="1.0" encoding="iso-8859-1"?>
<!-- Generator: Adobe Illustrator 19.0.0, SVG Export Plug-In . SVG Version: 6.00 Build 0)  -->
<svg xmlns="http://www.w3.org/2000/svg" xmlns:xlink="http://www.w3.org/1999/xlink" version="1.1" id="Capa_1" x="0px" y="0px" viewBox="0 0 496 496" style="enable-background:new 0 0 496 496;" xml:space="preserve">
<g>
	<g>
		<g>
			<path d="M389.8,414.088l22.248-22.248L400,379.792V352h-16v11.792l-39.832-39.832l-22.248,22.248     c-8.256-4.304-16.936-7.88-25.912-10.696V304h-40v-16h40c39.704,0,72-32.304,72-72v-8h-56c-22.608,0-42.792,10.496-56,26.848     V207.6C309.608,203.48,352,158.648,352,104C352,46.656,305.344,0,248,0S144,46.656,144,104c0,54.648,42.392,99.48,96,103.592     v27.248C226.792,218.496,206.608,208,184,208h-56v8c0,39.696,32.296,72,72,72h40v16h-40v31.504     c-8.976,2.816-17.656,6.392-25.912,10.696l-22.248-22.248L112,363.792V160h31.368L72,58.048L0.632,160H32v304h16V144H31.368     L72,85.952L112.632,144H96v235.792L83.952,391.84l22.248,22.248c-4.304,8.256-7.88,16.936-10.696,25.912H64v56h128v-8     c0-30.872,25.128-56,56-56s56,25.128,56,56v8h128v-56h-31.504C397.68,431.024,394.104,422.344,389.8,414.088z M312,224h39.432     c-3.888,27.104-27.264,48-55.432,48h-39.432C260.464,244.896,283.832,224,312,224z M200,272c-28.168,0-51.536-20.896-55.432-48     H184c28.168,0,51.536,20.896,55.432,48H200z M160,104c0-48.52,39.48-88,88-88s88,39.48,88,88s-39.48,88-88,88     C199.48,192,160,152.52,160,104z M416,480h-48.432c-0.392-5.968-1.064-11.912-2.328-17.728l-15.64,3.408     c1.024,4.696,1.6,9.496,1.968,14.32h-32.016C315.56,444.048,285,416,248,416s-67.56,28.048-71.552,64h-32.04     c4.112-53.608,48.952-96,103.592-96c42.832,0,81.896,26.872,97.176,66.88l14.952-5.72C342.496,399.008,297.432,368,248,368     c-63.472,0-115.448,49.56-119.592,112H80v-24h27.616l1.6-5.896c3.2-11.784,7.848-23.04,13.824-33.464l3.032-5.312l-19.496-19.496     l45.256-45.256l19.496,19.496l5.312-3.032c10.424-5.968,21.68-10.616,33.464-13.824l5.896-1.6V320h64v27.616l5.896,1.6     c11.784,3.2,23.04,7.848,33.464,13.824l5.312,3.032l19.496-19.496l45.256,45.256l-19.496,19.496l3.032,5.312     c5.968,10.424,10.616,21.68,13.824,33.464l1.6,5.896H416V480z"/>
			<path d="M256,176v-16c17.648,0,32-14.352,32-32s-14.352-32-32-32h-16c-8.824,0-16-7.176-16-16s7.176-16,16-16h16     c8.824,0,16,7.176,16,16v8h16v-8c0-17.648-14.352-32-32-32V32h-16v16c-17.648,0-32,14.352-32,32s14.352,32,32,32h16     c8.824,0,16,7.176,16,16s-7.176,16-16,16h-16c-8.824,0-16-7.176-16-16v-8h-16v8c0,17.648,14.352,32,32,32v16H256z"/>
			<polygon points="424,2.048 352.632,104 384,104 384,336 400,336 400,88 383.368,88 424,29.952 464.632,88 448,88 448,496      464,496 464,104 495.368,104    "/>
			<rect x="32" y="480" width="16" height="16"/>
		</g>
	</g>
</g>
<g>
</g>
<g>
</g>
<g>
</g>
<g>
</g>
<g>
</g>
<g>
</g>
<g>
</g>
<g>
</g>
<g>
</g>
<g>
</g>
<g>
</g>
<g>
</g>
<g>
</g>
<g>
</g>
<g>
</g>
</svg>
