<?xml version="1.0" encoding="iso-8859-1"?>
<!-- Generator: Adobe Illustrator 19.0.0, SVG Export Plug-In . SVG Version: 6.00 Build 0)  -->
<svg xmlns="http://www.w3.org/2000/svg" xmlns:xlink="http://www.w3.org/1999/xlink" version="1.1" id="Capa_1" x="0px" y="0px" viewBox="0 0 496 496" style="enable-background:new 0 0 496 496;" xml:space="preserve">
<g>
	<g>
		<g>
			<path d="M104,170.92v154.16l144,67.768l144-67.768V170.92l-144-67.76L104,170.92z M240,371.4l-120-56.472v-126.32l120,56.472     V371.4z M376,314.912l-120,56.48v-126.32L376,188.6V314.912z M248,231.16L130.792,176L248,120.84L365.208,176L248,231.16z"/>
			<polygon points="360,301.08 360,216 344,216 344,290.92 268.592,326.408 275.408,340.888    "/>
			<path d="M371.816,33.072c-4.832-2.784-9.8-5.432-14.76-7.864l-7.048,14.368c4.64,2.28,9.288,4.752,13.808,7.36L371.816,33.072z"/>
			<path d="M80,128c26.472,0,48-21.528,48-48c0-9.456-2.784-18.248-7.52-25.688C158.376,29.304,202.32,16,248,16     c30.536,0,60.208,5.832,88.184,17.344l6.096-14.8C312.36,6.24,280.632,0,248,0c-49.656,0-97.432,14.664-138.408,42.288     C101.432,35.864,91.168,32,80,32c-26.472,0-48,21.528-48,48S53.528,128,80,128z M80,48c17.648,0,32,14.352,32,32     s-14.352,32-32,32S48,97.648,48,80S62.352,48,80,48z"/>
			<rect x="72" y="72" width="16" height="16"/>
			<path d="M46.928,132.184l-13.856-8c-2.768,4.784-5.416,9.752-7.864,14.768L39.568,146     C41.864,141.312,44.344,136.664,46.928,132.184z"/>
			<path d="M80,368c-9.456,0-18.248,2.784-25.688,7.52C29.312,337.624,16,293.68,16,248c0-30.52,5.832-60.192,17.344-88.192     l-14.8-6.088C6.24,183.664,0,215.384,0,248c0,49.656,14.664,97.432,42.288,138.408C35.864,394.568,32,404.832,32,416     c0,26.472,21.528,48,48,48s48-21.528,48-48S106.472,368,80,368z M80,448c-17.648,0-32-14.352-32-32s14.352-32,32-32     s32,14.352,32,32S97.648,448,80,448z"/>
			<rect x="72" y="408" width="16" height="16"/>
			<path d="M124.184,462.928c4.768,2.752,9.728,5.4,14.76,7.864l7.048-14.36c-4.704-2.312-9.344-4.792-13.808-7.368L124.184,462.928     z"/>
			<path d="M416,368c-26.472,0-48,21.528-48,48c0,9.456,2.784,18.248,7.52,25.688C337.624,466.688,293.68,480,248,480     c-30.52,0-60.192-5.832-88.192-17.344l-6.08,14.8C183.656,489.76,215.376,496,248,496c49.656,0,97.432-14.664,138.408-42.288     C394.568,460.136,404.832,464,416,464c26.472,0,48-21.528,48-48S442.472,368,416,368z M416,448c-17.648,0-32-14.352-32-32     s14.352-32,32-32s32,14.352,32,32S433.648,448,416,448z"/>
			<rect x="408" y="408" width="16" height="16"/>
			<path d="M453.712,109.592C460.136,101.432,464,91.168,464,80c0-26.472-21.528-48-48-48s-48,21.528-48,48s21.528,48,48,48     c9.456,0,18.256-2.784,25.688-7.52C466.688,158.368,480,202.32,480,248c0,30.52-5.832,60.192-17.344,88.192l14.8,6.08     C489.76,312.344,496,280.624,496,248C496,198.344,481.336,150.568,453.712,109.592z M416,112c-17.648,0-32-14.352-32-32     s14.352-32,32-32s32,14.352,32,32S433.648,112,416,112z"/>
			<path d="M449.072,363.816l13.856,8c2.752-4.768,5.4-9.728,7.864-14.76l-14.36-7.048     C454.128,354.712,451.648,359.352,449.072,363.816z"/>
			<rect x="408" y="72" width="16" height="16"/>
		</g>
	</g>
</g>
<g>
</g>
<g>
</g>
<g>
</g>
<g>
</g>
<g>
</g>
<g>
</g>
<g>
</g>
<g>
</g>
<g>
</g>
<g>
</g>
<g>
</g>
<g>
</g>
<g>
</g>
<g>
</g>
<g>
</g>
</svg>
