<?xml version="1.0" encoding="iso-8859-1"?>
<!-- Generator: Adobe Illustrator 19.0.0, SVG Export Plug-In . SVG Version: 6.00 Build 0)  -->
<svg xmlns="http://www.w3.org/2000/svg" xmlns:xlink="http://www.w3.org/1999/xlink" version="1.1" id="Capa_1" x="0px" y="0px" viewBox="0 0 496 496" style="enable-background:new 0 0 496 496;" xml:space="preserve">
<g>
	<g>
		<g>
			<rect x="80" y="32" width="16" height="16"/>
			<rect x="112" y="32" width="16" height="16"/>
			<rect x="144" y="32" width="16" height="16"/>
			<path d="M395.312,0H48v136h-8c-22.056,0-40,17.944-40,40v232c0,22.056,17.944,40,40,40h40v32H48v16h336v-16h-32v-32h40     c22.056,0,40-17.944,40-40v-40h64V100.688L395.312,0z M400,27.312L468.688,96H400V27.312z M64,16h320v48H64V16z M336,480H96v-32     h240V480z M416,408c0,13.232-10.768,24-24,24H40c-13.232,0-24-10.768-24-24v-8h400V408z M480,352h-80v16h16v16H16V176     c0-13.232,10.768-24,24-24h8v216h336v-16H64V80h320v32h96V352z"/>
			<path d="M73.048,272H88v64h64v-64h14.952L120,201.576L73.048,272z M136,256v64h-32v-64h-1.048L120,230.424L137.048,256H136z"/>
			<path d="M169.048,192H184v144h64V192h14.952L216,121.576L169.048,192z M232,176v144h-32V176h-1.048L216,150.424L233.048,176H232z     "/>
			<path d="M265.048,168H280v168h64V168h14.952L312,97.576L265.048,168z M328,152v168h-32V152h-1.048L312,126.424L329.048,152H328z"/>
			<path d="M376,232v104h64V232h14.952L408,161.576L361.048,232H376z M408,190.424L425.048,216H424v104h-32V216h-1.048L408,190.424z     "/>
			<rect x="80" y="96" width="88" height="16"/>
			<rect x="80" y="128" width="56" height="16"/>
			<rect x="152" y="128" width="16" height="16"/>
		</g>
	</g>
</g>
<g>
</g>
<g>
</g>
<g>
</g>
<g>
</g>
<g>
</g>
<g>
</g>
<g>
</g>
<g>
</g>
<g>
</g>
<g>
</g>
<g>
</g>
<g>
</g>
<g>
</g>
<g>
</g>
<g>
</g>
</svg>
