<?xml version="1.0" encoding="iso-8859-1"?>
<!-- Generator: Adobe Illustrator 19.0.0, SVG Export Plug-In . SVG Version: 6.00 Build 0)  -->
<svg xmlns="http://www.w3.org/2000/svg" xmlns:xlink="http://www.w3.org/1999/xlink" version="1.1" id="Capa_1" x="0px" y="0px" viewBox="0 0 495.992 495.992" style="enable-background:new 0 0 495.992 495.992;" xml:space="preserve">
<g>
	<g>
		<g>
			<rect x="50.496" y="103.992" width="16" height="16"/>
			<rect x="50.496" y="135.992" width="16" height="104"/>
			<rect x="114.496" y="159.992" width="16" height="16"/>
			<rect x="114.496" y="191.992" width="16" height="104"/>
			<rect x="434.496" y="103.992" width="16" height="16"/>
			<rect x="434.496" y="135.992" width="16" height="104"/>
			<rect x="370.496" y="159.992" width="16" height="16"/>
			<rect x="370.496" y="191.992" width="16" height="96"/>
			<path d="M66.496,295.992c0-17.648-14.352-32-32-32s-32,14.352-32,32s14.352,32,32,32S66.496,313.64,66.496,295.992z      M34.496,311.992c-8.824,0-16-7.176-16-16c0-8.824,7.176-16,16-16s16,7.176,16,16C50.496,304.816,43.32,311.992,34.496,311.992z"/>
			<path d="M370.848,307.656l26.336,26.336l-72.448,72.448c-9.536-6.536-20.24-11.8-31.792-15.6     c36.224-16.28,61.552-52.632,61.552-94.848v-8h-8c-37.072,0-69.584,19.552-88,48.832V303.52c35.944-3.992,64-34.528,64-71.528v-8     h-8c-22.608,0-42.792,10.496-56,26.848v-66.848h32v-32h16v-16h-16v-4.216c19.848-13.296,32-35.792,32-59.784     c0-20.48-8.768-40.056-24.048-53.712C283.176,4.64,262.64-1.864,242.136,0.464c-32.408,3.664-58.92,29.784-63.04,62.104     c-3.496,27.392,8.744,54.048,31.4,69.2v4.224h-16v16h16v32h32v34.848c-13.208-16.352-33.392-26.848-56-26.848h-8v8     c0,36.992,28.056,67.528,64,71.528v24.472v8v32.832c-18.416-29.28-50.928-48.832-88-48.832h-8v8     c0,42.216,25.328,78.568,61.552,94.848c-10.592,3.488-20.44,8.224-29.36,14.032L82.496,308.68l-39.312,39.312l97.76,97.76     c-6.664,12.92-10.448,27.192-10.448,42.24v8h240v-8c0-14.016-3.256-27.384-9.088-39.6l12.984-12.984l-11.312-11.312     l-10.088,10.088c-4.488-6.392-9.712-12.344-15.632-17.744l82.448-82.448l-17.664-17.664l69.352-17.344l-17.336,69.36     l-17.664-17.664l-63.656,63.656l11.312,11.312l52.344-52.344l26.336,26.336L493.496,277L370.848,307.656z M305.824,240.664     c-3.736,23.952-22.704,42.92-46.656,46.656C262.904,263.368,281.872,244.4,305.824,240.664z M195.168,208.664     c23.952,3.736,42.92,22.704,46.656,46.656C217.872,251.584,198.904,232.616,195.168,208.664z M338.096,304.392     c-3.976,41.832-37.368,75.224-79.2,79.2C262.872,341.76,296.264,308.368,338.096,304.392z M194.976,64.592     c3.2-25.104,23.792-45.384,48.968-48.232c16.24-1.816,31.8,3.088,43.848,13.848c11.88,10.624,18.704,25.856,18.704,41.784     c0,19.872-10.728,38.432-28.008,48.424l-3.992,2.312v13.264h-16V94.52c9.288-3.312,16-12.112,16-22.528c0-13.232-10.768-24-24-24     s-24,10.768-24,24c0,10.416,6.712,19.216,16,22.528v41.472h-16V122.72l-3.992-2.304     C202.904,109.064,192.096,87.152,194.976,64.592z M250.496,79.992c-4.408,0-8-3.592-8-8s3.592-8,8-8s8,3.592,8,8     S254.904,79.992,250.496,79.992z M226.496,167.992v-16h48v16H226.496z M162.896,304.392c41.832,3.976,75.224,37.368,79.2,79.2     C200.264,379.616,166.872,346.224,162.896,304.392z M65.808,347.992l16.688-16.688l83.184,83.184     c-6.048,5.24-11.376,11.088-16.032,17.344L65.808,347.992z M354.072,479.992H146.92c4.792-44.792,49.416-80,103.576-80     C304.656,399.992,349.28,435.2,354.072,479.992z"/>
			<rect x="242.496" y="415.992" width="16" height="16"/>
			<rect x="186.496" y="447.992" width="16" height="16"/>
			<rect x="298.496" y="447.992" width="16" height="16"/>
		</g>
	</g>
</g>
<g>
</g>
<g>
</g>
<g>
</g>
<g>
</g>
<g>
</g>
<g>
</g>
<g>
</g>
<g>
</g>
<g>
</g>
<g>
</g>
<g>
</g>
<g>
</g>
<g>
</g>
<g>
</g>
<g>
</g>
</svg>
