<?xml version="1.0" encoding="iso-8859-1"?>
<!-- Generator: Adobe Illustrator 19.0.0, SVG Export Plug-In . SVG Version: 6.00 Build 0)  -->
<svg xmlns="http://www.w3.org/2000/svg" xmlns:xlink="http://www.w3.org/1999/xlink" version="1.1" id="Capa_1" x="0px" y="0px" viewBox="0 0 496 496" style="enable-background:new 0 0 496 496;" xml:space="preserve">
<g>
	<g>
		<g>
			<path d="M120.784,352c-13.232,0-24,10.768-24,24s10.768,24,24,24s24-10.768,24-24S134.016,352,120.784,352z M120.784,384     c-4.408,0-8-3.584-8-8c0-4.416,3.592-8,8-8s8,3.584,8,8C128.784,380.416,125.192,384,120.784,384z"/>
			<path d="M120.784,320c-30.88,0-56,25.128-56,56s25.12,56,56,56s56-25.128,56-56S151.664,320,120.784,320z M120.784,416     c-22.056,0-40-17.944-40-40c0-22.056,17.944-40,40-40c22.056,0,40,17.944,40,40C160.784,398.056,142.84,416,120.784,416z"/>
			<path d="M207.384,334.656l20.88-20.88L218.488,304h70.296V0h-288v304H23.08l-9.776,9.776l20.88,20.88     c-1.44,3.024-2.728,6.144-3.856,9.344H0.784v64h29.544c1.128,3.2,2.416,6.32,3.848,9.344l-20.88,20.88l45.256,45.248     l20.88-20.872c3.024,1.44,6.144,2.728,9.344,3.848V496h64v-29.544c3.2-1.128,6.328-2.416,9.344-3.848L183,483.48l45.256-45.248     l-20.88-20.88c1.44-3.024,2.728-6.144,3.848-9.344h29.56v-64H211.24C210.112,340.8,208.824,337.68,207.384,334.656z M16.784,16     h256v48h-256V16z M16.784,288V80h256v208h-70.296l-19.48-19.48l-20.88,20.872c-3.024-1.44-6.144-2.728-9.344-3.848V256h-64     v29.544c-3.2,1.128-6.328,2.416-9.344,3.848L58.56,268.52L39.08,288H16.784z M224.784,392h-25.448l-1.648,5.824     c-1.72,6.064-4.096,11.832-7.072,17.152l-2.952,5.28l17.976,17.976l-22.632,22.624l-17.976-17.976l-5.28,2.952     c-5.32,2.976-11.088,5.36-17.152,7.08l-5.816,1.64V480h-32v-25.448l-5.816-1.648c-6.064-1.72-11.832-4.104-17.152-7.08     l-5.28-2.952L58.56,460.848l-22.632-22.624l17.976-17.976l-2.952-5.28c-2.976-5.32-5.352-11.088-7.072-17.152L42.232,392H16.784     v-32h25.448l1.648-5.824c1.72-6.064,4.096-11.832,7.072-17.152l2.952-5.28l-17.976-17.976l22.632-22.624l17.976,17.976     l5.28-2.952c5.32-2.976,11.088-5.36,17.152-7.08l5.816-1.64V272h32v25.448l5.816,1.648c6.064,1.72,11.832,4.104,17.152,7.08     l5.28,2.952l17.976-17.976l22.632,22.624l-17.976,17.976l2.952,5.28c2.976,5.32,5.352,11.088,7.072,17.152l1.648,5.816h25.448     V392z"/>
			<polygon points="400.784,0.904 306.352,152 344.784,152 344.784,344 264.784,344 264.784,360 360.784,360 360.784,136      335.216,136 400.784,31.096 466.352,136 440.784,136 440.784,440 312.784,440 312.784,456 456.784,456 456.784,152 495.216,152         "/>
			<rect x="264.784" y="440" width="32" height="16"/>
			<rect x="24.784" y="32" width="16" height="16"/>
			<rect x="56.784" y="32" width="16" height="16"/>
			<rect x="88.784" y="32" width="16" height="16"/>
			<rect x="264.784" y="392" width="16" height="16"/>
			<rect x="296.784" y="392" width="16" height="16"/>
			<rect x="328.784" y="392" width="16" height="16"/>
			<rect x="360.784" y="392" width="16" height="16"/>
			<rect x="392.784" y="392" width="16" height="16"/>
			<rect x="392.784" y="360" width="16" height="16"/>
			<rect x="392.784" y="328" width="16" height="16"/>
			<rect x="392.784" y="296" width="16" height="16"/>
			<rect x="392.784" y="264" width="16" height="16"/>
			<rect x="392.784" y="232" width="16" height="16"/>
			<rect x="392.784" y="200" width="16" height="16"/>
			<rect x="392.784" y="168" width="16" height="16"/>
			<rect x="392.784" y="136" width="16" height="16"/>
			<path d="M256.784,96h-224v144h224V96z M240.784,224h-192V112h192V224z"/>
			<rect x="104.784" y="128" width="120" height="16"/>
			<rect x="208.784" y="160" width="16" height="16"/>
			<rect x="104.784" y="160" width="88" height="16"/>
		</g>
	</g>
</g>
<g>
</g>
<g>
</g>
<g>
</g>
<g>
</g>
<g>
</g>
<g>
</g>
<g>
</g>
<g>
</g>
<g>
</g>
<g>
</g>
<g>
</g>
<g>
</g>
<g>
</g>
<g>
</g>
<g>
</g>
</svg>
