<?xml version="1.0" encoding="iso-8859-1"?>
<!-- Generator: Adobe Illustrator 19.0.0, SVG Export Plug-In . SVG Version: 6.00 Build 0)  -->
<svg xmlns="http://www.w3.org/2000/svg" xmlns:xlink="http://www.w3.org/1999/xlink" version="1.1" id="Capa_1" x="0px" y="0px" viewBox="0 0 496 496" style="enable-background:new 0 0 496 496;" xml:space="preserve">
<g>
	<g>
		<g>
			<path d="M80,184h16h16h32v-48h-32H96H80H64H32v48h32H80z M112,152h16v16h-16V152z M80,152h16v16H80V152z M48,152h16v16H48V152z"/>
			<path d="M144,208h-32H96H80H64H32v48h32h16h16h16h32V208z M64,240H48v-16h16V240z M96,240H80v-16h16V240z M128,240h-16v-16h16     V240z"/>
			<path d="M400,184h16h16h32v-48h-32h-16h-16h-16h-32v48h32H400z M432,152h16v16h-16V152z M400,152h16v16h-16V152z M368,152h16v16     h-16V152z"/>
			<path d="M400,256h16h16h32v-48h-32h-16h-16h-16h-32v48h32H400z M432,224h16v16h-16V224z M400,224h16v16h-16V224z M368,224h16v16     h-16V224z"/>
			<polygon points="228.8,241.6 216,232 280,232 267.2,241.6 276.8,254.4 317.336,224 276.8,193.6 267.2,206.4 280,216 216,216      228.8,206.4 219.2,193.6 178.664,224 219.2,254.4    "/>
			<path d="M373.64,376H496V104h-16V72h-16V49.856l-48-30.272V0h-16v19.584l-48,30.272V72h-16v32h-16v200c-30.872,0-56,25.12-56,56     c0,19.288,9.8,36.32,24.68,46.4c-17.832,7.616-32.272,21.568-40.68,38.96c-8.408-17.4-22.848-31.344-40.68-38.96     C222.2,396.32,232,379.288,232,360c0-30.88-25.128-56-56-56V104h-16V72h-16V52.304L96,19.76V0H80v19.76L32,52.304V72H16v32H0v272     h122.36c3.744,12.52,11.736,23.224,22.32,30.4C116.096,418.608,96,447,96,480v16h144h16h144v-16c0-33-20.096-61.392-48.68-73.6     C361.912,399.224,369.896,388.52,373.64,376z M48,60.792l40-27.128l40,27.128V72H48V60.792z M144,88v16h-16V88H144z M112,88v16     H96V88H112z M80,88v16H64V88H80z M32,88h16v16H32V88z M104,360H72v-64h32V360z M120,360v-80H56v80H16V120h144v186.36     C136.904,313.264,120,334.688,120,360z M136,360c0-22.056,17.944-40,40-40c22.056,0,40,17.944,40,40c0,22.056-17.944,40-40,40     C153.944,400,136,382.056,136,360z M112,480c0-35.288,28.712-64,64-64c35.288,0,64,28.712,64,64H112z M368,58.68l40-25.224     l40,25.224V72h-80V58.68z M464,88v16h-16V88H464z M432,88v16h-16V88H432z M400,88v16h-16V88H400z M352,88h16v16h-16V88z M336,120     h144v240h-40v-16h-16v16h-32v-64h32v32h16v-48h-64v80c0-25.32-16.896-46.736-40-53.64V120z M384,480H256     c0-35.288,28.712-64,64-64C355.288,416,384,444.712,384,480z M320,400c-22.056,0-40-17.944-40-40c0-22.056,17.944-40,40-40     c22.056,0,40,17.944,40,40C360,382.056,342.056,400,320,400z"/>
		</g>
	</g>
</g>
<g>
</g>
<g>
</g>
<g>
</g>
<g>
</g>
<g>
</g>
<g>
</g>
<g>
</g>
<g>
</g>
<g>
</g>
<g>
</g>
<g>
</g>
<g>
</g>
<g>
</g>
<g>
</g>
<g>
</g>
</svg>
