<?xml version="1.0" encoding="iso-8859-1"?>
<!-- Generator: Adobe Illustrator 19.0.0, SVG Export Plug-In . SVG Version: 6.00 Build 0)  -->
<svg xmlns="http://www.w3.org/2000/svg" xmlns:xlink="http://www.w3.org/1999/xlink" version="1.1" id="Capa_1" x="0px" y="0px" viewBox="0 0 496 496" style="enable-background:new 0 0 496 496;" xml:space="preserve">
<g>
	<g>
		<g>
			<path d="M393.064,268.512l-54.352-67.944L331.984,79.44C329.504,34.896,292.616,0,248,0c-44.616,0-81.504,34.896-83.976,79.448     l-6.728,121.128l-54.352,67.944C98.472,274.112,96,281.136,96,288.312C96,305.784,110.216,320,127.688,320h32.056     c7.136,9.648,18.496,16,31.392,16H200v22.712l-27.944,83.832l47.52-9.504L248,489.888l28.424-56.84l47.52,9.504L296,358.712V336     h8.864c12.896,0,24.256-6.352,31.392-16h32.056C385.784,320,400,305.784,400,288.312     C400,281.136,397.528,274.112,393.064,268.512z M152.72,304h-25.032C119.04,304,112,296.96,112,288.312     c0-3.552,1.216-7.032,3.44-9.8l40.328-50.408l-3.704,66.6c-0.04,0.72-0.064,1.44-0.064,2.16     C152,299.304,152.288,301.68,152.72,304z M300.056,421.456l-32.48-6.496L248,454.112l-19.576-39.16l-32.48,6.496L213.76,368H248     v-16h-32v-16h64v16h-16v16h18.24L300.056,421.456z M304.864,320H191.136C178.376,320,168,309.624,168,296.864l11.992-216.528     C182,44.256,211.872,16,248,16s66,28.256,68.008,64.336l11.96,215.232l0.032,1.296C328,309.624,317.624,320,304.864,320z      M368.312,304H343.28c0.432-2.32,0.72-4.696,0.72-7.136c0-0.72-0.024-1.44-0.064-2.168l-3.704-66.592l40.328,50.408     c2.224,2.768,3.44,6.248,3.44,9.8C384,296.96,376.96,304,368.312,304z"/>
			<polygon points="424,10.048 352.632,112 392,112 392,256 408,256 408,96 383.368,96 424,37.952 464.632,96 440,96 440,240      456,240 456,112 495.368,112    "/>
			<polygon points="112.632,144 88,144 88,256 104,256 104,160 143.368,160 72,58.048 0.632,160 40,160 40,256 56,256 56,144      31.368,144 72,85.952    "/>
			<path d="M248,72c-30.872,0-56,25.12-56,56s25.128,56,56,56s56-25.12,56-56S278.872,72,248,72z M248,168     c-22.056,0-40-17.944-40-40c0-22.056,17.944-40,40-40c22.056,0,40,17.944,40,40C288,150.056,270.056,168,248,168z"/>
			<rect x="192" y="288" width="16" height="16"/>
			<rect x="224" y="288" width="16" height="16"/>
			<rect x="256" y="288" width="16" height="16"/>
			<rect x="288" y="288" width="16" height="16"/>
			<rect x="40" y="272" width="16" height="16"/>
			<rect x="40" y="304" width="16" height="112"/>
			<rect x="40" y="432" width="16" height="16"/>
			<rect x="88" y="328" width="16" height="72"/>
			<rect x="88" y="416" width="16" height="16"/>
			<rect x="88" y="448" width="16" height="48"/>
			<rect x="440" y="256" width="16" height="16"/>
			<rect x="440" y="288" width="16" height="16"/>
			<rect x="440" y="320" width="16" height="144"/>
			<rect x="440" y="480" width="16" height="16"/>
			<rect x="392" y="328" width="16" height="16"/>
			<rect x="392" y="432" width="16" height="64"/>
			<rect x="392" y="360" width="16" height="56"/>
		</g>
	</g>
</g>
<g>
</g>
<g>
</g>
<g>
</g>
<g>
</g>
<g>
</g>
<g>
</g>
<g>
</g>
<g>
</g>
<g>
</g>
<g>
</g>
<g>
</g>
<g>
</g>
<g>
</g>
<g>
</g>
<g>
</g>
</svg>
