<?xml version="1.0" encoding="iso-8859-1"?>
<!-- Generator: Adobe Illustrator 19.0.0, SVG Export Plug-In . SVG Version: 6.00 Build 0)  -->
<svg xmlns="http://www.w3.org/2000/svg" xmlns:xlink="http://www.w3.org/1999/xlink" version="1.1" id="Capa_1" x="0px" y="0px" viewBox="0 0 496 496" style="enable-background:new 0 0 496 496;" xml:space="preserve">
<g>
	<g>
		<g>
			<polygon points="256,432 240,432 240,448 176,448 176,464 320,464 320,448 256,448    "/>
			<rect x="240" y="400" width="16" height="16"/>
			<path d="M392,216c0,13.232-10.768,24-24,24H256v-48h32v-32h16v-16h-16v-12.2c19.848-13.312,32-35.808,32-59.8     c0-39.696-32.296-72-72-72c-39.704,0-72,32.304-72,72c0,23.992,12.152,46.496,32,59.8V144h-16v16h16v32h32v16H128     c-13.232,0-24-10.768-24-24v-56H88v56c0,22.056,17.944,40,40,40h112v48H88v224h320V272H256v-16h112c22.056,0,40-17.944,40-40v-56     h-16V216z M192,72c0-30.88,25.128-56,56-56s56,25.12,56,56c0,19.872-10.736,38.44-28.008,48.448L272,122.76V144h-16V94.528     c9.288-3.312,16-12.112,16-22.528c0-13.232-10.768-24-24-24s-24,10.768-24,24c0,10.416,6.712,19.216,16,22.528V144h-16v-21.24     l-3.992-2.312C202.736,110.44,192,91.872,192,72z M248,80c-4.416,0-8-3.592-8-8s3.584-8,8-8s8,3.592,8,8S252.416,80,248,80z      M104,288h136v48H104V288z M392,480H104V352h136v32h16v-32h136V480z M392,288v48H256v-48H392z M224,176v-16h48v16H224z"/>
			<polygon points="400,106.232 353.496,171.352 366.504,180.648 400,133.768 433.496,180.648 446.504,171.352    "/>
			<polygon points="129.496,148.648 142.504,139.352 96,74.232 49.496,139.352 62.504,148.648 96,101.768    "/>
			<rect x="120" y="304" width="16" height="16"/>
			<rect x="152" y="304" width="16" height="16"/>
			<rect x="184" y="304" width="16" height="16"/>
		</g>
	</g>
</g>
<g>
</g>
<g>
</g>
<g>
</g>
<g>
</g>
<g>
</g>
<g>
</g>
<g>
</g>
<g>
</g>
<g>
</g>
<g>
</g>
<g>
</g>
<g>
</g>
<g>
</g>
<g>
</g>
<g>
</g>
</svg>
