<?xml version="1.0" encoding="iso-8859-1"?>
<!-- Generator: Adobe Illustrator 19.0.0, SVG Export Plug-In . SVG Version: 6.00 Build 0)  -->
<svg xmlns="http://www.w3.org/2000/svg" xmlns:xlink="http://www.w3.org/1999/xlink" version="1.1" id="Capa_1" x="0px" y="0px" viewBox="0 0 496 496" style="enable-background:new 0 0 496 496;" xml:space="preserve">
<g>
	<g>
		<g>
			<path d="M376,128c-14.04,0-27.464,2.552-40,7V59.552C345.52,54,352,43.792,352,32c0-17.648-14.352-32-32-32H32     C14.352,0,0,14.352,0,32c0,11.792,6.48,22,16,27.552v77.504c0,36.152,22.664,69.16,56.408,82.136l37.784,14.536     C116.056,235.984,120,241.712,120,248c0,6.288-3.944,12.016-9.808,14.28l-37.784,14.536C38.664,289.792,16,322.8,16,358.944     v77.504C6.48,442,0,452.208,0,464c0,17.648,14.352,32,32,32h288c17.648,0,32-14.352,32-32c0-11.792-6.48-22-16-27.552v-75.456     c12.536,4.456,25.96,7.008,40,7.008c66.168,0,120-53.832,120-120S442.168,128,376,128z M16,32c0-8.824,7.176-16,16-16h288     c8.824,0,16,7.176,16,16s-7.176,16-16,16H32C23.176,48,16,40.824,16,32z M32,358.944c0-29.576,18.544-56.584,46.152-67.2     l37.784-14.528C127.936,272.6,136,260.856,136,248c0-12.856-8.064-24.6-20.064-29.208l-37.784-14.536     C50.544,193.64,32,166.632,32,137.056V64h288v73.056c0,1.68-0.104,3.344-0.216,5c-26.456,14.096-46.944,37.816-56.968,66.448     l-26.752,10.288C224.064,223.4,216,235.144,216,248s8.064,24.6,20.064,29.208l26.752,10.288     c10.024,28.632,30.512,52.352,56.968,66.448c0.112,1.664,0.216,3.32,0.216,5v18.624l-95.408-59.632     c-29.168-18.224-68.008-18.224-97.176,0L32,377.568V358.944z M257.88,268.456l-16.072-6.184C235.944,260.016,232,254.288,232,248     c0-6.288,3.944-12.016,9.808-14.28l16.072-6.184c-1.152,6.672-1.88,13.48-1.88,20.464S256.728,261.792,257.88,268.456z M320,480     H32c-8.824,0-16-7.176-16-16c0-8.824,7.176-16,16-16h256v-16H32v-35.568l103.888-64.928c24.088-15.056,56.144-15.056,80.224,0     L320,396.432V432h-16v16h16c8.824,0,16,7.176,16,16C336,472.824,328.824,480,320,480z M376,352c-57.344,0-104-46.656-104-104     s46.656-104,104-104s104,46.656,104,104S433.344,352,376,352z"/>
			<path d="M384,176v-16h-16v16c-22.056,0-40,17.944-40,40c0,22.056,17.944,40,40,40h16c13.232,0,24,10.768,24,24s-10.768,24-24,24     h-16c-13.232,0-24-10.768-24-24v-8h-16v8c0,22.056,17.944,40,40,40v16h16v-16c22.056,0,40-17.944,40-40c0-22.056-17.944-40-40-40     h-16c-13.232,0-24-10.768-24-24s10.768-24,24-24h16c13.232,0,24,10.768,24,24v8h16v-8C424,193.944,406.056,176,384,176z"/>
			<path d="M247.8,155.92l13.048,13.048l11.312-11.312l-33.936-33.936l-33.944,33.936l11.312,11.312l16.376-16.368     C231.64,183.2,206.68,208,176,208c-16.064,0-31.376-6.92-42.016-18.976l-12,10.584C135.664,215.112,155.344,224,176,224     C214.376,224,245.744,193.792,247.8,155.92z"/>
			<path d="M136.4,135.032L120.024,151.4C120.36,120.8,145.32,96,176,96c17.08,0,33.016,7.656,43.72,21l12.488-10.008     C218.448,89.84,197.96,80,176,80c-38.376,0-69.744,30.208-71.8,68.08l-13.048-13.048L79.84,146.344l33.936,33.936l33.944-33.936     L136.4,135.032z"/>
			<rect x="168" y="272" width="16" height="16"/>
			<rect x="168" y="240" width="16" height="16"/>
		</g>
	</g>
</g>
<g>
</g>
<g>
</g>
<g>
</g>
<g>
</g>
<g>
</g>
<g>
</g>
<g>
</g>
<g>
</g>
<g>
</g>
<g>
</g>
<g>
</g>
<g>
</g>
<g>
</g>
<g>
</g>
<g>
</g>
</svg>
