<?xml version="1.0" encoding="iso-8859-1"?>
<!-- Generator: Adobe Illustrator 19.0.0, SVG Export Plug-In . SVG Version: 6.00 Build 0)  -->
<svg version="1.1" id="Capa_1" xmlns="http://www.w3.org/2000/svg" xmlns:xlink="http://www.w3.org/1999/xlink" x="0px" y="0px"
	 viewBox="0 0 512 512" style="enable-background:new 0 0 512 512;" xml:space="preserve">
<g>
	<g>
		<path d="M106.667,128C55.296,128,0,141.355,0,170.667c0,0.491,0.128,0.939,0.171,1.408c0,0.384-0.149,0.747-0.085,1.152
			l21.333,180.011c0.149,1.28,0.533,2.496,1.109,3.648C30.891,373.099,64.704,384,106.667,384c34.517,0,74.795-7.211,84.331-27.456
			c0.491-1.045,0.811-2.176,0.939-3.285l20.757-177.216c0.405-1.749,0.64-3.52,0.64-5.376C213.333,141.355,158.037,128,106.667,128z
			 M81.045,341.312c-0.235,0.021-0.491,0.021-0.725,0.021c-5.568,0-10.261-4.309-10.645-9.963L64,246.037
			c-0.384-5.867,4.053-10.965,9.941-11.349c5.76-0.32,10.965,4.053,11.349,9.941l5.675,85.333
			C91.371,335.829,86.912,340.907,81.045,341.312z M149.291,246.101l-5.995,85.312c-0.384,5.632-5.077,9.92-10.624,9.92
			c-0.256,0-0.491,0-0.768-0.021c-5.867-0.427-10.304-5.525-9.877-11.392l5.995-85.333c0.405-5.888,5.44-10.304,11.392-9.877
			C145.28,235.115,149.717,240.213,149.291,246.101z M191.829,170.731l-0.043,0.32c-1.131,5.76-30.229,20.949-85.12,20.949
			c-56,0-85.333-15.851-85.333-21.333s29.333-21.333,85.333-21.333c55.488,0,84.715,15.531,85.227,21.163
			C191.893,170.581,191.829,170.645,191.829,170.731z"/>
	</g>
</g>
<g>
	<g>
		<path d="M405.333,128c-51.371,0-106.667,13.355-106.667,42.667c0,0.491,0.128,0.939,0.171,1.408c0,0.384-0.149,0.747-0.085,1.152
			l21.333,180.011c0.149,1.28,0.533,2.496,1.109,3.648C329.557,373.099,363.371,384,405.333,384
			c34.517,0,74.795-7.211,84.331-27.456c0.491-1.045,0.811-2.176,0.939-3.285l20.757-177.216c0.405-1.749,0.64-3.52,0.64-5.376
			C512,141.355,456.704,128,405.333,128z M379.712,341.312c-0.235,0.021-0.491,0.021-0.725,0.021
			c-5.568,0-10.261-4.309-10.645-9.963l-5.675-85.333c-0.384-5.867,4.053-10.965,9.941-11.349c5.76-0.32,10.965,4.053,11.349,9.941
			l5.675,85.333C390.037,335.829,385.579,340.907,379.712,341.312z M447.957,246.101l-5.995,85.312
			c-0.384,5.632-5.077,9.92-10.624,9.92c-0.256,0-0.491,0-0.768-0.021c-5.867-0.427-10.304-5.525-9.877-11.392l5.995-85.333
			c0.405-5.888,5.44-10.304,11.392-9.877C443.947,235.115,448.384,240.213,447.957,246.101z M490.496,170.731l-0.043,0.32
			c-1.131,5.76-30.229,20.949-85.12,20.949c-56,0-85.333-15.851-85.333-21.333s29.333-21.333,85.333-21.333
			c55.488,0,84.715,15.531,85.227,21.163C490.56,170.581,490.496,170.645,490.496,170.731z"/>
	</g>
</g>
<g>
</g>
<g>
</g>
<g>
</g>
<g>
</g>
<g>
</g>
<g>
</g>
<g>
</g>
<g>
</g>
<g>
</g>
<g>
</g>
<g>
</g>
<g>
</g>
<g>
</g>
<g>
</g>
<g>
</g>
</svg>
