<?xml version="1.0" encoding="iso-8859-1"?>
<!-- Generator: Adobe Illustrator 19.0.0, SVG Export Plug-In . SVG Version: 6.00 Build 0)  -->
<svg version="1.1" id="Capa_1" xmlns="http://www.w3.org/2000/svg" xmlns:xlink="http://www.w3.org/1999/xlink" x="0px" y="0px"
	 viewBox="0 0 511.979 511.979" style="enable-background:new 0 0 511.979 511.979;" xml:space="preserve">
<g>
	<g>
		<path d="M490.336,5.653c-15.147-11.2-40.021-3.52-77.696,8.128c-39.659,12.245-93.995,29.035-156.672,29.035
			c-62.635,0-116.928-16.853-156.565-29.163C61.771,1.963,36.917-5.739,21.707,5.44c-7.339,5.419-11.051,14.4-11.051,26.709
			c0,43.989,70.421,93.739,170.667,111.019v38.144v21.333c0,25.771,18.347,47.296,42.667,52.267v225.067c0,17.643,14.357,32,32,32
			c17.643,0,32-14.357,32-32V254.912c24.32-4.949,42.667-26.496,42.667-52.267v-21.333v-38.165
			c100.245-17.28,170.667-67.029,170.667-110.997C501.323,19.947,497.632,11.029,490.336,5.653z M223.989,170.645h-21.333v-24.427
			c6.976,0.853,14.123,1.472,21.333,1.984V170.645z M266.656,170.645h-21.333v-21.461c3.563,0.085,7.061,0.299,10.667,0.299
			c3.605,0,7.104-0.213,10.667-0.299V170.645z M309.323,170.645h-21.333v-22.443c7.211-0.512,14.357-1.152,21.333-1.984V170.645z"/>
	</g>
</g>
<g>
</g>
<g>
</g>
<g>
</g>
<g>
</g>
<g>
</g>
<g>
</g>
<g>
</g>
<g>
</g>
<g>
</g>
<g>
</g>
<g>
</g>
<g>
</g>
<g>
</g>
<g>
</g>
<g>
</g>
</svg>
