<?xml version="1.0" encoding="iso-8859-1"?>
<!-- Generator: Adobe Illustrator 19.0.0, SVG Export Plug-In . SVG Version: 6.00 Build 0)  -->
<svg version="1.1" id="Capa_1" xmlns="http://www.w3.org/2000/svg" xmlns:xlink="http://www.w3.org/1999/xlink" x="0px" y="0px"
	 viewBox="0 0 512 512" style="enable-background:new 0 0 512 512;" xml:space="preserve">
<g>
	<g>
		<path d="M365.952,0H149.333C119.936,0,96,23.936,96,53.333v149.333c0,5.888,4.779,10.667,10.667,10.667h32v288
			c0,3.947,2.176,7.552,5.632,9.387c3.456,1.877,7.68,1.643,10.944-0.512l26.091-17.387l26.091,17.387
			c3.584,2.368,8.256,2.368,11.84,0l26.069-17.387l26.091,17.387c3.584,2.368,8.256,2.368,11.84,0l26.069-17.387l26.091,17.387
			c3.584,2.368,8.256,2.368,11.84,0l26.069-17.387l26.091,17.387c1.792,1.195,3.84,1.792,5.909,1.792
			c1.728,0,3.456-0.427,5.035-1.28c3.456-1.835,5.632-5.44,5.632-9.387v-448C416,23.936,393.536,0,365.952,0z M138.667,192h-21.333
			V53.333c0-9.472,4.139-17.984,10.688-23.851c6.741,6.016,10.645,14.592,10.645,23.851V192z M362.667,426.667h-64
			c-5.888,0-10.667-4.779-10.667-10.667c0-5.888,4.779-10.667,10.667-10.667h64c5.888,0,10.667,4.779,10.667,10.667
			C373.333,421.888,368.555,426.667,362.667,426.667z M309.333,341.333c0-7.808,4.416-14.336,10.667-18.048V320
			c0-5.888,4.779-10.667,10.667-10.667s10.667,4.779,10.667,10.667c5.888,0,10.667,4.779,10.667,10.667s-4.779,10.667-10.667,10.667
			v3.285c6.251,3.712,10.667,10.24,10.667,18.048s-4.416,14.336-10.667,18.048V384c0,5.888-4.779,10.667-10.667,10.667
			S320,389.888,320,384c-5.888,0-10.667-4.779-10.667-10.667c0-5.888,4.779-10.667,10.667-10.667v-3.285
			C313.749,355.669,309.333,349.141,309.333,341.333z M362.667,256H192c-5.888,0-10.667-4.779-10.667-10.667
			s4.779-10.667,10.667-10.667h170.667c5.888,0,10.667,4.779,10.667,10.667S368.555,256,362.667,256z M362.667,192H192
			c-5.888,0-10.667-4.779-10.667-10.667s4.779-10.667,10.667-10.667h170.667c5.888,0,10.667,4.779,10.667,10.667
			S368.555,192,362.667,192z M362.667,128H192c-5.888,0-10.667-4.779-10.667-10.667s4.779-10.667,10.667-10.667h170.667
			c5.888,0,10.667,4.779,10.667,10.667S368.555,128,362.667,128z"/>
	</g>
</g>
<g>
</g>
<g>
</g>
<g>
</g>
<g>
</g>
<g>
</g>
<g>
</g>
<g>
</g>
<g>
</g>
<g>
</g>
<g>
</g>
<g>
</g>
<g>
</g>
<g>
</g>
<g>
</g>
<g>
</g>
</svg>
