<?xml version="1.0" encoding="iso-8859-1"?>
<!-- Generator: Adobe Illustrator 19.0.0, SVG Export Plug-In . SVG Version: 6.00 Build 0)  -->
<svg version="1.1" id="Capa_1" xmlns="http://www.w3.org/2000/svg" xmlns:xlink="http://www.w3.org/1999/xlink" x="0px" y="0px"
	 viewBox="0 0 490.667 490.667" style="enable-background:new 0 0 490.667 490.667;" xml:space="preserve">
<g>
	<g>
		<path d="M201.621,64.056c-0.043,0-0.085,0-0.128,0l-192,21.333C4.075,85.986,0,90.552,0,95.992v320
			c0,3.051,1.301,5.909,3.563,7.957c2.261,2.027,5.333,2.965,8.299,2.645l190.805-21.269c9.728,0,29.632,7.424,32,10.667V72.162
			C222.613,66.701,208.64,64.056,201.621,64.056z M174.784,351.16c-1.344,0.555-2.752,0.832-4.117,0.832
			c-4.16,0-8.128-2.453-9.835-6.549L114.24,234.168c-1.621,0.213-3.264,0.491-4.885,0.491c-5.504,0-10.859-1.195-15.787-3.584
			c-9.92-4.8-17.877-14.272-23.061-27.392c-11.029-27.925-8.043-65.067,13.824-73.728c21.995-8.683,49.472,16.448,60.501,44.373
			c5.184,13.12,5.824,25.472,1.856,35.755c-2.496,6.485-6.955,11.925-12.672,16.149l46.464,110.955
			C182.784,342.648,180.224,348.877,174.784,351.16z"/>
	</g>
</g>
<g>
	<g>
		<path d="M481.195,85.389L288,63.992c-6.336,0-20.053,2.603-32,8.064v344.896c3.499-4.608,22.507-11.627,30.805-11.691l192,21.333
			c3.051,0.384,6.037-0.619,8.299-2.645c2.261-2.048,3.563-4.907,3.563-7.957v-320C490.667,90.552,486.592,85.986,481.195,85.389z
			 M405.483,154.125c0.96-5.824,6.4-9.835,12.267-8.768c9.408,1.557,17.173,3.051,22.165,4.288
			c5.717,1.429,9.195,7.211,7.765,12.928c-1.195,4.843-5.547,8.085-10.347,8.085c-0.853,0-1.707-0.107-2.581-0.32
			c-4.629-1.152-11.797-2.496-20.501-3.947C408.448,165.432,404.523,159.949,405.483,154.125z M405.483,218.125
			c0.96-5.824,6.4-9.813,12.267-8.768c9.408,1.557,17.173,3.051,22.165,4.288c5.717,1.429,9.195,7.211,7.765,12.928
			c-1.195,4.843-5.547,8.085-10.347,8.085c-0.853,0-1.707-0.107-2.581-0.32c-4.629-1.152-11.797-2.496-20.501-3.947
			C408.448,229.432,404.523,223.949,405.483,218.125z M289.259,128.056c0,0,44.203,5.205,85.504,10.901
			c5.824,0.811,9.92,6.187,9.109,12.011c-0.725,5.333-5.312,9.216-10.539,9.216c-0.491,0-0.981-0.021-1.472-0.107
			c-41.088-5.653-85.077-10.837-85.077-10.837L289.259,128.056z M289.259,192.056c0,0,44.203,5.205,85.504,10.901
			c5.824,0.811,9.92,6.187,9.109,12.011c-0.725,5.333-5.312,9.216-10.539,9.216c-0.491,0-0.981-0.021-1.472-0.107
			c-41.088-5.653-85.077-10.837-85.077-10.837L289.259,192.056z M383.915,342.968c-0.747,5.355-5.333,9.237-10.56,9.237
			c-0.491,0-0.981-0.043-1.472-0.107c-41.088-5.675-85.077-10.837-85.12-10.837c-5.845-0.704-10.027-5.995-9.344-11.861
			c0.661-5.824,5.803-10.24,11.84-9.344c0,0,44.224,5.184,85.547,10.901C380.629,331.746,384.725,337.144,383.915,342.968z
			 M383.915,278.989c-0.747,5.333-5.333,9.216-10.56,9.216c-0.491,0-0.981-0.043-1.472-0.107
			c-41.088-5.675-85.077-10.837-85.12-10.837c-5.845-0.683-10.027-5.995-9.344-11.84c0.661-5.845,5.803-10.069,11.84-9.344
			c0,0,44.224,5.205,85.547,10.901C380.629,267.789,384.725,273.165,383.915,278.989z M447.68,354.594
			c-1.216,4.843-5.547,8.064-10.347,8.064c-0.853,0-1.728-0.107-2.603-0.32c-4.629-1.173-11.797-2.496-20.523-3.968
			c-5.781-0.981-9.728-6.485-8.747-12.288c0.981-5.803,6.443-9.771,12.288-8.747c9.429,1.579,17.195,3.051,22.187,4.288
			C445.653,343.074,449.109,348.877,447.68,354.594z M447.68,290.594c-1.216,4.843-5.547,8.064-10.347,8.064
			c-0.853,0-1.728-0.107-2.603-0.32c-4.629-1.173-11.797-2.496-20.501-3.968c-5.803-0.981-9.728-6.485-8.747-12.288
			c1.003-5.824,6.656-9.643,12.288-8.747c9.408,1.579,17.173,3.051,22.165,4.288C445.653,279.074,449.109,284.877,447.68,290.594z"
			/>
	</g>
</g>
<g>
</g>
<g>
</g>
<g>
</g>
<g>
</g>
<g>
</g>
<g>
</g>
<g>
</g>
<g>
</g>
<g>
</g>
<g>
</g>
<g>
</g>
<g>
</g>
<g>
</g>
<g>
</g>
<g>
</g>
</svg>
