<?xml version="1.0" encoding="iso-8859-1"?>
<!-- Generator: Adobe Illustrator 19.0.0, SVG Export Plug-In . SVG Version: 6.00 Build 0)  -->
<svg version="1.1" id="Capa_1" xmlns="http://www.w3.org/2000/svg" xmlns:xlink="http://www.w3.org/1999/xlink" x="0px" y="0px"
	 viewBox="0 0 512 512" style="enable-background:new 0 0 512 512;" xml:space="preserve">
<g>
	<g>
		<path d="M294.229,332.928c-15.061-8.789-36.053-21.035-44.821-63.317c-6.165,10.453-13.184,20.544-19.819,30.101
			c-13.227,19.029-26.923,38.72-26.923,52.288c0,21.867,13.248,40.64,32.085,48.875c0.512-19.477,25.835-45.632,38.421-35.968
			c4.309,3.328,15.509,12.715,21.504,23.595c9.024-9.579,14.656-22.357,14.656-36.501
			C309.333,342.208,305.707,339.627,294.229,332.928z"/>
	</g>
</g>
<g>
	<g>
		<path d="M320,149.333H192c-29.397,0-53.333,23.936-53.333,53.333V480c0,29.696,89.813,32,117.333,32
			c27.52,0,117.333-2.304,117.333-32V202.667C373.333,173.269,349.419,149.333,320,149.333z M294.485,415.659
			c-4.16,5.995-12.16,11.008-27.819,11.008c-2.283,0-4.181-0.256-6.144-0.448c-1.536,0.085-2.965,0.448-4.523,0.448
			c-41.173,0-74.667-33.493-74.667-74.667c0-20.245,14.933-41.728,30.741-64.448c15.061-21.653,30.613-44.032,33.344-64.917
			c0.725-5.568,5.824-9.493,11.264-9.28c5.611,0.363,9.984,5.013,9.984,10.645c0,68.139,21.248,80.533,38.315,90.517
			c12.032,7.019,25.685,14.976,25.685,37.483C330.667,379.029,316.075,402.539,294.485,415.659z"/>
	</g>
</g>
<g>
	<g>
		<path d="M310.656,90.005c-2.091-0.875-4.267-1.771-6.4-3.072C290.731,78.549,288,51.541,288,10.667C288,4.779,283.221,0,277.333,0
			h-42.667C228.779,0,224,4.779,224,10.667c0,42.005-2.667,67.947-16.235,76.224c-2.112,1.28-4.267,2.219-6.336,3.115
			c-8,3.499-20.096,8.789-20.096,27.328V128h149.333v-10.667C330.667,98.453,318.144,93.163,310.656,90.005z"/>
	</g>
</g>
<g>
</g>
<g>
</g>
<g>
</g>
<g>
</g>
<g>
</g>
<g>
</g>
<g>
</g>
<g>
</g>
<g>
</g>
<g>
</g>
<g>
</g>
<g>
</g>
<g>
</g>
<g>
</g>
<g>
</g>
</svg>
