<?xml version="1.0" encoding="iso-8859-1"?>
<!-- Generator: Adobe Illustrator 19.0.0, SVG Export Plug-In . SVG Version: 6.00 Build 0)  -->
<svg version="1.1" id="Capa_1" xmlns="http://www.w3.org/2000/svg" xmlns:xlink="http://www.w3.org/1999/xlink" x="0px" y="0px"
	 viewBox="0 0 512 512" style="enable-background:new 0 0 512 512;" xml:space="preserve">
<g>
	<g>
		<path d="M347.904,332.907c-2.581-2.027-5.973-2.731-9.152-1.92c-0.427,0.107-41.877,10.347-82.752,10.347
			c-39.531,0-82.389-10.261-82.816-10.368c-3.179-0.704-6.528-0.021-9.109,2.005c-2.581,2.027-4.075,5.099-4.075,8.363v160
			c0,5.888,4.779,10.667,10.667,10.667h170.667c5.888,0,10.667-4.779,10.667-10.667v-160
			C352,338.048,350.485,334.933,347.904,332.907z M213.333,490.667c-5.888,0-10.667-4.779-10.667-10.667
			c0-5.888,4.779-10.667,10.667-10.667S224,474.112,224,480C224,485.888,219.221,490.667,213.333,490.667z M213.333,448
			c-5.888,0-10.667-4.779-10.667-10.667c0-5.888,4.779-10.667,10.667-10.667S224,431.445,224,437.333
			C224,443.221,219.221,448,213.333,448z M213.333,405.333c-5.888,0-10.667-4.779-10.667-10.667S207.445,384,213.333,384
			S224,388.779,224,394.667S219.221,405.333,213.333,405.333z M298.667,490.667c-5.888,0-10.667-4.779-10.667-10.667
			c0-5.888,4.779-10.667,10.667-10.667s10.667,4.779,10.667,10.667C309.333,485.888,304.555,490.667,298.667,490.667z M298.667,448
			c-5.888,0-10.667-4.779-10.667-10.667c0-5.888,4.779-10.667,10.667-10.667s10.667,4.779,10.667,10.667
			C309.333,443.221,304.555,448,298.667,448z M298.667,405.333c-5.888,0-10.667-4.779-10.667-10.667S292.779,384,298.667,384
			s10.667,4.779,10.667,10.667S304.555,405.333,298.667,405.333z"/>
	</g>
</g>
<g>
	<g>
		<path d="M309.333,284.992v-13.717c0-1.195-0.32-2.304-0.683-3.371c12.821-15.381,22.016-34.773,22.016-54.571
			c0-20.821-7.851-39.253-21.419-52.843c0-0.171,0.085-0.32,0.085-0.491v-54.421C333.653,100.629,352,79.083,352,53.333
			C352,23.936,328.085,0,298.667,0C281.237,0,265.749,8.405,256,21.355C246.251,8.405,230.763,0,213.333,0
			C183.936,0,160,23.936,160,53.333c0,25.749,18.347,47.296,42.667,52.245V160c0,0.171,0.085,0.32,0.085,0.491
			c-13.568,13.589-21.419,32.021-21.419,52.843c0,19.797,9.195,39.189,22.016,54.592c-0.363,1.067-0.683,2.176-0.683,3.371v13.653
			c-40.811,8.213-85.333,22.507-85.333,45.739v170.667c0,5.867,4.779,10.645,10.667,10.645s10.667-4.779,10.667-10.667
			l-0.128-169.899c2.645-5.973,30.763-18.752,76.715-27.179c5.077-0.939,8.747-5.355,8.747-10.496v-6.933
			c10.624,7.211,21.824,11.84,32,11.84c10.176,0,21.376-4.629,32-11.861v6.933c0,5.099,3.627,9.493,8.64,10.475
			c48.853,9.408,74.325,21.568,76.693,26.432v170.667c0,5.888,4.779,10.667,10.667,10.667c5.888,0,10.667-4.779,10.667-10.667
			V330.645C394.667,323.669,394.667,302.784,309.333,284.992z M256,277.333c-19.584,0-53.333-31.616-53.333-64
			c0-17.28,6.997-31.637,19.285-41.429c8.491,1.003,21.12,2.155,34.048,2.155c12.8,0,25.515-1.173,34.048-2.155
			c12.288,9.771,19.285,24.171,19.285,41.429C309.333,245.717,275.584,277.333,256,277.333z"/>
	</g>
</g>
<g>
	<g>
		<path d="M277.333,234.667c-4.181,0-10.709-4.523-13.781-7.552C261.547,225.131,258.816,224,256,224
			c-3.136-0.491-5.632,1.152-7.637,3.221c-2.539,2.581-9.152,7.445-13.696,7.445c-5.888,0-10.667,4.779-10.667,10.667
			S228.779,256,234.667,256c8.405,0,16.021-3.904,21.376-7.595c5.376,3.669,13.035,7.595,21.291,7.595
			c5.888,0,10.667-4.779,10.667-10.667S283.221,234.667,277.333,234.667z"/>
	</g>
</g>
<g>
</g>
<g>
</g>
<g>
</g>
<g>
</g>
<g>
</g>
<g>
</g>
<g>
</g>
<g>
</g>
<g>
</g>
<g>
</g>
<g>
</g>
<g>
</g>
<g>
</g>
<g>
</g>
<g>
</g>
</svg>
