<?xml version="1.0" encoding="iso-8859-1"?>
<!-- Generator: Adobe Illustrator 19.0.0, SVG Export Plug-In . SVG Version: 6.00 Build 0)  -->
<svg xmlns="http://www.w3.org/2000/svg" xmlns:xlink="http://www.w3.org/1999/xlink" version="1.1" id="Capa_1" x="0px" y="0px" viewBox="0 0 512 512" style="enable-background:new 0 0 512 512;" xml:space="preserve">
<g>
	<g>
		<path d="M76,279.667c-24.813,0-45,20.187-45,45s20.187,45,45,45s45-20.187,45-45S100.813,279.667,76,279.667z M76,339.667    c-8.271,0-15-6.729-15-15s6.729-15,15-15s15,6.729,15,15S84.271,339.667,76,339.667z"/>
	</g>
</g>
<g>
	<g>
		<path d="M256,279.667c-24.813,0-45,20.187-45,45s20.187,45,45,45s45-20.187,45-45S280.813,279.667,256,279.667z M256,339.667    c-8.271,0-15-6.729-15-15s6.729-15,15-15s15,6.729,15,15S264.271,339.667,256,339.667z"/>
	</g>
</g>
<g>
	<g>
		<rect x="151" y="274.67" width="30" height="100"/>
	</g>
</g>
<g>
	<g>
		<path d="M436,279.667c-24.813,0-45,20.187-45,45s20.187,45,45,45s45-20.187,45-45S460.813,279.667,436,279.667z M436,339.667    c-8.271,0-15-6.729-15-15s6.729-15,15-15s15,6.729,15,15S444.271,339.667,436,339.667z"/>
	</g>
</g>
<g>
	<g>
		<rect x="331" y="274.67" width="30" height="100"/>
	</g>
</g>
<g>
	<g>
		<path d="M166,5c-24.813,0-45,20.187-45,45s20.187,45,45,45s45-20.187,45-45S190.813,5,166,5z M166,65c-8.271,0-15-6.729-15-15    s6.729-15,15-15s15,6.729,15,15S174.271,65,166,65z"/>
	</g>
</g>
<g>
	<g>
		<path d="M346,5c-24.813,0-45,20.187-45,45s20.187,45,45,45s45-20.187,45-45S370.813,5,346,5z M346,65c-8.271,0-15-6.729-15-15    s6.729-15,15-15s15,6.729,15,15S354.271,65,346,65z"/>
	</g>
</g>
<g>
	<g>
		<rect x="241" width="30" height="100"/>
	</g>
</g>
<g>
	<g>
		<path d="M166,417c-24.813,0-45,20.187-45,45s20.187,45,45,45s45-20.187,45-45S190.813,417,166,417z M166,477    c-8.271,0-15-6.729-15-15s6.729-15,15-15s15,6.729,15,15S174.271,477,166,477z"/>
	</g>
</g>
<g>
	<g>
		<path d="M346,417c-24.813,0-45,20.187-45,45s20.187,45,45,45s45-20.187,45-45S370.813,417,346,417z M346,477    c-8.271,0-15-6.729-15-15s6.729-15,15-15s15,6.729,15,15S354.271,477,346,477z"/>
	</g>
</g>
<g>
	<g>
		<rect x="241" y="412" width="30" height="100"/>
	</g>
</g>
<g>
	<g>
		<path d="M76,142.333c-24.813,0-45,20.187-45,45c0,24.813,20.187,45,45,45s45-20.187,45-45C121,162.52,100.813,142.333,76,142.333z     M76,202.333c-8.271,0-15-6.729-15-15s6.729-15,15-15s15,6.729,15,15S84.271,202.333,76,202.333z"/>
	</g>
</g>
<g>
	<g>
		<path d="M256,142.333c-24.813,0-45,20.187-45,45c0,24.813,20.187,45,45,45s45-20.187,45-45    C301,162.52,280.813,142.333,256,142.333z M256,202.333c-8.271,0-15-6.729-15-15s6.729-15,15-15s15,6.729,15,15    S264.271,202.333,256,202.333z"/>
	</g>
</g>
<g>
	<g>
		<rect x="151" y="137.33" width="30" height="100"/>
	</g>
</g>
<g>
	<g>
		<path d="M436,142.333c-24.813,0-45,20.187-45,45c0,24.813,20.187,45,45,45s45-20.187,45-45    C481,162.52,460.813,142.333,436,142.333z M436,202.333c-8.271,0-15-6.729-15-15s6.729-15,15-15s15,6.729,15,15    S444.271,202.333,436,202.333z"/>
	</g>
</g>
<g>
	<g>
		<rect x="331" y="137.33" width="30" height="100"/>
	</g>
</g>
<g>
</g>
<g>
</g>
<g>
</g>
<g>
</g>
<g>
</g>
<g>
</g>
<g>
</g>
<g>
</g>
<g>
</g>
<g>
</g>
<g>
</g>
<g>
</g>
<g>
</g>
<g>
</g>
<g>
</g>
</svg>
