<?xml version="1.0" encoding="iso-8859-1"?>
<!-- Generator: Adobe Illustrator 19.0.0, SVG Export Plug-In . SVG Version: 6.00 Build 0)  -->
<svg xmlns="http://www.w3.org/2000/svg" xmlns:xlink="http://www.w3.org/1999/xlink" version="1.1" id="Capa_1" x="0px" y="0px" viewBox="0 0 512 512" style="enable-background:new 0 0 512 512;" xml:space="preserve">
<g>
	<g>
		<path d="M512,351V237c0-52.935-43.065-96-96-96H282.285C274.71,61.994,207.958,0,127,0c-23.205,0-45.542,4.978-66.391,14.795    L52,18.85v30.937l-52,52v83.368l81-20V422H0v30h63.58c-1.665,4.695-2.58,9.742-2.58,15c0,24.813,20.187,45,45,45s45-20.187,45-45    c0-5.258-0.915-10.305-2.58-15h235.16c-1.665,4.695-2.58,9.742-2.58,15c0,24.813,20.187,45,45,45s45-20.187,45-45    c0-5.258-0.915-10.305-2.58-15H512v-30h-60v-71H512z M106,482c-8.271,0-15-6.729-15-15s6.729-15,15-15s15,6.729,15,15    S114.271,482,106,482z M154.25,422l24.08-122h176.342l24.078,122H154.25z M379.329,270H153.671l-30,152H111V126.846l-81,20    v-32.632l52-52v-23.95C96.313,32.776,111.409,30,127,30c69.477,0,126,56.523,126,126v15h124c24.813,0,45,20.187,45,45v206h-12.671    L379.329,270z M426,482c-8.271,0-15-6.729-15-15s6.729-15,15-15s15,6.729,15,15S434.271,482,426,482z M440.132,175.589    C464.619,185.246,482,209.124,482,237v84h-30V216C452,201.126,447.63,187.262,440.132,175.589z"/>
	</g>
</g>
<g>
</g>
<g>
</g>
<g>
</g>
<g>
</g>
<g>
</g>
<g>
</g>
<g>
</g>
<g>
</g>
<g>
</g>
<g>
</g>
<g>
</g>
<g>
</g>
<g>
</g>
<g>
</g>
<g>
</g>
</svg>
