<?xml version="1.0" encoding="iso-8859-1"?>
<!-- Generator: Adobe Illustrator 19.0.0, SVG Export Plug-In . SVG Version: 6.00 Build 0)  -->
<svg xmlns="http://www.w3.org/2000/svg" xmlns:xlink="http://www.w3.org/1999/xlink" version="1.1" id="Capa_1" x="0px" y="0px" viewBox="0 0 512 512" style="enable-background:new 0 0 512 512;" xml:space="preserve">
<g>
	<g>
		<path d="M512,391V31H0v360h211v60h-35v30h160v-30h-35v-60H512z M469.885,61H482v15.426c-3.895-0.75-7.486-3.025-9.788-6.625    C470.472,67.08,469.736,64.004,469.885,61z M35.233,360.917L35.102,361H30v-27.359c4.1,0.821,7.728,3.264,9.79,6.556    C44.182,347.207,42.202,356.46,35.233,360.917z M30,303.34V61h409.874c-0.048,2.74,0.15,5.493,0.608,8.225l-30.675,19.617    c-15.162-11.284-35.788-11-50.626-1.703c-0.12,0.075-17.212,11.003-17.212,11.003c-15.651,10.009-23.019,28.155-20.124,45.416    l-30.675,19.616c-15.161-11.284-35.788-11-50.626-1.702c-0.12,0.075-17.212,11.003-17.212,11.003    c-16.877,10.793-24.117,31.046-19.249,49.45l-28.412,18.169c-15.346-13.858-37.872-14.246-53.763-4.289    c-0.12,0.075-17.212,11.003-17.212,11.003c-16.877,10.793-24.117,31.046-19.249,49.449l-28.412,18.169    C49.265,307.41,39.656,303.854,30,303.34z M391.142,137.917l-16.848,10.774c-0.04,0.025-0.079,0.05-0.119,0.074    c-6.955,4.358-16.169,2.299-20.6-4.63c-4.455-6.968-2.411-16.262,4.555-20.719l16.85-10.774    c7.665-4.803,16.885-1.562,20.718,4.555C400.091,124.207,398.111,133.46,391.142,137.917z M272.506,212.25l-16.848,10.774    c-0.04,0.025-0.079,0.05-0.119,0.075c-6.954,4.357-16.169,2.298-20.6-4.631c-4.455-6.968-2.411-16.262,4.556-20.718l16.85-10.774    c7.665-4.803,16.885-1.562,20.718,4.555C281.455,198.54,279.475,207.793,272.506,212.25z M153.87,286.583l-16.848,10.774    c-0.04,0.025-0.079,0.049-0.119,0.074c-6.955,4.357-16.169,2.298-20.6-4.63c-4.455-6.968-2.411-16.263,4.556-20.719l16.85-10.774    c7.665-4.802,16.885-1.562,20.718,4.555C162.818,272.873,160.839,282.126,153.87,286.583z M271,451h-30v-60h30V451z M70.324,361    c1.919-6.323,2.509-13.218,1.266-20.271l30.795-19.693c14.445,10.536,34.435,11.85,50.443,1.82    c0.118-0.074,0.238-0.149,0.355-0.225l16.848-10.774c13.616-8.532,23.546-26.431,20.195-45.461l30.795-19.692    c14.445,10.536,34.435,11.85,50.443,1.82c0.118-0.074,0.238-0.149,0.355-0.225l16.848-10.774    c14.57-9.129,24.915-28.984,19.286-49.473l28.518-18.237c14.576,12.83,36.407,15.167,53.629,4.375    c0.118-0.074,0.238-0.149,0.355-0.225l16.848-10.774c14.57-9.129,24.914-28.983,19.286-49.473l28.518-18.237    c7.563,6.657,17.08,10.472,26.892,11.109V361H70.324z"/>
	</g>
</g>
<g>
</g>
<g>
</g>
<g>
</g>
<g>
</g>
<g>
</g>
<g>
</g>
<g>
</g>
<g>
</g>
<g>
</g>
<g>
</g>
<g>
</g>
<g>
</g>
<g>
</g>
<g>
</g>
<g>
</g>
</svg>
