<?xml version="1.0" encoding="iso-8859-1"?>
<!-- Generator: Adobe Illustrator 19.0.0, SVG Export Plug-In . SVG Version: 6.00 Build 0)  -->
<svg xmlns="http://www.w3.org/2000/svg" xmlns:xlink="http://www.w3.org/1999/xlink" version="1.1" id="Capa_1" x="0px" y="0px" viewBox="0 0 512 512" style="enable-background:new 0 0 512 512;" xml:space="preserve">
<g>
	<g>
		<path d="M312,226c0-24.813-20.187-45-45-45h-56v150h56c24.813,0,45-20.187,45-45c0-11.517-4.354-22.032-11.495-30    C307.647,248.032,312,237.517,312,226z M267,301h-26v-30h26c8.271,0,15,6.729,15,15S275.271,301,267,301z M267,241h-26v-30h26    c8.271,0,15,6.729,15,15S275.271,241,267,241z"/>
	</g>
</g>
<g>
	<g>
		<path d="M0,76v360h512V76H0z M482,106v48.233c-23.812-5.648-42.585-24.421-48.234-48.233H482z M30,106h48.234    C72.585,129.812,53.812,148.585,30,154.233V106z M30,406v-48.233c23.812,5.648,42.585,24.421,48.234,48.233H30z M482,406h-48.234    c5.649-23.812,24.422-42.585,48.234-48.233V406z M482.001,327.189c-40.394,6.434-72.378,38.418-78.813,78.811H108.812    c-6.435-40.393-38.418-72.377-78.812-78.812V184.812c40.393-6.435,72.377-38.418,78.812-78.812h294.377    c6.435,40.393,38.418,72.377,78.812,78.812V327.189z"/>
	</g>
</g>
<g>
	<g>
		<path d="M116,236c-11.028,0-20,8.972-20,20s8.972,20,20,20s20-8.972,20-20S127.028,236,116,236z"/>
	</g>
</g>
<g>
	<g>
		<path d="M396,236c-11.028,0-20,8.972-20,20s8.972,20,20,20s20-8.972,20-20S407.028,236,396,236z"/>
	</g>
</g>
<g>
</g>
<g>
</g>
<g>
</g>
<g>
</g>
<g>
</g>
<g>
</g>
<g>
</g>
<g>
</g>
<g>
</g>
<g>
</g>
<g>
</g>
<g>
</g>
<g>
</g>
<g>
</g>
<g>
</g>
</svg>
