<?xml version="1.0" encoding="iso-8859-1"?>
<!-- Generator: Adobe Illustrator 19.0.0, SVG Export Plug-In . SVG Version: 6.00 Build 0)  -->
<svg xmlns="http://www.w3.org/2000/svg" xmlns:xlink="http://www.w3.org/1999/xlink" version="1.1" id="Capa_1" x="0px" y="0px" viewBox="0 0 512 512" style="enable-background:new 0 0 512 512;" xml:space="preserve">
<g>
	<g>
		<path d="M482,387c0-3.086-0.313-6.1-0.908-9.013C500.792,341.721,512,300.174,512,256C512,114.615,397.385,0,256,0    S0,114.615,0,256s114.615,256,256,256c37.81,0,73.7-8.207,106-22.923V512h150V402h-30V387z M362,455.63    C330.386,472.455,294.31,482,256,482C131.184,482,30,380.816,30,256S131.184,30,256,30s226,101.184,226,226    c0,33.341-7.233,64.988-20.198,93.477C454.685,344.758,446.16,342,437,342c-24.813,0-45,20.187-45,45v15h-30V455.63z M452,387v15    h-30v-15c0-8.271,6.729-15,15-15S452,378.729,452,387z M482,482h-90v-50h90V482z"/>
	</g>
</g>
<g>
	<g>
		<path d="M323.69,256c10.645-10.036,17.31-24.25,17.31-40c0-30.327-24.673-55-55-55h-15v-30h-30v30h-70v30h30v130h-30v30h70v30h30    v-30h15c30.327,0,55-24.673,55-55C341,280.25,334.335,266.036,323.69,256z M286,321h-55v-50h55c13.785,0,25,11.215,25,25    C311,309.785,299.785,321,286,321z M286,241h-55v-50h55c13.785,0,25,11.215,25,25C311,229.785,299.785,241,286,241z"/>
	</g>
</g>
<g>
</g>
<g>
</g>
<g>
</g>
<g>
</g>
<g>
</g>
<g>
</g>
<g>
</g>
<g>
</g>
<g>
</g>
<g>
</g>
<g>
</g>
<g>
</g>
<g>
</g>
<g>
</g>
<g>
</g>
</svg>
