<?xml version="1.0" encoding="iso-8859-1"?>
<!-- Generator: Adobe Illustrator 19.0.0, SVG Export Plug-In . SVG Version: 6.00 Build 0)  -->
<svg xmlns="http://www.w3.org/2000/svg" xmlns:xlink="http://www.w3.org/1999/xlink" version="1.1" id="Capa_1" x="0px" y="0px" viewBox="0 0 512 512" style="enable-background:new 0 0 512 512;" xml:space="preserve">
<g>
	<g>
		<path d="M256,120c-11.028,0-20,8.972-20,20s8.972,20,20,20s20-8.972,20-20S267.028,120,256,120z"/>
	</g>
</g>
<g>
	<g>
		<path d="M256,60c-44.112,0-80,35.888-80,80s35.888,80,80,80s80-35.888,80-80S300.112,60,256,60z M256,190c-27.57,0-50-22.43-50-50    s22.43-50,50-50s50,22.43,50,50S283.57,190,256,190z"/>
	</g>
</g>
<g>
	<g>
		<path d="M256,0c-77.196,0-140,62.804-140,140v142c0,61.461,39.811,113.798,95,132.581V482h-35v30h160v-30h-35v-67.419    c55.189-18.783,95-71.119,95-132.581V140C396,62.804,333.196,0,256,0z M271,482h-30v-60h30V482z M366,282    c0,60.654-49.346,110-110,110s-110-49.346-110-110V140c0-60.654,49.346-110,110-110s110,49.346,110,110V282z"/>
	</g>
</g>
<g>
</g>
<g>
</g>
<g>
</g>
<g>
</g>
<g>
</g>
<g>
</g>
<g>
</g>
<g>
</g>
<g>
</g>
<g>
</g>
<g>
</g>
<g>
</g>
<g>
</g>
<g>
</g>
<g>
</g>
</svg>
