<?xml version="1.0" encoding="iso-8859-1"?>
<!-- Generator: Adobe Illustrator 19.0.0, SVG Export Plug-In . SVG Version: 6.00 Build 0)  -->
<svg xmlns="http://www.w3.org/2000/svg" xmlns:xlink="http://www.w3.org/1999/xlink" version="1.1" id="Capa_1" x="0px" y="0px" viewBox="0 0 512 512" style="enable-background:new 0 0 512 512;" xml:space="preserve">
<g>
	<g>
		<path d="M0,31v360h211v60h-35v30h35h90h35v-30h-35v-60h31v30h150v-30h30V31H0z M271,451h-30v-60h30V451z M452,391h-90v-50h90V391z     M392,311v-15c0-8.271,6.729-15,15-15s15,6.729,15,15v15H392z M482,311h-30v-15c0-24.813-20.187-45-45-45s-45,20.187-45,45v15h-30    v50H30V61h452V311z"/>
	</g>
</g>
<g>
	<g>
		<path d="M316,226c-8.271,0-15-6.729-15-15c0-24.813-20.187-45-45-45s-45,20.187-45,45s20.187,45,45,45    c11.517,0,22.032-4.354,30-11.495c7.968,7.142,18.483,11.495,30,11.495c24.813,0,45-20.187,45-45c0-57.897-47.103-105-105-105    c-57.897,0-105,47.103-105,105c0,57.897,47.103,105,105,105c28.046,0,54.414-10.922,74.246-30.753l-21.213-21.214    C294.867,278.199,276.033,286,256,286c-41.355,0-75-33.645-75-75s33.645-75,75-75s75,33.645,75,75    C331,219.271,324.271,226,316,226z M256,226c-8.271,0-15-6.729-15-15s6.729-15,15-15s15,6.729,15,15S264.271,226,256,226z"/>
	</g>
</g>
<g>
</g>
<g>
</g>
<g>
</g>
<g>
</g>
<g>
</g>
<g>
</g>
<g>
</g>
<g>
</g>
<g>
</g>
<g>
</g>
<g>
</g>
<g>
</g>
<g>
</g>
<g>
</g>
<g>
</g>
</svg>
