<?xml version="1.0" encoding="iso-8859-1"?>
<!-- Generator: Adobe Illustrator 19.0.0, SVG Export Plug-In . SVG Version: 6.00 Build 0)  -->
<svg xmlns="http://www.w3.org/2000/svg" xmlns:xlink="http://www.w3.org/1999/xlink" version="1.1" id="Capa_1" x="0px" y="0px" viewBox="0 0 512.002 512.002" style="enable-background:new 0 0 512.002 512.002;" xml:space="preserve">
<g>
	<g>
		<path d="M256.001,0.003c-90.98,0-164.999,74.018-164.999,164.999c0,54.137,26.013,103.966,69.999,134.917V362h189.999v-62.081    C394.987,268.968,421,219.138,421,165.002C421,74.022,346.982,0.003,256.001,0.003z M327.989,279.218l-6.988,4.415V332h-25v-36    h-30v36h-20v-36h-30v36h-25v-48.368l-6.989-4.415c-39.456-24.926-63.011-67.624-63.011-114.216    c0-74.438,60.561-134.999,134.999-134.999S391,90.563,391,165.002C391,211.594,367.444,254.292,327.989,279.218z"/>
	</g>
</g>
<g>
	<g>
		<path d="M211.002,161.002c-16.542,0-30,13.458-30,30s13.458,30,30,30s30-13.458,30-30S227.544,161.002,211.002,161.002z"/>
	</g>
</g>
<g>
	<g>
		<path d="M301.001,161.002c-16.542,0-30,13.458-30,30s13.458,30,30,30s30-13.458,30-30S317.543,161.002,301.001,161.002z"/>
	</g>
</g>
<g>
	<g>
		<path d="M508.4,426.587c2.887-7.562,4.047-15.532,3.449-23.69c-1.981-27.046-23.875-48.868-50.927-50.759    c-24.525-1.714-46.622,12.93-55.166,34.863H106.246c-8.544-21.934-30.622-36.578-55.167-34.863    c-27.052,1.892-48.945,23.713-50.927,50.759c-0.598,8.158,0.563,16.129,3.449,23.69c1.333,3.491,1.333,7.336,0,10.826    c-2.887,7.562-4.047,15.533-3.45,23.691c1.981,27.046,23.875,48.868,50.927,50.759c1.307,0.091,2.605,0.137,3.896,0.136    c22.961-0.001,43.181-14.234,51.27-34.999h299.51c8.544,21.933,30.626,36.583,55.168,34.863    c27.051-1.892,48.944-23.713,50.926-50.759c0.598-8.158-0.563-16.128-3.449-23.69C507.067,433.923,507.067,430.078,508.4,426.587z     M480.372,448.111c1.307,3.425,1.831,7.059,1.557,10.801c-0.898,12.268-10.829,22.166-23.099,23.024    c-13.326,0.924-24.982-8.645-26.624-21.793L430.566,447H81.436l-1.64,13.143c-1.641,13.15-13.33,22.719-26.623,21.793    c-12.27-0.858-22.201-10.756-23.1-23.024c-0.274-3.742,0.25-7.375,1.558-10.801c3.965-10.389,3.965-21.833,0-32.223    c-1.307-3.425-1.831-7.059-1.557-10.8c0.899-12.268,10.83-22.166,23.1-23.024c0.597-0.042,1.189-0.062,1.779-0.062    c12.538,0,23.277,9.296,24.844,21.855L81.437,417h349.13l1.641-13.143c1.642-13.15,13.368-22.718,26.623-21.793    c12.271,0.858,22.201,10.756,23.1,23.024c0.274,3.742-0.25,7.376-1.557,10.801C476.407,426.279,476.407,437.722,480.372,448.111z"/>
	</g>
</g>
<g>
</g>
<g>
</g>
<g>
</g>
<g>
</g>
<g>
</g>
<g>
</g>
<g>
</g>
<g>
</g>
<g>
</g>
<g>
</g>
<g>
</g>
<g>
</g>
<g>
</g>
<g>
</g>
<g>
</g>
</svg>
