<?xml version="1.0" encoding="iso-8859-1"?>
<!-- Generator: Adobe Illustrator 19.0.0, SVG Export Plug-In . SVG Version: 6.00 Build 0)  -->
<svg xmlns="http://www.w3.org/2000/svg" xmlns:xlink="http://www.w3.org/1999/xlink" version="1.1" id="Capa_1" x="0px" y="0px" viewBox="0 0 512 512" style="enable-background:new 0 0 512 512;" xml:space="preserve">
<g>
	<g>
		<path d="M48.605,0v317.986c0,35.268,17.542,67.969,46.924,87.476L256.001,512l160.472-106.538    c29.382-19.507,46.923-52.208,46.923-87.476V0H48.605z M433.396,317.986c0,25.191-12.53,48.549-33.517,62.482L256,475.989    l-143.879-95.521c-20.987-13.934-33.517-37.292-33.517-62.482V30h354.792V317.986z"/>
	</g>
</g>
<g>
	<g>
		<polygon points="295.999,210.998 256,210.998 256,175.998 216,240.998 256,240.998 256,275.997   "/>
	</g>
</g>
<g>
	<g>
		<path d="M256,110.999c-63.41,0-114.999,51.589-114.999,114.999S192.589,340.997,256,340.997s114.999-51.588,114.999-114.999    S319.41,110.999,256,110.999z M256,310.997c-46.869,0-84.999-38.131-84.999-84.999s38.131-84.999,84.999-84.999    s84.999,38.131,84.999,84.999S302.868,310.997,256,310.997z"/>
	</g>
</g>
<g>
</g>
<g>
</g>
<g>
</g>
<g>
</g>
<g>
</g>
<g>
</g>
<g>
</g>
<g>
</g>
<g>
</g>
<g>
</g>
<g>
</g>
<g>
</g>
<g>
</g>
<g>
</g>
<g>
</g>
</svg>
