<?xml version="1.0" encoding="iso-8859-1"?>
<!-- Generator: Adobe Illustrator 19.0.0, SVG Export Plug-In . SVG Version: 6.00 Build 0)  -->
<svg xmlns="http://www.w3.org/2000/svg" xmlns:xlink="http://www.w3.org/1999/xlink" version="1.1" id="Capa_1" x="0px" y="0px" viewBox="0 0 512 512" style="enable-background:new 0 0 512 512;" xml:space="preserve">
<g>
	<g>
		<path d="M466.204,219.662C469.361,210.65,471,201.107,471,191.5c0-46.869-38.131-85-85-85c-10.605,0-21.031,1.971-30.795,5.772    C334.761,77.334,297.346,55.5,256,55.5c-25.212,0-49.149,8.01-69.223,23.164c-16.399,12.38-29.315,29.177-37.133,48.071    c-41.815,3.104-75.305,36.594-78.409,78.409c-18.895,7.817-35.691,20.733-48.071,37.133C8.01,262.351,0,286.288,0,311.5    c0,63.411,51.589,115,115,115h1v-30h-1c-46.869,0-85-38.131-85-85c0-37.213,24.863-70.687,60.462-81.401l11.355-3.417    l-0.705-11.838c-0.076-1.273-0.113-2.367-0.113-3.344c0-30.327,24.673-55,55-55c0.977,0,2.071,0.037,3.344,0.113l11.838,0.705    l3.417-11.355C185.313,110.363,218.787,85.5,256,85.5c34.577,0,65.436,20.659,78.617,52.632l6.821,16.545l15.099-9.606    c8.813-5.607,19-8.571,29.463-8.571c30.327,0,55,24.673,55,55c0,9.232-2.333,18.363-6.746,26.405l-7.021,12.796l12.6,7.369    C465.842,253.28,482,281.417,482,311.5c0,46.869-38.131,85-85,85h-1v30h1c63.411,0,115-51.589,115-115    C512,275.327,494.738,241.238,466.204,219.662z"/>
	</g>
</g>
<g>
	<g>
		<path d="M360.5,246.5h-30v30h-27.163c-11.835-12.313-28.45-20-46.837-20c-18.387,0-35.002,7.687-46.837,20H181.5v-30h-30v60    h41.766c-1.143,4.819-1.766,9.836-1.766,15v15h-40v30h40v15c0,5.164,0.623,10.181,1.766,15H151.5v60h30v-30h28.163    c11.835,12.313,28.45,20,46.837,20s35.002-7.687,46.837-20H330.5v30h30v-60h-40.766c1.143-4.819,1.766-9.836,1.766-15v-15h39v-30    h-39v-15c0-5.164-0.623-10.181-1.766-15H360.5V246.5z M291.5,381.5c0,19.299-15.701,35-35,35s-35-15.701-35-35v-60    c0-19.299,15.701-35,35-35s35,15.701,35,35V381.5z"/>
	</g>
</g>
<g>
</g>
<g>
</g>
<g>
</g>
<g>
</g>
<g>
</g>
<g>
</g>
<g>
</g>
<g>
</g>
<g>
</g>
<g>
</g>
<g>
</g>
<g>
</g>
<g>
</g>
<g>
</g>
<g>
</g>
</svg>
