<?xml version="1.0" encoding="iso-8859-1"?>
<!-- Generator: Adobe Illustrator 19.0.0, SVG Export Plug-In . SVG Version: 6.00 Build 0)  -->
<svg xmlns="http://www.w3.org/2000/svg" xmlns:xlink="http://www.w3.org/1999/xlink" version="1.1" id="Capa_1" x="0px" y="0px" viewBox="0 0 512.001 512.001" style="enable-background:new 0 0 512.001 512.001;" xml:space="preserve">
<g>
	<g>
		<path d="M346.99,0c-90.981,0-165,74.019-165,165c0,40.102,14.386,76.902,38.26,105.527l-24.046,24.046L174.99,273.36    L13.171,435.181c-17.546,17.545-17.546,46.094-0.001,63.639c8.499,8.5,19.8,13.181,31.82,13.181c12.02,0,23.32-4.681,31.819-13.18    L238.63,337l-21.213-21.213l24.046-24.046C270.088,315.614,306.889,330,346.99,330c90.981,0,165-74.019,165-165    S437.972,0,346.99,0z M55.597,477.607C52.764,480.44,48.996,482,44.99,482c-4.007,0-7.773-1.56-10.606-4.393    c-5.849-5.849-5.849-15.365,0-21.213L174.99,315.788L196.204,337L55.597,477.607z M346.99,300c-74.439,0-135-60.561-135-135    s60.561-135,135-135s135,60.561,135,135S421.43,300,346.99,300z"/>
	</g>
</g>
<g>
	<g>
		<path d="M391.99,130v-15c0-24.813-20.187-45-45-45s-45,20.187-45,45v15h-30v110h150V130H391.99z M331.99,115    c0-8.271,6.729-15,15-15s15,6.729,15,15v15h-30V115z M391.99,210h-90v-50h90V210z"/>
	</g>
</g>
<g>
</g>
<g>
</g>
<g>
</g>
<g>
</g>
<g>
</g>
<g>
</g>
<g>
</g>
<g>
</g>
<g>
</g>
<g>
</g>
<g>
</g>
<g>
</g>
<g>
</g>
<g>
</g>
<g>
</g>
</svg>
