<?xml version="1.0" encoding="iso-8859-1"?>
<!-- Generator: Adobe Illustrator 19.0.0, SVG Export Plug-In . SVG Version: 6.00 Build 0)  -->
<svg xmlns="http://www.w3.org/2000/svg" xmlns:xlink="http://www.w3.org/1999/xlink" version="1.1" id="Capa_1" x="0px" y="0px" viewBox="0 0 512 512" style="enable-background:new 0 0 512 512;" xml:space="preserve">
<g>
	<g>
		<path d="M81.5,140h30c0-27.57,22.43-50,50-50V60C117.388,60,81.5,95.888,81.5,140z"/>
	</g>
</g>
<g>
	<g>
		<path d="M21.5,140h30c0-60.654,49.346-110,110-110V0C84.304,0,21.5,62.804,21.5,140z"/>
	</g>
</g>
<g>
	<g>
		<path d="M413.946,367.353c32.965-38.789,50.943-87.492,50.943-138.965c0-57.429-22.364-111.42-62.973-152.028    c-11.618-11.617-36.513-19.516-89.14,8.821c-32.676,17.595-69.636,45.63-105.199,79.683l-26.142-26.142    C180.774,128.275,172.115,120,161.5,120c-11.046,0-20,8.954-20,20c0,10.614,8.275,19.273,18.723,19.936l26.142,26.142    c-34.053,35.563-62.089,72.524-79.683,105.2c-28.339,52.627-20.438,77.522-8.821,89.139c40.608,40.608,94.6,62.972,152.028,62.972    c32.909,0,64.684-7.357,93.464-21.27L300.5,491.754V512h190v-20.246L413.946,367.353z M327,111.595    c22.306-12.011,37.752-15.908,46.35-15.908c3.763,0,6.214,0.747,7.354,1.887c3.743,3.744,3.247,21.634-14.021,53.704    c-16.28,30.234-42.475,64.719-74.487,98.205l-63.4-63.4C262.281,154.071,296.766,127.875,327,111.595z M119.073,359.202    c-3.743-3.743-3.246-21.632,14.023-53.702c16.28-30.233,42.475-64.719,74.486-98.205l63.399,63.4    c-33.486,32.011-67.971,58.207-98.205,74.486C140.705,362.451,122.815,362.944,119.073,359.202z M249.889,413.389    c-34.608-0.001-67.758-9.451-96.524-27.11c9.719-3.073,20.852-7.801,33.635-14.684c35.974-19.371,77.143-51.395,115.921-90.174    c38.779-38.779,70.804-79.947,90.175-115.921c6.883-12.782,11.613-23.915,14.686-33.632    c17.658,28.766,27.107,61.915,27.107,96.521c0,49.416-19.243,95.873-54.186,130.815    C345.762,394.146,299.304,413.389,249.889,413.389z M341.729,482l53.771-87.379L449.271,482H341.729z"/>
	</g>
</g>
<g>
</g>
<g>
</g>
<g>
</g>
<g>
</g>
<g>
</g>
<g>
</g>
<g>
</g>
<g>
</g>
<g>
</g>
<g>
</g>
<g>
</g>
<g>
</g>
<g>
</g>
<g>
</g>
<g>
</g>
</svg>
