<?xml version="1.0" encoding="iso-8859-1"?>
<!-- Generator: Adobe Illustrator 19.0.0, SVG Export Plug-In . SVG Version: 6.00 Build 0)  -->
<svg xmlns="http://www.w3.org/2000/svg" xmlns:xlink="http://www.w3.org/1999/xlink" version="1.1" id="Capa_1" x="0px" y="0px" viewBox="0 0 512 512" style="enable-background:new 0 0 512 512;" xml:space="preserve">
<g>
	<g>
		<path d="M142.568,58.423l-21.213,21.213c9.444,9.444,14.645,22,14.645,35.355c0,13.355-5.201,25.912-14.645,35.355l21.213,21.213    C157.679,156.45,166,136.36,166,114.991C166,93.622,157.679,73.533,142.568,58.423z"/>
	</g>
</g>
<g>
	<g>
		<path d="M184.995,15.996l-21.213,21.213C184.558,57.985,196,85.609,196,114.991c0,29.382-11.442,57.005-32.218,77.782    l21.213,21.213c26.443-26.442,41.005-61.6,41.005-98.995C226,77.596,211.437,42.439,184.995,15.996z"/>
	</g>
</g>
<g>
	<g>
		<path d="M101,306.004V128.175c3.102-3.524,5-8.131,5-13.184c0-11.028-8.972-20-20-20s-20,8.972-20,20c0,5.053,1.898,9.66,5,13.184    v177.829H0v160h60v30h60v-30h272v30h60v-30h60v-160H101z M482,436.004H30v-100h452V436.004z"/>
	</g>
</g>
<g>
	<g>
		<path d="M80,366.004c-11.028,0-20,8.972-20,20c0,11.028,8.972,20,20,20s20-8.972,20-20C100,374.976,91.028,366.004,80,366.004z"/>
	</g>
</g>
<g>
	<g>
		<path d="M150,366.004c-11.028,0-20,8.972-20,20c0,11.028,8.972,20,20,20s20-8.972,20-20C170,374.976,161.028,366.004,150,366.004z    "/>
	</g>
</g>
<g>
	<g>
		<rect x="230" y="370" width="192" height="30"/>
	</g>
</g>
<g>
</g>
<g>
</g>
<g>
</g>
<g>
</g>
<g>
</g>
<g>
</g>
<g>
</g>
<g>
</g>
<g>
</g>
<g>
</g>
<g>
</g>
<g>
</g>
<g>
</g>
<g>
</g>
<g>
</g>
</svg>
