<?xml version="1.0" encoding="iso-8859-1"?>
<!-- Generator: Adobe Illustrator 19.0.0, SVG Export Plug-In . SVG Version: 6.00 Build 0)  -->
<svg xmlns="http://www.w3.org/2000/svg" xmlns:xlink="http://www.w3.org/1999/xlink" version="1.1" id="Capa_1" x="0px" y="0px" viewBox="0 0 512 512" style="enable-background:new 0 0 512 512;" xml:space="preserve">
<g>
	<g>
		<path d="M256,407c-11.028,0-20,8.972-20,20s8.972,20,20,20s20-8.972,20-20S267.028,407,256,407z"/>
	</g>
</g>
<g>
	<g>
		<path d="M256,347c-21.369,0-41.459,8.321-56.568,23.432l21.213,21.213c9.444-9.444,22-14.645,35.355-14.645    s25.911,5.201,35.355,14.645l21.213-21.213C297.459,355.321,277.369,347,256,347z"/>
	</g>
</g>
<g>
	<g>
		<path d="M256,287c-37.396,0-72.553,14.563-98.995,41.005l21.213,21.213C198.994,328.442,226.618,317,256,317    s57.006,11.442,77.782,32.218l21.213-21.213C328.553,301.563,293.396,287,256,287z"/>
	</g>
</g>
<g>
	<g>
		<path d="M421,212v-47C421,74.019,346.981,0,256,0S91,74.019,91,165v47H20v300h472V212H421z M121,165c0-74.439,60.561-135,135-135    s135,60.561,135,135v47h-30v-47c0-57.897-47.103-105-105-105c-57.897,0-105,47.103-105,105v47h-30V165z M331,165v47H181v-47    c0-41.355,33.645-75,75-75S331,123.645,331,165z M462,482H50V242h412V482z"/>
	</g>
</g>
<g>
</g>
<g>
</g>
<g>
</g>
<g>
</g>
<g>
</g>
<g>
</g>
<g>
</g>
<g>
</g>
<g>
</g>
<g>
</g>
<g>
</g>
<g>
</g>
<g>
</g>
<g>
</g>
<g>
</g>
</svg>
