<?xml version="1.0" encoding="iso-8859-1"?>
<!-- Generator: Adobe Illustrator 19.0.0, SVG Export Plug-In . SVG Version: 6.00 Build 0)  -->
<svg xmlns="http://www.w3.org/2000/svg" xmlns:xlink="http://www.w3.org/1999/xlink" version="1.1" id="Capa_1" x="0px" y="0px" viewBox="0 0 512 512" style="enable-background:new 0 0 512 512;" xml:space="preserve">
<g>
	<g>
		<path d="M512,256c0-68.38-26.629-132.667-74.98-181.02C388.667,26.629,324.38,0,256,0S123.333,26.629,74.98,74.98    C26.629,123.333,0,187.62,0,256s26.629,132.667,74.98,181.02C123.333,485.371,187.62,512,256,512    c45.76,0,90.286-12.111,129.446-35.104l51.588,34.109l54.927-36.619C504.509,466.022,512,452.025,512,436.944V328h-10.279    C508.539,304.721,512,280.591,512,256z M179.536,43.326c-7.98,10.183-15.41,22.055-22.159,35.553    C135.389,122.856,122.544,179.951,120.731,241H30.51C36.52,149.745,96.927,73.117,179.536,43.326z M30.51,271h90.221    c1.813,61.049,14.658,118.145,36.646,162.121c6.749,13.499,14.18,25.37,22.159,35.553C96.927,438.883,36.52,362.255,30.51,271z     M241,479.476c-20.728-6.917-40.83-27.851-56.79-59.771C164.232,379.75,152.512,327.408,150.743,271H241V479.476z M241,241    h-90.257c1.769-56.408,13.49-108.75,33.467-148.705c15.96-31.92,36.062-52.854,56.79-59.771V241z M271,32.524    c20.728,6.917,40.83,27.851,56.79,59.771c19.978,39.955,31.698,92.296,33.467,148.705H271V32.524z M271,479.476V271h90.257    c-1.769,56.408-13.49,108.75-33.467,148.705C311.83,451.625,291.727,472.559,271,479.476z M332.411,468.742    c8-10.198,15.448-22.092,22.212-35.621c2.404-4.809,4.694-9.781,6.877-14.892v18.641c0,6.005,1.202,11.826,3.42,17.195    C354.458,459.829,343.589,464.73,332.411,468.742z M354.623,78.879c-6.749-13.499-14.18-25.37-22.159-35.553    C415.073,73.117,475.48,149.745,481.49,241h-90.221C389.456,179.951,376.611,122.856,354.623,78.879z M391.269,271h90.237    c-1.271,19.492-5.022,38.58-11.214,57h-84.074C388.989,309.603,390.69,290.503,391.269,271z M482,436.944    c0,5.027-2.497,9.692-6.68,12.48l-38.354,25.57l-38.738-25.612c-4.213-2.785-6.728-7.462-6.728-12.512V358H482V436.944z"/>
	</g>
</g>
<g>
</g>
<g>
</g>
<g>
</g>
<g>
</g>
<g>
</g>
<g>
</g>
<g>
</g>
<g>
</g>
<g>
</g>
<g>
</g>
<g>
</g>
<g>
</g>
<g>
</g>
<g>
</g>
<g>
</g>
</svg>
