<?xml version="1.0" encoding="iso-8859-1"?>
<!-- Generator: Adobe Illustrator 19.0.0, SVG Export Plug-In . SVG Version: 6.00 Build 0)  -->
<svg xmlns="http://www.w3.org/2000/svg" xmlns:xlink="http://www.w3.org/1999/xlink" version="1.1" id="Capa_1" x="0px" y="0px" viewBox="0 0 512 512" style="enable-background:new 0 0 512 512;" xml:space="preserve">
<g>
	<g>
		<path d="M407,116c-11.517,0-22.032,4.354-30,11.495C369.032,120.354,358.517,116,347,116c-24.813,0-45,20.187-45,45    s20.187,45,45,45c11.517,0,22.032-4.354,30-11.495c7.968,7.142,18.483,11.495,30,11.495c24.813,0,45-20.187,45-45    S431.813,116,407,116z M347,176c-8.271,0-15-6.729-15-15s6.729-15,15-15s15,6.729,15,15S355.271,176,347,176z M407,176    c-8.271,0-15-6.729-15-15s6.729-15,15-15s15,6.729,15,15S415.271,176,407,176z"/>
	</g>
</g>
<g>
	<g>
		<path d="M60,116v90h110v-90H60z M140,176H90v-30h50V176z"/>
	</g>
</g>
<g>
	<g>
		<rect x="60" y="266" width="242" height="30"/>
	</g>
</g>
<g>
	<g>
		<rect x="60" y="326" width="196" height="30"/>
	</g>
</g>
<g>
	<g>
		<path d="M467,56H45C20.187,56,0,76.187,0,101v270c0,24.813,20.187,45,45,45h257v40h150v-40h15c24.813,0,45-20.187,45-45V101    C512,76.187,491.813,56,467,56z M422,426h-90v-50h90V426z M362,346v-15c0-8.271,6.729-15,15-15s15,6.729,15,15v15H362z M482,371    c0,8.271-6.729,15-15,15h-15v-40h-30v-15c0-24.813-20.187-45-45-45s-45,20.187-45,45v15h-30v40H45c-8.271,0-15-6.729-15-15V101    c0-8.271,6.729-15,15-15h422c8.271,0,15,6.729,15,15V371z"/>
	</g>
</g>
<g>
</g>
<g>
</g>
<g>
</g>
<g>
</g>
<g>
</g>
<g>
</g>
<g>
</g>
<g>
</g>
<g>
</g>
<g>
</g>
<g>
</g>
<g>
</g>
<g>
</g>
<g>
</g>
<g>
</g>
</svg>
