<?xml version="1.0" encoding="iso-8859-1"?>
<!-- Generator: Adobe Illustrator 19.0.0, SVG Export Plug-In . SVG Version: 6.00 Build 0)  -->
<svg xmlns="http://www.w3.org/2000/svg" xmlns:xlink="http://www.w3.org/1999/xlink" version="1.1" id="Capa_1" x="0px" y="0px" viewBox="0 0 512 512" style="enable-background:new 0 0 512 512;" xml:space="preserve">
<g>
	<g>
		<path d="M324.601,258.462l-12.473-21.459l-25.634,40.824l-39.209-82.989L188.254,268.8C170.678,290.227,161,317.281,161,344.996    c0,24.864,9.421,48.481,26.528,66.499c17.244,18.163,40.411,28.622,65.232,29.451c1.075,0.036,2.146,0.053,3.215,0.054    c0.008,0,0.016,0,0.024,0c0.002,0,0.003,0,0.005,0c0.012,0,0.025,0,0.037,0c24.789,0,48.115-9.414,65.997-26.708    C340.715,396.23,351,371.977,351,346v-1.936C351,314.438,337.363,280.419,324.601,258.462z M256.287,410.985    c-0.233,0.001-0.467-0.005-0.7-0.006C247.508,410.757,241,404.131,241,396c0-8.271,6.729-15,15-15s15,6.729,15,15    C271,404.174,264.425,410.831,256.287,410.985z M321,346c0,17.773-7.038,34.369-19.817,46.729    c-0.096,0.093-0.197,0.178-0.294,0.271c-1.551-23.419-21.085-42-44.889-42c-23.636,0-43.06,18.321-44.851,41.505    C198.768,380.417,191,363.486,191,344.996c0-20.822,7.281-41.148,20.502-57.234l29.213-36.601l42.055,89.011l27.265-43.422    C316.927,313.681,321,330.774,321,344.064V346z"/>
	</g>
</g>
<g>
	<g>
		<path d="M0,0v512h512V0H0z M482,482H30V150h452V482z M482,120H30V30h452V120z"/>
	</g>
</g>
<g>
	<g>
		<path d="M80,55c-11.028,0-20,8.972-20,20s8.972,20,20,20s20-8.972,20-20S91.028,55,80,55z"/>
	</g>
</g>
<g>
	<g>
		<path d="M150,55c-11.028,0-20,8.972-20,20s8.972,20,20,20s20-8.972,20-20S161.028,55,150,55z"/>
	</g>
</g>
<g>
	<g>
		<path d="M220,55c-11.028,0-20,8.972-20,20s8.972,20,20,20s20-8.972,20-20S231.028,55,220,55z"/>
	</g>
</g>
<g>
</g>
<g>
</g>
<g>
</g>
<g>
</g>
<g>
</g>
<g>
</g>
<g>
</g>
<g>
</g>
<g>
</g>
<g>
</g>
<g>
</g>
<g>
</g>
<g>
</g>
<g>
</g>
<g>
</g>
</svg>
