<?xml version="1.0" encoding="iso-8859-1"?>
<!-- Generator: Adobe Illustrator 19.0.0, SVG Export Plug-In . SVG Version: 6.00 Build 0)  -->
<svg xmlns="http://www.w3.org/2000/svg" xmlns:xlink="http://www.w3.org/1999/xlink" version="1.1" id="Capa_1" x="0px" y="0px" viewBox="0 0 512 512" style="enable-background:new 0 0 512 512;" xml:space="preserve">
<g>
	<g>
		<path d="M471,293.363V0.5H41v292.863l-41,141V511.5h512v-77.137L471,293.363z M71,30.5h370v250H71V30.5z M67.26,310.5h377.48    l32.277,111H34.983L67.26,310.5z M482,481.5H30v-30h452V481.5z"/>
	</g>
</g>
<g>
	<g>
		<rect x="226" y="376.5" width="60" height="30"/>
	</g>
</g>
<g>
	<g>
		<path d="M324.559,92.604c-37.804-37.646-99.314-37.646-137.118,0L131,148.812v13.376l56.441,56.208    c18.904,18.826,43.728,28.237,68.559,28.235c24.825-0.002,49.659-9.414,68.559-28.235L381,162.188v-13.376L324.559,92.604z     M303.389,197.139c-26.129,26.021-68.648,26.021-94.777,0L166.799,155.5l41.813-41.639c26.129-26.021,68.648-26.021,94.777,0    l41.813,41.639L303.389,197.139z"/>
	</g>
</g>
<g>
	<g>
		<path d="M256,130.5c-13.785,0-25,11.215-25,25c0,13.785,11.215,25,25,25c13.785,0,25-11.215,25-25    C281,141.715,269.785,130.5,256,130.5z"/>
	</g>
</g>
<g>
</g>
<g>
</g>
<g>
</g>
<g>
</g>
<g>
</g>
<g>
</g>
<g>
</g>
<g>
</g>
<g>
</g>
<g>
</g>
<g>
</g>
<g>
</g>
<g>
</g>
<g>
</g>
<g>
</g>
</svg>
