<?xml version="1.0" encoding="iso-8859-1"?>
<!-- Generator: Adobe Illustrator 19.0.0, SVG Export Plug-In . SVG Version: 6.00 Build 0)  -->
<svg xmlns="http://www.w3.org/2000/svg" xmlns:xlink="http://www.w3.org/1999/xlink" version="1.1" id="Capa_1" x="0px" y="0px" viewBox="0 0 512 512" style="enable-background:new 0 0 512 512;" xml:space="preserve">
<g>
	<g>
		<path d="M490.067,120.936l-99.002-99.002c-29.244-29.245-76.829-29.245-106.073,0l-95.466,95.466l31.926,31.926L0,370.778V512    h150.01v-60.004h60.004v-60.004h60.004v-60.004h51.216l41.439-41.44l31.926,31.926l95.466-95.466    C519.312,197.765,519.312,150.181,490.067,120.936z M308.808,301.986h-68.792v60.004h-60.004v60.004h-60.004v60.004H30.002    v-98.794L242.666,170.54l25.789,25.789L76.899,387.886L98.114,409.1L289.67,217.544l51.791,51.791L308.808,301.986z     M468.852,205.794L394.6,280.045L231.955,117.4l74.251-74.252c17.548-17.546,46.097-17.546,63.645,0l99.002,99.002    C486.398,159.697,486.398,188.248,468.852,205.794z"/>
	</g>
</g>
<g>
	<g>
		
			<rect x="351.031" y="75.262" transform="matrix(0.7071 -0.7071 0.7071 0.7071 3.9875 301.5791)" width="30.002" height="141.428"/>
	</g>
</g>
<g>
</g>
<g>
</g>
<g>
</g>
<g>
</g>
<g>
</g>
<g>
</g>
<g>
</g>
<g>
</g>
<g>
</g>
<g>
</g>
<g>
</g>
<g>
</g>
<g>
</g>
<g>
</g>
<g>
</g>
</svg>
