<?xml version="1.0" encoding="iso-8859-1"?>
<!-- Generator: Adobe Illustrator 19.0.0, SVG Export Plug-In . SVG Version: 6.00 Build 0)  -->
<svg xmlns="http://www.w3.org/2000/svg" xmlns:xlink="http://www.w3.org/1999/xlink" version="1.1" id="Capa_1" x="0px" y="0px" viewBox="0 0 512 512" style="enable-background:new 0 0 512 512;" xml:space="preserve">
<g>
	<g>
		<path d="M61,26v60H0v301h61v99h22.213l99-99h207.573l39,39H451v-99h61V26H61z M169.787,357L91,435.787V357H30V116h31v211h268.787    l30,30H169.787z M482,297h-61v78.787L342.213,297H91V56h391V297z"/>
	</g>
</g>
<g>
	<g>
		<path d="M331.5,146v-15c0-24.813-20.187-45-45-45s-45,20.187-45,45v15h-30v110h150V146H331.5z M271.5,131c0-8.271,6.729-15,15-15    s15,6.729,15,15v15h-30V131z M331.5,226h-90v-50h90V226z"/>
	</g>
</g>
<g>
</g>
<g>
</g>
<g>
</g>
<g>
</g>
<g>
</g>
<g>
</g>
<g>
</g>
<g>
</g>
<g>
</g>
<g>
</g>
<g>
</g>
<g>
</g>
<g>
</g>
<g>
</g>
<g>
</g>
</svg>
