<?xml version="1.0" encoding="iso-8859-1"?>
<!-- Generator: Adobe Illustrator 19.0.0, SVG Export Plug-In . SVG Version: 6.00 Build 0)  -->
<svg xmlns="http://www.w3.org/2000/svg" xmlns:xlink="http://www.w3.org/1999/xlink" version="1.1" id="Capa_1" x="0px" y="0px" viewBox="0 0 512 512" style="enable-background:new 0 0 512 512;" xml:space="preserve">
<g>
	<g>
		<path d="M360.769,222.621c18.232-22.014,29.669-49.846,31.078-80.254L432,102.213V81.728l-36.531-58.921L297.727,0h-83.454    l-97.742,22.807L80,81.728v20.486l40.154,40.153c1.408,30.408,12.845,58.24,31.078,80.254C65.94,234.255,0,307.566,0,396v15.465    l4.982,4.471C74.023,477.884,163.169,512,256,512s181.978-34.116,251.018-96.064l4.982-4.471V396    C512,307.566,446.06,234.255,360.769,222.621z M133.657,113.445l-23.471-23.472l25.283-40.78L217.727,30h76.546l82.258,19.193    l25.283,40.779l-23.471,23.472c-11.216-7.77-26.327-11.519-33.173-13.217c-20.015-4.962-45.37-8.057-72.667-8.951    C274.706,88.063,276,84.181,276,80c0-11.028-8.972-20-20-20s-20,8.972-20,20c0,4.181,1.294,8.063,3.497,11.277    c-27.297,0.894-52.652,3.989-72.667,8.951C159.984,101.926,144.873,105.675,133.657,113.445z M330.042,144.437    C309.398,148.669,283.103,151,256,151c-27.103,0-53.398-2.331-74.042-6.563c-13.894-2.848-22.546-6.008-27.512-8.437    c4.965-2.429,13.618-5.589,27.512-8.437C202.602,123.331,228.897,121,256,121c27.103,0,53.398,2.331,74.042,6.563    c13.894,2.848,22.546,6.008,27.512,8.437C352.589,138.429,343.936,141.589,330.042,144.437z M356.891,168.522    C343.129,211.109,303.107,242,256,242s-87.129-30.891-100.889-73.478c4.733,1.514,8.92,2.556,11.72,3.25    c24,5.95,55.668,9.228,89.17,9.228c33.502,0,65.169-3.277,89.17-9.228C347.97,171.078,352.158,170.036,356.891,168.522z     M30,397.992V396c0-79.953,65.047-145,145-145h8.479c21.004,13.293,45.878,21,72.521,21c10.17,0,20.08-1.131,29.618-3.258    L106.357,448.004C79.013,434.883,53.32,418.126,30,397.992z M136.164,460.623l209.365-209.365    c12.399,0.723,24.382,3.01,35.759,6.668L168.457,470.757C157.524,467.903,146.746,464.528,136.164,460.623z M482,397.992    C419.195,452.217,339.208,482,256,482c-17.649,0-35.151-1.354-52.377-3.983l206.929-206.929C453.278,296.342,482,342.876,482,396    V397.992z"/>
	</g>
</g>
<g>
</g>
<g>
</g>
<g>
</g>
<g>
</g>
<g>
</g>
<g>
</g>
<g>
</g>
<g>
</g>
<g>
</g>
<g>
</g>
<g>
</g>
<g>
</g>
<g>
</g>
<g>
</g>
<g>
</g>
</svg>
