<?xml version="1.0" encoding="iso-8859-1"?>
<!-- Generator: Adobe Illustrator 19.0.0, SVG Export Plug-In . SVG Version: 6.00 Build 0)  -->
<svg xmlns="http://www.w3.org/2000/svg" xmlns:xlink="http://www.w3.org/1999/xlink" version="1.1" id="Capa_1" x="0px" y="0px" viewBox="0 0 512 512" style="enable-background:new 0 0 512 512;" xml:space="preserve">
<g>
	<g>
		<path d="M360.769,222.621C380.266,199.079,392,168.885,392,136C392,61.009,330.99,0,256,0S120,61.009,120,136    c0,32.885,11.734,63.079,31.231,86.621C65.94,234.255,0,307.566,0,396v15.465l4.982,4.471C74.023,477.884,163.17,512,256,512    s181.977-34.116,251.018-96.064l4.982-4.471V396C512,307.566,446.06,234.255,360.769,222.621z M150,136    c0-58.449,47.552-106,106-106s106,47.551,106,106c0,58.449-47.552,106-106,106S150,194.449,150,136z M175,251h8.479    c21.004,13.293,45.878,21,72.521,21s51.516-7.707,72.521-21H337c40.72,0,77.567,16.879,103.93,44H71.07    C97.433,267.879,134.28,251,175,251z M48.613,325h414.774c5.303,9.403,9.586,19.453,12.7,30H35.913    C39.028,344.453,43.31,334.403,48.613,325z M256.001,482c-54.627,0-107.867-12.838-155.767-37h311.533    C363.867,469.162,310.628,482,256.001,482z M482.001,397.992H482c-6.92,5.975-14.06,11.634-21.378,17.008H51.378    C44.06,409.626,36.92,403.966,30,397.992V396c0-3.7,0.141-7.368,0.415-11h451.171c0.273,3.632,0.415,7.3,0.415,11V397.992z"/>
	</g>
</g>
<g>
	<g>
		<path d="M256,167c-11.028,0-20,8.972-20,20s8.972,20,20,20s20-8.972,20-20S267.028,167,256,167z"/>
	</g>
</g>
<g>
	<g>
		<path d="M318.676,93.785c-2.411-2.41-5.215-4.382-8.332-5.86l-9.556-4.533l-34.932,34.932l4.532,9.556    c1.48,3.119,3.452,5.923,5.863,8.333c5.849,5.848,25.694,16.732,42.427,0C330.374,124.517,330.374,105.484,318.676,93.785z"/>
	</g>
</g>
<g>
	<g>
		<path d="M211.211,83.392l-9.556,4.533c-3.117,1.479-5.921,3.45-8.335,5.863c-11.695,11.697-11.696,30.729,0.001,42.426    c16.733,16.732,36.579,5.847,42.428-0.001c2.411-2.41,4.383-5.214,5.862-8.333l4.532-9.556L211.211,83.392z"/>
	</g>
</g>
<g>
</g>
<g>
</g>
<g>
</g>
<g>
</g>
<g>
</g>
<g>
</g>
<g>
</g>
<g>
</g>
<g>
</g>
<g>
</g>
<g>
</g>
<g>
</g>
<g>
</g>
<g>
</g>
<g>
</g>
</svg>
