<?xml version="1.0" encoding="iso-8859-1"?>
<!-- Generator: Adobe Illustrator 19.0.0, SVG Export Plug-In . SVG Version: 6.00 Build 0)  -->
<svg xmlns="http://www.w3.org/2000/svg" xmlns:xlink="http://www.w3.org/1999/xlink" version="1.1" id="Capa_1" x="0px" y="0px" viewBox="0 0 512.001 512.001" style="enable-background:new 0 0 512.001 512.001;" xml:space="preserve">
<g>
	<g>
		<path d="M492,236.001c-5.053,0-9.66,1.898-13.185,5H380.13l-49.074-85l49.342-85.464c4.448-1.501,8.396-4.542,10.923-8.918    c5.514-9.551,2.23-21.806-7.321-27.321c-9.55-5.514-21.806-2.23-27.321,7.321c-2.526,4.376-3.186,9.315-2.262,13.918    l-49.342,85.464h-98.15l-49.343-85.464c0.924-4.603,0.264-9.542-2.262-13.918c-5.514-9.551-17.77-12.834-27.321-7.321    c-9.55,5.514-12.835,17.77-7.321,27.321c2.527,4.376,6.474,7.417,10.923,8.918l49.343,85.464l-49.074,85H33.185    c-3.524-3.102-8.132-5-13.185-5c-11.028,0-20,8.972-20,20c0,11.028,8.972,20,20,20c5.053,0,9.66-1.898,13.185-5h98.686l49.074,85    l-49.342,85.463c-4.448,1.501-8.396,4.542-10.923,8.918c-5.514,9.551-2.23,21.807,7.321,27.321    c9.55,5.514,21.806,2.23,27.321-7.321c2.526-4.376,3.186-9.315,2.262-13.918l49.341-85.463h98.15l49.343,85.464    c-0.924,4.603-0.264,9.542,2.262,13.918c5.514,9.551,17.77,12.834,27.321,7.321c9.55-5.514,12.835-17.77,7.321-27.321    c-2.527-4.376-6.474-7.417-10.923-8.918l-49.343-85.464l49.074-85h98.686c3.524,3.102,8.132,5,13.185,5c11.028,0,20-8.972,20-20    C512.001,244.973,503.028,236.001,492,236.001z M305.075,341.001h-98.15l-49.074-85l49.074-85h98.15l49.074,85L305.075,341.001z"/>
	</g>
</g>
<g>
</g>
<g>
</g>
<g>
</g>
<g>
</g>
<g>
</g>
<g>
</g>
<g>
</g>
<g>
</g>
<g>
</g>
<g>
</g>
<g>
</g>
<g>
</g>
<g>
</g>
<g>
</g>
<g>
</g>
</svg>
