<?xml version="1.0" encoding="iso-8859-1"?>
<!-- Generator: Adobe Illustrator 19.0.0, SVG Export Plug-In . SVG Version: 6.00 Build 0)  -->
<svg xmlns="http://www.w3.org/2000/svg" xmlns:xlink="http://www.w3.org/1999/xlink" version="1.1" id="Capa_1" x="0px" y="0px" viewBox="0 0 512 512" style="enable-background:new 0 0 512 512;" xml:space="preserve">
<g>
	<g>
		<path d="M360.5,210h-30v30h-27.163c-11.835-12.313-28.45-20-46.837-20c-18.387,0-35.002,7.687-46.837,20H181.5v-30h-30v60h41.766    c-1.143,4.819-1.766,9.837-1.766,15v15h-40v30h40v15c0,5.163,0.623,10.181,1.766,15H151.5v60h30v-30h28.163    c11.835,12.313,28.45,20,46.837,20s35.002-7.687,46.837-20H330.5v30h30v-60h-40.766c1.143-4.819,1.766-9.837,1.766-15v-15h39v-30    h-39v-15c0-5.163-0.623-10.181-1.766-15H360.5V210z M291.5,345c0,19.299-15.701,35-35,35s-35-15.701-35-35v-60    c0-19.299,15.701-35,35-35s35,15.701,35,35V345z"/>
	</g>
</g>
<g>
	<g>
		<path d="M0,0v512h512V0H0z M482,482H30V150h452V482z M482,120H30V30h452V120z"/>
	</g>
</g>
<g>
	<g>
		<path d="M80,55c-11.028,0-20,8.972-20,20s8.972,20,20,20s20-8.972,20-20S91.028,55,80,55z"/>
	</g>
</g>
<g>
	<g>
		<path d="M150,55c-11.028,0-20,8.972-20,20s8.972,20,20,20s20-8.972,20-20S161.028,55,150,55z"/>
	</g>
</g>
<g>
	<g>
		<path d="M220,55c-11.028,0-20,8.972-20,20s8.972,20,20,20s20-8.972,20-20S231.028,55,220,55z"/>
	</g>
</g>
<g>
</g>
<g>
</g>
<g>
</g>
<g>
</g>
<g>
</g>
<g>
</g>
<g>
</g>
<g>
</g>
<g>
</g>
<g>
</g>
<g>
</g>
<g>
</g>
<g>
</g>
<g>
</g>
<g>
</g>
</svg>
