<?xml version="1.0" encoding="iso-8859-1"?>
<!-- Generator: Adobe Illustrator 19.0.0, SVG Export Plug-In . SVG Version: 6.00 Build 0)  -->
<svg xmlns="http://www.w3.org/2000/svg" xmlns:xlink="http://www.w3.org/1999/xlink" version="1.1" id="Capa_1" x="0px" y="0px" viewBox="0 0 512 512" style="enable-background:new 0 0 512 512;" xml:space="preserve">
<g>
	<g>
		<path d="M256,0C114.615,0,0,114.615,0,256s114.615,256,256,256s256-114.615,256-256S397.385,0,256,0z M30,256    C30,131.184,131.184,30,256,30c57.01,0,109.082,21.117,148.841,55.946L309.787,181h-6.45c-11.835-12.313-28.45-20-46.837-20    c-18.387,0-35.002,7.687-46.837,20H181.5v-30h-30v60h41.766c-1.143,4.819-1.766,9.837-1.766,15v15h-40v30h40v15    c0,4.148,0.407,8.2,1.153,12.134L189.787,301H151.5v38.287l-65.554,65.554C51.117,365.082,30,313.01,30,256z M291.5,241.713V286    c0,19.299-15.701,35-35,35c-12.018,0-22.638-6.09-28.943-15.344L291.5,241.713z M221.5,269.287V226c0-19.299,15.701-35,35-35    c11.761,0,22.178,5.837,28.527,14.76L221.5,269.287z M256,482c-57.01,0-109.082-21.117-148.841-55.946L202.213,331h7.45    c11.835,12.313,28.45,20,46.837,20s35.002-7.687,46.837-20H330.5v30h30v-60h-40.766c1.143-4.819,1.766-9.837,1.766-15v-15h39v-30    h-39v-15c0-4.445-0.451-8.786-1.305-12.982l2.018-2.018H360.5v-38.287l65.554-65.554C460.883,146.918,482,198.99,482,256    C482,380.816,380.816,482,256,482z"/>
	</g>
</g>
<g>
</g>
<g>
</g>
<g>
</g>
<g>
</g>
<g>
</g>
<g>
</g>
<g>
</g>
<g>
</g>
<g>
</g>
<g>
</g>
<g>
</g>
<g>
</g>
<g>
</g>
<g>
</g>
<g>
</g>
</svg>
