<?xml version="1.0" encoding="iso-8859-1"?>
<!-- Generator: Adobe Illustrator 19.0.0, SVG Export Plug-In . SVG Version: 6.00 Build 0)  -->
<svg xmlns="http://www.w3.org/2000/svg" xmlns:xlink="http://www.w3.org/1999/xlink" version="1.1" id="Capa_1" x="0px" y="0px" viewBox="0 0 512 512" style="enable-background:new 0 0 512 512;" xml:space="preserve">
<g>
	<g>
		<path d="M91,0v512h330V0H91z M391,482H121v-70h270V482z M391,382H121V90h270V382z M391,60H121V30h270V60z"/>
	</g>
</g>
<g>
	<g>
		<path d="M256,427c-11.028,0-20,8.972-20,20s8.972,20,20,20s20-8.972,20-20S267.028,427,256,427z"/>
	</g>
</g>
<g>
	<g>
		<path d="M360,131h-30v30h-27.163c-11.835-12.313-28.45-20-46.837-20c-18.387,0-35.002,7.687-46.837,20H181v-30h-30v60h41.766    c-1.143,4.819-1.766,9.837-1.766,15v15h-40v30h40v15c0,5.163,0.623,10.181,1.766,15H151v60h30v-30h28.163    c11.835,12.313,28.45,20,46.837,20s35.002-7.687,46.837-20H330v30h30v-60h-40.766c1.143-4.819,1.766-9.837,1.766-15v-15h39v-30    h-39v-15c0-5.163-0.623-10.181-1.766-15H360V131z M291,266c0,19.299-15.701,35-35,35s-35-15.701-35-35v-60    c0-19.299,15.701-35,35-35s35,15.701,35,35V266z"/>
	</g>
</g>
<g>
</g>
<g>
</g>
<g>
</g>
<g>
</g>
<g>
</g>
<g>
</g>
<g>
</g>
<g>
</g>
<g>
</g>
<g>
</g>
<g>
</g>
<g>
</g>
<g>
</g>
<g>
</g>
<g>
</g>
</svg>
