<?xml version="1.0" encoding="iso-8859-1"?>
<!-- Generator: Adobe Illustrator 19.0.0, SVG Export Plug-In . SVG Version: 6.00 Build 0)  -->
<svg xmlns="http://www.w3.org/2000/svg" xmlns:xlink="http://www.w3.org/1999/xlink" version="1.1" id="Capa_1" x="0px" y="0px" viewBox="0 0 512 512" style="enable-background:new 0 0 512 512;" xml:space="preserve">
<g>
	<g>
		<path d="M91,0v512h330V0H91z M391,482H121v-70h270V482z M391,382H121V90h270V382z M391,60H121V30h270V60z"/>
	</g>
</g>
<g>
	<g>
		<path d="M256,427c-11.028,0-20,8.972-20,20s8.972,20,20,20s20-8.972,20-20S267.028,427,256,427z"/>
	</g>
</g>
<g>
	<g>
		<path d="M180.751,151v108.871c-0.001,15.149,7.544,29.182,20.182,37.537l55.352,36.597l54.927-36.618    c12.548-8.365,20.039-22.363,20.039-37.442V151H180.751z M301.25,259.945c0,5.026-2.497,9.692-6.68,12.481l-38.354,25.57    l-38.738-25.612c-4.213-2.785-6.728-7.463-6.728-12.512V181h90.5V259.945z"/>
	</g>
</g>
<g>
</g>
<g>
</g>
<g>
</g>
<g>
</g>
<g>
</g>
<g>
</g>
<g>
</g>
<g>
</g>
<g>
</g>
<g>
</g>
<g>
</g>
<g>
</g>
<g>
</g>
<g>
</g>
<g>
</g>
</svg>
