<?xml version="1.0" encoding="iso-8859-1"?>
<!-- Generator: Adobe Illustrator 19.0.0, SVG Export Plug-In . SVG Version: 6.00 Build 0)  -->
<svg xmlns="http://www.w3.org/2000/svg" xmlns:xlink="http://www.w3.org/1999/xlink" version="1.1" id="Capa_1" x="0px" y="0px" viewBox="0 0 512 512" style="enable-background:new 0 0 512 512;" xml:space="preserve">
<g>
	<g>
		<path d="M325.213,0H58v512h396V128.787L325.213,0z M334,51.213L402.787,120H334V51.213z M424,482H88V30h216v120h120V482z"/>
	</g>
</g>
<g>
	<g>
		<path d="M333.935,235.709c-21.447-21.446-56.338-21.445-77.783-0.001c-13.622,13.622-18.577,32.668-14.893,50.249l-79.303,79.302    v42.427h50.852l0.707-28.991h28.646V350.41h19.497l22.028-22.027c3.742,0.784,7.548,1.19,11.357,1.19    c14.085,0,28.169-5.361,38.892-16.083h0.001C355.378,292.046,355.378,257.153,333.935,235.709z M312.722,292.276    c-9.741,9.739-25.583,9.747-35.332,0.024l-0.048-0.048c-9.723-9.75-9.716-25.592,0.023-35.331c9.403-9.403,25.098-10.259,35.356,0    C322.469,266.668,322.469,282.529,312.722,292.276z"/>
	</g>
</g>
<g>
</g>
<g>
</g>
<g>
</g>
<g>
</g>
<g>
</g>
<g>
</g>
<g>
</g>
<g>
</g>
<g>
</g>
<g>
</g>
<g>
</g>
<g>
</g>
<g>
</g>
<g>
</g>
<g>
</g>
</svg>
