<?xml version="1.0" encoding="iso-8859-1"?>
<!-- Generator: Adobe Illustrator 19.0.0, SVG Export Plug-In . SVG Version: 6.00 Build 0)  -->
<svg xmlns="http://www.w3.org/2000/svg" xmlns:xlink="http://www.w3.org/1999/xlink" version="1.1" id="Capa_1" x="0px" y="0px" viewBox="0 0 512 512" style="enable-background:new 0 0 512 512;" xml:space="preserve">
<g>
	<g>
		<path d="M301,211v-15c0-24.813-20.187-45-45-45s-45,20.187-45,45v15h-30v110h150V211H301z M241,196c0-8.271,6.729-15,15-15    s15,6.729,15,15v15h-30V196z M301,291h-90v-50h90V291z"/>
	</g>
</g>
<g>
	<g>
		<path d="M221,0c-11.028,0-20,8.972-20,20c0,5.053,1.898,9.66,5,13.184V126h30V33.184c3.102-3.524,5-8.132,5-13.184    C241,8.972,232.028,0,221,0z"/>
	</g>
</g>
<g>
	<g>
		<path d="M291,0c-11.028,0-20,8.972-20,20c0,5.053,1.898,9.66,5,13.184V126h30V33.184c3.102-3.524,5-8.132,5-13.184    C311,8.972,302.028,0,291,0z"/>
	</g>
</g>
<g>
	<g>
		<path d="M306,478.816V351h-30v127.816c-3.102,3.524-5,8.132-5,13.184c0,11.028,8.972,20,20,20s20-8.972,20-20    C311,486.947,309.102,482.34,306,478.816z"/>
	</g>
</g>
<g>
	<g>
		<path d="M236,478.816V351h-30v127.816c-3.102,3.524-5,8.132-5,13.184c0,11.028,8.972,20,20,20s20-8.972,20-20    C241,486.947,239.102,482.34,236,478.816z"/>
	</g>
</g>
<g>
	<g>
		<path d="M394.185,276c-3.525-3.102-8.132-5-13.185-5c-11.028,0-20,8.972-20,20s8.972,20,20,20c5.053,0,9.66-1.898,13.184-5H512    v-30H394.185z"/>
	</g>
</g>
<g>
	<g>
		<path d="M394.185,206c-3.524-3.102-8.132-5-13.185-5c-11.028,0-20,8.972-20,20s8.972,20,20,20c5.053,0,9.66-1.898,13.184-5H512    v-30H394.185z"/>
	</g>
</g>
<g>
	<g>
		<path d="M131,201c-5.053,0-9.66,1.898-13.185,5H0v30h117.816c3.524,3.102,8.132,5,13.184,5c11.028,0,20-8.972,20-20    S142.028,201,131,201z"/>
	</g>
</g>
<g>
	<g>
		<path d="M131,271c-5.053,0-9.66,1.898-13.185,5H0v30h117.816c3.524,3.102,8.132,5,13.184,5c11.028,0,20-8.972,20-20    S142.028,271,131,271z"/>
	</g>
</g>
<g>
</g>
<g>
</g>
<g>
</g>
<g>
</g>
<g>
</g>
<g>
</g>
<g>
</g>
<g>
</g>
<g>
</g>
<g>
</g>
<g>
</g>
<g>
</g>
<g>
</g>
<g>
</g>
<g>
</g>
</svg>
