<?xml version="1.0" encoding="iso-8859-1"?>
<!-- Generator: Adobe Illustrator 19.0.0, SVG Export Plug-In . SVG Version: 6.00 Build 0)  -->
<svg xmlns="http://www.w3.org/2000/svg" xmlns:xlink="http://www.w3.org/1999/xlink" version="1.1" id="Capa_1" x="0px" y="0px" viewBox="0 0 512 512" style="enable-background:new 0 0 512 512;" xml:space="preserve">
<g>
	<g>
		<path d="M301,116.582v-15c0-24.813-20.187-45-45-45s-45,20.187-45,45v15h-30v110h150v-110H301z M241,101.582    c0-8.271,6.729-15,15-15s15,6.729,15,15v15h-30V101.582z M301,196.582h-90v-50h90V196.582z"/>
	</g>
</g>
<g>
	<g>
		<rect y="256.578" width="512" height="30"/>
	</g>
</g>
<g>
	<g>
		<polygon points="325.833,370.582 292.213,370.582 315.986,346.809 294.773,325.595 271,349.368 271,315.749 241,315.749     241,349.368 217.227,325.595 196.014,346.809 219.787,370.582 186.167,370.582 186.167,400.582 219.787,400.582 196.014,424.354     217.227,445.567 241,421.794 241,455.415 271,455.415 271,421.794 294.773,445.567 315.986,424.354 292.213,400.582     325.833,400.582   "/>
	</g>
</g>
<g>
	<g>
		<rect x="411" y="315.749" width="30" height="139.67"/>
	</g>
</g>
<g>
	<g>
		<polygon points="155.833,370.582 122.213,370.582 145.986,346.809 124.773,325.595 101,349.368 101,315.749 71,315.749     71,349.368 47.227,325.595 26.014,346.809 49.787,370.582 16.167,370.582 16.167,400.582 49.787,400.582 26.014,424.354     47.227,445.567 71,421.794 71,455.415 101,455.415 101,421.794 124.773,445.567 145.986,424.354 122.213,400.582 155.833,400.582       "/>
	</g>
</g>
<g>
</g>
<g>
</g>
<g>
</g>
<g>
</g>
<g>
</g>
<g>
</g>
<g>
</g>
<g>
</g>
<g>
</g>
<g>
</g>
<g>
</g>
<g>
</g>
<g>
</g>
<g>
</g>
<g>
</g>
</svg>
