<?xml version="1.0" encoding="iso-8859-1"?>
<!-- Generator: Adobe Illustrator 19.0.0, SVG Export Plug-In . SVG Version: 6.00 Build 0)  -->
<svg xmlns="http://www.w3.org/2000/svg" xmlns:xlink="http://www.w3.org/1999/xlink" version="1.1" id="Capa_1" x="0px" y="0px" viewBox="0 0 512 512" style="enable-background:new 0 0 512 512;" xml:space="preserve">
<g>
	<g>
		<path d="M436.998,42.782L426.39,32.177L254.72,203.888c-10.431,0.665-18.72,9.339-18.72,19.935c0,11.028,8.972,20,20,20    c10.598,0,19.272-8.292,19.935-18.725l36.12-36.128c6.469,10.36,9.945,22.336,9.945,34.853c0,36.393-29.607,66-66,66    s-66-29.607-66-66h-30c0,52.935,43.065,96,96,96s96-43.065,96-96c0-20.575-6.434-40.158-18.341-56.462l35.636-35.644    C390.479,157.677,402,189.864,402,223.823c0,80.505-65.495,146-146,146s-146-65.495-146-146H80c0,97.047,78.953,176,176,176    s176-78.953,176-176c0-41.982-14.61-81.712-41.408-113.408l35.459-35.467C462.238,116.163,482,168.473,482,223.823    c0,124.617-101.383,226-226,226s-226-101.383-226-226H0c0,68.38,26.629,132.667,74.98,181.019    c48.353,48.352,112.64,74.981,181.02,74.981s132.667-26.629,181.02-74.981C485.371,356.49,512,292.203,512,223.823    C512,155.432,485.364,91.137,436.998,42.782z"/>
	</g>
</g>
<g>
</g>
<g>
</g>
<g>
</g>
<g>
</g>
<g>
</g>
<g>
</g>
<g>
</g>
<g>
</g>
<g>
</g>
<g>
</g>
<g>
</g>
<g>
</g>
<g>
</g>
<g>
</g>
<g>
</g>
</svg>
