<?xml version="1.0" encoding="iso-8859-1"?>
<!-- Generator: Adobe Illustrator 19.0.0, SVG Export Plug-In . SVG Version: 6.00 Build 0)  -->
<svg xmlns="http://www.w3.org/2000/svg" xmlns:xlink="http://www.w3.org/1999/xlink" version="1.1" id="Capa_1" x="0px" y="0px" viewBox="0 0 512 512" style="enable-background:new 0 0 512 512;" xml:space="preserve">
<g>
	<g>
		<path d="M393.6,130.858C356.801,94.212,307.934,74.03,256,74.03c-51.934,0-100.801,20.182-137.6,56.828L0,248.769v14.463    l118.4,117.91c36.799,36.646,85.666,56.828,137.6,56.828c51.934,0,100.801-20.182,137.6-56.827L512,263.232v-14.463L393.6,130.858    z M372.429,359.884c-64.199,63.934-168.66,63.934-232.859,0L35.253,256l104.318-103.884c64.199-63.934,168.66-63.934,232.859,0    L476.747,256L372.429,359.884z"/>
	</g>
</g>
<g>
	<g>
		<path d="M256,226.001c-16.542,0-30,13.458-30,30s13.458,30,30,30s30-13.458,30-30S272.542,226.001,256,226.001z"/>
	</g>
</g>
<g>
	<g>
		<path d="M256,161.001c-52.383,0-95,42.617-95,95s42.617,95,95,95s95-42.617,95-95S308.383,161.001,256,161.001z M256,321    c-35.841,0-65-29.159-65-65s29.159-65,65-65s65,29.159,65,65S291.841,321,256,321z"/>
	</g>
</g>
<g>
</g>
<g>
</g>
<g>
</g>
<g>
</g>
<g>
</g>
<g>
</g>
<g>
</g>
<g>
</g>
<g>
</g>
<g>
</g>
<g>
</g>
<g>
</g>
<g>
</g>
<g>
</g>
<g>
</g>
</svg>
