<?xml version="1.0" encoding="iso-8859-1"?>
<!-- Generator: Adobe Illustrator 19.0.0, SVG Export Plug-In . SVG Version: 6.00 Build 0)  -->
<svg xmlns="http://www.w3.org/2000/svg" xmlns:xlink="http://www.w3.org/1999/xlink" version="1.1" id="Capa_1" x="0px" y="0px" viewBox="0 0 512 512" style="enable-background:new 0 0 512 512;" xml:space="preserve">
<g>
	<g>
		<path d="M409.369,402l-30-260H132.631l-30,260H61v110h390V402H409.369z M159.369,172h193.262l26.539,230H132.83L159.369,172z     M421,482H91v-50h330V482z"/>
	</g>
</g>
<g>
	<g>
		<rect x="241" width="30" height="60"/>
	</g>
</g>
<g>
	<g>
		<rect x="127.998" y="30.279" transform="matrix(0.866 -0.5 0.5 0.866 -10.9807 79.5765)" width="29.999" height="59.999"/>
	</g>
</g>
<g>
	<g>
		<rect x="45.283" y="112.998" transform="matrix(0.5 -0.866 0.866 0.5 -93.6976 123.7027)" width="29.999" height="59.999"/>
	</g>
</g>
<g>
	<g>
		<rect y="241" width="60" height="30"/>
	</g>
</g>
<g>
	<g>
		<rect x="452" y="241" width="60" height="30"/>
	</g>
</g>
<g>
	<g>
		<rect x="421.724" y="127.99" transform="matrix(0.866 -0.5 0.5 0.866 -10.974 245.024)" width="59.998" height="29.999"/>
	</g>
</g>
<g>
	<g>
		<rect x="338.995" y="45.273" transform="matrix(0.5 -0.866 0.866 0.5 132.2959 349.6915)" width="59.999" height="29.999"/>
	</g>
</g>
<g>
</g>
<g>
</g>
<g>
</g>
<g>
</g>
<g>
</g>
<g>
</g>
<g>
</g>
<g>
</g>
<g>
</g>
<g>
</g>
<g>
</g>
<g>
</g>
<g>
</g>
<g>
</g>
<g>
</g>
</svg>
