<?xml version="1.0" encoding="iso-8859-1"?>
<!-- Generator: Adobe Illustrator 19.0.0, SVG Export Plug-In . SVG Version: 6.00 Build 0)  -->
<svg xmlns="http://www.w3.org/2000/svg" xmlns:xlink="http://www.w3.org/1999/xlink" version="1.1" id="Capa_1" x="0px" y="0px" viewBox="0 0 512 512" style="enable-background:new 0 0 512 512;" xml:space="preserve">
<g>
	<g>
		<path d="M80,236c-11.028,0-20,8.972-20,20s8.972,20,20,20s20-8.972,20-20S91.028,236,80,236z"/>
	</g>
</g>
<g>
	<g>
		<path d="M467,0c-24.813,0-45,20.187-45,45s20.187,45,45,45c5.258,0,10.305-0.915,15-2.58V146c0,72.234-58.766,131-131,131    s-131-58.766-131-131V87.42c4.695,1.665,9.742,2.58,15,2.58c24.813,0,45-20.187,45-45S259.813,0,235,0s-45,20.187-45,45v101    c0,83.717,64.232,152.704,146,160.295V437c0,24.813-20.187,45-45,45H140c-24.813,0-45-20.187-45-45V334.569    c36.964-7.043,65-39.585,65-78.569c0-44.112-35.888-80-80-80S0,211.888,0,256c0,38.984,28.036,71.526,65,78.569V437    c0,41.355,33.645,75,75,75h151c41.355,0,75-33.645,75-75V306.295c81.768-7.591,146-76.578,146-160.295V45    C512,20.187,491.813,0,467,0z M235,30c8.271,0,15,6.729,15,15s-6.729,15-15,15s-15-6.729-15-15S226.729,30,235,30z M80,306    c-27.57,0-50-22.43-50-50s22.43-50,50-50s50,22.43,50,50S107.57,306,80,306z M467,60c-8.271,0-15-6.729-15-15s6.729-15,15-15    s15,6.729,15,15S475.271,60,467,60z"/>
	</g>
</g>
<g>
</g>
<g>
</g>
<g>
</g>
<g>
</g>
<g>
</g>
<g>
</g>
<g>
</g>
<g>
</g>
<g>
</g>
<g>
</g>
<g>
</g>
<g>
</g>
<g>
</g>
<g>
</g>
<g>
</g>
</svg>
