<?xml version="1.0" encoding="iso-8859-1"?>
<!-- Generator: Adobe Illustrator 19.0.0, SVG Export Plug-In . SVG Version: 6.00 Build 0)  -->
<svg xmlns="http://www.w3.org/2000/svg" xmlns:xlink="http://www.w3.org/1999/xlink" version="1.1" id="Capa_1" x="0px" y="0px" viewBox="0 0 512 512" style="enable-background:new 0 0 512 512;" xml:space="preserve">
<g>
	<g>
		<path d="M292.429,0.998v94.815H307.4c8.255,0,14.971,6.716,14.971,14.971s-6.716,14.971-14.971,14.971h-14.971v94.815h67.438    c6.179,17.427,22.829,29.942,42.347,29.942s36.168-12.515,42.347-29.942H512V0.998H292.429z M482.058,190.628h-64.873v14.971    c0,8.255-6.716,14.971-14.971,14.971s-14.971-6.716-14.971-14.971v-14.971H322.37v-37.497    c17.427-6.179,29.942-22.828,29.942-42.347s-12.515-36.168-29.942-42.347V30.94h159.688V190.628z"/>
	</g>
</g>
<g>
	<g>
		<path d="M314.386,291.431v14.971c0,8.255-6.716,14.971-14.971,14.971s-14.971-6.716-14.971-14.971v-14.971h-64.873v-37.497    c17.427-6.179,29.942-22.828,29.942-42.347s-12.515-36.168-29.942-42.347v-67.438H0v409.201h409.201V291.431H314.386z     M29.942,131.743H189.63v64.873H204.6c8.255,0,14.971,6.716,14.971,14.971s-6.716,14.971-14.971,14.971H189.63v64.873h-37.497    c-6.179-17.427-22.829-29.942-42.347-29.942s-36.168,12.515-42.347,29.942H29.942V131.743z M189.63,481.06H29.942V321.372h64.873    v-14.971c0-8.255,6.716-14.971,14.971-14.971s14.971,6.716,14.971,14.971v14.971h64.873v37.497    c-17.427,6.179-29.942,22.828-29.942,42.347c0,19.519,12.515,36.168,29.942,42.347V481.06z M379.259,481.06H219.571v-64.873H204.6    c-8.255,0-14.971-6.716-14.971-14.971s6.716-14.971,14.971-14.971h14.971v-64.873h37.497    c6.179,17.427,22.829,29.942,42.347,29.942s36.168-12.515,42.347-29.942h37.497V481.06z"/>
	</g>
</g>
<g>
</g>
<g>
</g>
<g>
</g>
<g>
</g>
<g>
</g>
<g>
</g>
<g>
</g>
<g>
</g>
<g>
</g>
<g>
</g>
<g>
</g>
<g>
</g>
<g>
</g>
<g>
</g>
<g>
</g>
</svg>
