<?xml version="1.0" encoding="iso-8859-1"?>
<!-- Generator: Adobe Illustrator 19.0.0, SVG Export Plug-In . SVG Version: 6.00 Build 0)  -->
<svg xmlns="http://www.w3.org/2000/svg" xmlns:xlink="http://www.w3.org/1999/xlink" version="1.1" id="Capa_1" x="0px" y="0px" viewBox="0 0 512 512" style="enable-background:new 0 0 512 512;" xml:space="preserve">
<g>
	<g>
		<path d="M409.298,328.639v-209.62L290.28,0H42.585v482.939h307.763L394.303,512l55.034-36.689    c12.572-8.381,20.078-22.406,20.078-37.516V328.639H409.298z M299.084,51.313l58.901,58.901h-58.901V51.313z M72.644,452.88    V30.058h196.382v110.214H379.24v188.366h-60.618v109.083c0,5.252,0.925,10.363,2.633,15.158H72.644z M439.356,437.796    c0,5.037-2.502,9.711-6.693,12.504l-38.429,25.62l-38.813-25.662c-4.221-2.79-6.741-7.478-6.741-12.536v-79.025h90.676V437.796z"/>
	</g>
</g>
<g>
	<g>
		<rect x="142.778" y="200.389" width="176.343" height="30.058"/>
	</g>
</g>
<g>
	<g>
		<rect x="142.778" y="260.506" width="176.343" height="30.058"/>
	</g>
</g>
<g>
	<g>
		<rect x="142.778" y="320.623" width="88.171" height="30.058"/>
	</g>
</g>
<g>
</g>
<g>
</g>
<g>
</g>
<g>
</g>
<g>
</g>
<g>
</g>
<g>
</g>
<g>
</g>
<g>
</g>
<g>
</g>
<g>
</g>
<g>
</g>
<g>
</g>
<g>
</g>
<g>
</g>
</svg>
