<?xml version="1.0" encoding="iso-8859-1"?>
<!-- Generator: Adobe Illustrator 19.0.0, SVG Export Plug-In . SVG Version: 6.00 Build 0)  -->
<svg xmlns="http://www.w3.org/2000/svg" xmlns:xlink="http://www.w3.org/1999/xlink" version="1.1" id="Capa_1" x="0px" y="0px" viewBox="0 0 512 512" style="enable-background:new 0 0 512 512;" xml:space="preserve">
<g>
	<g>
		<path d="M256,181c-57.897,0-105,47.103-105,105c0,57.897,47.103,105,105,105c57.897,0,105-47.103,105-105    C361,228.103,313.897,181,256,181z M256,361c-41.355,0-75-33.645-75-75c0-41.355,33.645-75,75-75s75,33.645,75,75    S297.355,361,256,361z"/>
	</g>
</g>
<g>
	<g>
		<polygon points="271,271 271,246 241,246 241,271 216,271 216,301 241,301 241,326 271,326 271,301 296,301 296,271   "/>
	</g>
</g>
<g>
	<g>
		<path d="M331,106V46H181v60H0v360h512V106H331z M211,76h90v30h-90V76z M482,436H30V136h452V436z"/>
	</g>
</g>
<g>
</g>
<g>
</g>
<g>
</g>
<g>
</g>
<g>
</g>
<g>
</g>
<g>
</g>
<g>
</g>
<g>
</g>
<g>
</g>
<g>
</g>
<g>
</g>
<g>
</g>
<g>
</g>
<g>
</g>
</svg>
