<?xml version="1.0" encoding="iso-8859-1"?>
<!-- Generator: Adobe Illustrator 19.0.0, SVG Export Plug-In . SVG Version: 6.00 Build 0)  -->
<svg xmlns="http://www.w3.org/2000/svg" xmlns:xlink="http://www.w3.org/1999/xlink" version="1.1" id="Capa_1" x="0px" y="0px" viewBox="0 0 512 512" style="enable-background:new 0 0 512 512;" xml:space="preserve">
<g>
	<g>
		<path d="M408.496,57.762C371.502,20.503,322.688,0,270.994,0c-0.114,0-0.236,0-0.35,0C164.071,0.191,77.227,86.891,76.013,193.735    L46,292.777V311h60v100h60v101h30V381h-60V281H80.917L106,198.223V196c0-91.37,73.883-165.837,164.698-166c0.1,0,0.197,0,0.297,0    C361.734,30,435.727,104.426,436,196.001v71C436,308.356,402.355,342,361,342h-15v170h30V370.932    c50.817-7.301,90-51.127,90-103.931v-71.045C465.845,144.033,445.423,94.955,408.496,57.762z"/>
	</g>
</g>
<g>
	<g>
		<path d="M361,211v-30h-26.766c-1.624-6.844-4.323-13.275-7.925-19.096l18.937-18.937l-21.213-21.213l-18.937,18.937    c-5.821-3.602-12.252-6.301-19.096-7.925V106h-30v26.766c-6.845,1.624-13.275,4.323-19.096,7.925l-18.937-18.937l-21.213,21.213    l18.937,18.937c-3.602,5.821-6.301,12.251-7.925,19.096H181v30h26.766c1.624,6.845,4.323,13.275,7.925,19.096l-18.937,18.937    l21.213,21.213l18.937-18.937c5.821,3.602,12.252,6.301,19.096,7.925V286h30v-26.766c6.844-1.624,13.275-4.323,19.096-7.925    l18.937,18.937l21.213-21.213l-18.937-18.937c3.602-5.821,6.301-12.252,7.925-19.096H361z M271,231c-19.299,0-35-15.701-35-35    s15.701-35,35-35s35,15.701,35,35S290.299,231,271,231z"/>
	</g>
</g>
<g>
</g>
<g>
</g>
<g>
</g>
<g>
</g>
<g>
</g>
<g>
</g>
<g>
</g>
<g>
</g>
<g>
</g>
<g>
</g>
<g>
</g>
<g>
</g>
<g>
</g>
<g>
</g>
<g>
</g>
</svg>
