<?xml version="1.0" encoding="iso-8859-1"?>
<!-- Generator: Adobe Illustrator 19.0.0, SVG Export Plug-In . SVG Version: 6.00 Build 0)  -->
<svg xmlns="http://www.w3.org/2000/svg" xmlns:xlink="http://www.w3.org/1999/xlink" version="1.1" id="Capa_1" x="0px" y="0px" viewBox="0 0 512.001 512.001" style="enable-background:new 0 0 512.001 512.001;" xml:space="preserve">
<g>
	<g>
		<path d="M338.72,274.695c-6.882-3.974-14.287-6.594-21.899-7.855c8.65-23.132,3.708-50.234-14.864-68.806l-21.211,21.21    c13.644,13.645,13.644,35.848,0,49.492c-13.645,13.644-35.848,13.644-49.492,0c-13.644-13.645-13.644-35.848,0-49.492    l-21.21-21.211c-18.571,18.571-23.513,45.673-14.863,68.805c-7.612,1.262-15.017,3.883-21.899,7.856    c-15.034,8.681-25.788,22.695-30.281,39.464l28.975,7.764c3.87-16.761,23.534-30.425,42.861-24.746    c17.614,5.176,29.834,23.15,24.746,42.861c-4.822,18.685-24.224,29.739-42.861,24.746l-7.764,28.975    c5.614,1.504,11.253,2.222,16.807,2.222c19.554-0.002,38.005-8.914,50.237-23.767c12.233,14.855,30.682,23.767,50.239,23.767    c5.552,0,11.196-0.718,16.807-2.222l-7.764-28.975c-18.636,4.992-37.869-6.105-42.861-24.746    c-4.921-18.378,6.375-37.495,24.746-42.861c21.159-6.179,39.157,9.152,42.861,24.746l28.974-7.764    C364.509,297.39,353.754,283.375,338.72,274.695z"/>
	</g>
</g>
<g>
	<g>
		<path d="M503.839,395.379l-195.7-338.962C297.257,37.569,277.766,26.315,256,26.315c-21.765,0-41.257,11.254-52.139,30.102    L8.162,395.378c-10.883,18.85-10.883,41.356,0,60.205c10.883,18.849,30.373,30.102,52.139,30.102h391.398    c21.765,0,41.256-11.254,52.14-30.101C514.722,436.734,514.722,414.228,503.839,395.379z M477.861,440.586    c-5.461,9.458-15.241,15.104-26.162,15.104H60.301c-10.922,0-20.702-5.646-26.162-15.104c-5.46-9.458-5.46-20.75,0-30.208    L229.84,71.416c5.46-9.458,15.24-15.104,26.161-15.104c10.92,0,20.701,5.646,26.161,15.104l195.7,338.962    C483.321,419.836,483.321,431.128,477.861,440.586z"/>
	</g>
</g>
<g>
</g>
<g>
</g>
<g>
</g>
<g>
</g>
<g>
</g>
<g>
</g>
<g>
</g>
<g>
</g>
<g>
</g>
<g>
</g>
<g>
</g>
<g>
</g>
<g>
</g>
<g>
</g>
<g>
</g>
</svg>
