<?xml version="1.0" encoding="iso-8859-1"?>
<!-- Generator: Adobe Illustrator 19.0.0, SVG Export Plug-In . SVG Version: 6.00 Build 0)  -->
<svg xmlns="http://www.w3.org/2000/svg" xmlns:xlink="http://www.w3.org/1999/xlink" version="1.1" id="Capa_1" x="0px" y="0px" viewBox="0 0 512 512" style="enable-background:new 0 0 512 512;" xml:space="preserve">
<g>
	<g>
		<path d="M352,30V0H159v30H66v482h380V30H352z M189,30h133v30H189V30z M416,482H96V60h63v30h193V60h64V482z"/>
	</g>
</g>
<g>
	<g>
		<polygon points="291.519,245.423 242.4,294.812 220.398,273.032 199.293,294.353 242.566,337.188 312.79,266.577   "/>
	</g>
</g>
<g>
	<g>
		<path d="M256,156c-71.683,0-130,58.318-130,130s58.317,130,130,130s130-58.318,130-130S327.683,156,256,156z M256,386    c-55.141,0-100-44.86-100-100s44.859-100,100-100s100,44.86,100,100S311.141,386,256,386z"/>
	</g>
</g>
<g>
</g>
<g>
</g>
<g>
</g>
<g>
</g>
<g>
</g>
<g>
</g>
<g>
</g>
<g>
</g>
<g>
</g>
<g>
</g>
<g>
</g>
<g>
</g>
<g>
</g>
<g>
</g>
<g>
</g>
</svg>
