<?xml version="1.0" encoding="iso-8859-1"?>
<!-- Generator: Adobe Illustrator 19.0.0, SVG Export Plug-In . SVG Version: 6.00 Build 0)  -->
<svg xmlns="http://www.w3.org/2000/svg" xmlns:xlink="http://www.w3.org/1999/xlink" version="1.1" id="Capa_1" x="0px" y="0px" viewBox="0 0 512 512" style="enable-background:new 0 0 512 512;" xml:space="preserve">
<g>
	<g>
		<path d="M482,387c0-3.084-0.313-6.096-0.907-9.007C500.792,341.725,512,300.175,512,256C512,114.615,397.385,0,256,0    S0,114.615,0,256s114.615,256,256,256c37.812,0,73.7-8.211,106-22.929V512h150V402h-30V387z M30,256C30,131.184,131.184,30,256,30    s226,101.184,226,226c0,33.341-7.235,64.988-20.2,93.476C454.684,344.757,446.16,342,437,342    c-12.224,0-23.318,4.905-31.436,12.843c-16.28-17.336-35.561-31.887-56.679-42.638c-9.29-4.729-18.82-8.7-28.556-11.926    C350.881,279.586,371,244.598,371,205c0-63.411-51.589-115-115-115s-115,51.589-115,115c0,39.603,20.123,74.594,50.68,95.287    c-48.071,15.822-89.049,49.089-114.352,94.102C47.667,356.15,30,308.141,30,256z M452,387v15h-30v-15c0-8.271,6.729-15,15-15    S452,378.729,452,387z M256,290c-46.869,0-85-38.131-85-85s38.131-85,85-85s85,38.131,85,85S302.869,290,256,290z M362,455.633    C330.386,472.456,294.31,482,256,482c-61.158,0-116.632-24.303-157.319-63.765C127.937,358.241,188.646,320,256,320    c53.385,0,102.632,23.593,136.052,64.934C392.021,385.619,392,386.307,392,387v15h-30V455.633z M482,482h-90v-50h90V482z"/>
	</g>
</g>
<g>
</g>
<g>
</g>
<g>
</g>
<g>
</g>
<g>
</g>
<g>
</g>
<g>
</g>
<g>
</g>
<g>
</g>
<g>
</g>
<g>
</g>
<g>
</g>
<g>
</g>
<g>
</g>
<g>
</g>
</svg>
