<?xml version="1.0" encoding="iso-8859-1"?>
<!-- Generator: Adobe Illustrator 19.0.0, SVG Export Plug-In . SVG Version: 6.00 Build 0)  -->
<svg xmlns="http://www.w3.org/2000/svg" xmlns:xlink="http://www.w3.org/1999/xlink" version="1.1" id="Capa_1" x="0px" y="0px" viewBox="0 0 512 512" style="enable-background:new 0 0 512 512;" xml:space="preserve">
<g>
	<g>
		<path d="M356,392h-5v-32.082c43.987-30.951,70-80.781,70-134.918c0-90.981-74.019-165-165-165S91,134.019,91,225    c0,54.137,26.013,103.967,70,134.918V392h-5c-24.813,0-45,20.187-45,45s20.187,45,45,45h40v30h120v-30h40    c24.813,0,45-20.187,45-45S380.813,392,356,392z M121,225c0-74.439,60.561-135,135-135s135,60.561,135,135    c0,46.593-23.556,89.291-63.012,114.217L321,343.632V392h-50v-89.787l55.606-55.606l-21.213-21.213L256,274.787l-49.394-49.394    l-21.213,21.213L241,302.213V392h-50v-48.368l-6.989-4.415C144.556,314.291,121,271.593,121,225z M356,452H156    c-8.271,0-15-6.729-15-15s6.729-15,15-15h200c8.271,0,15,6.729,15,15S364.271,452,356,452z"/>
	</g>
</g>
<g>
	<g>
		<rect x="241" width="30" height="30"/>
	</g>
</g>
<g>
	<g>
		<rect x="136.001" y="28.136" transform="matrix(0.866 -0.5 0.5 0.866 -1.3373 81.2813)" width="29.999" height="29.999"/>
	</g>
</g>
<g>
	<g>
		<rect x="59.129" y="104.995" transform="matrix(0.5 -0.866 0.866 0.5 -66.8545 124.1929)" width="29.999" height="29.999"/>
	</g>
</g>
<g>
	<g>
		<rect x="31" y="210" width="30" height="30"/>
	</g>
</g>
<g>
	<g>
		<rect x="59.125" y="315.004" transform="matrix(0.866 -0.5 0.5 0.866 -155.0741 81.2776)" width="29.999" height="29.999"/>
	</g>
</g>
<g>
	<g>
		<rect x="422.875" y="315.005" transform="matrix(0.5 -0.866 0.866 0.5 -66.858 544.2069)" width="29.999" height="29.999"/>
	</g>
</g>
<g>
	<g>
		<rect x="451" y="210" width="30" height="30"/>
	</g>
</g>
<g>
	<g>
		<rect x="422.875" y="104.996" transform="matrix(0.866 -0.5 0.5 0.866 -1.3321 235.0196)" width="29.999" height="29.999"/>
	</g>
</g>
<g>
	<g>
		<rect x="345.989" y="28.14" transform="matrix(0.5 -0.866 0.866 0.5 143.1311 334.1924)" width="29.999" height="29.999"/>
	</g>
</g>
<g>
</g>
<g>
</g>
<g>
</g>
<g>
</g>
<g>
</g>
<g>
</g>
<g>
</g>
<g>
</g>
<g>
</g>
<g>
</g>
<g>
</g>
<g>
</g>
<g>
</g>
<g>
</g>
<g>
</g>
</svg>
