<?xml version="1.0" encoding="iso-8859-1"?>
<!-- Generator: Adobe Illustrator 19.0.0, SVG Export Plug-In . SVG Version: 6.00 Build 0)  -->
<svg xmlns="http://www.w3.org/2000/svg" xmlns:xlink="http://www.w3.org/1999/xlink" version="1.1" id="Capa_1" x="0px" y="0px" viewBox="0 0 496 496" style="enable-background:new 0 0 496 496;" xml:space="preserve">
<g>
	<path style="fill:#FFA64D;" d="M408,392H298.192c-13.728,9.984-31.168,16-50.192,16v16h168L408,392z"/>
	<polygon style="fill:#FFA64D;" points="248,488 440,488 432,448 248,448  "/>
	<path style="fill:#FFA64D;" d="M240,144v56c0,22.056,17.944,40,40,40h72v-96H240z"/>
</g>
<g>
	<path style="fill:#333333;" d="M424.504,411.608c-11.152-35.688-42.24-62.424-79.2-68.112L304,337.136v-8.288   c26.92-15.624,46.784-42.072,53.488-73.4C376.928,252.736,392,236.176,392,216v-72C392,64.6,327.4,0,248,0S104,64.6,104,144v72   c0,20.176,15.072,36.736,34.512,39.448c6.704,31.328,26.568,57.776,53.488,73.4v8.288l-41.304,6.352   c-36.96,5.688-68.048,32.424-79.2,68.112L45.12,496h405.76L424.504,411.608z M348.936,464l2,16H256v-16h16v-16h-16v-16h88.936l2,16   H288v16H348.936z M401.824,400c2.92,5.048,5.456,10.336,7.256,16H256v-0.328c16.624-1.36,31.984-6.984,44.752-15.672H401.824z    M256,383.424c8.488-0.92,15.736-3.168,21.768-6.344l11.44,11.44c-9.656,5.976-21.008,9.84-33.208,11.04V383.424z M301.824,378.512   l-11.008-11.008c4.768-4.776,8.232-9.928,10.424-14.6l15.384,2.368C313.528,364.024,308.44,371.896,301.824,378.512z M288,342.824   c-1.368,4.16-9.768,25.176-40,25.176c-30.224,0-38.608-20.92-40-25.176v-6.336c12.44,4.784,25.896,7.512,40,7.512   s27.56-2.728,40-7.512V342.824z M240,383.424v16.144c-28.376-2.784-52.112-20.2-60.616-44.296l15.384-2.368   C200.48,365.104,214.432,380.64,240,383.424z M361.064,432h53.056l5,16h-56.056L361.064,432z M389.832,384h-71.44   c6.392-7.744,11.32-16.584,14.304-26.264l10.176,1.568C361.056,362.104,377.424,371.096,389.832,384z M256,136v-16h16v16H256z    M288,120h16v16h-16V120z M320,120h16v16h-16V120z M360,152h16v32.208c-4.672-3.536-10.056-6.184-16-7.392V152z M375.592,136H360   h-8v-16h21.664C374.664,125.224,375.256,130.576,375.592,136z M359.664,238.632C359.792,236.424,360,234.24,360,232v-38.528   c9.288,3.312,16,12.112,16,22.528C376,226.536,369.128,235.416,359.664,238.632z M369.512,104H256V16.408   C309.08,19.712,353.464,55.4,369.512,104z M240,16.408V104H126.488C142.536,55.4,186.92,19.712,240,16.408z M136,152v24.808   c-5.944,1.216-11.328,3.856-16,7.392V152H136z M120,216c0-10.416,6.712-19.216,16-22.528V232c0,2.24,0.208,4.424,0.336,6.632   C126.872,235.416,120,226.536,120,216z M136,136h-15.592c0.336-5.424,0.936-10.776,1.928-16H240v16h-96H136z M152,232v-80h192v80   c0,52.936-43.064,96-96,96S152,284.936,152,232z M86.768,416.376c9.344-29.904,35.392-52.312,66.36-57.072l10.176-1.568   c9.824,31.856,40.36,54.952,76.696,57.928V480h-94.936l6.872-55.008l-15.872-1.984L128.936,480H66.88L86.768,416.376z M367.064,480   l-2-16h59.056l5,16H367.064z"/>
	<path style="fill:#333333;" d="M216,188c0-11.024-8.976-20-20-20s-20,8.976-20,20s8.976,20,20,20S216,199.024,216,188z M192,188   c0-2.208,1.792-4,4-4s4,1.792,4,4s-1.792,4-4,4S192,190.208,192,188z"/>
	<path style="fill:#333333;" d="M300,208c11.024,0,20-8.976,20-20s-8.976-20-20-20s-20,8.976-20,20S288.976,208,300,208z M300,184   c2.208,0,4,1.792,4,4s-1.792,4-4,4s-4-1.792-4-4S297.792,184,300,184z"/>
	<path style="fill:#333333;" d="M312,248h-16c0,26.472-21.528,48-48,48s-48-21.528-48-48h-16c0,35.288,28.712,64,64,64   S312,283.288,312,248z"/>
</g>
<g>
</g>
<g>
</g>
<g>
</g>
<g>
</g>
<g>
</g>
<g>
</g>
<g>
</g>
<g>
</g>
<g>
</g>
<g>
</g>
<g>
</g>
<g>
</g>
<g>
</g>
<g>
</g>
<g>
</g>
</svg>
