<?xml version="1.0" encoding="iso-8859-1"?>
<!-- Generator: Adobe Illustrator 19.0.0, SVG Export Plug-In . SVG Version: 6.00 Build 0)  -->
<svg xmlns="http://www.w3.org/2000/svg" xmlns:xlink="http://www.w3.org/1999/xlink" version="1.1" id="Capa_1" x="0px" y="0px" viewBox="0 0 496 496" style="enable-background:new 0 0 496 496;" xml:space="preserve">
<path style="fill:#FFA64D;" d="M128,200c0,66.272,53.728,120,120,120V80C181.728,80,128,133.728,128,200z"/>
<g>
	<rect x="96" y="448" style="fill:#333333;" width="16" height="16"/>
	<rect x="128" y="448" style="fill:#333333;" width="16" height="16"/>
	<path style="fill:#333333;" d="M464,416V184c0-22.056-17.944-40-40-40h-34.824C366.816,87.848,312.024,48,248,48   s-118.816,39.848-141.176,96H72c-22.056,0-40,17.944-40,40v232H0v40c0,22.056,17.944,40,40,40h416c22.056,0,40-17.944,40-40v-40   H464z M424,160c13.232,0,24,10.768,24,24v232h-16V176h-34.088c-0.872-5.44-2-10.768-3.432-16H424z M256,64.408   C327.264,68.584,384,127.712,384,200s-56.736,131.416-128,135.592V64.408z M206.592,288.376c9.584-4.024,20.784-7.08,33.408-8.024   v48.04C230.768,320.752,217.744,307.696,206.592,288.376z M221.4,333.376c-18.416-3.672-35.48-11.104-50.4-21.424   c4.272-4.192,11.376-10.352,21.104-16.2C201.448,312.168,212.128,324.56,221.4,333.376z M199.304,274.032   c-7.968-17.744-13.936-39.56-14.968-66.032H240v56.344C224.464,265.344,210.84,269.08,199.304,274.032z M184.336,192   c1.008-26.568,6.904-48.4,14.792-66.12c11.576,5,25.256,8.768,40.88,9.776V192H184.336z M240,71.416v48.232   c-12.688-0.96-23.968-4.064-33.616-8.152C217.568,92.032,230.688,79.008,240,71.416z M192.136,104.192   c-9.712-5.832-16.832-11.976-21.12-16.152c14.912-10.312,31.968-17.736,50.376-21.408   C212.136,75.424,201.48,87.808,192.136,104.192z M158.344,98.056c4.968,5.08,13.888,13.144,26.472,20.568   c-8.864,19.648-15.44,43.88-16.48,73.376H112.4C114.592,154.64,131.96,121.344,158.344,98.056z M168.336,208   c1.04,29.496,7.616,53.728,16.48,73.376c-12.584,7.416-21.504,15.488-26.472,20.568C131.96,278.656,114.592,245.36,112.408,208   H168.336z M248,352c83.816,0,152-68.184,152-152c0-2.704-0.264-5.336-0.408-8H416v224H288v16h16v8c0,4.408-3.592,8-8,8h-96   c-4.408,0-8-3.592-8-8v-8h80v-16H80V192h16.408c-0.144,2.664-0.408,5.296-0.408,8C96,283.816,164.184,352,248,352z M48,184   c0-13.232,10.768-24,24-24h29.52c-1.432,5.232-2.568,10.56-3.432,16H64v240H48V184z M480,456c0,13.232-10.768,24-24,24H40   c-13.232,0-24-10.768-24-24v-24h160v8c0,13.232,10.768,24,24,24h96c13.232,0,24-10.768,24-24v-8h160V456z"/>
	<path style="fill:#333333;" d="M320,128c-17.648,0-32,14.352-32,32v17.472c-9.288,3.312-16,12.112-16,22.528v32   c0,13.232,10.768,24,24,24h48c13.232,0,24-10.768,24-24v-32c0-10.416-6.712-19.216-16-22.528V160C352,142.352,337.648,128,320,128z    M320,144c8.824,0,16,7.176,16,16v16h-32v-16C304,151.176,311.176,144,320,144z M352,232c0,4.408-3.592,8-8,8h-48   c-4.408,0-8-3.592-8-8v-32c0-4.408,3.592-8,8-8h48c4.408,0,8,3.592,8,8V232z"/>
	<path style="fill:#333333;" d="M378.336,329.88C343.552,364.784,297.272,384,248,384c-32.344,0-64.16-8.504-91.984-24.608   L148,373.24C178.264,390.744,212.84,400,248,400c53.552,0,103.864-20.888,141.664-58.824L378.336,329.88z"/>
</g>
<path style="fill:#FFA64D;" d="M128,384c-17.648,0-32-14.352-32-32s14.352-32,32-32s32,14.352,32,32S145.648,384,128,384z"/>
<path style="fill:#333333;" d="M117.664,70.12l-11.336-11.296C144.136,20.888,194.448,0,248,0c35.16,0,69.736,9.256,100,26.76  l-8.016,13.848C312.16,24.504,280.344,16,248,16C198.728,16,152.448,35.216,117.664,70.12z"/>
<path style="fill:#FFA64D;" d="M368,80c-17.648,0-32-14.352-32-32s14.352-32,32-32s32,14.352,32,32S385.648,80,368,80z"/>
<g>
</g>
<g>
</g>
<g>
</g>
<g>
</g>
<g>
</g>
<g>
</g>
<g>
</g>
<g>
</g>
<g>
</g>
<g>
</g>
<g>
</g>
<g>
</g>
<g>
</g>
<g>
</g>
<g>
</g>
</svg>
