<?xml version="1.0" encoding="iso-8859-1"?>
<!-- Generator: Adobe Illustrator 19.0.0, SVG Export Plug-In . SVG Version: 6.00 Build 0)  -->
<svg xmlns="http://www.w3.org/2000/svg" xmlns:xlink="http://www.w3.org/1999/xlink" version="1.1" id="Capa_1" x="0px" y="0px" viewBox="0 0 496 496" style="enable-background:new 0 0 496 496;" xml:space="preserve">
<g>
	<path style="fill:#333333;" d="M352,59.347v-43.36h-64v16h48v94.96l-88,55.584l-88-55.584v-94.96h48v-16h-64v43.36l-56,32v204.64   h64v176c0,13.232,10.768,24,24,24h144c13.232,0,24-10.768,24-24v-176h64V91.347L352,59.347z M352,77.771l32.472,18.56L352,116.843   V77.771z M248,201.451l9.88-6.24l28.768,20.776H209.36l28.768-20.776L248,201.451z M144,77.771v39.064l-32.472-20.512L144,77.771z    M152,279.987h-31.256L152,257.411V279.987z M152.256,237.491L104,272.339V110.507l119.544,75.496l-41.52,29.984H176   C163.624,215.987,153.52,225.443,152.256,237.491z M328,471.987c0,4.408-3.584,8-8,8H176c-4.416,0-8-3.592-8-8v-40h160V471.987z    M328,415.987H168v-136h160V415.987z M328,263.987H168v-24c0-4.408,3.584-8,8-8h144c4.416,0,8,3.592,8,8V263.987z M344,279.987   v-22.576l31.256,22.576H344z M392,272.339l-48.256-34.848c-1.264-12.048-11.368-21.504-23.744-21.504h-6.024l-41.52-29.984   L392,110.507V272.339z"/>
	<rect x="224" y="447.987" style="fill:#333333;" width="48" height="16"/>
	<rect x="184" y="383.987" style="fill:#333333;" width="16" height="16"/>
	<rect x="184" y="295.987" style="fill:#333333;" width="16" height="72"/>
	<path style="fill:#333333;" d="M21.376,348.851C7.184,317.027,0,283.091,0,247.987c0-39.488,9.008-77.24,26.784-112.208   l14.264,7.248C24.432,175.731,16,211.043,16,247.987c0,32.84,6.728,64.592,19.984,94.344L21.376,348.851z"/>
</g>
<path style="fill:#FFA64D;" d="M48,151.987c-17.648,0-32-14.352-32-32s14.352-32,32-32s32,14.352,32,32S65.648,151.987,48,151.987z"/>
<path style="fill:#333333;" d="M469.216,305.803l-14.264-7.248C471.568,265.851,480,230.539,480,193.595  c0-32.84-6.728-64.592-19.984-94.344l14.608-6.512C488.816,124.555,496,158.483,496,193.595  C496,233.083,486.992,270.835,469.216,305.803z"/>
<g>
	<path style="fill:#FFA64D;" d="M448,353.587c-17.648,0-32-14.352-32-32s14.352-32,32-32s32,14.352,32,32   S465.648,353.587,448,353.587z"/>
	<path style="fill:#FFA64D;" d="M296,151.987h-96v-26.384c-17.624-15.752-26.36-38.888-23.448-62.656   c3.984-32.576,30.56-58.856,63.176-62.496c20.536-2.248,41,4.216,56.248,17.856C311.248,31.955,320,51.523,320,71.987   c0,20.616-8.696,39.944-24,53.616V151.987z"/>
</g>
<g>
	<rect x="224" y="119.987" style="fill:#333333;" width="16" height="32"/>
	<rect x="256" y="119.987" style="fill:#333333;" width="16" height="32"/>
	<path style="fill:#333333;" d="M220,79.987c-11.032,0-20-8.976-20-20s8.968-20,20-20s20,8.976,20,20S231.032,79.987,220,79.987z    M220,55.987c-2.2,0-4,1.792-4,4s1.8,4,4,4s4-1.792,4-4S222.2,55.987,220,55.987z"/>
	<path style="fill:#333333;" d="M276,79.987c-11.032,0-20-8.976-20-20s8.968-20,20-20s20,8.976,20,20S287.032,79.987,276,79.987z    M276,55.987c-2.2,0-4,1.792-4,4s1.8,4,4,4s4-1.792,4-4S278.2,55.987,276,55.987z"/>
</g>
<g>
</g>
<g>
</g>
<g>
</g>
<g>
</g>
<g>
</g>
<g>
</g>
<g>
</g>
<g>
</g>
<g>
</g>
<g>
</g>
<g>
</g>
<g>
</g>
<g>
</g>
<g>
</g>
<g>
</g>
</svg>
