<?xml version="1.0" encoding="iso-8859-1"?>
<!-- Generator: Adobe Illustrator 19.0.0, SVG Export Plug-In . SVG Version: 6.00 Build 0)  -->
<svg xmlns="http://www.w3.org/2000/svg" xmlns:xlink="http://www.w3.org/1999/xlink" version="1.1" id="Capa_1" x="0px" y="0px" viewBox="0 0 496 496" style="enable-background:new 0 0 496 496;" xml:space="preserve">
<g>
	<path style="fill:#333333;" d="M280,32c0-17.648-14.352-32-32-32s-32,14.352-32,32c0,14.864,10.232,27.288,24,30.864V144h16V62.864   C269.768,59.288,280,46.864,280,32z M248,48c-8.824,0-16-7.176-16-16s7.176-16,16-16s16,7.176,16,16S256.824,48,248,48z"/>
	<rect x="152" y="448" style="fill:#333333;" width="16" height="16"/>
	<path style="fill:#333333;" d="M376,384V256c0-8.824-7.176-16-16-16h-40v16h40v128H376z"/>
	<rect x="48" y="48" style="fill:#333333;" width="80" height="16"/>
	<rect x="32" y="80" style="fill:#333333;" width="112" height="16"/>
	<rect x="48" y="112" style="fill:#333333;" width="16" height="16"/>
	<rect x="80" y="112" style="fill:#333333;" width="16" height="16"/>
	<rect x="112" y="112" style="fill:#333333;" width="16" height="16"/>
	<rect x="120" y="448" style="fill:#333333;" width="16" height="16"/>
	<path style="fill:#333333;" d="M408,0c-48.52,0-88,39.48-88,88s39.48,88,88,88c17.712,0,34.184-5.304,48-14.336V344   c0,13.232-10.768,24-24,24h-24V248c0-22.056-17.944-40-40-40h-56v16h56c13.232,0,24,10.768,24,24v168h-16v-16h-16v16H136V256h40   v-16h-40c-8.824,0-16,7.176-16,16v160h-16V248c0-13.232,10.768-24,24-24h56v-16h-56c-22.056,0-40,17.944-40,40v120H64   c-13.232,0-24-10.768-24-24V161.664C53.816,170.696,70.288,176,88,176c48.52,0,88-39.48,88-88S136.52,0,88,0S0,39.48,0,88   c0,23.296,9.168,44.456,24,60.208V344c0,22.056,17.944,40,40,40h24v32H72v40c0,22.056,17.944,40,40,40h272   c22.056,0,40-17.944,40-40v-40h-16v-32h24c22.056,0,40-17.944,40-40V148.208c14.832-15.76,24-36.912,24-60.208   C496,39.48,456.52,0,408,0z M16,88c0-39.696,32.296-72,72-72s72,32.304,72,72s-32.296,72-72,72S16,127.696,16,88z M216,432h64v8   c0,4.408-3.584,8-8,8h-48c-4.416,0-8-3.592-8-8V432z M408,456c0,13.232-10.768,24-24,24H112c-13.232,0-24-10.768-24-24v-24h112v8   c0,13.232,10.768,24,24,24h48c13.232,0,24-10.768,24-24v-8h112V456z M408,160c-39.704,0-72-32.304-72-72s32.296-72,72-72   s72,32.304,72,72S447.704,160,408,160z"/>
	<rect x="368" y="48" style="fill:#333333;" width="80" height="16"/>
	<rect x="352" y="80" style="fill:#333333;" width="112" height="16"/>
	<rect x="368" y="112" style="fill:#333333;" width="16" height="16"/>
	<rect x="400" y="112" style="fill:#333333;" width="16" height="16"/>
	<rect x="432" y="112" style="fill:#333333;" width="16" height="16"/>
</g>
<path style="fill:#FFA64D;" d="M304,352H192v-36.232c-20.392-16.816-32-41.28-32-67.768c0-48.52,39.48-88,88-88s88,39.48,88,88  c0,26.488-11.608,50.952-32,67.768V352z"/>
<g>
	<rect x="208" y="320" style="fill:#333333;" width="16" height="32"/>
	<rect x="240" y="320" style="fill:#333333;" width="16" height="32"/>
	<rect x="272" y="320" style="fill:#333333;" width="16" height="32"/>
	<path style="fill:#333333;" d="M216,264c-13.232,0-24-10.768-24-24s10.768-24,24-24s24,10.768,24,24S229.232,264,216,264z M216,232   c-4.416,0-8,3.592-8,8s3.584,8,8,8s8-3.592,8-8S220.416,232,216,232z"/>
	<path style="fill:#333333;" d="M280,264c-13.232,0-24-10.768-24-24s10.768-24,24-24s24,10.768,24,24S293.232,264,280,264z M280,232   c-4.416,0-8,3.592-8,8s3.584,8,8,8s8-3.592,8-8S284.416,232,280,232z"/>
</g>
<g>
</g>
<g>
</g>
<g>
</g>
<g>
</g>
<g>
</g>
<g>
</g>
<g>
</g>
<g>
</g>
<g>
</g>
<g>
</g>
<g>
</g>
<g>
</g>
<g>
</g>
<g>
</g>
<g>
</g>
</svg>
