<?xml version="1.0" encoding="iso-8859-1"?>
<!-- Generator: Adobe Illustrator 19.0.0, SVG Export Plug-In . SVG Version: 6.00 Build 0)  -->
<svg xmlns="http://www.w3.org/2000/svg" xmlns:xlink="http://www.w3.org/1999/xlink" version="1.1" id="Capa_1" x="0px" y="0px" viewBox="0 0 496 496" style="enable-background:new 0 0 496 496;" xml:space="preserve">
<g>
	<path style="fill:#333333;" d="M432,312v72H64v-72H48v96c0,22.056,17.944,40,40,40h40v32H96v16h304v-16h-32v-32h40   c22.056,0,40-17.944,40-40v-96H432z M352,480H144v-32h208V480z M408,432H88c-13.232,0-24-10.768-24-24v-8h368v8   C432,421.232,421.232,432,408,432z"/>
	<polygon style="fill:#333333;" points="224,240 184,240 184,256 208,256 208,352 112,352 112,320 96,320 96,368 224,368  "/>
	<polygon style="fill:#333333;" points="400,320 384,320 384,352 288,352 288,256 312,256 312,240 272,240 272,368 400,368  "/>
	<rect x="160" y="160" style="fill:#333333;" width="176" height="16"/>
</g>
<path style="fill:#FFA64D;" d="M152,154.088V104H40v50.088C14.872,172.144,0,200.944,0,232c0,52.936,43.064,96,96,96  s96-43.064,96-96C192,200.944,177.128,172.144,152,154.088z M96,288c-30.928,0-56-25.072-56-56s25.072-56,56-56s56,25.072,56,56  S126.928,288,96,288z"/>
<path style="fill:#333333;" d="M96,296c-35.288,0-64-28.712-64-64s28.712-64,64-64s64,28.712,64,64S131.288,296,96,296z M96,184  c-26.472,0-48,21.528-48,48s21.528,48,48,48s48-21.528,48-48S122.472,184,96,184z"/>
<path style="fill:#FFA64D;" d="M456,154.088V104H344v50.088c-25.128,18.056-40,46.856-40,77.912c0,52.936,43.064,96,96,96  s96-43.064,96-96C496,200.944,481.128,172.144,456,154.088z M400,288c-30.928,0-56-25.072-56-56s25.072-56,56-56s56,25.072,56,56  S430.928,288,400,288z"/>
<g>
	<path style="fill:#333333;" d="M400,296c-35.288,0-64-28.712-64-64s28.712-64,64-64s64,28.712,64,64S435.288,296,400,296z M400,184   c-26.472,0-48,21.528-48,48s21.528,48,48,48s48-21.528,48-48S426.472,184,400,184z"/>
	<path style="fill:#333333;" d="M376,56c0-17.648-14.352-32-32-32c-3.04,0-5.928,0.56-8.712,1.36C332.216,10.896,319.368,0,304,0   c-8.4,0-16,3.32-21.712,8.64C277.88,3.4,271.36,0,264,0h-32c-7.36,0-13.88,3.4-18.288,8.64C208,3.32,200.4,0,192,0   c-15.368,0-28.216,10.896-31.288,25.36C157.928,24.56,155.04,24,152,24c-17.648,0-32,14.352-32,32c-17.648,0-32,14.352-32,32   s14.352,32,32,32s32-14.352,32-32c15.368,0,28.216-10.896,31.288-25.36C186.072,63.44,188.96,64,192,64   c12.912,0,24-7.728,29.056-18.768C224.352,46.944,228.04,48,232,48h32c3.96,0,7.648-1.056,10.944-2.768   C280,56.272,291.088,64,304,64c3.04,0,5.928-0.56,8.712-1.36C315.784,77.104,328.632,88,344,88c0,17.648,14.352,32,32,32   s32-14.352,32-32S393.648,56,376,56z M136,88c0,8.824-7.176,16-16,16s-16-7.176-16-16s7.176-16,16-16   c1.728,0,3.352,0.344,4.912,0.856c2.592,4.152,6.08,7.64,10.232,10.232C135.656,84.648,136,86.272,136,88z M152,72   c-1.728,0-3.352-0.344-4.912-0.856c-2.592-4.152-6.08-7.64-10.232-10.232C136.344,59.352,136,57.728,136,56c0-8.824,7.176-16,16-16   c3.96,0,7.552,1.504,10.352,3.896c1.264,3.136,3.072,5.952,5.208,8.504c0.264,1.168,0.44,2.36,0.44,3.6   C168,64.824,160.824,72,152,72z M192,48c-3.96,0-7.552-1.504-10.352-3.896c-1.264-3.136-3.072-5.952-5.208-8.504   c-0.264-1.168-0.44-2.36-0.44-3.6c0-8.824,7.176-16,16-16s16,7.176,16,16S200.824,48,192,48z M264,32h-32c-4.416,0-8-3.592-8-8   s3.584-8,8-8h32c4.416,0,8,3.592,8,8S268.416,32,264,32z M288,32c0-8.824,7.176-16,16-16s16,7.176,16,16   c0,1.24-0.176,2.432-0.44,3.592c-2.136,2.552-3.944,5.376-5.208,8.504C311.552,46.496,307.96,48,304,48   C295.176,48,288,40.824,288,32z M344,72c-8.824,0-16-7.176-16-16c0-1.24,0.176-2.432,0.44-3.592   c2.136-2.552,3.944-5.376,5.208-8.504C336.448,41.504,340.04,40,344,40c8.824,0,16,7.176,16,16c0,1.728-0.344,3.352-0.856,4.912   c-4.152,2.592-7.64,6.08-10.232,10.232C347.352,71.656,345.728,72,344,72z M376,104c-8.824,0-16-7.176-16-16   c0-1.728,0.344-3.352,0.856-4.912c4.152-2.592,7.64-6.08,10.232-10.232C372.648,72.344,374.272,72,376,72c8.824,0,16,7.176,16,16   S384.824,104,376,104z"/>
	<rect x="144" y="320" style="fill:#333333;" width="48" height="16"/>
	<rect x="304" y="320" style="fill:#333333;" width="48" height="16"/>
	<rect x="176" y="288" style="fill:#333333;" width="16" height="16"/>
	<rect x="304" y="288" style="fill:#333333;" width="16" height="16"/>
</g>
<g>
</g>
<g>
</g>
<g>
</g>
<g>
</g>
<g>
</g>
<g>
</g>
<g>
</g>
<g>
</g>
<g>
</g>
<g>
</g>
<g>
</g>
<g>
</g>
<g>
</g>
<g>
</g>
<g>
</g>
</svg>
