<?xml version="1.0" encoding="iso-8859-1"?>
<!-- Generator: Adobe Illustrator 19.0.0, SVG Export Plug-In . SVG Version: 6.00 Build 0)  -->
<svg xmlns="http://www.w3.org/2000/svg" xmlns:xlink="http://www.w3.org/1999/xlink" version="1.1" id="Capa_1" x="0px" y="0px" viewBox="0 0 496 496" style="enable-background:new 0 0 496 496;" xml:space="preserve">
<g>
	<path style="fill:#333333;" d="M352,0H144c-22.056,0-40,17.944-40,40v40.408C59.216,84.464,24,122.176,24,168v40   c-13.232,0-24,10.768-24,24v144c0,13.232,10.768,24,24,24h80v56c0,22.056,17.944,40,40,40h208c22.056,0,40-17.944,40-40v-64h-16v24   H120v-16h80c13.232,0,24-10.768,24-24v-40h-16v40c0,4.416-3.584,8-8,8H24c-4.416,0-8-3.584-8-8V232c0-4.416,3.584-8,8-8h176   c4.416,0,8,3.584,8,8v40h16v-16h112v-16H224v-8c0-2.816-0.576-5.488-1.472-8H296v-16h-96v-16h128v-16H200v-8   c0-2.704-0.168-5.36-0.408-8H216v-16h-19.408c-1.584-5.584-3.704-10.928-6.304-16H328v-16H179.832   c-5.04-6.088-10.912-11.448-17.392-16H344v136h16V80H136v3.408c-5.16-1.464-10.496-2.504-16-3.008V64h256v152h16V40   C392,17.944,374.056,0,352,0z M376,432v24c0,13.232-10.768,24-24,24H144c-13.232,0-24-10.768-24-24v-24H376z M152,208H72v-40   c0-22.056,17.944-40,40-40s40,17.944,40,40V208z M184,168v40h-16v-40c0-30.872-25.128-56-56-56s-56,25.128-56,56v40H40v-40   c0-39.704,32.296-72,72-72S184,128.296,184,168z M120,48v-8c0-13.232,10.768-24,24-24h208c13.232,0,24,10.768,24,24v8H120z"/>
	<rect x="200" y="448" style="fill:#333333;" width="96" height="16"/>
</g>
<path style="fill:#FFA64D;" d="M309.552,336c13.44,37.968,49.8,64,90.448,64c52.936,0,96-43.064,96-96s-43.064-96-96-96  c-40.648,0-77.008,26.032-90.448,64H81.128c-0.664,2.568-1.128,5.224-1.128,8c0,11.816,6.472,22.016,16,27.56V336H309.552z"/>
<g>
	<path style="fill:#333333;" d="M432,272c-17.648,0-32,14.352-32,32s14.352,32,32,32s32-14.352,32-32S449.648,272,432,272z M432,320   c-8.824,0-16-7.176-16-16s7.176-16,16-16s16,7.176,16,16S440.824,320,432,320z"/>
	<path style="fill:#333333;" d="M112,256c10.416,0,19.216,6.712,22.528,16h16.664c-3.72-18.232-19.872-32-39.192-32   c-22.056,0-40,17.944-40,40c0,12.504,6.032,24.32,16,31.832V368h48v-32h-16v16h-16v-49.04l-3.976-2.312   C92.496,296.264,88,288.544,88,280C88,266.768,98.768,256,112,256z"/>
	<rect x="232" y="144" style="fill:#333333;" width="96" height="16"/>
	<rect x="312" y="208" style="fill:#333333;" width="16" height="16"/>
</g>
<g>
</g>
<g>
</g>
<g>
</g>
<g>
</g>
<g>
</g>
<g>
</g>
<g>
</g>
<g>
</g>
<g>
</g>
<g>
</g>
<g>
</g>
<g>
</g>
<g>
</g>
<g>
</g>
<g>
</g>
</svg>
