<?xml version="1.0" encoding="iso-8859-1"?>
<!-- Generator: Adobe Illustrator 19.0.0, SVG Export Plug-In . SVG Version: 6.00 Build 0)  -->
<svg xmlns="http://www.w3.org/2000/svg" xmlns:xlink="http://www.w3.org/1999/xlink" version="1.1" id="Capa_1" x="0px" y="0px" viewBox="0 0 496 496" style="enable-background:new 0 0 496 496;" xml:space="preserve">
<g>
	<rect x="200" y="448" style="fill:#333333;" width="96" height="16"/>
	<path style="fill:#333333;" d="M320,224h-16v-23.88c0-30.88-25.12-56-56-56s-56,25.12-56,56V224h-16v-23.88   c0-39.696,32.304-72,72-72s72,32.304,72,72V224z"/>
	<path style="fill:#333333;" d="M288,224h-16v-23.56c0-13.416-10.912-24.328-24.328-24.328s-24.328,10.912-24.328,24.328V224h-16   v-23.56c0-22.232,18.088-40.328,40.328-40.328S288,178.208,288,200.44V224z"/>
	<path style="fill:#333333;" d="M496,72V56c0-30.88-25.12-56-56-56s-56,25.12-56,56v16c0,21.728,12.696,41.24,32,50.44v27.12   c-19.304,9.208-32,28.72-32,50.44v16c0,6.752,1.184,13.28,3.496,19.48L376,245.624V56c0-22.056-17.944-40-40-40H160   c-22.056,0-40,17.944-40,40v189.624l-11.496-10.144C110.816,229.272,112,222.752,112,216v-16c0-21.72-12.696-41.24-32-50.44v-27.12   c19.304-9.2,32-28.72,32-50.44V56c0-30.88-25.12-56-56-56S0,25.12,0,56v16c0,21.72,12.696,41.24,32,50.44v27.12   C12.696,158.76,0,178.28,0,200v16c0,30.88,25.12,56,56,56c6.184,0,12.208-1.016,17.976-2.976l21.64,19.104   c-5.56,18.808-1.072,39.112,12.272,53.696l10.808,11.8c0.416,0.456,0.88,0.848,1.304,1.28V456c0,22.056,17.944,40,40,40h176   c22.056,0,40-17.944,40-40V354.904c0.432-0.44,0.888-0.832,1.312-1.288l10.8-11.8c13.344-14.576,17.84-34.88,12.272-53.688   l21.648-19.104c5.76,1.96,11.784,2.976,17.968,2.976c30.88,0,56-25.12,56-56v-16c0-21.728-12.696-41.24-32-50.44v-27.12   C483.304,113.24,496,93.72,496,72z M400,200c0-12.792,6.128-24.552,16-31.984V176c0,4.368,1.256,8.408,3.304,11.936   c-2.12,3.64-3.304,7.776-3.304,12.064v12.584c-2.728,0.992-5.336,2.456-7.648,4.488l-7.552,6.664c-0.496-2.528-0.8-5.096-0.8-7.736   V200z M136,56c0-13.232,10.768-24,24-24h176c13.232,0,24,10.768,24,24v24H136V56z M149.736,303.88   c1.688-1.904,2.928-4.072,3.92-6.336c0.488,0.336,1.024,0.608,1.44,1.056l10.8,11.8c1.448,1.576,2.184,3.624,2.096,5.752   c-0.096,2.136-1.016,4.104-2.592,5.544c-1.576,1.448-3.632,2.232-5.76,2.096c-2.136-0.096-4.104-1.008-5.544-2.592l-10.808-11.8   c-0.088-0.096-0.112-0.224-0.2-0.328C145.56,307.744,147.832,306.04,149.736,303.88z M66.472,241.056   c-1.6-1.408-2.56-3.36-2.688-5.496s0.576-4.192,1.984-5.792c1.584-1.792,3.792-2.696,6.008-2.696c1.88,0,3.768,0.656,5.288,1.992   L137.048,282c1.6,1.416,2.56,3.368,2.688,5.504c0.136,2.128-0.576,4.184-1.984,5.792c-1.416,1.6-3.368,2.56-5.504,2.688   c-2.112,0.176-4.192-0.568-5.792-1.984L66.472,241.056z M53.768,219.184c-0.888,1-1.624,2.096-2.32,3.216   C49.416,220.944,48,218.68,48,216v-16c0-0.48,0.216-0.912,0.296-1.384C50.728,199.448,53.288,200,56,200   c2.72,0,5.296-0.552,7.744-1.392C63.824,199.072,64,199.52,64,200v12.472C60.184,213.776,56.624,215.952,53.768,219.184z M48,72V56   c0-4.408,3.592-8,8-8s8,3.592,8,8v16c0,0.48-0.216,0.912-0.296,1.384C61.272,72.552,58.712,72,56,72s-5.272,0.552-7.704,1.384   C48.216,72.912,48,72.48,48,72z M48,176V96c0-4.408,3.592-8,8-8s8,3.592,8,8v80c0,4.408-3.592,8-8,8S48,180.408,48,176z M96,200v16   c0,2.64-0.304,5.208-0.8,7.736l-7.56-6.672c-2.304-2.032-4.912-3.488-7.64-4.488V200c0-4.288-1.184-8.424-3.304-12.064   C78.744,184.408,80,180.368,80,176v-7.984C89.872,175.448,96,187.208,96,200z M16,72V56c0-22.056,17.944-40,40-40s40,17.944,40,40   v16c0,12.792-6.128,24.552-16,31.976V96c0-4.4-1.28-8.48-3.352-12.032C78.744,80.352,80,76.272,80,72V56c0-13.232-10.768-24-24-24   S32,42.768,32,56v16c0,4.272,1.256,8.352,3.352,11.968C33.28,87.52,32,91.6,32,96v7.976C22.128,96.552,16,84.792,16,72z M56,256   c-22.056,0-40-17.944-40-40v-16c0-12.792,6.128-24.552,16-31.976V176c0,4.4,1.28,8.48,3.352,12.032   C33.256,191.648,32,195.728,32,200v16c0,10.464,6.776,19.288,16.128,22.568c0.824,5.6,3.464,10.704,7.752,14.488l3,2.648   C57.912,255.768,56.976,256,56,256z M360,456c0,13.232-10.768,24-24,24H160c-13.232,0-24-10.768-24-24v-24h224V456z    M376.304,331.008l-10.8,11.8c-12.672,13.848-32.92,17.056-49.208,7.816l-7.896,13.912c8.72,4.944,18.24,7.344,27.664,7.344   c8.264,0,16.424-1.904,23.936-5.496V416H136v-49.608c7.512,3.592,15.672,5.496,23.936,5.496c9.432,0,18.952-2.4,27.664-7.344   l-7.896-13.912c-16.296,9.232-36.536,6.024-49.208-7.816l-10.8-11.8c-7.744-8.456-11.32-19.624-10.288-30.712l6.456,5.696   c3.056,2.696,6.68,4.464,10.544,5.344c1.04,3.248,2.712,6.28,5.088,8.872l10.808,11.8c4.328,4.728,10.24,7.496,16.648,7.776   c0.36,0.016,0.72,0.024,1.08,0.024c6.008,0,11.72-2.216,16.184-6.296c4.728-4.328,7.488-10.24,7.768-16.648   s-1.944-12.536-6.28-17.264l-10.808-11.8c-3.352-3.656-7.656-6.104-12.392-7.168c-1.304-4.056-3.6-7.728-6.872-10.624l-5.912-5.216   c10.208-2.056,20.968-0.104,29.936,5.864l8.856-13.328c-13.312-8.856-29.448-11.416-44.512-7.64V96h224v153.592   c-14.96-3.648-30.96-1.04-44.168,7.736l8.856,13.328c8.88-5.904,19.512-7.864,29.64-5.904l-5.952,5.256   c-3.28,2.888-5.568,6.568-6.872,10.624c-4.736,1.064-9.04,3.504-12.4,7.168l-10.808,11.8c-4.328,4.728-6.552,10.856-6.272,17.264   s3.04,12.32,7.768,16.648c4.464,4.08,10.168,6.304,16.184,6.296c0.36,0,0.72-0.008,1.08-0.024c6.408-0.28,12.32-3.04,16.64-7.768   l10.808-11.8c2.376-2.592,4.048-5.624,5.088-8.872c3.864-0.88,7.488-2.648,10.544-5.344l6.456-5.696   C387.624,311.392,384.048,322.552,376.304,331.008z M352.904,309.08c-0.08,0.096-0.112,0.232-0.2,0.328l-10.808,11.808   c-1.44,1.576-3.408,2.496-5.544,2.584c-2.12,0.144-4.176-0.648-5.76-2.096c-1.576-1.44-2.496-3.408-2.592-5.544   c-0.096-2.136,0.648-4.176,2.096-5.752l10.8-11.8c0.416-0.448,0.952-0.72,1.44-1.056c0.992,2.264,2.232,4.432,3.92,6.336   C348.168,306.04,350.44,307.744,352.904,309.08z M429.528,241.056L369.544,294c-1.6,1.416-3.64,2.16-5.792,1.984   c-2.136-0.136-4.088-1.088-5.504-2.688c-1.408-1.6-2.12-3.664-1.984-5.792c0.136-2.136,1.088-4.088,2.688-5.504l59.976-52.936   c1.52-1.336,3.416-2,5.296-2c2.216,0,4.424,0.912,6,2.696c1.408,1.6,2.12,3.664,1.984,5.792S431.136,239.648,429.528,241.056z    M440,88c4.408,0,8,3.592,8,8v80c0,4.408-3.592,8-8,8s-8-3.592-8-8V96C432,91.592,435.592,88,440,88z M432,72V56   c0-4.408,3.592-8,8-8s8,3.592,8,8v16c0,0.48-0.216,0.912-0.296,1.384C445.272,72.552,442.712,72,440,72s-5.272,0.552-7.704,1.384   C432.216,72.912,432,72.48,432,72z M432.256,198.608c2.448,0.84,5.024,1.392,7.744,1.392c2.712,0,5.272-0.552,7.704-1.384   c0.08,0.472,0.296,0.904,0.296,1.384v16c0,2.68-1.416,4.944-3.448,6.4c-0.696-1.112-1.44-2.208-2.32-3.216   c-2.848-3.232-6.416-5.408-10.232-6.712V200C432,199.52,432.176,199.072,432.256,198.608z M480,200v16c0,22.056-17.944,40-40,40   c-0.976,0-1.912-0.232-2.872-0.304l2.992-2.64c4.288-3.784,6.928-8.896,7.752-14.488C457.232,235.288,464,226.464,464,216v-16   c0-4.272-1.256-8.352-3.352-11.968C462.72,184.48,464,180.4,464,176v-7.976C473.872,175.448,480,187.208,480,200z M460.648,83.968   C462.744,80.352,464,76.272,464,72V56c0-13.232-10.768-24-24-24s-24,10.768-24,24v16c0,4.272,1.256,8.352,3.352,11.968   C417.28,87.52,416,91.6,416,96v7.976c-9.872-7.424-16-19.192-16-31.976V56c0-22.056,17.944-40,40-40s40,17.944,40,40v16   c0,12.792-6.128,24.552-16,31.976V96C464,91.6,462.72,87.52,460.648,83.968z"/>
</g>
<path style="fill:#FFA64D;" d="M328,367.88H168V224h160V367.88z"/>
<path style="fill:#333333;" d="M272,280c0-13.232-10.768-24-24-24s-24,10.768-24,24c0,10.416,6.712,19.216,16,22.528V336h16v-33.472  C265.288,299.216,272,290.416,272,280z M248,288c-4.408,0-8-3.592-8-8s3.592-8,8-8c4.408,0,8,3.592,8,8S252.408,288,248,288z"/>
<g>
</g>
<g>
</g>
<g>
</g>
<g>
</g>
<g>
</g>
<g>
</g>
<g>
</g>
<g>
</g>
<g>
</g>
<g>
</g>
<g>
</g>
<g>
</g>
<g>
</g>
<g>
</g>
<g>
</g>
</svg>
