<?xml version="1.0" encoding="iso-8859-1"?>
<!-- Generator: Adobe Illustrator 19.0.0, SVG Export Plug-In . SVG Version: 6.00 Build 0)  -->
<svg xmlns="http://www.w3.org/2000/svg" xmlns:xlink="http://www.w3.org/1999/xlink" version="1.1" id="Capa_1" x="0px" y="0px" viewBox="0 0 496 496" style="enable-background:new 0 0 496 496;" xml:space="preserve">
<g>
	<path style="fill:#333333;" d="M416,216c-23.736,0-43.448,17.336-47.28,40H344v16h24.72c3.824,22.664,23.536,40,47.28,40   c26.472,0,48-21.528,48-48S442.472,216,416,216z M416,296c-17.648,0-32-14.352-32-32s14.352-32,32-32s32,14.352,32,32   S433.648,296,416,296z"/>
	<polygon style="fill:#333333;" points="184,256 80,256 80,304 96,304 96,272 112,272 112,304 128,304 128,272 184,272  "/>
	<rect x="120" y="448" style="fill:#333333;" width="112" height="16"/>
	<path style="fill:#333333;" d="M352,80V40c0-22.056-17.944-40-40-40H40C17.944,0,0,17.944,0,40v416c0,22.056,17.944,40,40,40h272   c22.056,0,40-17.944,40-40v-56h144V80H352z M16,40c0-13.232,10.768-24,24-24h272c13.232,0,24,10.768,24,24v8H16V40z M312,480H40   c-13.232,0-24-10.768-24-24v-24h320v24C336,469.232,325.232,480,312,480z M480,384H320v16h16v16H16V64h320v16H32v320h272v-16H48   V160h432V384z M480,144H48V96h432V144z"/>
	<rect x="64" y="112" style="fill:#333333;" width="16" height="16"/>
	<rect x="96" y="112" style="fill:#333333;" width="16" height="16"/>
	<rect x="128" y="112" style="fill:#333333;" width="16" height="16"/>
</g>
<path style="fill:#FFA64D;" d="M320,368H208v-36.232c-20.392-16.816-32-41.28-32-67.768c0-48.52,39.48-88,88-88s88,39.48,88,88  c0,26.488-11.608,50.952-32,67.768V368z"/>
<g>
	<rect x="224" y="336" style="fill:#333333;" width="16" height="32"/>
	<rect x="256" y="336" style="fill:#333333;" width="16" height="32"/>
	<rect x="288" y="336" style="fill:#333333;" width="16" height="32"/>
	<path style="fill:#333333;" d="M232,280c-13.232,0-24-10.768-24-24s10.768-24,24-24s24,10.768,24,24S245.232,280,232,280z M232,248   c-4.416,0-8,3.584-8,8s3.584,8,8,8s8-3.584,8-8S236.416,248,232,248z"/>
	<path style="fill:#333333;" d="M296,280c-13.232,0-24-10.768-24-24s10.768-24,24-24s24,10.768,24,24S309.232,280,296,280z M296,248   c-4.416,0-8,3.584-8,8s3.584,8,8,8s8-3.584,8-8S300.416,248,296,248z"/>
</g>
<g>
</g>
<g>
</g>
<g>
</g>
<g>
</g>
<g>
</g>
<g>
</g>
<g>
</g>
<g>
</g>
<g>
</g>
<g>
</g>
<g>
</g>
<g>
</g>
<g>
</g>
<g>
</g>
<g>
</g>
</svg>
