<?xml version="1.0" encoding="iso-8859-1"?>
<!-- Generator: Adobe Illustrator 19.0.0, SVG Export Plug-In . SVG Version: 6.00 Build 0)  -->
<svg xmlns="http://www.w3.org/2000/svg" xmlns:xlink="http://www.w3.org/1999/xlink" version="1.1" id="Capa_1" x="0px" y="0px" viewBox="0 0 496 496" style="enable-background:new 0 0 496 496;" xml:space="preserve">
<path style="fill:#FFA64D;" d="M320,352H176c-8.84,0-16-7.16-16-16V224c0-8.84,7.16-16,16-16h144c8.84,0,16,7.16,16,16v112  C336,344.84,328.84,352,320,352z"/>
<g>
	<path style="fill:#333333;" d="M392,192h-72v-8c0-2.704-0.176-5.368-0.472-8H360c26.472,0,48-21.528,48-48   c0-20.952-13.512-38.768-32.272-45.296C373.048,54.304,349.088,32,320,32c-0.064,0-0.12,0.008-0.176,0.008   C304.728,11.952,281.256,0,256,0c-25.512,0-49.2,12.184-64.272,32.6c-2.536-0.352-5.104-0.6-7.728-0.6   c-28.376,0-51.832,21.24-55.456,48.64C105.608,84.24,88,104.072,88,128c0,26.472,21.528,48,48,48h40.472   c-0.296,2.632-0.472,5.296-0.472,8v8h-72c-22.056,0-40,17.944-40,40v176c0,22.056,17.944,40,40,40h48v32h-32v16h256v-16h-32v-32h48   c22.056,0,40-17.944,40-40V232C432,209.944,414.056,192,392,192z M136,160c-17.648,0-32-14.352-32-32s14.352-32,32-32   s32,14.352,32,32h16c0-23.488-16.96-43.048-39.272-47.168C148.12,62.2,164.4,48,184,48c22.056,0,40,17.944,40,40h16   c0-22.216-13.048-41.4-31.848-50.448C220.224,23.944,237.536,16,256,16c17.336,0,33.608,7.072,45.536,19.192   C279.72,42.848,264,63.6,264,88h16c0-22.056,17.944-40,40-40c19.328,0,35.496,13.784,39.192,32.04C333.096,80.48,312,101.8,312,128   h16c0-17.648,14.352-32,32-32s32,14.352,32,32s-14.352,32-32,32h-44.2c-9.912-27.92-36.52-48-67.8-48s-57.888,20.08-67.8,48H136z    M104,208h72h8h8v-24c0-30.872,25.128-56,56-56s56,25.128,56,56v24h8h8h72c13.232,0,24,10.768,24,24v152H80V232   C80,218.768,90.768,208,104,208z M328,480H168v-32h160V480z M392,432H104c-13.232,0-24-10.768-24-24v-8h336v8   C416,421.232,405.232,432,392,432z"/>
	<path style="fill:#333333;" d="M224,184c0-13.232,10.768-24,24-24s24,10.768,24,24v24h16v-24c0-22.056-17.944-40-40-40   s-40,17.944-40,40v24h16V184z"/>
	<path style="fill:#333333;" d="M248,240c-13.232,0-24,10.768-24,24c0,10.416,6.712,19.216,16,22.528V320h16v-33.472   c9.288-3.312,16-12.112,16-22.528C272,250.768,261.232,240,248,240z M248,272c-4.416,0-8-3.584-8-8s3.584-8,8-8   c4.416,0,8,3.584,8,8S252.416,272,248,272z"/>
	<path style="fill:#333333;" d="M480.392,161.432C485.048,157.048,488,150.88,488,144c0-13.232-10.768-24-24-24s-24,10.768-24,24   s10.768,24,24,24c0.584,0,1.136-0.128,1.712-0.176C475.16,193.448,480,220.376,480,248c0,29.464-5.44,58.152-16.168,85.264   l14.872,5.888C490.176,310.152,496,279.488,496,248C496,218.16,490.712,189.08,480.392,161.432z M456,144c0-4.416,3.584-8,8-8   s8,3.584,8,8s-3.584,8-8,8S456,148.416,456,144z"/>
	<path style="fill:#333333;" d="M32,328c-0.6,0-1.168,0.136-1.76,0.176C20.8,302.56,16,275.648,16,248   c0-29.928,5.608-59.048,16.68-86.552l-14.84-5.968C6,184.88,0,216.016,0,248c0,29.864,5.256,58.936,15.576,86.592   C10.936,338.968,8,345.136,8,352c0,13.232,10.768,24,24,24s24-10.768,24-24S45.232,328,32,328z M32,360c-4.416,0-8-3.584-8-8   s3.584-8,8-8s8,3.584,8,8S36.416,360,32,360z"/>
	<rect x="352" y="256" style="fill:#333333;" width="16" height="16"/>
	<rect x="352" y="288" style="fill:#333333;" width="16" height="16"/>
	<rect x="352" y="320" style="fill:#333333;" width="16" height="16"/>
	<rect x="128" y="256" style="fill:#333333;" width="16" height="16"/>
	<rect x="128" y="288" style="fill:#333333;" width="16" height="16"/>
	<rect x="128" y="320" style="fill:#333333;" width="16" height="16"/>
</g>
<g>
</g>
<g>
</g>
<g>
</g>
<g>
</g>
<g>
</g>
<g>
</g>
<g>
</g>
<g>
</g>
<g>
</g>
<g>
</g>
<g>
</g>
<g>
</g>
<g>
</g>
<g>
</g>
<g>
</g>
</svg>
