<?xml version="1.0" encoding="iso-8859-1"?>
<!-- Generator: Adobe Illustrator 19.0.0, SVG Export Plug-In . SVG Version: 6.00 Build 0)  -->
<svg xmlns="http://www.w3.org/2000/svg" xmlns:xlink="http://www.w3.org/1999/xlink" version="1.1" id="Capa_1" x="0px" y="0px" viewBox="0 0 496.012 496.012" style="enable-background:new 0 0 496.012 496.012;" xml:space="preserve">
<path style="fill:#FFA64D;" d="M25.236,232.006h5.84c4.24,0,8.312,1.688,11.312,4.688l24.592,24.592  c6.784,6.784,16.264,10.168,25.808,9.216l62.592-6.256c1.544-0.152,3.072-0.424,4.576-0.8l29.752-7.44l0.144,0.072  c-2.432-4.968-6.088-9.368-10.904-12.584l-19.856-13.24c-5.624-3.752-8.288-10.632-6.648-17.192l1.384-5.536  c2.144-8.576,10.832-13.784,19.4-11.64l13.088,3.272c1.776,0.44,3.408,1.264,4.928,2.272l-0.496-1.848  c0.84-5.08,1.264-10.328,1.264-15.576c0-52.936-43.064-96-96-96s-96,43.064-96,96c0,18.464,5.272,36.272,15.176,51.704  C17.98,233.43,21.452,232.006,25.236,232.006z"/>
<g>
	<path style="fill:#333333;" d="M456.012,0.006h-208c-22.056,0-40,17.944-40,40v164.392l-10.584-8.464   c-2.672-2.144-5.848-3.712-9.168-4.528l-13.088-3.272c-6.216-1.568-12.672-0.608-18.168,2.704   c-5.496,3.296-9.376,8.536-10.936,14.76l-1.384,5.528c-2.456,9.816,1.552,20.168,9.976,25.8l19.848,13.232   c0.488,0.32,0.904,0.712,1.36,1.064l-17.832,4.456c-1.136,0.288-2.288,0.488-3.44,0.6l-62.592,6.256   c-7.224,0.672-14.256-1.808-19.36-6.912l-24.592-24.584c-4.536-4.536-10.56-7.032-16.976-7.032h-5.84   c-10.344,0-19.496,6.592-22.768,16.408l-1.224,3.688c-2.888,8.672-0.664,18.088,5.8,24.552L34.7,296.31   c9.616,9.616,21.504,16.96,34.392,21.248l41.768,13.928c8.984,3.008,18.344,4.52,27.824,4.52h6.8c-0.896,2.512-1.472,5.184-1.472,8   v16c0,4.216,1.184,8.128,3.104,11.576c-25.048,8.688-43.104,32.456-43.104,60.424c0,35.288,28.712,64,64,64   c17.336,0,33.064-6.96,44.6-18.192c6.04,10.792,17.448,18.192,30.664,18.192h212.736c22.056,0,40-17.944,40-40v-416   C496.012,17.95,478.068,0.006,456.012,0.006z M248.012,16.006h208c13.232,0,24,10.768,24,24v8h-256v-8   C224.012,26.774,234.78,16.006,248.012,16.006z M224.012,64.006h256v352H229.908c-1.36-5.256-3.32-10.272-5.896-14.912v-65.088   h43.848c7.176,0,14.36-0.88,21.344-2.632l12.504-3.128v21.76h146.304v32h16v-192h-16v32H301.708v32h-9.552   c-12.664,0-25.096-4.36-34.984-12.272l-33.16-26.528V64.006z M190.54,336.006h17.472v46.12c-5.656-4.544-12.112-8.12-19.104-10.544   c1.92-3.448,3.104-7.36,3.104-11.576v-16C192.012,341.19,191.436,338.518,190.54,336.006z M432.012,304.006v-64h16v96h-16v-16h-16   v16h-98.304v-96h98.304v64H432.012z M115.924,316.318l-41.776-13.936c-10.544-3.504-20.28-9.512-28.144-17.384l-27.648-27.656   c-2.16-2.16-2.904-5.296-1.936-8.184l1.224-3.68c1.096-3.28,4.144-5.472,7.592-5.472h5.84c2.104,0,4.168,0.848,5.656,2.344   l24.592,24.584c8.52,8.52,20.296,12.704,32.272,11.52l62.6-6.256c1.928-0.192,3.832-0.528,5.712-1l22.792-5.696   c0.672,3.392,0.648,6.952-0.224,10.44l-2.528,10.128l15.52,3.872l2.528-10.128c4.088-16.36-2.592-33.624-16.624-42.976   l-19.84-13.232c-2.808-1.872-4.152-5.328-3.328-8.6l1.384-5.528c0.52-2.08,1.816-3.832,3.648-4.928s3.976-1.4,6.048-0.896   l13.104,3.28c1.104,0.272,2.16,0.8,3.048,1.504l59.744,47.8c12.712,10.168,28.688,15.768,44.976,15.768h9.552v41.76l-16.384,4.096   c-5.72,1.416-11.592,2.144-17.464,2.144H138.684C130.932,320.006,123.268,318.766,115.924,316.318z M160.012,360.006v-16   c0-4.416,3.592-8,8-8s8,3.584,8,8v16c0,4.416-3.592,8-8,8S160.012,364.422,160.012,360.006z M168.012,480.006   c-26.472,0-48-21.528-48-48s21.528-48,48-48s48,21.528,48,48S194.484,480.006,168.012,480.006z M456.012,480.006H243.276   c-9.984,0-18.12-7.656-19.08-17.392c4.984-9.104,7.816-19.528,7.816-30.608h248v24   C480.012,469.238,469.244,480.006,456.012,480.006z"/>
	<path style="fill:#333333;" d="M365.708,256.006c-17.648,0-32,14.352-32,32s14.352,32,32,32s32-14.352,32-32   S383.348,256.006,365.708,256.006z M365.708,304.006c-8.824,0-16-7.176-16-16s7.176-16,16-16s16,7.176,16,16   S374.532,304.006,365.708,304.006z"/>
	<path style="fill:#333333;" d="M120.012,216.006h-48c-4.416,0-8-3.584-8-8h-16c0,13.232,10.768,24,24,24h16v16h16v-16h16   c13.232,0,24-10.768,24-24v-8c0-13.232-10.768-24-24-24h-48c-4.416,0-8-3.584-8-8v-8c0-4.416,3.592-8,8-8h48c4.416,0,8,3.584,8,8   h16c0-13.232-10.768-24-24-24h-16v-16h-16v16h-16c-13.232,0-24,10.768-24,24v8c0,13.232,10.768,24,24,24h48c4.416,0,8,3.584,8,8v8   C128.012,212.422,124.42,216.006,120.012,216.006z"/>
	<rect x="296.012" y="448.006" style="fill:#333333;" width="112" height="16"/>
	<path style="fill:#333333;" d="M168.012,400.006c-17.648,0-32,14.352-32,32s14.352,32,32,32s32-14.352,32-32   S185.66,400.006,168.012,400.006z M168.012,448.006c-8.824,0-16-7.176-16-16s7.176-16,16-16s16,7.176,16,16   S176.836,448.006,168.012,448.006z"/>
</g>
<g>
</g>
<g>
</g>
<g>
</g>
<g>
</g>
<g>
</g>
<g>
</g>
<g>
</g>
<g>
</g>
<g>
</g>
<g>
</g>
<g>
</g>
<g>
</g>
<g>
</g>
<g>
</g>
<g>
</g>
</svg>
