<?xml version="1.0" encoding="iso-8859-1"?>
<!-- Generator: Adobe Illustrator 19.0.0, SVG Export Plug-In . SVG Version: 6.00 Build 0)  -->
<svg xmlns="http://www.w3.org/2000/svg" xmlns:xlink="http://www.w3.org/1999/xlink" version="1.1" id="Capa_1" x="0px" y="0px" viewBox="0 0 496 496" style="enable-background:new 0 0 496 496;" xml:space="preserve">
<rect x="232" y="96" style="fill:#FFA64D;" width="112" height="40"/>
<path style="fill:#333333;" d="M456,192H296v-16.552c31.52-3.96,56-30.872,56-63.448s-24.48-59.488-56-63.448V0h-16v48.552  c-31.52,3.96-56,30.872-56,63.448s24.48,59.488,56,63.448V192H40c-22.056,0-40,17.944-40,40v224c0,22.056,17.944,40,40,40h416  c22.056,0,40-17.944,40-40V232C496,209.944,478.056,192,456,192z M288,64c17.72,0,33.192,9.68,41.504,24h-83.008  C254.808,73.68,270.28,64,288,64z M246.496,136H304v-16h-63.28c-0.44-2.608-0.72-5.272-0.72-8s0.28-5.392,0.72-8h94.56  c0.44,2.608,0.72,5.272,0.72,8s-0.28,5.392-0.72,8H320v16h9.504c-8.312,14.32-23.784,24-41.504,24S254.808,150.32,246.496,136z   M292.816,306.672C294.928,300.688,296,294.408,296,288v-80h120v272H64V208h216v80c0,4.584-0.768,9.072-2.272,13.328  L292.816,306.672z M16,456V232c0-13.232,10.768-24,24-24h8v272h-8C26.768,480,16,469.232,16,456z M480,456c0,13.232-10.768,24-24,24  h-24V208h24c13.232,0,24,10.768,24,24V456z"/>
<path style="fill:#FFA64D;" d="M240,280c-57.344,0-104,46.656-104,104c0,29.784,12.888,58.208,35.36,78h137.28  c22.472-19.792,35.36-48.216,35.36-78C344,326.656,297.344,280,240,280z"/>
<g>
	<rect x="448" y="304" style="fill:#333333;" width="16" height="80"/>
	<path style="fill:#333333;" d="M248,328v-16h-16v15.192c-18.232-3.72-32-19.872-32-39.192v-40h-16v40   c0,20.32,10.92,38.096,27.16,47.912C204.384,341.784,200,350.344,200,360c0,17.648,14.352,32,32,32h16c8.824,0,16,7.176,16,16   s-7.176,16-16,16h-16c-8.824,0-16-7.176-16-16v-8h-16v8c0,17.648,14.352,32,32,32v8H120v16h240v-16H248v-8   c17.648,0,32-14.352,32-32s-14.352-32-32-32h-16c-8.824,0-16-7.176-16-16s7.176-16,16-16h16c8.824,0,16,7.176,16,16v8h16v-8   C280,342.352,265.648,328,248,328z"/>
</g>
<g>
</g>
<g>
</g>
<g>
</g>
<g>
</g>
<g>
</g>
<g>
</g>
<g>
</g>
<g>
</g>
<g>
</g>
<g>
</g>
<g>
</g>
<g>
</g>
<g>
</g>
<g>
</g>
<g>
</g>
</svg>
