<?xml version="1.0" encoding="iso-8859-1"?>
<!-- Generator: Adobe Illustrator 19.0.0, SVG Export Plug-In . SVG Version: 6.00 Build 0)  -->
<svg xmlns="http://www.w3.org/2000/svg" xmlns:xlink="http://www.w3.org/1999/xlink" version="1.1" id="Capa_1" x="0px" y="0px" viewBox="0 0 496 496" style="enable-background:new 0 0 496 496;" xml:space="preserve">
<path style="fill:#333333;" d="M456,128h-8V88c0-13.232-10.768-24-24-24h-8v-8c0-13.232-10.768-24-24-24H208v-8  c0-13.232-10.768-24-24-24H72C58.768,0,48,10.768,48,24v104h-8c-22.056,0-40,17.944-40,40v240c0,22.056,17.944,40,40,40h88v32H96v16  h304v-16h-32v-32h88c22.056,0,40-17.944,40-40V168C496,145.944,478.056,128,456,128z M392,48c4.408,0,8,3.584,8,8v8H208V48H392z   M40,144h8v136c0,13.232,10.768,24,24,24h74.776v-16H72c-4.408,0-8-3.584-8-8V24c0-4.416,3.592-8,8-8h112c4.408,0,8,3.584,8,8v56  h232c4.408,0,8,3.584,8,8v192c0,4.416-3.592,8-8,8h-74.776v16H424c13.232,0,24-10.768,24-24V144h8c13.232,0,24,10.768,24,24v216H16  V168C16,154.768,26.768,144,40,144z M352,480H144v-32h208V480z M456,432H40c-13.232,0-24-10.768-24-24v-8h464v8  C480,421.232,469.232,432,456,432z"/>
<circle style="fill:#FFA64D;" cx="248" cy="248" r="120"/>
<g>
	<path style="fill:#333333;" d="M240,254.864V304h16v-49.136c13.76-3.576,24-15.992,24-30.864c0-17.648-14.352-32-32-32   s-32,14.352-32,32C216,238.872,226.24,251.288,240,254.864z M248,208c8.824,0,16,7.176,16,16s-7.176,16-16,16s-16-7.176-16-16   S239.176,208,248,208z"/>
	<path style="fill:#333333;" d="M255.192,176.368l1.608-15.92c-5.8-0.576-11.816-0.576-17.608,0l1.608,15.92   C245.536,175.88,250.464,175.88,255.192,176.368z"/>
	<path style="fill:#333333;" d="M212,185.648c2.104-1.216,4.248-2.304,6.416-3.28l-6.568-14.592   c-2.656,1.192-5.272,2.528-7.84,4.016c-2.576,1.496-5.04,3.088-7.4,4.792l9.352,12.984C207.88,188.168,209.896,186.856,212,185.648   z"/>
	<path style="fill:#333333;" d="M185.648,212c1.216-2.112,2.536-4.136,3.92-6.072l-13.008-9.312   c-1.688,2.36-3.296,4.824-4.768,7.376c-1.488,2.568-2.824,5.192-4.016,7.848l14.584,6.576   C183.336,216.248,184.424,214.112,185.648,212z"/>
	<path style="fill:#333333;" d="M176.36,255.208c-0.232-2.376-0.36-4.768-0.36-7.208s0.128-4.832,0.36-7.208l-15.92-1.576   c-0.288,2.888-0.44,5.816-0.44,8.784c0,2.968,0.152,5.896,0.44,8.792L176.36,255.208z"/>
	<path style="fill:#333333;" d="M182.36,277.576l-14.584,6.576c1.2,2.656,2.536,5.28,4.016,7.84s3.08,5.024,4.776,7.384   l13.008-9.312c-1.384-1.936-2.704-3.96-3.928-6.08C184.424,281.888,183.336,279.752,182.36,277.576z"/>
	<path style="fill:#333333;" d="M211.84,328.224l6.568-14.592c-2.168-0.976-4.312-2.064-6.416-3.28   c-2.104-1.208-4.12-2.52-6.048-3.912l-9.352,12.984c2.36,1.704,4.832,3.296,7.4,4.792   C206.576,325.696,209.192,327.032,211.84,328.224z"/>
	<path style="fill:#333333;" d="M240.808,319.632l-1.608,15.92c2.896,0.288,5.832,0.448,8.8,0.448c2.968,0,5.904-0.16,8.808-0.448   l-1.608-15.92C250.464,320.12,245.536,320.12,240.808,319.632z"/>
	<path style="fill:#333333;" d="M284,310.352c-2.104,1.216-4.248,2.304-6.416,3.28l6.568,14.592c2.656-1.192,5.272-2.528,7.84-4.016   c2.576-1.496,5.04-3.088,7.4-4.792l-9.352-12.984C288.12,307.832,286.104,309.144,284,310.352z"/>
	<path style="fill:#333333;" d="M324.208,292.008c1.488-2.568,2.824-5.192,4.016-7.848l-14.584-6.576   c-0.984,2.168-2.064,4.312-3.288,6.424c-1.216,2.112-2.536,4.136-3.92,6.072l13.008,9.312   C321.128,297.024,322.728,294.56,324.208,292.008z"/>
	<path style="fill:#333333;" d="M320,248c0,2.44-0.136,4.84-0.36,7.216l15.92,1.56c0.28-2.888,0.44-5.808,0.44-8.776   s-0.16-5.888-0.44-8.784l-15.92,1.56C319.864,243.16,320,245.56,320,248z"/>
	<path style="fill:#333333;" d="M313.64,218.424l14.584-6.576c-1.2-2.656-2.536-5.28-4.016-7.84s-3.08-5.024-4.776-7.384   l-13.008,9.312c1.384,1.936,2.704,3.96,3.928,6.08C311.576,214.112,312.664,216.248,313.64,218.424z"/>
	<path style="fill:#333333;" d="M290.048,189.56l9.352-12.984c-2.36-1.704-4.832-3.296-7.4-4.792   c-2.576-1.488-5.192-2.824-7.84-4.016l-6.568,14.592c2.168,0.976,4.312,2.064,6.416,3.28   C286.104,186.856,288.12,188.168,290.048,189.56z"/>
</g>
<g>
</g>
<g>
</g>
<g>
</g>
<g>
</g>
<g>
</g>
<g>
</g>
<g>
</g>
<g>
</g>
<g>
</g>
<g>
</g>
<g>
</g>
<g>
</g>
<g>
</g>
<g>
</g>
<g>
</g>
</svg>
