<?xml version="1.0" encoding="iso-8859-1"?>
<!-- Generator: Adobe Illustrator 19.0.0, SVG Export Plug-In . SVG Version: 6.00 Build 0)  -->
<svg xmlns="http://www.w3.org/2000/svg" xmlns:xlink="http://www.w3.org/1999/xlink" version="1.1" id="Capa_1" x="0px" y="0px" viewBox="0 0 496 496" style="enable-background:new 0 0 496 496;" xml:space="preserve">
<g>
	<rect x="208" y="448" style="fill:#333333;" width="80" height="16"/>
	<path style="fill:#333333;" d="M248,56c-13.232,0-24,10.768-24,24c0,10.416,6.712,19.216,16,22.528V144h16v-41.472   c9.288-3.312,16-12.112,16-22.528C272,66.768,261.232,56,248,56z M248,88c-4.416,0-8-3.584-8-8s3.584-8,8-8c4.416,0,8,3.584,8,8   S252.416,88,248,88z"/>
	<path style="fill:#333333;" d="M419.144,192H288v-16h96c26.472,0,48-21.528,48-48s-21.528-48-48-48c-0.184,0-0.384,0-0.568,0   C379.536,52.896,356.168,32,328,32c-7.688,0-15.216,1.568-22.192,4.592C295.344,14.648,272.784,0,248,0   s-47.344,14.648-57.808,36.592C183.216,33.568,175.688,32,168,32c-28.168,0-51.536,20.896-55.432,48c-0.184,0-0.384,0-0.568,0   c-26.472,0-48,21.528-48,48s21.528,48,48,48h96v16H76.856C43.304,192,16,219.304,16,252.856V304h16v-51.144   C32,228.128,52.128,208,76.856,208H224v-32h16v80h-56c-13.232,0-24,10.768-24,24v192c0,13.232,10.768,24,24,24h128   c13.232,0,24-10.768,24-24V280c0-13.232-10.768-24-24-24h-56v-80h16v32h147.144C443.872,208,464,228.128,464,252.856V304h16   v-51.144C480,219.304,452.696,192,419.144,192z M176,320h144v96H176V320z M312,480H184c-4.416,0-8-3.584-8-8v-40h144v40   C320,476.416,316.416,480,312,480z M320,280v24H176v-24c0-4.416,3.584-8,8-8h128C316.416,272,320,275.584,320,280z M80,128   c0-17.648,14.352-32,32-32s32,14.352,32,32h16c0-20.664-13.144-38.264-31.496-45.016C131.008,63.312,147.664,48,168,48   c7.408,0,14.576,2.112,20.888,5.984c5.584,3.424,10.376,8.168,13.76,14.008l13.84-8.016c-3.296-5.696-7.592-10.608-12.52-14.704   C211.424,27.848,228.76,16,248,16c19.264,0,36.608,11.872,44.048,29.328c-4.928,4.104-9.256,8.96-12.552,14.664l13.856,8.016   c4.224-7.304,10.624-12.912,18.08-16.32c-0.016-0.016-0.024-0.032-0.04-0.04C316.584,49.264,322.224,48,328,48   c20.384,0,37.064,15.384,39.504,34.984C349.152,89.728,336,107.336,336,128h16c0-17.648,14.352-32,32-32s32,14.352,32,32   s-14.352,32-32,32H112C94.352,160,80,145.648,80,128z"/>
	<path style="fill:#333333;" d="M376,224h-88v16h88c13.232,0,24,10.768,24,24v104h16V264C416,241.944,398.056,224,376,224z"/>
	<path style="fill:#333333;" d="M208,224h-88c-22.056,0-40,17.944-40,40v104h16V264c0-13.232,10.768-24,24-24h88V224z"/>
</g>
<g>
	<path style="fill:#FFA64D;" d="M472,344c-13.232,0-24-10.768-24-24s10.768-24,24-24s24,10.768,24,24S485.232,344,472,344z"/>
	<path style="fill:#FFA64D;" d="M408,408c-13.232,0-24-10.768-24-24s10.768-24,24-24s24,10.768,24,24S421.232,408,408,408z"/>
	<path style="fill:#FFA64D;" d="M88,408c-13.232,0-24-10.768-24-24s10.768-24,24-24s24,10.768,24,24S101.232,408,88,408z"/>
	<path style="fill:#FFA64D;" d="M24,344c-13.232,0-24-10.768-24-24s10.768-24,24-24s24,10.768,24,24S37.232,344,24,344z"/>
</g>
<g>
</g>
<g>
</g>
<g>
</g>
<g>
</g>
<g>
</g>
<g>
</g>
<g>
</g>
<g>
</g>
<g>
</g>
<g>
</g>
<g>
</g>
<g>
</g>
<g>
</g>
<g>
</g>
<g>
</g>
</svg>
