<?xml version="1.0" encoding="iso-8859-1"?>
<!-- Generator: Adobe Illustrator 19.0.0, SVG Export Plug-In . SVG Version: 6.00 Build 0)  -->
<svg xmlns="http://www.w3.org/2000/svg" xmlns:xlink="http://www.w3.org/1999/xlink" version="1.1" id="Capa_1" x="0px" y="0px" viewBox="0 0 496 496" style="enable-background:new 0 0 496 496;" xml:space="preserve">
<g>
	<rect x="136" y="232" style="fill:#FFA64D;" width="224" height="32"/>
	<path style="fill:#FFA64D;" d="M280,184c0,5.856-1.688,11.28-4.44,16h65.184c-8.736-9.192-20.224-15.856-33.368-18.584L281.28,176   H280V184z"/>
	<path style="fill:#FFA64D;" d="M216,184v-8h-4.504l-26.128,5.416C172.224,184.144,160.736,190.808,152,200h68.44   C217.688,195.28,216,189.856,216,184z"/>
	<rect x="136" y="296" style="fill:#FFA64D;" width="224" height="32"/>
</g>
<g>
	<path style="fill:#333333;" d="M456,96H336v-8c0-48.52-39.48-88-88-88s-88,39.48-88,88v8H40c-22.056,0-40,17.944-40,40v272   c0,22.056,17.944,40,40,40h88v32H96v16h304v-16h-32v-32h88c22.056,0,40-17.944,40-40V136C496,113.944,478.056,96,456,96z M176,88   c0-39.704,32.296-72,72-72s72,32.296,72,72v16c0,39.704-32.296,72-72,72s-72-32.296-72-72V88z M144,244.088   c0-1.392,0.256-2.72,0.36-4.088H176v16h-32V244.088z M304,240v16H192v-16H304z M144,272h32v16h-32V272z M144,304h32v16h-32V304z    M192,304h80v-16h-80v-16h112v16h-16v16h16v16H192V304z M320,304h32v16h-32V304z M352,288h-32v-16h32V288z M352,244.08V256h-32v-16   h31.64C351.744,241.368,352,242.696,352,244.08z M248,224H147.856c2.272-5.848,5.488-11.248,9.504-16h58.84   C223.512,217.656,234.984,224,248,224c13.128,0,24.704-6.448,32-16.248V208h58.64c4.016,4.752,7.232,10.152,9.504,16H248z    M208.12,185.208c0.072,2.312,0.24,4.592,0.688,6.792h-29.296c2.92-1.152,5.96-2.088,9.112-2.744L208.12,185.208z M224.48,188.712   C231.976,190.8,239.84,192,248,192s16.024-1.2,23.52-3.288C269.328,199.696,259.624,208,248,208S226.672,199.696,224.48,188.712z    M287.192,192c0.448-2.2,0.616-4.488,0.688-6.792l19.504,4.048c3.16,0.656,6.2,1.592,9.128,2.752h-29.32V192z M40,112h120.408   c2.192,24.184,14.176,45.568,31.984,60.128l-7.016,1.456C152.136,180.48,128,210.128,128,244.088V336h240v-91.92   c0-33.944-24.128-63.592-57.368-70.496l-7.016-1.456c17.8-14.56,29.784-35.944,31.976-60.12H456c13.232,0,24,10.768,24,24v248H16   V136C16,122.768,26.768,112,40,112z M352,480H144v-32h208V480z M456,432H40c-13.232,0-24-10.768-24-24v-8h464v8   C480,421.232,469.232,432,456,432z"/>
	<path style="fill:#333333;" d="M421.192,271.48l15.752,2.832C438.968,263.048,440,251.504,440,240   c0-29.112-6.352-57.08-18.872-83.12l-14.424,6.936C418.176,187.68,424,213.304,424,240C424,250.552,423.056,261.152,421.192,271.48   z"/>
	<path style="fill:#333333;" d="M80.296,293.568C74.792,276.312,72,258.288,72,240c0-18.832,2.952-37.36,8.792-55.072l-15.2-5   C59.224,199.256,56,219.472,56,240c0,19.936,3.048,39.6,9.048,58.432L80.296,293.568z"/>
</g>
<g>
	<path style="fill:#FFA64D;" d="M424,312c-13.232,0-24-10.768-24-24s10.768-24,24-24s24,10.768,24,24S437.232,312,424,312z"/>
	<path style="fill:#FFA64D;" d="M80,192c-13.232,0-24-10.768-24-24s10.768-24,24-24s24,10.768,24,24S93.232,192,80,192z"/>
</g>
<g>
</g>
<g>
</g>
<g>
</g>
<g>
</g>
<g>
</g>
<g>
</g>
<g>
</g>
<g>
</g>
<g>
</g>
<g>
</g>
<g>
</g>
<g>
</g>
<g>
</g>
<g>
</g>
<g>
</g>
</svg>
