<?xml version="1.0" encoding="iso-8859-1"?>
<!-- Generator: Adobe Illustrator 19.0.0, SVG Export Plug-In . SVG Version: 6.00 Build 0)  -->
<svg xmlns="http://www.w3.org/2000/svg" xmlns:xlink="http://www.w3.org/1999/xlink" version="1.1" id="Capa_1" x="0px" y="0px" viewBox="0 0 496.008 496.008" style="enable-background:new 0 0 496.008 496.008;" xml:space="preserve">
<circle style="fill:#FFA64D;" cx="152" cy="320.004" r="72"/>
<g>
	<path style="fill:#333333;" d="M304.008,400.004h-11.856c-8,0-15.816-1.92-23.048-5.192c7.128-16.112,10.904-33.68,10.904-51.392   c0-42.808-24.832-84.032-64.976-108.472l13.952-27.128c1.976-3.84,3.024-8.168,3.024-12.496c0-15.064-12.256-27.32-27.32-27.32   h-0.984c-9.344,0-17.936,4.696-22.992,12.552l-1.792,2.792c-0.528,0.832-1.872,0.816-2.392,0.016l-1.944-3.04   c-4.96-7.72-13.408-12.32-22.576-12.32s-17.616,4.6-22.584,12.336l-1.928,3.008c-0.528,0.832-1.872,0.824-2.392,0.008l-1.808-2.808   c-5.048-7.848-13.64-12.544-22.984-12.544h-0.984c-15.064,0-27.32,12.256-27.32,27.32c0,4.328,1.048,8.656,3.024,12.496   l13.952,27.128c-40.144,24.44-64.976,65.664-64.976,108.472c0,8.296,0.848,16.52,2.432,24.584h-1.2   c-10.344,0-19.496,6.592-22.768,16.408L1.24,388.1c-2.88,8.68-0.664,18.088,5.808,24.552l27.656,27.656   c9.616,9.616,21.504,16.96,34.392,21.248l41.768,13.936c8.992,2.992,18.36,4.504,27.832,4.504h129.152   c7.184,0,14.368-0.88,21.344-2.632l14.816-3.696v22.336h144v-128h-144V400.004z M99.328,184.004h0.984   c3.872,0,7.44,1.944,9.52,5.192l1.808,2.808c3.216,5.008,8.704,8,14.656,8c5.952,0,11.432-2.992,14.656-8.016l1.928-3.008   c4.016-6.232,14.24-6.216,18.24-0.016l1.944,3.04c3.216,5.008,8.696,8,14.648,8s11.44-2.992,14.664-8.008l1.792-2.792   c2.096-3.256,5.656-5.2,9.528-5.2h0.984c6.24,0,11.32,5.08,11.32,11.32c0,1.8-0.44,3.584-1.256,5.184l-16.192,31.496h-93.088   l-16.192-31.496c-0.824-1.6-1.256-3.392-1.256-5.184C88.008,189.084,93.088,184.004,99.328,184.004z M98.176,248.004h107.656   C241.768,269.484,264,305.86,264,343.42c0,14.736-3.072,29.296-8.72,42.808l-57.856-46.288c-2.72-2.168-5.816-3.696-9.176-4.528   l-4.416-1.104c-0.888-12.44-11.176-22.304-23.824-22.304h-16c-4.416,0-8-3.584-8-8s3.584-8,8-8h16c4.416,0,8,3.584,8,8h16   c0-13.232-10.768-24-24-24v-16h-16v16c-13.232,0-24,10.768-24,24s10.768,24,24,24h16c2.768,0,5.088,1.496,6.52,3.632   c-7.664,0.912-14.48,5.504-18.208,12.368h-4.312c-4.416,0-8-3.584-8-8h-16c0,13.232,10.768,24,24,24h0.04   c-0.312,8.216,3.576,16.216,10.6,20.912l19.848,13.232c0.488,0.328,0.904,0.712,1.36,1.072l-17.84,4.464   c-1.136,0.28-2.28,0.48-3.44,0.592l-62.592,6.256c-7.2,0.688-14.248-1.808-19.36-6.912L48.04,375.036   c-1.32-1.32-2.808-2.416-4.352-3.384c-2.408-9.168-3.68-18.648-3.68-28.232C40.008,305.86,62.24,269.484,98.176,248.004z    M285.32,461.852c-5.712,1.424-11.592,2.152-17.472,2.152h-129.16c-7.76,0-15.424-1.24-22.776-3.688L74.136,446.38   C63.6,442.876,53.872,436.868,46,428.996L18.344,401.34c-2.16-2.16-2.896-5.296-1.936-8.184l1.224-3.68   c1.096-3.272,4.152-5.472,7.592-5.472h5.84c2.104,0,4.168,0.848,5.656,2.344l24.584,24.584c8.52,8.512,20.304,12.704,32.264,11.52   l62.6-6.256c1.928-0.192,3.84-0.528,5.712-1l22.8-5.704c0.672,3.392,0.648,6.952-0.224,10.44l-2.528,10.128l15.512,3.872   l2.528-10.128c4.096-16.352-2.584-33.624-16.616-42.976l-19.84-13.224c-2.816-1.88-4.152-5.336-3.328-8.608l1.376-5.528   c1.08-4.28,5.384-6.864,9.712-5.832l13.096,3.28c1.128,0.272,2.152,0.784,3.048,1.504l59.744,47.8   c12.736,10.184,28.704,15.784,44.992,15.784h11.856v41.184L285.32,461.852z M320.008,384.004h16v16h16v-16h80v96h-80v-64h-16v64   h-16V384.004z"/>
	<path style="fill:#333333;" d="M456.008,0.004h-128c-19.312,0-35.472,13.768-39.192,32H24.008c-13.232,0-24,10.768-24,24v152   c0,13.232,10.768,24,24,24h20.688l-10.344,10.344l11.312,11.312l29.656-29.656l-29.656-29.656L34.352,205.66l10.344,10.344H24.008   c-4.416,0-8-3.584-8-8v-152c0-4.416,3.584-8,8-8h264v232c0,22.056,17.944,40,40,40h128c22.056,0,40-17.944,40-40v-240   C496.008,17.948,478.064,0.004,456.008,0.004z M328.008,16.004h128c13.232,0,24,10.768,24,24v8h-176v-8   C304.008,26.772,314.776,16.004,328.008,16.004z M304.008,64.004h176v176h-176V64.004z M456.008,304.004h-128   c-13.232,0-24-10.768-24-24v-24h176v24C480.008,293.236,469.24,304.004,456.008,304.004z"/>
	<rect x="352" y="272.004" style="fill:#333333;" width="80" height="16"/>
	<path style="fill:#333333;" d="M96.008,96.004c0-17.648-14.352-32-32-32s-32,14.352-32,32s14.352,32,32,32   S96.008,113.652,96.008,96.004z M64.008,112.004c-8.824,0-16-7.176-16-16s7.176-16,16-16s16,7.176,16,16   S72.832,112.004,64.008,112.004z"/>
	<rect x="112" y="88.004" style="fill:#333333;" width="160" height="16"/>
</g>
<rect x="320" y="72.004" style="fill:#FFA64D;" width="144" height="160"/>
<g>
</g>
<g>
</g>
<g>
</g>
<g>
</g>
<g>
</g>
<g>
</g>
<g>
</g>
<g>
</g>
<g>
</g>
<g>
</g>
<g>
</g>
<g>
</g>
<g>
</g>
<g>
</g>
<g>
</g>
</svg>
