<?xml version="1.0" encoding="iso-8859-1"?>
<!-- Generator: Adobe Illustrator 19.0.0, SVG Export Plug-In . SVG Version: 6.00 Build 0)  -->
<svg xmlns="http://www.w3.org/2000/svg" xmlns:xlink="http://www.w3.org/1999/xlink" version="1.1" id="Capa_1" x="0px" y="0px" viewBox="0 0 496.016 496.016" style="enable-background:new 0 0 496.016 496.016;" xml:space="preserve">
<g>
	
		<rect x="287.718" y="387.796" transform="matrix(-0.8292 0.5589 -0.5589 -0.8292 771.1536 588.2054)" style="fill:#333333;" width="15.992" height="48.239"/>
	
		<rect x="157.764" y="83.988" transform="matrix(-0.1357 0.9907 -0.9907 -0.1357 293.2503 -71.8457)" style="fill:#333333;" width="40.398" height="15.999"/>
	
		<rect x="74.639" y="315.999" transform="matrix(-0.7885 0.615 -0.615 -0.7885 367.6538 521.5728)" style="fill:#333333;" width="39.023" height="16"/>
	<path style="fill:#333333;" d="M295.536,440.016l-128.464,7.56c-2.944-13.632-12.888-24.568-25.84-29.144l7.872-57.344   l-15.848-2.168l-7.872,57.36c-5.84,0.384-11.296,2.016-16.192,4.656L78.176,383.72l-12.288,10.248l31.016,37.216   c-5.48,6.832-8.896,15.392-8.896,24.816c0,22.056,17.944,40,40,40c19.456,0,35.672-13.984,39.232-32.416l129.232-7.6   L295.536,440.016z M128.008,480c-13.232,0-24-10.768-24-24s10.768-24,24-24s24,10.768,24,24S141.24,480,128.008,480z"/>
	<path style="fill:#333333;" d="M209.328,55.888l65.488-10.912C279.808,56.16,290.992,64,304.008,64   c6.64,0,12.808-2.04,17.928-5.512l46.744,41.248l-29.592,23.08l9.84,12.608l31.952-24.92l37.832,33.384l10.584-12l-35.584-31.392   l21.944-17.12c6.408,5.864,14.384,10.032,23.24,11.744l-4.536,31.76l15.832,2.264l4.816-33.704c23.16-3.424,41-23.36,41-47.44   c0-26.472-21.528-48-48-48s-48,21.528-48,48c0,8.248,2.096,16.008,5.768,22.8l-24.264,18.92L332.424,46.4   c2.216-4.344,3.584-9.192,3.584-14.4c0-17.648-14.352-32-32-32c-16.68,0-30.256,12.864-31.712,29.176l-65.6,10.936L209.328,55.888z    M448.008,16c17.648,0,32,14.352,32,32s-14.352,32-32,32s-32-14.352-32-32S430.36,16,448.008,16z M304.008,16   c8.824,0,16,7.176,16,16s-7.176,16-16,16s-16-7.176-16-16S295.184,16,304.008,16z"/>
	<path style="fill:#333333;" d="M41.16,216.728l51.52,23.776l6.704-14.528l-51.6-23.816c0.072-0.72,0.224-1.416,0.224-2.16   c0-9.768-5.888-18.16-14.28-21.904l20.64-82.568c5.424-0.728,10.56-2.352,15.264-4.736l49.64,73.664l13.264-8.936L82.512,81.288   c6.576-6.816,11.128-15.552,12.768-25.28h64.728V40h-64.72C91.456,17.336,71.744,0,48.008,0c-26.472,0-48,21.528-48,48   c0,23.048,16.328,42.336,38.016,46.944l-20.512,82.064C7.448,179.864,0.008,189.032,0.008,200c0,10.392,6.672,19.176,15.928,22.504   l28.376,99.68l15.392-4.376L32.536,222.36C35.816,221.104,38.76,219.2,41.16,216.728z M16.008,48c0-17.648,14.352-32,32-32   s32,14.352,32,32s-14.352,32-32,32S16.008,65.648,16.008,48z M24.008,192c4.408,0,8,3.584,8,8s-3.592,8-8,8s-8-3.584-8-8   S19.6,192,24.008,192z"/>
	<path style="fill:#333333;" d="M496.008,280c0-16.904-13.208-30.632-29.816-31.776l-13.816-73.696l-15.728,2.952l13.808,73.648   c-8.048,3.8-14.176,10.832-16.856,19.44l-32.016-6.4l-3.144,15.688l34.304,6.864c2.32,10.824,10.152,19.528,20.376,23.264   l-8.592,90.208c-8.96,0.648-17.232,3.744-24.168,8.656l-54.336-62.096l-12.04,10.528l55.008,62.872   c-4.152,5.8-7.032,12.552-8.272,19.864h-56.712v16h56.72c3.824,22.664,23.536,40,47.28,40c26.472,0,48-21.528,48-48   c0-22.16-15.112-40.8-35.552-46.304l8.592-90.208C484.288,309.056,496.008,295.92,496.008,280z M448.008,280   c0-8.824,7.176-16,16-16s16,7.176,16,16s-7.176,16-16,16S448.008,288.824,448.008,280z M480.008,448c0,17.648-14.352,32-32,32   s-32-14.352-32-32s14.352-32,32-32S480.008,430.352,480.008,448z"/>
</g>
<circle style="fill:#FFA64D;" cx="248.008" cy="248" r="160"/>
<path style="fill:#333333;" d="M359.168,332.424l-4.944-9.888C346.032,306.168,329.584,296,311.288,296h-7.28v-24h7.28  c12.2,0,23.168,6.776,28.624,17.688l4.944,9.888l14.312-7.16l-4.944-9.888c-8.192-16.36-24.64-26.528-42.936-26.528h-7.28v-24h7.28  c12.2,0,23.168,6.776,28.624,17.688l4.944,9.888l14.312-7.16l-4.944-9.888c-8.192-16.36-24.64-26.528-42.936-26.528h-8.752  c-2.416-6.776-7.752-12.112-14.528-14.528V200c0-13.016-6.344-24.488-16-31.792v-9.144c0-10.344,6.592-19.496,16.392-22.768  l2.12-0.704l-5.032-15.184l-2.136,0.712c-16.352,5.448-27.344,20.704-27.344,37.944v1.744c-2.584-0.528-5.264-0.808-8-0.808  s-5.416,0.28-8,0.808v-1.744c0-17.24-10.992-32.496-27.36-37.952l-2.12-0.704l-5.032,15.184l2.104,0.696  c9.816,3.28,16.408,12.432,16.408,22.776v9.144c-9.656,7.312-16,18.784-16,31.792v1.472c-6.776,2.416-12.112,7.752-14.528,14.528  h-8.752c-18.304,0-34.752,10.168-42.936,26.528l-4.944,9.888l14.312,7.16l4.944-9.888C161.56,238.776,172.528,232,184.728,232h7.28  v24h-7.28c-18.304,0-34.752,10.168-42.936,26.528l-4.944,9.888l14.312,7.16l4.944-9.888C161.56,278.776,172.528,272,184.728,272  h7.28v24h-7.28c-18.304,0-34.752,10.168-42.936,26.528l-4.944,9.888l14.312,7.16l4.944-9.888  C161.56,318.776,172.528,312,184.728,312h7.28v16c0,17.648,14.352,32,32,32h4l20-26.672l20,26.672h4c17.648,0,32-14.352,32-32v-16  h7.28c12.2,0,23.168,6.776,28.624,17.688l4.944,9.888L359.168,332.424z M248.008,176c13.232,0,24,10.768,24,24h-16h-8h-24  C224.008,186.768,234.776,176,248.008,176z M288.008,328c0,7.552-5.264,13.904-12.32,15.568l-19.68-26.232V248h-16v69.336  l-19.68,26.232c-7.056-1.664-12.32-8.016-12.32-15.568V224c0-4.416,3.592-8,8-8h24v16h16v-16h24c4.408,0,8,3.584,8,8V328z"/>
<g>
	<circle style="fill:#FFA64D;" cx="320.008" cy="448" r="32"/>
	<circle style="fill:#FFA64D;" cx="184.008" cy="48" r="32"/>
	<circle style="fill:#FFA64D;" cx="48.008" cy="360" r="48"/>
	<circle style="fill:#FFA64D;" cx="440.008" cy="152" r="32"/>
</g>
<g>
</g>
<g>
</g>
<g>
</g>
<g>
</g>
<g>
</g>
<g>
</g>
<g>
</g>
<g>
</g>
<g>
</g>
<g>
</g>
<g>
</g>
<g>
</g>
<g>
</g>
<g>
</g>
<g>
</g>
</svg>
