<?xml version="1.0" encoding="iso-8859-1"?>
<!-- Generator: Adobe Illustrator 19.0.0, SVG Export Plug-In . SVG Version: 6.00 Build 0)  -->
<svg xmlns="http://www.w3.org/2000/svg" xmlns:xlink="http://www.w3.org/1999/xlink" version="1.1" id="Capa_1" x="0px" y="0px" viewBox="0 0 501.504 501.504" style="enable-background:new 0 0 501.504 501.504;" xml:space="preserve">
<path style="fill:#333333;" d="M473.088,404.016c-9.824-32.76-32.192-60.864-61.632-78.144  c14.872-20.84,23.296-46.088,23.296-72.624v-66.496c0-101.464-82.544-184-184-184s-184,82.536-184,184v66.496  c0,26.528,8.424,51.784,23.296,72.624c-29.44,17.28-51.8,45.376-61.632,78.144L0,498.752h250.752h250.752L473.088,404.016z   M361.904,349.008l-100.952,55.064c6.36-21.752,25.808-42.784,47.72-66.456c34.992-37.808,77.672-84.144,84.896-154.136  c15.912,19.256,25.184,43.928,25.184,69.768C418.752,293.192,396.968,329.888,361.904,349.008z M306.752,178.752h-112v-8  c0-4.416,3.592-8,8-8h96c4.408,0,8,3.584,8,8V178.752z M194.752,194.752h112v88h-112V194.752z M202.752,314.752  c-4.408,0-8-3.584-8-8v-8h112v8c0,4.416-3.592,8-8,8H202.752z M298.752,146.752h-96c-13.232,0-24,10.768-24,24v127.216  c-28.704-33.832-54.096-73.736-55.792-129.384c6.144-5.008,12.848-9.384,20.088-12.936c33.656-16.52,69.888-24.896,107.704-24.896  s74.048,8.376,107.704,24.896c7.24,3.552,13.944,7.928,20.088,12.936c-1.696,55.648-27.088,95.552-55.792,129.384V170.752  C322.752,157.52,311.984,146.752,298.752,146.752z M293.232,330.752c-2.336,2.528-4.656,5.048-6.912,7.528  c-11.248,5.44-23.824,8.472-35.568,8.472c-11.744,0-24.32-3.032-35.568-8.472c-2.264-2.488-4.576-5-6.912-7.528H293.232z   M250.752,362.752c5.256,0,10.648-0.656,16.04-1.608c-6.456,8.312-11.92,16.616-16.04,25.12c-4.112-8.504-9.584-16.808-16.04-25.12  C240.104,362.096,245.496,362.752,250.752,362.752z M82.752,186.752c0-92.632,75.36-168,168-168s168,75.368,168,168v5.48  c-12.096-21.696-30.456-39.752-53.24-50.944c-35.872-17.608-74.48-26.536-114.76-26.536s-78.888,8.928-114.76,26.536  c-22.784,11.192-41.144,29.248-53.24,50.944L82.752,186.752L82.752,186.752z M107.928,183.48  c7.224,69.992,49.904,116.328,84.896,154.136c21.912,23.672,41.352,44.704,47.72,66.456l-100.952-55.064  c-35.056-19.12-56.84-55.816-56.84-95.76C82.752,227.408,92.024,202.736,107.928,183.48z M123.592,482.752l7.12-71.2l-15.92-1.592  l-7.28,72.8H21.504l22.24-74.144c8.912-29.704,29.464-55.096,56.504-70.216c9.04,9.72,19.664,18.104,31.68,24.664l62.824,34.256  v69.432h16v-60.704l40,21.816l40-21.816v60.704h16V397.32l62.816-34.264c12.016-6.552,22.64-14.944,31.68-24.656  c27.04,15.112,47.6,40.512,56.512,70.216L480,482.752h-86.008l-7.28-72.8l-15.92,1.592l7.12,71.2h-127.16h-127.16V482.752z"/>
<rect x="194.752" y="194.752" style="fill:#FFA64D;" width="112" height="96"/>
<g>
</g>
<g>
</g>
<g>
</g>
<g>
</g>
<g>
</g>
<g>
</g>
<g>
</g>
<g>
</g>
<g>
</g>
<g>
</g>
<g>
</g>
<g>
</g>
<g>
</g>
<g>
</g>
<g>
</g>
</svg>
