<?xml version="1.0" encoding="iso-8859-1"?>
<!-- Generator: Adobe Illustrator 19.0.0, SVG Export Plug-In . SVG Version: 6.00 Build 0)  -->
<svg xmlns="http://www.w3.org/2000/svg" xmlns:xlink="http://www.w3.org/1999/xlink" version="1.1" id="Capa_1" x="0px" y="0px" viewBox="0 0 496 496" style="enable-background:new 0 0 496 496;" xml:space="preserve">
<path style="fill:#FFA64D;" d="M330.84,84.016C328.784,63.488,311.672,48,291.04,48h-86.08c-20.632,0-37.744,15.488-39.808,36.016  L152,224h192L330.84,84.016z"/>
<g>
	<path style="fill:#333333;" d="M456,112H333.472l1.504,16H456c13.232,0,24,10.768,24,24v232H16V152c0-13.232,10.768-24,24-24   h121.024l1.504-16H40c-22.056,0-40,17.944-40,40v256c0,22.056,17.944,40,40,40h88v32H96v16h304v-16h-32v-32h88   c22.056,0,40-17.944,40-40V152C496,129.944,478.056,112,456,112z M352,480H144v-32h208V480z M456,432H40c-13.232,0-24-10.768-24-24   v-8h464v8C480,421.232,469.232,432,456,432z"/>
	<path style="fill:#333333;" d="M240,152.64V208h-96c-13.232,0-24,10.768-24,24v16c0,13.232,10.768,24,24,24h64v64H48V160h110.016   l1.504-16H32v208h192v-80h16v96h224V256h-89.472c0.896-2.512,1.472-5.184,1.472-8v-16c0-13.232-10.768-24-24-24h-40v16h40   c4.408,0,8,3.592,8,8v16c0,4.408-3.592,8-8,8h-8H144c-4.408,0-8-3.592-8-8v-16c0-4.408,3.592-8,8-8h152v-16h-40v-55.36L285.192,176   H304V80h-18.808L248,109.76L210.808,80H192v96h18.808L240,152.64z M352,272h96v80H256v-80h88H352z M288,98.248v59.504l-32-25.6V128   v-4.16L288,98.248z M208,98.248l32,25.6V128v4.16l-32,25.6V98.248z"/>
	<rect x="240" style="fill:#333333;" width="16" height="32"/>
	
		<rect x="138.171" y="42.175" transform="matrix(-0.7071 0.7071 -0.7071 -0.7071 290.6654 -4.0472)" style="fill:#333333;" width="16" height="32"/>
	
		<rect x="333.819" y="50.176" transform="matrix(-0.7071 0.7071 -0.7071 -0.7071 638.3138 -148.0468)" style="fill:#333333;" width="32" height="16"/>
	<rect x="64" y="176" style="fill:#333333;" width="16" height="16"/>
	<rect x="96" y="176" style="fill:#333333;" width="40" height="16"/>
	<rect x="64" y="208" style="fill:#333333;" width="40" height="16"/>
	<rect x="64" y="240" style="fill:#333333;" width="40" height="16"/>
	<rect x="64" y="272" style="fill:#333333;" width="56" height="16"/>
	<rect x="64" y="304" style="fill:#333333;" width="96" height="16"/>
	<rect x="176" y="304" style="fill:#333333;" width="16" height="16"/>
	<rect x="272" y="288" style="fill:#333333;" width="16" height="16"/>
	<rect x="304" y="288" style="fill:#333333;" width="128" height="16"/>
	<rect x="272" y="320" style="fill:#333333;" width="128" height="16"/>
	<rect x="416" y="320" style="fill:#333333;" width="16" height="16"/>
</g>
<g>
</g>
<g>
</g>
<g>
</g>
<g>
</g>
<g>
</g>
<g>
</g>
<g>
</g>
<g>
</g>
<g>
</g>
<g>
</g>
<g>
</g>
<g>
</g>
<g>
</g>
<g>
</g>
<g>
</g>
</svg>
