<?xml version="1.0" encoding="iso-8859-1"?>
<!-- Generator: Adobe Illustrator 19.0.0, SVG Export Plug-In . SVG Version: 6.00 Build 0)  -->
<svg xmlns="http://www.w3.org/2000/svg" xmlns:xlink="http://www.w3.org/1999/xlink" version="1.1" id="Capa_1" x="0px" y="0px" viewBox="0 0 496 496" style="enable-background:new 0 0 496 496;" xml:space="preserve">
<path style="fill:#333333;" d="M408,96c-3.512,0-6.984,0.208-10.408,0.6C386.576,41.128,337.184,0,280,0  c-40.256,0-77.936,20.44-100.056,53.768C171.264,50.128,161.856,48,152,48c-31.352,0-58.008,20.176-67.872,48.2  C37.408,98.24,0,136.784,0,184c0,45.448,34.048,83.088,79.208,87.56l1.576-15.92C43.848,251.976,16,221.176,16,184  c0-37.136,28.264-67.784,64.408-71.592C80.144,114.904,80,117.432,80,120c0,16.32,5.608,32.304,15.8,45.008l12.488-10.016  C100.248,144.976,96,132.872,96,120c0-30.872,25.12-56,56-56c22.936,0,43.32,13.736,51.928,34.992l14.832-6  c-5.248-12.968-13.984-23.656-24.776-31.416C213.24,33.296,245.528,16,280,16c49.672,0,92.552,35.792,101.976,84.016  c-17.48,5.368-32.984,16.016-44.368,31.168l12.8,9.608c13.744-18.304,34.736-28.8,57.6-28.8c39.696,0,72,32.296,72,72  c0,37.176-27.848,67.976-64.784,71.64l1.576,15.92C461.952,267.088,496,229.448,496,184C496,135.48,456.52,96,408,96z"/>
<circle style="fill:#FFA64D;" cx="248" cy="312" r="184"/>
<g>
	<path style="fill:#333333;" d="M280,464h-64v-36.384c-9.448-2.616-18.52-6.392-27.096-11.264l-25.752,25.76l-45.256-45.256   l25.752-25.752c-4.88-8.576-8.656-17.656-11.264-27.104H96v-64h36.384c2.616-9.448,6.384-18.52,11.264-27.104l-25.752-25.752   l45.256-45.256l25.752,25.76c8.584-4.88,17.656-8.656,27.096-11.264V160h64v36.384c9.44,2.608,18.512,6.384,27.096,11.264   l25.752-25.76l45.256,45.256l-25.752,25.752c4.88,8.576,8.656,17.656,11.264,27.104H400v64h-36.384   c-2.616,9.448-6.384,18.52-11.264,27.104l25.752,25.752l-45.256,45.256l-25.752-25.76C298.52,421.224,289.448,425,280,427.616   L280,464L280,464z M232,448h32v-33.08l6.288-1.376c11.96-2.624,23.304-7.336,33.712-14.016l5.424-3.48l23.424,23.432l22.632-22.632   l-23.424-23.424l3.48-5.424c6.68-10.424,11.4-21.768,14.008-33.72l1.368-6.28H384v-32h-33.088l-1.376-6.288   c-2.608-11.952-7.328-23.296-14.008-33.72l-3.48-5.424l23.424-23.424l-22.632-22.632l-23.424,23.432L304,224.472   c-10.424-6.688-21.768-11.408-33.712-14.016L264,209.088V176h-32v33.088l-6.296,1.368c-11.944,2.608-23.288,7.328-33.712,14.016   l-5.424,3.48l-23.424-23.432l-22.632,22.632l23.424,23.424l-3.48,5.424c-6.68,10.416-11.4,21.76-14.008,33.72L145.08,296H112v32   h33.08l1.376,6.288c2.616,11.96,7.328,23.304,14.008,33.72l3.48,5.424l-23.424,23.424l22.632,22.632l23.424-23.432l5.424,3.472   c10.408,6.68,21.752,11.392,33.712,14.016L232,414.92V448z"/>
	<path style="fill:#333333;" d="M296,297.472V280c0-26.472-21.528-48-48-48s-48,21.528-48,48v17.472   c-9.288,3.312-16,12.112-16,22.528v48c0,13.232,10.768,24,24,24h80c13.232,0,24-10.768,24-24v-48   C312,309.584,305.288,300.784,296,297.472z M248,248c17.648,0,32,14.352,32,32v16h-64v-16C216,262.352,230.352,248,248,248z    M296,368c0,4.416-3.592,8-8,8h-80c-4.408,0-8-3.584-8-8v-48c0-4.416,3.592-8,8-8h80c4.408,0,8,3.584,8,8V368z"/>
</g>
<g>
</g>
<g>
</g>
<g>
</g>
<g>
</g>
<g>
</g>
<g>
</g>
<g>
</g>
<g>
</g>
<g>
</g>
<g>
</g>
<g>
</g>
<g>
</g>
<g>
</g>
<g>
</g>
<g>
</g>
</svg>
