<?xml version="1.0" encoding="iso-8859-1"?>
<!-- Generator: Adobe Illustrator 19.0.0, SVG Export Plug-In . SVG Version: 6.00 Build 0)  -->
<svg xmlns="http://www.w3.org/2000/svg" xmlns:xlink="http://www.w3.org/1999/xlink" version="1.1" id="Capa_1" x="0px" y="0px" viewBox="0 0 496 496" style="enable-background:new 0 0 496 496;" xml:space="preserve">
<g>
	<path style="fill:#333333;" d="M496,0H368v80.4l-4.688-4.688c-6.048-6.04-14.08-9.368-22.624-9.368c-0.88,0-1.728,0.184-2.6,0.256   c0.072-0.872,0.256-1.72,0.256-2.6c0-8.544-3.328-16.584-9.376-22.624l-11.312-11.32c-6.048-6.04-14.08-9.368-22.624-9.368   c-5.672,0-11.056,1.592-15.848,4.344C275.984,10.736,263.248,0,248,0c-14.856,0-27.256,10.216-30.848,23.952   c-4.28-2.064-8.944-3.264-13.84-3.264c-8.544,0-16.576,3.328-22.624,9.368l-11.312,11.32C163.328,47.416,160,55.456,160,64   c0,0.88,0.184,1.728,0.256,2.6c-0.872-0.072-1.712-0.256-2.6-0.256c-8.544,0-16.576,3.328-22.624,9.368L128,82.752V0H0v144h21.76   l-3.128,12.504C16.88,163.488,16,170.664,16,177.848v129.168c0,9.488,1.512,18.84,4.512,27.832l13.92,41.768   c4.296,12.888,11.64,24.784,21.256,34.4L56,411.312V456c0,22.056,17.944,40,40,40h304c22.056,0,40-17.944,40-40v-45.296   l0.304,0.304c9.616-9.616,16.96-21.504,21.248-34.392l13.928-41.776c3.008-8.984,4.52-18.344,4.52-27.824V177.848   c0-7.176-0.88-14.36-2.632-21.344L474.24,144H496V0z M480,16v48h-64v16h64v16h-96V80h16V64h-16V16H480z M352,87.024l11.312,11.32   c3.024,3.024,4.688,7.04,4.688,11.312s-1.664,8.296-4.688,11.32c-6.048,6.04-16.576,6.04-22.624,0l-11.312-11.32   c-3.024-3.024-4.688-7.04-4.688-11.312s1.664-8.296,4.688-11.32c3.024-3.016,7.04-4.68,11.312-4.68S348.976,84.008,352,87.024z    M295.032,36.688c4.272,0,8.288,1.664,11.312,4.68l11.312,11.32c3.024,3.024,4.688,7.04,4.688,11.312s-1.664,8.288-4.688,11.312   c-6.048,6.048-16.576,6.048-22.624,0L283.72,64c-3.024-3.024-4.688-7.04-4.688-11.312s1.664-8.296,4.688-11.32   C286.744,38.352,290.76,36.688,295.032,36.688z M248,16c8.824,0,16,7.176,16,16s-7.176,16-16,16s-16-7.176-16-16S239.176,16,248,16   z M180.688,52.688L192,41.368c3.024-3.016,7.04-4.68,11.312-4.68s8.288,1.664,11.312,4.68c3.024,3.024,4.688,7.04,4.688,11.32   s-1.664,8.288-4.688,11.312l-11.312,11.312c-6.048,6.048-16.576,6.048-22.624,0C177.664,72.288,176,68.272,176,64   S177.664,55.712,180.688,52.688z M135.032,98.344l11.312-11.32c3.024-3.016,7.04-4.68,11.312-4.68s8.288,1.664,11.312,4.68   c3.024,3.024,4.688,7.04,4.688,11.32s-1.664,8.288-4.688,11.312l-11.312,11.32c-6.048,6.04-16.576,6.04-22.624,0   c-3.024-3.024-4.688-7.04-4.688-11.32S132.008,101.368,135.032,98.344z M112,16v48H96v16h16v16H16V80h64V64H16V16H112z M16,112h96   v16H16V112z M72,456v-50.496l0.408-0.408L72,404.688V328c0-13.232,10.768-24,24-24h24v176H96C82.768,480,72,469.232,72,456z    M103.56,271.312L115.096,288H96.264c0.024-0.104,0.032-0.216,0.056-0.32l4.832-19.32   C102.024,269.272,102.832,270.256,103.56,271.312z M424,456c0,13.232-10.768,24-24,24h-8V304h8c13.232,0,24,10.768,24,24V456z    M392.448,271.312c0.728-1.056,1.536-2.032,2.408-2.944l4.832,19.312c0.024,0.104,0.032,0.216,0.056,0.32h-18.832L392.448,271.312z    M461.848,160.384c1.424,5.72,2.152,11.592,2.152,17.464v129.168c0,7.76-1.24,15.424-3.688,22.768l-13.936,41.784   c-1.6,4.816-3.792,9.432-6.376,13.808V328c0-16.2-9.72-30.104-23.6-36.392l-0.208-2.096c-0.192-1.928-0.528-3.84-1-5.712   l-5.728-22.912c3.32-0.512,6.768-0.464,10.168,0.352l10.496,2.528l3.752-15.552l-10.496-2.528   c-16.736-4.04-34.488,2.6-44.104,16.528l-13.736,19.848c-0.752,1.096-1.8,2.008-3.008,2.64L368,295.168V304h8v176H136V304h10.592   v-3.68l2.712-0.656l-2.712-11.248V288h-0.096l-0.936-3.896l-5.744,1.392c-3.632,0.848-7.36-0.512-9.368-3.424l-13.72-19.848   c-9.624-13.928-27.352-20.568-44.112-16.528l-10.496,2.528l3.752,15.552l10.496-2.528c3.4-0.816,6.848-0.864,10.168-0.352   l-5.728,22.92c-0.472,1.864-0.808,3.784-1,5.728l-0.208,2.08C65.72,297.896,56,311.8,56,328v57.376   c-2.592-4.376-4.776-9-6.384-13.816l-13.928-41.776C33.24,322.44,32,314.776,32,307.016V177.848c0-5.872,0.728-11.744,2.152-17.464   L38.24,144h42.64v9.552c0,16.336,5.824,32.352,16.384,45.088l42.912,51.744l12.312-10.208l-42.912-51.752   c-8.184-9.864-12.696-22.256-12.696-34.872V144H128v-8.192c5.344,3.768,11.672,5.848,18.344,5.848   c8.544,0,16.576-3.328,22.624-9.368l11.312-11.32c6.048-6.04,9.376-14.08,9.376-22.624c0-0.88-0.184-1.728-0.256-2.6   C190.272,95.816,191.12,96,192,96c8.544,0,16.584-3.336,22.624-9.376l11.312-11.312c4.088-4.088,6.816-9.128,8.232-14.584   C238.368,62.76,243.024,64,248,64c5.792,0,11.152-1.664,15.848-4.368c1.304,5.888,4.192,11.312,8.56,15.68l11.312,11.312   c6.04,6.04,14.072,9.376,22.624,9.376c0.88,0,1.728-0.184,2.6-0.256c-0.072,0.872-0.256,1.712-0.256,2.6   c0,8.544,3.328,16.584,9.376,22.624l11.312,11.32c6.04,6.04,14.08,9.368,22.624,9.368c5.728,0,11.176-1.616,16-4.424V144h31.12   v9.552c0,12.616-4.504,25-12.696,34.872l-31.936,38.504l12.312,10.216l31.936-38.504c10.56-12.736,16.384-28.744,16.384-45.088V144   h42.64L461.848,160.384z M384,128v-16h96v16H384z"/>
	<rect x="88" y="352" style="fill:#333333;" width="16" height="80"/>
</g>
<circle style="fill:#FFA64D;" cx="256" cy="272" r="120"/>
<path style="fill:#333333;" d="M280,216h-16v-16h-16v16h-16c-13.232,0-24,10.768-24,24v16c0,13.232,10.768,24,24,24h48  c4.416,0,8,3.584,8,8v16c0,4.416-3.584,8-8,8h-48c-4.416,0-8-3.584-8-8h-16c0,13.232,10.768,24,24,24h16v16h16v-16h16  c13.232,0,24-10.768,24-24v-16c0-13.232-10.768-24-24-24h-48c-4.416,0-8-3.584-8-8v-16c0-4.408,3.584-8,8-8h48c4.416,0,8,3.592,8,8  v8h16v-8C304,226.768,293.232,216,280,216z"/>
<g>
</g>
<g>
</g>
<g>
</g>
<g>
</g>
<g>
</g>
<g>
</g>
<g>
</g>
<g>
</g>
<g>
</g>
<g>
</g>
<g>
</g>
<g>
</g>
<g>
</g>
<g>
</g>
<g>
</g>
</svg>
