<?xml version="1.0" encoding="iso-8859-1"?>
<!-- Generator: Adobe Illustrator 19.0.0, SVG Export Plug-In . SVG Version: 6.00 Build 0)  -->
<svg xmlns="http://www.w3.org/2000/svg" xmlns:xlink="http://www.w3.org/1999/xlink" version="1.1" id="Capa_1" x="0px" y="0px" viewBox="0 0 496 496" style="enable-background:new 0 0 496 496;" xml:space="preserve">
<g>
	<rect x="152" y="16" style="fill:#FFA64D;" width="48" height="256"/>
	<rect x="312" y="176" style="fill:#FFA64D;" width="152" height="96"/>
</g>
<g>
	<path style="fill:#333333;" d="M288,64c0-17.648-14.352-32-32-32s-32,14.352-32,32c0,9.6,4.336,18.128,11.056,24   C228.336,93.872,224,102.4,224,112c0,17.648,14.352,32,32,32s32-14.352,32-32c0-9.6-4.336-18.128-11.056-24   C283.664,82.128,288,73.6,288,64z M272,112c0,8.824-7.176,16-16,16s-16-7.176-16-16s7.176-16,16-16S272,103.176,272,112z M240,64   c0-8.824,7.176-16,16-16s16,7.176,16,16s-7.176,16-16,16S240,72.824,240,64z"/>
	<path style="fill:#333333;" d="M456,96H320V24c0-13.232-10.768-24-24-24H136c-13.232,0-24,10.768-24,24v29.112   c-0.792-0.352-1.56-0.736-2.392-1.016c-9.736-3.24-20.272-0.744-27.52,6.496l-7.936,7.936c-21.68,21.68-38.264,48.512-47.968,77.6   C19.432,164.44,16,185.56,16,206.92v88.096c0,19.144,2.12,38.256,6.08,56.984H0v144h120V352H96.344   c1.616-21.168,9.576-41.6,22.896-58.232l4.608-5.768H240v168c0,22.056,17.944,40,40,40h176c22.056,0,40-17.944,40-40V136   C496,113.944,478.056,96,456,96z M456,112c13.232,0,24,10.768,24,24v8H320v-32H456z M100.304,224.216l-4.392-17.592l-3.096-30.92   C90.384,151.432,97.36,127.592,112,108.56v101.016l-4.36,6.536C105.576,219.216,103.064,221.896,100.304,224.216z M16,480v-48h56   v-16H16v-16h88v16H88v16h16v48H16z M104,384H16v-16h88V384z M106.736,283.768C91.168,303.24,81.992,327.208,80.344,352H38.44   c-4.2-18.696-6.44-37.816-6.44-56.984V206.92c0-19.64,3.152-39.056,9.36-57.72c8.92-26.744,24.168-51.416,44.104-71.344L93.4,69.92   c2.936-2.936,7.208-3.952,11.152-2.632c4.456,1.48,7.448,5.632,7.448,10.336v2.552c0,2.872-1.168,5.68-3.184,7.704   c-23.608,23.6-35.24,56.192-31.92,89.416l3.152,31.504l5.704,23.064c-6.344,1.776-13.144,2.048-19.808,0.384l-3.872,15.52   c22.424,5.616,46.088-3.544,58.888-22.768l6.144-9.208c2.656-3.984,7.544-5.872,12.192-4.712c2.936,0.736,5.416,2.568,6.976,5.168   s2.016,5.648,1.28,8.592c-1.912,7.664-5.384,14.664-10.312,20.824L106.736,283.768z M149.736,255.648   c6.368-7.968,10.856-17.032,13.328-26.936c1.776-7.088,0.68-14.44-3.08-20.704s-9.736-10.688-16.816-12.464   c-5.128-1.28-10.368-0.944-15.168,0.64V80.168v-2.552V24c0-4.408,3.584-8,8-8h160c4.416,0,8,3.592,8,8v240c0,4.416-3.584,8-8,8   H136.648L149.736,255.648z M296,288c13.232,0,24-10.768,24-24V160h160v256H256V288H296z M456,480H280c-13.232,0-24-10.768-24-24   v-24h224v24C480,469.232,469.232,480,456,480z"/>
	<rect x="328" y="448" style="fill:#333333;" width="80" height="16"/>
	<rect x="448" y="384" style="fill:#333333;" width="16" height="16"/>
	<rect x="272" y="384" style="fill:#333333;" width="160" height="16"/>
	<rect x="272" y="352" style="fill:#333333;" width="192" height="16"/>
	<rect x="272" y="320" style="fill:#333333;" width="192" height="16"/>
	<rect x="312" y="288" style="fill:#333333;" width="16" height="16"/>
	<rect x="344" y="288" style="fill:#333333;" width="120" height="16"/>
</g>
<g>
</g>
<g>
</g>
<g>
</g>
<g>
</g>
<g>
</g>
<g>
</g>
<g>
</g>
<g>
</g>
<g>
</g>
<g>
</g>
<g>
</g>
<g>
</g>
<g>
</g>
<g>
</g>
<g>
</g>
</svg>
