<?xml version="1.0" encoding="iso-8859-1"?>
<!-- Generator: Adobe Illustrator 19.0.0, SVG Export Plug-In . SVG Version: 6.00 Build 0)  -->
<svg xmlns="http://www.w3.org/2000/svg" xmlns:xlink="http://www.w3.org/1999/xlink" version="1.1" id="Capa_1" x="0px" y="0px" viewBox="0 0 496 496" style="enable-background:new 0 0 496 496;" xml:space="preserve">
<path style="fill:#FFA64D;" d="M280,432.616l-32.68-13.072c-33.608-13.44-55.32-45.512-55.32-81.712V248l88-24.352L368,248v89.832  c0,36.192-21.712,68.264-55.32,81.712L280,432.616z"/>
<g>
	<path style="fill:#333333;" d="M496,64h-32V32h-32V0H0v336h32v32h32v32h64.44c27.032,56.656,84.712,96,151.56,96   s124.528-39.344,151.56-96H496V64z M480,128H80V80h400V128z M16,320V16h400v16H32v288H16z M48,352V48h400v16H64v288H48z M128,328   c0-83.816,68.184-152,152-152c39.032,0,74.56,14.912,101.504,39.184l-55.632,55.632L280,257.056l-56,16.808v63.976   c0,9.936,2.696,19.304,7.336,27.52l-64.152,64.152C142.912,402.56,128,367.032,128,328z M243.24,353.448   c-2.048-4.84-3.24-10.104-3.24-15.616V285.76l40-12.008l33.016,9.912L243.24,353.448z M280,480   c-39.032,0-74.56-14.912-101.504-39.184l62.72-62.72c5.104,4.904,11.096,8.992,17.984,11.744l20.8,8.32l20.8-8.32   c21.384-8.552,35.2-28.96,35.2-52V320h-16v17.832c0,16.456-9.864,31.04-25.144,37.144L280,380.92l-14.856-5.944   c-4.824-1.928-9.024-4.768-12.624-8.176L320,299.312V304h16v-20.688l56.816-56.816C417.088,253.44,432,288.968,432,328   C432,411.816,363.816,480,280,480z M438.2,384c6.232-17.544,9.8-36.344,9.8-56c0-92.64-75.368-168-168-168s-168,75.36-168,168   c0,19.656,3.568,38.456,9.8,56H80V144h400v240H438.2z"/>
	<rect x="96" y="96" style="fill:#333333;" width="16" height="16"/>
	<rect x="128" y="96" style="fill:#333333;" width="16" height="16"/>
	<rect x="160" y="96" style="fill:#333333;" width="16" height="16"/>
</g>
<g>
</g>
<g>
</g>
<g>
</g>
<g>
</g>
<g>
</g>
<g>
</g>
<g>
</g>
<g>
</g>
<g>
</g>
<g>
</g>
<g>
</g>
<g>
</g>
<g>
</g>
<g>
</g>
<g>
</g>
</svg>
