<?xml version="1.0" encoding="iso-8859-1"?>
<!-- Generator: Adobe Illustrator 19.0.0, SVG Export Plug-In . SVG Version: 6.00 Build 0)  -->
<svg xmlns="http://www.w3.org/2000/svg" xmlns:xlink="http://www.w3.org/1999/xlink" version="1.1" id="Capa_1" x="0px" y="0px" viewBox="0 0 496 496" style="enable-background:new 0 0 496 496;" xml:space="preserve">
<g>
	<rect x="424" y="112" style="fill:#333333;" width="16" height="64"/>
	<path style="fill:#333333;" d="M188,232h-4v-16h-16v16h-4c-15.44,0-28,12.56-28,28s12.56,28,28,28h24c6.616,0,12,5.384,12,12   s-5.384,12-12,12h-24c-6.616,0-12-5.384-12-12v-4h-16v4c0,15.44,12.56,28,28,28h4v16h16v-16h4c15.44,0,28-12.56,28-28   s-12.56-28-28-28h-24c-6.616,0-12-5.384-12-12s5.384-12,12-12h24c6.616,0,12,5.384,12,12v4h16v-4C216,244.56,203.44,232,188,232z"/>
	<rect x="88" y="32" style="fill:#333333;" width="16" height="16"/>
	<rect x="88" y="64" style="fill:#333333;" width="16" height="16"/>
	<rect x="88" y="96" style="fill:#333333;" width="16" height="112"/>
	<rect x="168" y="48" style="fill:#333333;" width="16" height="16"/>
	<rect x="168" y="80" style="fill:#333333;" width="16" height="96"/>
	<rect x="280" y="48" style="fill:#333333;" width="16" height="48"/>
	<rect x="360" y="32" style="fill:#333333;" width="16" height="16"/>
	<rect x="360" y="64" style="fill:#333333;" width="16" height="64"/>
	<rect x="200" y="32" style="fill:#333333;" width="16" height="16"/>
	<rect x="200" y="64" style="fill:#333333;" width="16" height="64"/>
	<path style="fill:#333333;" d="M176,368c45.824,0,83.536-35.216,87.592-80H432c22.056,0,40-17.944,40-40V40   c0-22.056-17.944-40-40-40H48C25.944,0,8,17.944,8,40v208c0,22.056,17.944,40,40,40h40.408C92.464,332.784,130.176,368,176,368z    M176,352c-39.696,0-72-32.296-72-72c0-39.696,32.304-72,72-72c10.016,0,19.712,2.016,28.816,6l6.408-14.664   C200.088,194.472,188.232,192,176,192c-45.824,0-83.536,35.216-87.592,80H72V16h320v256H263.608   c-0.024-0.264-0.016-0.528-0.04-0.792l-15.92,1.576C247.88,275.168,248,277.56,248,280C248,319.704,215.696,352,176,352z M456,40   v208c0,13.232-10.768,24-24,24h-24V16h24C445.232,16,456,26.768,456,40z M24,248V40c0-13.232,10.768-24,24-24h8v256h-8   C34.768,272,24,261.232,24,248z"/>
	<path style="fill:#333333;" d="M488,384v-16h-96v16h-37.256l-63.712-49.552c-5.352-4.16-12.024-6.448-18.792-6.448h-1.608   C253.736,328,240,341.744,240,358.624c0,8.184,3.184,15.872,8.976,21.656l15.384,15.384L247.016,400h-76.592l-41.656-27.768   c-4.144-2.768-8.968-4.232-13.96-4.232h-1.664C99.28,368,88,379.28,88,393.144c0,6.496,2.464,12.648,6.936,17.344l32.168,33.792   c6.656,6.984,15.008,12.296,24.168,15.344l47.584,15.864c8.976,3,18.336,4.512,27.816,4.512H355.84   c7.176,0,14.36-0.88,21.344-2.632L392,473.664V496h96v-16h-16v-96H488z M373.312,461.848c-5.72,1.424-11.592,2.152-17.464,2.152   H226.672c-7.76,0-15.416-1.24-22.768-3.688l-47.584-15.864c-6.68-2.232-12.784-6.104-17.64-11.2l-32.168-33.792   c-1.616-1.712-2.512-3.952-2.512-6.312c0-5.04,4.104-9.144,9.144-9.144h1.664c1.816,0,3.568,0.528,5.072,1.536L165.576,416H248   l29.52-7.168l3.488,3.488l7.4,22.208l15.176-5.064l-8.6-25.792l-34.712-34.712c-2.712-2.72-4.272-6.48-4.272-10.336   c0-8.064,6.56-14.624,14.632-14.624h1.608c3.232,0,6.424,1.096,8.984,3.08L349.256,400H392v57.184L373.312,461.848z M456,480h-16   v-16h-16v16h-16v-96h16v64h16v-64h16V480z"/>
</g>
<circle style="fill:#FFA64D;" cx="288" cy="200" r="88"/>
<path style="fill:#333333;" d="M276,248h4v16h16v-16h4c15.44,0,28-12.56,28-28s-12.56-28-28-28h-24c-6.616,0-12-5.384-12-12  s5.384-12,12-12h24c6.616,0,12,5.384,12,12v4h16v-4c0-15.44-12.56-28-28-28h-4v-16h-16v16h-4c-15.44,0-28,12.56-28,28  s12.56,28,28,28h24c6.616,0,12,5.384,12,12s-5.384,12-12,12h-24c-6.616,0-12-5.384-12-12v-4h-16v4C248,235.44,260.56,248,276,248z"/>
<g>
</g>
<g>
</g>
<g>
</g>
<g>
</g>
<g>
</g>
<g>
</g>
<g>
</g>
<g>
</g>
<g>
</g>
<g>
</g>
<g>
</g>
<g>
</g>
<g>
</g>
<g>
</g>
<g>
</g>
</svg>
