<?xml version="1.0" encoding="iso-8859-1"?>
<!-- Generator: Adobe Illustrator 19.0.0, SVG Export Plug-In . SVG Version: 6.00 Build 0)  -->
<svg xmlns="http://www.w3.org/2000/svg" xmlns:xlink="http://www.w3.org/1999/xlink" version="1.1" id="Capa_1" x="0px" y="0px" viewBox="0 0 496 496" style="enable-background:new 0 0 496 496;" xml:space="preserve">
<path style="fill:#FFA64D;" d="M320.648,400H176c-8.84,0-16-7.16-16-16V280c0-8.84,7.16-16,16-16h144.648c8.84,0,16,7.16,16,16v104  C336.648,392.84,329.488,400,320.648,400z"/>
<g>
	<path style="fill:#333333;" d="M272.648,312c0-13.232-10.768-24-24-24s-24,10.768-24,24c0,10.416,6.712,19.216,16,22.528V368h16   v-33.472C265.944,331.216,272.648,322.416,272.648,312z M248.648,320c-4.416,0-8-3.592-8-8s3.584-8,8-8c4.416,0,8,3.592,8,8   S253.064,320,248.648,320z"/>
	<path style="fill:#333333;" d="M96,368c-22.056,0-40-17.944-40-40V120h16v208c0,13.232,10.768,24,24,24V368z"/>
	<path style="fill:#333333;" d="M400,368v-16c13.232,0,24-10.768,24-24V120h16v208C440,350.056,422.056,368,400,368z"/>
	<rect x="216" y="448" style="fill:#333333;" width="64" height="16"/>
	<path style="fill:#333333;" d="M248.32,176c-39.872,0-72.32,32.448-72.32,72.328v15.56h16v-15.56   C192,217.264,217.264,192,248.32,192c31.064,0,56.328,25.264,56.328,56.328v15.56h16v-15.56C320.648,208.448,288.2,176,248.32,176z   "/>
	<path style="fill:#333333;" d="M248.32,208c-22.232,0-40.32,18.088-40.32,40.328v15.56h16v-15.56   C224,234.912,234.904,224,248.32,224c13.416,0,24.328,10.912,24.328,24.328v15.56h16v-15.56   C288.648,226.088,270.552,208,248.32,208z"/>
	<path style="fill:#333333;" d="M344,96H152c-22.056,0-40,17.944-40,40v320c0,22.056,17.944,40,40,40h192c22.056,0,40-17.944,40-40   V136C384,113.944,366.056,96,344,96z M128,136c0-13.232,10.768-24,24-24h192c13.232,0,24,10.768,24,24v8H128V136z M368,160v256H128   V160H368z M344,480H152c-13.232,0-24-10.768-24-24v-24h240v24C368,469.232,357.232,480,344,480z"/>
</g>
<path style="fill:#FFA64D;" d="M64,128C28.712,128,0,99.288,0,64S28.712,0,64,0s64,28.712,64,64S99.288,128,64,128z"/>
<path style="fill:#333333;" d="M64,96c-17.648,0-32-14.352-32-32s14.352-32,32-32s32,14.352,32,32H80c0-8.824-7.176-16-16-16  s-16,7.176-16,16s7.176,16,16,16V96z"/>
<path style="fill:#FFA64D;" d="M432,128c-35.288,0-64-28.712-64-64s28.712-64,64-64s64,28.712,64,64S467.288,128,432,128z"/>
<path style="fill:#333333;" d="M432,96c-17.648,0-32-14.352-32-32h16c0,8.824,7.176,16,16,16s16-7.176,16-16s-7.176-16-16-16V32  c17.648,0,32,14.352,32,32S449.648,96,432,96z"/>
<g>
</g>
<g>
</g>
<g>
</g>
<g>
</g>
<g>
</g>
<g>
</g>
<g>
</g>
<g>
</g>
<g>
</g>
<g>
</g>
<g>
</g>
<g>
</g>
<g>
</g>
<g>
</g>
<g>
</g>
</svg>
