<?xml version="1.0" encoding="iso-8859-1"?>
<!-- Generator: Adobe Illustrator 19.0.0, SVG Export Plug-In . SVG Version: 6.00 Build 0)  -->
<svg xmlns="http://www.w3.org/2000/svg" xmlns:xlink="http://www.w3.org/1999/xlink" version="1.1" id="Capa_1" x="0px" y="0px" viewBox="0 0 496 496" style="enable-background:new 0 0 496 496;" xml:space="preserve">
<g>
	<path style="fill:#FFA64D;" d="M160,256v72h56c5.12,0,10.032-2.032,13.656-5.656l4.688-4.688C237.968,314.032,242.88,312,248,312   s10.032,2.032,13.656,5.656l4.688,4.688C269.968,325.968,274.88,328,280,328h56v-72c0-8.84-7.16-16-16-16H176   C167.16,240,160,247.16,160,256z"/>
	<path style="fill:#FFA64D;" d="M112.024,430.848C136.32,440.248,186.256,456,248,456c61.768,0,111.712-15.768,136-25.168L400,456   c0,0-64,32-152,32S96,456,96,456L112.024,430.848z"/>
</g>
<g>
	<path style="fill:#333333;" d="M496,0H0v384h32v112h432V384h32V0z M480,16v48H16V16H480z M153.28,326.928   C143.328,324,136,314.888,136,304c0-10.416,6.712-19.216,16-22.528V312C152,317.088,152.512,322.048,153.28,326.928z M152,256   v8.808c-5.944,1.216-11.328,3.856-16,7.392V256c0-61.76,50.24-112,112-112s112,50.24,112,112v16.208   c-4.672-3.536-10.056-6.184-16-7.392V256c0-13.232-10.768-24-24-24H176C162.768,232,152,242.768,152,256z M344,312v-30.528   c9.288,3.312,16,12.112,16,22.528c0,10.888-7.328,20-17.28,22.928C343.488,322.048,344,317.088,344,312z M168,256   c0-4.408,3.584-8,8-8h144c4.416,0,8,3.592,8,8v56c0,44.112-35.888,80-80,80s-80-35.888-80-80V256z M248,408   c14.288,0,27.808-3.224,40-8.84v6.152c-4.048,4.92-17.376,18.688-40,18.688c-22.672,0-35.928-13.712-40-18.688v-6.152   C220.192,404.776,233.712,408,248,408z M196.728,416.728C203.512,424.48,220.488,440,248,440s44.488-15.52,51.272-23.272   l65.44,11.904c0.312,0.056,0.592,0.224,0.904,0.288C339.056,437.696,297.392,448,248,448c-49.408,0-91.064-10.296-117.616-19.088   c0.312-0.072,0.592-0.232,0.904-0.288L196.728,416.728z M396.456,480h-38.08c14.528-4.272,25.912-8.544,33.68-11.736L396.456,480z    M113.12,443.808c0.448-1.2,1.152-2.248,1.784-3.344C141.344,450.136,189.472,464,248,464c58.512,0,106.64-13.864,133.104-23.536   c0.624,1.096,1.336,2.144,1.784,3.344l3.528,9.416c-9.84,4.024-26.6,10.136-48.392,15.544l-2.432-7.296l-15.168,5.064l1.928,5.784   C300.784,476.728,275.584,480,248,480s-52.784-3.272-74.344-7.68l1.928-5.784l-15.168-5.064l-2.432,7.296   c-21.8-5.408-38.552-11.512-48.392-15.544L113.12,443.808z M103.944,468.264c7.768,3.2,19.152,7.472,33.68,11.736h-38.08   L103.944,468.264z M448,480h-34.456l-15.68-41.808c-4.912-13.112-16.52-22.808-30.296-25.312L304,401.328v-11.512   c15.768-11.384,27.92-27.4,34.488-46.064C359.368,342.432,376,325.2,376,304v-48c0-70.576-57.424-128-128-128s-128,57.424-128,128   v48c0,21.2,16.632,38.432,37.512,39.752c6.568,18.672,18.72,34.688,34.488,46.064v11.512l-63.568,11.56   c-13.776,2.496-25.384,12.2-30.296,25.312L82.456,480H48V112h400V480z M464,368V96H32v272H16V80h464v288H464z"/>
	<rect x="32" y="32" style="fill:#333333;" width="16" height="16"/>
	<rect x="64" y="32" style="fill:#333333;" width="16" height="16"/>
	<rect x="96" y="32" style="fill:#333333;" width="16" height="16"/>
	<path style="fill:#333333;" d="M224,284c0-11.024-8.968-20-20-20s-20,8.976-20,20s8.968,20,20,20S224,295.024,224,284z M200,284   c0-2.208,1.8-4,4-4s4,1.792,4,4s-1.8,4-4,4S200,286.208,200,284z"/>
	<path style="fill:#333333;" d="M292,304c11.032,0,20-8.976,20-20s-8.968-20-20-20s-20,8.976-20,20S280.968,304,292,304z M292,280   c2.2,0,4,1.792,4,4s-1.8,4-4,4s-4-1.792-4-4S289.8,280,292,280z"/>
</g>
<g>
</g>
<g>
</g>
<g>
</g>
<g>
</g>
<g>
</g>
<g>
</g>
<g>
</g>
<g>
</g>
<g>
</g>
<g>
</g>
<g>
</g>
<g>
</g>
<g>
</g>
<g>
</g>
<g>
</g>
</svg>
