<?xml version="1.0" encoding="iso-8859-1"?>
<!-- Generator: Adobe Illustrator 19.0.0, SVG Export Plug-In . SVG Version: 6.00 Build 0)  -->
<svg xmlns="http://www.w3.org/2000/svg" xmlns:xlink="http://www.w3.org/1999/xlink" version="1.1" id="Capa_1" x="0px" y="0px" viewBox="0 0 497.064 497.064" style="enable-background:new 0 0 497.064 497.064;" xml:space="preserve">
<circle style="fill:#FFA64D;" cx="264" cy="240.532" r="128"/>
<g>
	<rect x="120" y="448.532" style="fill:#333333;" width="112" height="16"/>
	<rect x="32" y="80.532" style="fill:#333333;" width="16" height="16"/>
	<rect x="64" y="80.532" style="fill:#333333;" width="16" height="16"/>
	<rect x="96" y="80.532" style="fill:#333333;" width="16" height="16"/>
	<path style="fill:#333333;" d="M264,144.532c-48.52,0-88,39.48-88,88c0,26.488,11.616,50.96,32,67.768v36.232h112V300.3   c20.384-16.808,32-41.288,32-67.768C352,184.012,312.52,144.532,264,144.532z M307.192,290.036L304,292.428v28.104h-16v-32h-16v32   h-16v-32h-16v32h-16v-28.104l-3.192-2.4C202.496,276.252,192,255.292,192,232.532c0-39.696,32.304-72,72-72s72,32.304,72,72   C336,255.292,325.504,276.252,307.192,290.036z"/>
	<path style="fill:#333333;" d="M232,200.532c-13.232,0-24,10.768-24,24s10.768,24,24,24s24-10.768,24-24   S245.232,200.532,232,200.532z M232,232.532c-4.408,0-8-3.592-8-8s3.592-8,8-8s8,3.592,8,8S236.408,232.532,232,232.532z"/>
	<path style="fill:#333333;" d="M296,200.532c-13.232,0-24,10.768-24,24s10.768,24,24,24s24-10.768,24-24   S309.232,200.532,296,200.532z M296,232.532c-4.408,0-8-3.592-8-8s3.592-8,8-8s8,3.592,8,8S300.408,232.532,296,232.532z"/>
	<path style="fill:#333333;" d="M495.056,236.764c-0.68-1.28-17.16-31.728-53.936-62.376c-20.536-17.12-50.104-36.184-89.12-48.576   v-85.28c0-22.056-17.944-40-40-40H40c-22.056,0-40,17.944-40,40v416c0,22.056,17.944,40,40,40h272c22.056,0,40-17.944,40-40   v-101.28c39.016-12.384,68.584-31.456,89.12-48.576c36.776-30.648,53.256-61.096,53.936-62.376l2.008-3.768L495.056,236.764z    M40,16.532h272c13.232,0,24,10.768,24,24v8H16v-8C16,27.3,26.768,16.532,40,16.532z M312,480.532H40c-13.232,0-24-10.768-24-24   v-24h320v24C336,469.764,325.232,480.532,312,480.532z M336,416.532H16v-352h320v56.68c-21.424-5.392-45.4-8.68-72-8.68   c-85.04,0-143.264,33.64-177.12,61.856c-36.776,30.648-53.256,61.096-53.936,62.376l-2.008,3.768l2.008,3.768   c0.68,1.28,17.16,31.728,53.936,62.376c33.856,28.216,92.08,61.856,177.12,61.856c26.6,0,50.576-3.288,72-8.68V416.532z    M430.336,294.836c-46.2,38.288-102.168,57.696-166.336,57.696c-137.168,0-202.24-92.096-214.704-112.016   c5.472-8.824,21.096-31.688,48.36-54.288C143.864,147.94,199.832,128.532,264,128.532c137.168,0,202.24,92.096,214.704,112.016   C473.232,249.364,457.608,272.236,430.336,294.836z"/>
</g>
<g>
</g>
<g>
</g>
<g>
</g>
<g>
</g>
<g>
</g>
<g>
</g>
<g>
</g>
<g>
</g>
<g>
</g>
<g>
</g>
<g>
</g>
<g>
</g>
<g>
</g>
<g>
</g>
<g>
</g>
</svg>
