<?xml version="1.0" encoding="iso-8859-1"?>
<!-- Generator: Adobe Illustrator 19.0.0, SVG Export Plug-In . SVG Version: 6.00 Build 0)  -->
<svg version="1.1" id="Capa_1" xmlns="http://www.w3.org/2000/svg" xmlns:xlink="http://www.w3.org/1999/xlink" x="0px" y="0px"
	 viewBox="0 0 511.883 511.883" style="enable-background:new 0 0 511.883 511.883;" xml:space="preserve">
<g>
	<g>
		<path d="M351.841,241.056L159.414,93.003c-11.328-8.341-24.768-9.963-35.904-4.331c-10.539,5.333-16.832,16.043-16.832,28.651
			v362.539c0,13.227,7.957,24.917,20.267,29.781c3.84,1.515,7.829,2.24,11.776,2.24c8.683,0,17.195-3.584,23.509-10.347
			l190.336-212.715c6.613-6.037,10.389-14.656,10.368-23.616C362.934,256.267,359.137,247.669,351.841,241.056z"/>
	</g>
</g>
<g>
	<g>
		<path d="M394.38,193.995L159.99,8.032c-10.048-8.469-23.467-10.411-35.072-5.013c-11.243,5.227-18.24,16.299-18.24,28.885v42.752
			c2.347-1.749,4.523-3.691,7.189-5.035c18.453-9.323,40.235-7.019,58.197,6.187l194.155,149.44
			c8.939,8.149,14.72,18.432,16.96,29.632l12.117-13.525c6.485-6.485,10.112-15.339,9.899-24.299
			C405.004,208.373,401.377,200.352,394.38,193.995z"/>
	</g>
</g>
<g>
</g>
<g>
</g>
<g>
</g>
<g>
</g>
<g>
</g>
<g>
</g>
<g>
</g>
<g>
</g>
<g>
</g>
<g>
</g>
<g>
</g>
<g>
</g>
<g>
</g>
<g>
</g>
<g>
</g>
</svg>
