<?xml version="1.0" encoding="iso-8859-1"?>
<!-- Generator: Adobe Illustrator 19.0.0, SVG Export Plug-In . SVG Version: 6.00 Build 0)  -->
<svg version="1.1" id="Capa_1" xmlns="http://www.w3.org/2000/svg" xmlns:xlink="http://www.w3.org/1999/xlink" x="0px" y="0px"
	 viewBox="0 0 512 512" style="enable-background:new 0 0 512 512;" xml:space="preserve">
<g>
	<g>
		<path d="M480,0H32c-5.888,0-10.667,4.779-10.667,10.667v490.667C21.333,507.221,26.112,512,32,512h448
			c5.888,0,10.667-4.779,10.667-10.667V10.667C490.667,4.779,485.888,0,480,0z M448,373.333c0,5.888-4.779,10.667-10.667,10.667
			H74.667C68.779,384,64,379.221,64,373.333v-320c0-5.888,4.779-10.667,10.667-10.667h362.667c5.888,0,10.667,4.779,10.667,10.667
			V373.333z"/>
	</g>
</g>
<g>
	<g>
		<path d="M362.24,252.8c-21.973-69.333-76.373-123.733-145.707-145.707c-2.773-0.853-5.76-0.427-8.32,0.853
			c-2.56,1.28-4.48,3.84-5.12,6.613l-53.333,192c-1.067,3.627,0,7.68,2.773,10.24c1.92,2.133,4.693,3.2,7.467,3.2
			c0.853,0,1.92-0.213,2.773-0.427l192-53.333c2.773-0.64,5.333-2.56,6.613-5.12C362.667,258.56,363.093,255.573,362.24,252.8z
			 M202.667,256h-16.853l5.973-21.333h10.88c5.973,0,10.667,4.693,10.667,10.667S208.64,256,202.667,256z M256,245.333
			c-17.643,0-32-14.357-32-32c0-17.643,14.357-32,32-32s32,14.357,32,32C288,230.976,273.643,245.333,256,245.333z"/>
	</g>
</g>
<g>
</g>
<g>
</g>
<g>
</g>
<g>
</g>
<g>
</g>
<g>
</g>
<g>
</g>
<g>
</g>
<g>
</g>
<g>
</g>
<g>
</g>
<g>
</g>
<g>
</g>
<g>
</g>
<g>
</g>
</svg>
