<?xml version="1.0" encoding="iso-8859-1"?>
<!-- Generator: Adobe Illustrator 19.0.0, SVG Export Plug-In . SVG Version: 6.00 Build 0)  -->
<svg version="1.1" id="Capa_1" xmlns="http://www.w3.org/2000/svg" xmlns:xlink="http://www.w3.org/1999/xlink" x="0px" y="0px"
	 viewBox="0 0 501.333 501.333" style="enable-background:new 0 0 501.333 501.333;" xml:space="preserve">
<g>
	<g>
		<circle cx="266.667" cy="250.667" r="96"/>
	</g>
</g>
<g>
	<g>
		<path d="M266.667,90.667c-88.235,0-160,71.765-160,160s71.765,160,160,160s160-71.765,160-160S354.901,90.667,266.667,90.667z
			 M266.667,368c-64.704,0-117.333-52.629-117.333-117.333s52.629-117.333,117.333-117.333S384,185.963,384,250.667
			S331.371,368,266.667,368z"/>
	</g>
</g>
<g>
	<g>
		<path d="M96,90.667c-5.888,0-10.667,4.779-10.667,10.667v64c0,5.888-4.779,10.667-10.667,10.667H64v-74.667
			c0-5.888-4.779-10.667-10.667-10.667s-10.667,4.779-10.667,10.667V176H32c-5.888,0-10.667-4.779-10.667-10.667v-64
			c0-5.888-4.779-10.667-10.667-10.667S0,95.445,0,101.333v64c0,17.643,14.357,32,32,32h10.667v173.952
			C36.416,375.019,32,381.547,32,389.333c0,10.283,7.467,18.496,17.173,20.501c1.28,0.533,2.688,0.832,4.16,0.832
			c1.472,0,2.88-0.299,4.16-0.832c9.707-2.005,17.173-10.219,17.173-20.501c0-7.787-4.416-14.336-10.667-18.048V197.333h10.667
			c17.643,0,32-14.357,32-32v-64C106.667,95.445,101.888,90.667,96,90.667z"/>
	</g>
</g>
<g>
	<g>
		<path d="M490.667,371.285V261.397c0-0.021,0-0.064,0-0.107V101.333c0-4.651-3.029-8.768-7.467-10.176
			c-4.437-1.365-9.259,0.256-11.947,4.053c-7.445,10.624-44.587,64.981-44.587,91.456c0,34.496,31.765,68.587,42.667,79.253v105.344
			c-6.251,3.733-10.667,10.261-10.667,18.048c0,11.755,9.579,21.333,21.333,21.333c11.755,0,21.333-9.579,21.333-21.333
			C501.333,381.547,496.917,374.997,490.667,371.285z M480,389.333c0.021,0,0.064-0.021,0.085-0.021l10.581,0.021H480z"/>
	</g>
</g>
<g>
</g>
<g>
</g>
<g>
</g>
<g>
</g>
<g>
</g>
<g>
</g>
<g>
</g>
<g>
</g>
<g>
</g>
<g>
</g>
<g>
</g>
<g>
</g>
<g>
</g>
<g>
</g>
<g>
</g>
</svg>
