<?xml version="1.0" encoding="iso-8859-1"?>
<!-- Generator: Adobe Illustrator 19.0.0, SVG Export Plug-In . SVG Version: 6.00 Build 0)  -->
<svg version="1.1" id="Capa_1" xmlns="http://www.w3.org/2000/svg" xmlns:xlink="http://www.w3.org/1999/xlink" x="0px" y="0px"
	 viewBox="0 0 511.999 511.999" style="enable-background:new 0 0 511.999 511.999;" xml:space="preserve">
<g>
	<g>
		<path d="M305.451,87.807c-4.395-3.648-6.784-8.299-6.784-13.141c0-4.715,2.283-9.301,6.485-12.885
			c0.107-0.085,0.235-0.171,0.341-0.256c9.323-7.765,14.443-18.24,14.443-29.525s-5.12-21.781-14.443-29.525
			c-4.523-3.733-11.221-3.157-15.019,1.365c-3.776,4.523-3.157,11.243,1.344,15.019c4.373,3.627,6.763,8.299,6.763,13.141
			c0,4.715-2.283,9.301-6.485,12.885c-0.107,0.085-0.213,0.171-0.32,0.256c-9.323,7.765-14.443,18.261-14.443,29.525
			c0,11.285,5.12,21.781,14.443,29.525c2.005,1.664,4.416,2.475,6.827,2.475c3.051,0,6.08-1.323,8.192-3.84
			C310.571,98.303,309.953,91.583,305.451,87.807z"/>
	</g>
</g>
<g>
	<g>
		<path d="M241.366,87.807c-4.373-3.627-6.763-8.299-6.763-13.12c0-4.821,2.411-9.515,6.784-13.163
			c9.323-7.765,14.443-18.24,14.443-29.525s-5.12-21.781-14.443-29.525c-4.523-3.755-11.221-3.136-15.019,1.365
			c-3.776,4.523-3.157,11.243,1.365,15.019c4.373,3.627,6.763,8.299,6.763,13.12c0,4.821-2.411,9.515-6.784,13.163
			c-9.344,7.765-14.464,18.261-14.464,29.525c0,11.285,5.12,21.781,14.443,29.525c2.005,1.664,4.416,2.475,6.827,2.475
			c3.072,0,6.101-1.323,8.213-3.84C246.507,98.303,245.889,91.583,241.366,87.807z"/>
	</g>
</g>
<g>
	<g>
		<path d="M177.43,87.786c-4.352-3.605-6.763-8.277-6.763-13.12c0-4.843,2.411-9.515,6.784-13.163
			c9.323-7.744,14.464-18.24,14.464-29.504c0-11.285-5.12-21.781-14.443-29.525c-4.544-3.776-11.264-3.157-15.04,1.365
			c-3.776,4.523-3.157,11.264,1.387,15.019c4.352,3.648,6.763,8.299,6.763,13.141s-2.432,9.493-6.805,13.141
			c-9.301,7.765-14.443,18.261-14.443,29.525c0,11.285,5.141,21.781,14.443,29.525c2.005,1.664,4.416,2.475,6.827,2.475
			c3.051,0,6.08-1.301,8.192-3.84C182.571,98.303,181.953,91.562,177.43,87.786z"/>
	</g>
</g>
<g>
	<g>
		<path d="M469.334,245.887c0-19.84-6.464-34.603-19.179-43.819c-18.837-13.653-46.72-11.029-67.776-5.995l0.107-1.877
			c1.088-17.067,1.451-23.168,1.557-36.437c0.064-8.021-2.987-15.552-8.576-21.184c-5.504-5.525-12.821-8.576-20.565-8.576H114.454
			c-7.765,0-15.061,3.051-20.565,8.597c-5.611,5.632-8.661,13.184-8.597,21.184c0.491,64.448,7.104,213.888,54.677,290.219H53.334
			c-4.032,0-7.723,2.283-9.536,5.888c-1.813,3.605-1.429,7.936,1.003,11.179l19.2,25.621c10.027,13.333,25.984,21.312,42.667,21.312
			h256c16.704,0,32.64-7.979,42.667-21.333l19.2-25.6c2.411-3.221,2.816-7.552,1.003-11.157c-1.813-3.627-5.504-5.909-9.536-5.909
			h-86.613c12.096-20.011,22.379-46.997,30.635-80.619C396.801,353.044,469.334,315.86,469.334,245.887z M373.27,243.519
			l1.408-0.512c13.355-5.333,31.253-8.981,41.899-8.341c5.653,0.299,10.091,4.971,10.091,10.645
			c0,33.984-32.491,57.963-60.203,72.384C369.217,291.903,371.691,263.167,373.27,243.519z"/>
	</g>
</g>
<g>
</g>
<g>
</g>
<g>
</g>
<g>
</g>
<g>
</g>
<g>
</g>
<g>
</g>
<g>
</g>
<g>
</g>
<g>
</g>
<g>
</g>
<g>
</g>
<g>
</g>
<g>
</g>
<g>
</g>
</svg>
