<?xml version="1.0" encoding="iso-8859-1"?>
<!-- Generator: Adobe Illustrator 19.0.0, SVG Export Plug-In . SVG Version: 6.00 Build 0)  -->
<svg version="1.1" id="Capa_1" xmlns="http://www.w3.org/2000/svg" xmlns:xlink="http://www.w3.org/1999/xlink" x="0px" y="0px"
	 viewBox="0 0 512 512" style="enable-background:new 0 0 512 512;" xml:space="preserve">
<g>
	<g>
		<path d="M256,0C203.456,0,32,3.072,32,42.667c0,2.837,1.109,5.461,2.773,7.936c0.491,1.387,1.237,2.688,2.325,3.819
			l109.995,114.368c1.28,1.771,2.816,3.456,4.779,4.971l93.461,97.195v159.147l-99.968,39.979c-4.032,1.621-6.699,5.568-6.699,9.92
			c0,29.696,89.813,32,117.333,32c27.52,0,117.333-2.304,117.333-32c0-4.352-2.645-8.299-6.699-9.899l-99.968-39.979V270.976
			l94.144-97.835c1.579-1.301,2.901-2.667,3.989-4.16l110.251-114.56c1.131-1.173,1.877-2.56,2.347-4.032
			c1.6-2.411,2.603-4.949,2.603-7.723C480,3.072,308.544,0,256,0z M256,170.667c-44.309,0-73.856-5.931-85.952-10.667
			c12.096-4.736,41.643-10.667,85.952-10.667s73.856,5.931,85.952,10.667C329.856,164.736,300.309,170.667,256,170.667z
			 M358.272,145.003C335.147,129.515,276.864,128,256,128c-20.864,0-79.083,1.515-102.229,16.981L84.032,72.469
			C138.944,83.989,222.101,85.333,256,85.333c33.92,0,117.205-1.344,172.117-12.907L358.272,145.003z M256,64
			C149.077,64,75.52,52.224,56.576,42.667C75.52,33.109,149.077,21.333,256,21.333s180.501,11.776,199.445,21.333
			C436.501,52.224,362.923,64,256,64z"/>
	</g>
</g>
<g>
</g>
<g>
</g>
<g>
</g>
<g>
</g>
<g>
</g>
<g>
</g>
<g>
</g>
<g>
</g>
<g>
</g>
<g>
</g>
<g>
</g>
<g>
</g>
<g>
</g>
<g>
</g>
<g>
</g>
</svg>
