<?xml version="1.0" encoding="iso-8859-1"?>
<!-- Generator: Adobe Illustrator 19.0.0, SVG Export Plug-In . SVG Version: 6.00 Build 0)  -->
<svg version="1.1" id="Capa_1" xmlns="http://www.w3.org/2000/svg" xmlns:xlink="http://www.w3.org/1999/xlink" x="0px" y="0px"
	 viewBox="0 0 511.984 511.984" style="enable-background:new 0 0 511.984 511.984;" xml:space="preserve">
<g>
	<g>
		<path d="M326.782,130.466c-4.395-3.648-6.784-8.299-6.784-13.141c0-4.715,2.283-9.301,6.485-12.885
			c0.107-0.085,0.235-0.171,0.341-0.256c9.323-7.765,14.443-18.24,14.443-29.525s-5.12-21.781-14.443-29.525
			c-4.501-3.712-11.221-3.157-15.019,1.365c-3.776,4.523-3.157,11.243,1.344,15.019c4.373,3.627,6.763,8.299,6.763,13.141
			c0,4.715-2.283,9.301-6.485,12.885c-0.085,0.085-0.213,0.171-0.32,0.256c-9.323,7.765-14.443,18.261-14.443,29.525
			c0,11.285,5.12,21.781,14.443,29.525c2.005,1.664,4.416,2.475,6.827,2.475c3.051,0,6.08-1.323,8.192-3.84
			C331.902,140.962,331.283,134.242,326.782,130.466z"/>
	</g>
</g>
<g>
	<g>
		<path d="M262.697,130.466c-4.373-3.627-6.763-8.299-6.763-13.12s2.411-9.515,6.784-13.163c9.323-7.765,14.443-18.24,14.443-29.525
			s-5.12-21.781-14.443-29.525c-4.523-3.755-11.243-3.136-15.019,1.365c-3.776,4.501-3.157,11.243,1.365,15.019
			c4.373,3.627,6.763,8.299,6.763,13.12c0,4.821-2.411,9.515-6.784,13.163c-9.344,7.765-14.464,18.261-14.464,29.525
			c0,11.285,5.12,21.781,14.443,29.525c2.005,1.664,4.416,2.475,6.827,2.475c3.072,0,6.101-1.323,8.213-3.84
			C267.838,140.962,267.219,134.242,262.697,130.466z"/>
	</g>
</g>
<g>
	<g>
		<path d="M198.761,130.445c-4.352-3.605-6.763-8.277-6.763-13.12c0-4.843,2.411-9.515,6.784-13.163
			c9.323-7.744,14.464-18.24,14.464-29.504c0-11.285-5.12-21.781-14.443-29.525c-4.544-3.776-11.264-3.157-15.04,1.365
			c-3.776,4.523-3.157,11.264,1.387,15.019c4.352,3.648,6.763,8.299,6.763,13.141c0,4.843-2.432,9.493-6.805,13.141
			c-9.301,7.765-14.443,18.261-14.443,29.525c0,11.285,5.141,21.781,14.443,29.525c2.005,1.664,4.416,2.475,6.827,2.475
			c3.051,0,6.08-1.301,8.192-3.84C203.902,140.962,203.283,134.221,198.761,130.445z"/>
	</g>
</g>
<g>
	<g>
		<path d="M510.889,274.936c-5.056-29.589-28.224-53.675-57.664-59.925c-16.533-3.499-33.216-1.429-47.893,5.675v-18.027
			c0-17.643-14.357-32-32-32h-256c-17.643,0-32,14.357-32,32v138.667c0,24.021,9.301,46.635,25.152,64H10.665
			c-3.691,0-7.125,1.92-9.067,5.056c-1.941,3.136-2.133,7.061-0.469,10.368l3.648,7.296c12.715,25.472,38.315,41.28,66.773,41.28
			h344.448c28.459,0,54.037-15.808,66.795-41.28l3.648-7.296c1.643-3.307,1.472-7.232-0.448-10.368
			c-1.984-3.136-5.419-5.056-9.109-5.056h-96.491c12.779-14.059,21.248-31.573,23.979-50.496
			c29.845,14.976,68.416,6.955,90.048-18.709C508.649,319.288,514.643,296.973,510.889,274.936z M437.331,319.992
			c-17.664,0-32-14.336-32-32s14.336-32,32-32c17.664,0,32,14.336,32,32S454.995,319.992,437.331,319.992z"/>
	</g>
</g>
<g>
</g>
<g>
</g>
<g>
</g>
<g>
</g>
<g>
</g>
<g>
</g>
<g>
</g>
<g>
</g>
<g>
</g>
<g>
</g>
<g>
</g>
<g>
</g>
<g>
</g>
<g>
</g>
<g>
</g>
</svg>
