<?xml version="1.0" encoding="iso-8859-1"?>
<!-- Generator: Adobe Illustrator 19.0.0, SVG Export Plug-In . SVG Version: 6.00 Build 0)  -->
<svg version="1.1" id="Capa_1" xmlns="http://www.w3.org/2000/svg" xmlns:xlink="http://www.w3.org/1999/xlink" x="0px" y="0px"
	 viewBox="0 0 512.036 512.036" style="enable-background:new 0 0 512.036 512.036;" xml:space="preserve">
<g>
	<g>
		<path d="M137.234,448.036c0.555,10.624,1.003,21.376,1.237,32.427c0.363,17.707,14.4,31.573,31.957,31.573h171.179
			c17.557,0,31.595-13.867,31.957-31.573c0.235-11.051,0.683-21.803,1.237-32.427H137.234z"/>
	</g>
</g>
<g>
	<g>
		<path d="M426.685,192.036h-21.333H106.685H85.351c-5.888,0-10.667,4.779-10.667,10.667s4.779,10.667,10.667,10.667h13.44
			c6.613,22.208,26.432,94.72,35.392,192H377.81c8.939-97.451,28.779-169.835,35.413-192h13.461c5.888,0,10.667-4.779,10.667-10.667
			S432.573,192.036,426.685,192.036z"/>
	</g>
</g>
<g>
	<g>
		<path d="M229.927,148.687c-21.205-22.485-43.115-45.76-62.805-85.781l-23.147-47.168C137.127,1.807,120.21-3.974,106.237,2.895
			l-15.701,7.723c-13.931,6.848-19.712,23.765-12.864,37.717l23.168,47.147c14.08,28.651,20.629,52.757,24.96,75.2h124.224
			C243.538,163.172,236.818,156.026,229.927,148.687z"/>
	</g>
</g>
<g>
</g>
<g>
</g>
<g>
</g>
<g>
</g>
<g>
</g>
<g>
</g>
<g>
</g>
<g>
</g>
<g>
</g>
<g>
</g>
<g>
</g>
<g>
</g>
<g>
</g>
<g>
</g>
<g>
</g>
</svg>
