<?xml version="1.0" encoding="iso-8859-1"?>
<!-- Generator: Adobe Illustrator 19.0.0, SVG Export Plug-In . SVG Version: 6.00 Build 0)  -->
<svg xmlns="http://www.w3.org/2000/svg" xmlns:xlink="http://www.w3.org/1999/xlink" version="1.1" id="Capa_1" x="0px" y="0px" viewBox="0 0 496 496" style="enable-background:new 0 0 496 496;" xml:space="preserve">
<g>
	<g>
		<g>
			<rect x="208" y="448" width="80" height="16"/>
			<path d="M248,56c-13.232,0-24,10.768-24,24c0,10.416,6.712,19.216,16,22.528V144h16v-41.472c9.288-3.312,16-12.112,16-22.528     C272,66.768,261.232,56,248,56z M248,88c-4.408,0-8-3.592-8-8s3.592-8,8-8s8,3.592,8,8S252.408,88,248,88z"/>
			<path d="M480,297.472v-44.616C480,219.304,452.696,192,419.144,192H288v-16h96c26.472,0,48-21.528,48-48     c0-26.464-21.736-48.088-48-47.976V80c-0.096,0-0.184,0.016-0.28,0.016s-0.192-0.008-0.288-0.008     C379.536,52.896,356.168,32,328,32c-2.28,0-4.528,0.184-6.768,0.456c-0.6,0.072-1.184,0.184-1.776,0.272     c-1.712,0.264-3.408,0.608-5.08,1.024c-0.552,0.136-1.096,0.272-1.648,0.432c-1.936,0.552-3.832,1.192-5.704,1.952     c-0.208,0.08-0.416,0.144-0.624,0.232c-0.192,0.08-0.4,0.136-0.592,0.224C295.344,14.648,272.784,0,248,0     s-47.344,14.648-57.808,36.592c-0.2-0.088-0.4-0.144-0.6-0.224c-0.208-0.088-0.424-0.152-0.632-0.232     c-1.864-0.752-3.76-1.4-5.696-1.952c-0.544-0.16-1.096-0.288-1.648-0.432c-1.672-0.424-3.36-0.76-5.072-1.024     c-0.592-0.096-1.184-0.2-1.784-0.272C172.528,32.184,170.272,32,168,32c-28.168,0-51.536,20.896-55.432,48     c-0.192,0-0.376,0-0.568,0c-26.472,0-48,21.528-48,48s21.528,48,48,48h96v16H76.856C43.304,192,16,219.304,16,252.856v44.616     C6.712,300.784,0,309.584,0,320c0,13.232,10.768,24,24,24s24-10.768,24-24c0-10.416-6.712-19.216-16-22.528v-44.616     C32,228.128,52.128,208,76.856,208H224v-32h16v80h-56c-13.232,0-24,10.768-24,24v192c0,13.232,10.768,24,24,24h128     c13.232,0,24-10.768,24-24V280c0-13.232-10.768-24-24-24h-56v-80h16v32h147.144C443.872,208,464,228.128,464,252.856v44.616     c-9.288,3.312-16,12.112-16,22.528c0,13.232,10.768,24,24,24s24-10.768,24-24C496,309.584,489.288,300.784,480,297.472z M24,328     c-4.408,0-8-3.592-8-8c0-4.408,3.592-8,8-8s8,3.592,8,8C32,324.408,28.408,328,24,328z M320,472c0,4.408-3.592,8-8,8H184     c-4.408,0-8-3.592-8-8v-40h144V472z M320,416H176v-96h144V416z M312,272c4.408,0,8,3.592,8,8v24H176v-24c0-4.408,3.592-8,8-8H312     z M112,160c-17.648,0-32-14.352-32-32s14.352-32,32-32s32,14.352,32,32h16c0-20.664-13.144-38.264-31.496-45.016     C131.008,63.312,147.664,48,168,48c1.864,0,3.704,0.152,5.528,0.4c0.728,0.104,1.424,0.288,2.136,0.432     c1.08,0.208,2.152,0.416,3.208,0.712c0.816,0.232,1.608,0.544,2.4,0.824c0.936,0.328,1.864,0.656,2.776,1.056     c0.768,0.336,1.504,0.728,2.248,1.112c0.92,0.48,1.832,0.968,2.712,1.52c5.528,3.424,10.272,8.136,13.632,13.928l13.84-8.016     c-3.296-5.696-7.6-10.6-12.512-14.72C211.432,27.832,228.768,16,248,16s36.568,11.832,44.024,29.256     c-4.92,4.128-9.224,9.032-12.528,14.736L293.344,68c3.352-5.8,8.096-10.512,13.632-13.936c0.888-0.552,1.808-1.048,2.728-1.528     c0.736-0.384,1.472-0.768,2.232-1.104c0.912-0.4,1.848-0.728,2.784-1.064c0.792-0.28,1.576-0.584,2.392-0.816     c1.056-0.304,2.136-0.504,3.216-0.712c0.712-0.144,1.408-0.328,2.136-0.432C324.296,48.152,326.136,48,328,48     c20.392,0,37.08,15.4,39.512,34.976C349.152,89.728,336,107.328,336,128h16c0-17.648,14.352-32,32-32s32,14.352,32,32     s-14.352,32-32,32H112z M472,328c-4.408,0-8-3.592-8-8c0-4.408,3.592-8,8-8c4.408,0,8,3.592,8,8C480,324.408,476.408,328,472,328     z"/>
			<path d="M416,361.472V264c0-22.056-17.944-40-40-40h-88v16h88c13.232,0,24,10.768,24,24v97.472c-9.288,3.312-16,12.112-16,22.528     c0,13.232,10.768,24,24,24s24-10.768,24-24C432,373.584,425.288,364.784,416,361.472z M408,392c-4.408,0-8-3.592-8-8     c0-4.408,3.592-8,8-8c4.408,0,8,3.592,8,8C416,388.408,412.408,392,408,392z"/>
			<path d="M120,240h88v-16h-88c-22.056,0-40,17.944-40,40v97.472c-9.288,3.312-16,12.112-16,22.528c0,13.232,10.768,24,24,24     s24-10.768,24-24c0-10.416-6.712-19.216-16-22.528V264C96,250.768,106.768,240,120,240z M88,392c-4.408,0-8-3.592-8-8     c0-4.408,3.592-8,8-8s8,3.592,8,8C96,388.408,92.408,392,88,392z"/>
		</g>
	</g>
</g>
<g>
</g>
<g>
</g>
<g>
</g>
<g>
</g>
<g>
</g>
<g>
</g>
<g>
</g>
<g>
</g>
<g>
</g>
<g>
</g>
<g>
</g>
<g>
</g>
<g>
</g>
<g>
</g>
<g>
</g>
</svg>
