<?xml version="1.0" encoding="iso-8859-1"?>
<!-- Generator: Adobe Illustrator 19.0.0, SVG Export Plug-In . SVG Version: 6.00 Build 0)  -->
<svg xmlns="http://www.w3.org/2000/svg" xmlns:xlink="http://www.w3.org/1999/xlink" version="1.1" id="Capa_1" x="0px" y="0px" viewBox="0 0 496 496" style="enable-background:new 0 0 496 496;" xml:space="preserve">
<g>
	<g>
		<g>
			<path d="M456,96H336v-8c0-48.52-39.48-88-88-88c-48.52,0-88,39.48-88,88v8H40c-22.056,0-40,17.944-40,40v272     c0,22.056,17.944,40,40,40h88v32H96v16h304v-16h-32v-32h88c22.056,0,40-17.944,40-40V136C496,113.944,478.056,96,456,96z M176,88     c0-39.696,32.304-72,72-72s72,32.304,72,72v16c0,39.696-32.304,72-72,72s-72-32.304-72-72V88z M320,288v-16h32v16H320z M352,304     v16h-32v-16H352z M320,256v-16h31.64c0.104,1.368,0.36,2.696,0.36,4.08V256H320z M248,224H147.856     c2.272-5.848,5.488-11.248,9.504-16h58.84C223.512,217.656,234.984,224,248,224c13.128,0,24.704-6.448,32-16.248V208h58.64     c4.016,4.752,7.232,10.152,9.504,16H248z M304,304v16H192v-16h80v-16h-80v-16h112v16h-16v16H304z M192,256v-16h112v16H192z      M144,288v-16h32v16H144z M176,304v16h-32v-16H176z M144,256v-11.912c0-1.384,0.256-2.72,0.36-4.088H176v16H144z M179.496,192     c2.928-1.16,5.968-2.096,9.128-2.752l19.496-4.04c0.072,2.312,0.24,4.6,0.688,6.792H179.496z M224.48,188.712     C231.976,190.8,239.84,192,248,192c8.16,0,16.024-1.2,23.52-3.288C269.328,199.696,259.624,208,248,208     C236.376,208,226.672,199.696,224.48,188.712z M287.192,192c0.448-2.2,0.616-4.488,0.688-6.8l19.504,4.048     c3.16,0.656,6.2,1.592,9.128,2.752H287.192z M352,480H144v-32h208V480z M480,408c0,13.232-10.768,24-24,24H40     c-13.232,0-24-10.768-24-24v-8h464V408z M480,384H16V136c0-13.232,10.768-24,24-24h120.408     c2.192,24.184,14.176,45.568,31.984,60.128l-7.016,1.456C152.128,180.488,128,210.136,128,244.088V336h240v-91.92     c0-33.952-24.128-63.6-57.368-70.496l-7.016-1.456c17.808-14.56,29.792-35.944,31.984-60.128H456c13.232,0,24,10.768,24,24V384z"/>
			<path d="M80,144c-13.232,0-24,10.768-24,24c0,7.04,3.096,13.312,7.936,17.704C58.76,203.28,56,221.488,56,240     c0,19.936,3.048,39.592,9.056,58.424l15.24-4.856C74.792,276.312,72,258.288,72,240c0-16.4,2.376-32.528,6.8-48.12     c0.408,0.016,0.792,0.12,1.2,0.12c13.232,0,24-10.768,24-24S93.232,144,80,144z M80,176c-4.408,0-8-3.592-8-8s3.592-8,8-8     s8,3.592,8,8S84.408,176,80,176z"/>
			<path d="M437.736,268.376C439.128,259.016,440,249.52,440,240c0-29.112-6.352-57.072-18.872-83.112l-14.424,6.936     C418.184,187.68,424,213.312,424,240c0,8.112-0.728,16.192-1.824,24.184C409.808,265.136,400,275.392,400,288     c0,13.232,10.768,24,24,24s24-10.768,24-24C448,279.88,443.928,272.72,437.736,268.376z M424,296c-4.408,0-8-3.592-8-8     c0-4.408,3.592-8,8-8c4.408,0,8,3.592,8,8C432,292.408,428.408,296,424,296z"/>
		</g>
	</g>
</g>
<g>
</g>
<g>
</g>
<g>
</g>
<g>
</g>
<g>
</g>
<g>
</g>
<g>
</g>
<g>
</g>
<g>
</g>
<g>
</g>
<g>
</g>
<g>
</g>
<g>
</g>
<g>
</g>
<g>
</g>
</svg>
