<?xml version="1.0" encoding="iso-8859-1"?>
<!-- Generator: Adobe Illustrator 19.0.0, SVG Export Plug-In . SVG Version: 6.00 Build 0)  -->
<svg xmlns="http://www.w3.org/2000/svg" xmlns:xlink="http://www.w3.org/1999/xlink" version="1.1" id="Capa_1" x="0px" y="0px" viewBox="0 0 496.012 496.012" style="enable-background:new 0 0 496.012 496.012;" xml:space="preserve">
<g>
	<g>
		<g>
			<path d="M304.012,400.006h-11.856c-8,0-15.816-1.92-23.048-5.192c7.128-16.104,10.904-33.68,10.904-51.392     c0-42.808-24.832-84.032-64.976-108.472l13.944-27.12c1.984-3.848,3.032-8.168,3.032-12.496     c0-15.072-12.256-27.328-27.328-27.328H203.7c-9.336,0-17.936,4.688-22.984,12.544l-1.8,2.808c-0.52,0.808-1.872,0.792-2.384,0     l-1.944-3.024c-4.952-7.72-13.4-12.328-22.576-12.328c-9.176,0-17.624,4.608-22.576,12.328l-1.936,3.016     c-0.52,0.8-1.864,0.824-2.392,0l-1.8-2.8c-5.056-7.856-13.648-12.544-22.984-12.544H99.34c-15.072,0-27.328,12.256-27.328,27.328     c0,4.328,1.048,8.656,3.024,12.496l13.944,27.12c-40.136,24.432-64.968,65.664-64.968,108.472c0,8.288,0.848,16.512,2.432,24.584     h-1.208c-10.344,0-19.496,6.592-22.768,16.408l-1.224,3.68c-2.888,8.68-0.664,18.088,5.8,24.56L34.7,440.31     c9.6,9.608,21.496,16.96,34.392,21.264l41.768,13.92c8.992,2.992,18.352,4.512,27.824,4.512h129.168     c7.184,0,14.368-0.88,21.344-2.624l14.816-3.704v22.328h144v-128h-144V400.006z M88.012,195.334     c0-6.248,5.08-11.328,11.328-11.328h0.984c3.872,0,7.432,1.944,9.52,5.2l1.8,2.8c3.216,5.008,8.696,8,14.656,8     c5.952,0,11.432-2.992,14.656-8l1.944-3.024c4-6.232,14.232-6.232,18.232,0l1.944,3.024c3.216,5.008,8.696,8,14.656,8     c5.96,0,11.44-2.992,14.656-8l1.8-2.808c2.096-3.256,5.656-5.2,9.52-5.2h0.984c6.24,0.008,11.32,5.088,11.32,11.336     c0,1.792-0.432,3.584-1.256,5.176l-16.2,31.496h-93.088l-16.2-31.504C88.444,198.91,88.012,197.126,88.012,195.334z      M98.18,248.006h107.656c35.944,21.472,58.176,57.848,58.176,95.416c0,14.736-3.072,29.304-8.72,42.808l-57.864-46.288     c-2.712-2.168-5.792-3.696-9.168-4.544l-4.424-1.104c-0.896-12.424-11.176-22.288-23.824-22.288h-16c-4.408,0-8-3.592-8-8     c0-4.408,3.592-8,8-8h16c4.408,0,8,3.592,8,8h16c0-13.232-10.768-24-24-24v-16h-16v16c-13.232,0-24,10.768-24,24s10.768,24,24,24     h16c2.768,0,5.096,1.504,6.528,3.648c-7.656,0.92-14.48,5.496-18.208,12.352h-4.32c-4.408,0-8-3.592-8-8h-16     c0,13.232,10.768,24,24,24h0.032c-0.312,8.224,3.576,16.224,10.608,20.912l19.848,13.24c0.488,0.32,0.904,0.712,1.352,1.064     l-17.848,4.464c-1.12,0.28-2.256,0.48-3.416,0.592l-62.592,6.264c-7.232,0.72-14.256-1.808-19.36-6.912l-24.592-24.592     c-1.32-1.32-2.8-2.416-4.352-3.376c-2.408-9.184-3.68-18.664-3.68-28.24C40.012,305.854,62.244,269.478,98.18,248.006z      M304.012,457.182l-18.688,4.672c-5.704,1.432-11.584,2.152-17.464,2.152H138.684c-7.752,0-15.408-1.24-22.768-3.696     l-41.768-13.92c-10.552-3.52-20.288-9.536-28.144-17.392l-27.656-27.656c-2.16-2.16-2.896-5.296-1.936-8.184l1.224-3.672     c1.104-3.28,4.152-5.48,7.6-5.48h5.84c2.104,0,4.168,0.856,5.656,2.344l24.592,24.592c8.512,8.512,20.28,12.704,32.264,11.52     l62.584-6.264c1.936-0.192,3.856-0.52,5.728-1l22.792-5.696c0.672,3.392,0.648,6.944-0.224,10.44l-2.528,10.12l15.52,3.88     l2.528-10.128c4.088-16.36-2.592-33.632-16.624-42.984l-19.856-13.24c-2.808-1.872-4.144-5.328-3.32-8.6l1.384-5.536     c1.064-4.28,5.416-6.92,9.696-5.824l13.088,3.272c1.112,0.28,2.168,0.8,3.064,1.512l59.744,47.8     c12.728,10.192,28.704,15.792,44.992,15.792h11.856V457.182z M320.012,384.006h16v16h16v-16h80v96h-80v-64h-16v64h-16V384.006z"/>
			<path d="M456.012,0.006h-128c-19.312,0-35.472,13.768-39.192,32H24.012c-13.232,0-24,10.768-24,24v152c0,13.232,10.768,24,24,24     H44.7L34.356,242.35l11.312,11.312l29.656-29.656L45.668,194.35l-11.312,11.312L44.7,216.006H24.012c-4.408,0-8-3.592-8-8v-152     c0-4.408,3.592-8,8-8h264v232c0,22.056,17.944,40,40,40h128c22.056,0,40-17.944,40-40v-240     C496.012,17.95,478.068,0.006,456.012,0.006z M480.012,280.006c0,13.232-10.768,24-24,24h-128c-13.232,0-24-10.768-24-24v-24h176     V280.006z M480.012,240.006h-176v-176h176V240.006z M480.012,48.006h-176v-8c0-13.232,10.768-24,24-24h128     c13.232,0,24,10.768,24,24V48.006z"/>
			<rect x="352.012" y="272.006" width="80" height="16"/>
			<path d="M96.012,96.006c0-17.648-14.352-32-32-32s-32,14.352-32,32s14.352,32,32,32S96.012,113.654,96.012,96.006z      M64.012,112.006c-8.824,0-16-7.176-16-16s7.176-16,16-16c8.824,0,16,7.176,16,16S72.836,112.006,64.012,112.006z"/>
			<rect x="112.012" y="88.006" width="160" height="16"/>
			<path d="M464.012,80.006h-144v144h144V80.006z M448.012,208.006h-112v-112h112V208.006z"/>
		</g>
	</g>
</g>
<g>
</g>
<g>
</g>
<g>
</g>
<g>
</g>
<g>
</g>
<g>
</g>
<g>
</g>
<g>
</g>
<g>
</g>
<g>
</g>
<g>
</g>
<g>
</g>
<g>
</g>
<g>
</g>
<g>
</g>
</svg>
