<?xml version="1.0" encoding="iso-8859-1"?>
<!-- Generator: Adobe Illustrator 19.0.0, SVG Export Plug-In . SVG Version: 6.00 Build 0)  -->
<svg xmlns="http://www.w3.org/2000/svg" xmlns:xlink="http://www.w3.org/1999/xlink" version="1.1" id="Capa_1" x="0px" y="0px" viewBox="0 0 496 496" style="enable-background:new 0 0 496 496;" xml:space="preserve">
<g>
	<g>
		<g>
			<path d="M456,304V72c0-22.056-17.944-40-40-40H307.824C294.896,12.72,272.912,0,248,0s-46.896,12.72-59.824,32H80     c-22.056,0-40,17.944-40,40v232H0v40c0,22.056,17.944,40,40,40h101.16c5.792,17.76,14.192,34.464,25.152,49.8L184,458.56V496h128     v-37.816c13.24-22.72,21.136-48.088,23.32-74.184H456c22.056,0,40-17.944,40-40v-40H456z M248,16c30.872,0,56,25.12,56,56v40h-16     V72c0-22.056-17.944-40-40-40c-22.056,0-40,17.944-40,40c0,4.408-3.584,8-8,8s-8-3.592-8-8C192,41.12,217.128,16,248,16z      M304,128v112h-64c0-13.232-10.768-24-24-24s-24,10.768-24,24V128H304z M272,80h-49.472c0.896-2.512,1.472-5.184,1.472-8     c0-13.232,10.768-24,24-24s24,10.768,24,24V80z M56,72c0-13.232,10.768-24,24-24h100.2c-2.672,7.52-4.2,15.576-4.2,24     c0,2.816,0.576,5.488,1.472,8H104c-8.824,0-16,7.176-16,16v208H56V72z M40,368.008V368c-13.232,0-24-10.768-24-24v-24h112.176     c-0.04,0.592-0.176,1.152-0.176,1.76v4.296c0,1.88,0.2,3.76,0.608,5.584l7.808,35.136c0.096,0.416,0.24,0.816,0.336,1.232H40z      M135.184,304H104V96h168v16h-96v144h16v48h-19.608c-4.72-4.968-11.328-8-18.632-8C146.448,296,139.88,299.096,135.184,304z      M192,320v48h-1.584l-10.664-48H192z M320,369.352c0,29.064-7.904,57.608-22.856,82.528L296,453.784V480h-96v-26.56     l-20.672-28.944c-13.176-18.448-22.36-39.04-27.288-61.2l-7.808-35.128c-0.152-0.688-0.232-1.4-0.232-2.12v-4.288     c0-5.376,4.376-9.76,9.76-9.76c4.6,0,8.52,3.144,9.52,7.64L177.584,384H208V240c0-4.408,3.584-8,8-8s8,3.592,8,8v48v64v8h16v-8     v-64c0-4.408,3.584-8,8-8s8,3.592,8,8v16v56h16v-56c0-4.408,3.584-8,8-8c4.416,0,8,3.592,8,8v16v32v8h16v-8v-32     c0-4.408,3.584-8,8-8c4.416,0,8,3.592,8,8V369.352z M329.76,304c-4.392-4.872-10.696-8-17.76-8c-3.16,0-6.16,0.648-8.928,1.76     C300.312,287.56,291.064,280,280,280c-3.16,0-6.16,0.648-8.928,1.76C268.312,271.56,259.064,264,248,264     c-2.816,0-5.488,0.576-8,1.472V256h80V120v-8V96h72v176h16V96c0-8.824-7.176-16-16-16h-72v-8c0-8.424-1.528-16.48-4.2-24H416     c13.232,0,24,10.768,24,24v232h-32v-16h-16v16H329.76z M480,344c0,13.232-10.768,24-24,24H336v-48h144V344z"/>
			<path d="M240,190.528V224h16v-33.472c9.288-3.312,16-12.112,16-22.528c0-13.232-10.768-24-24-24s-24,10.768-24,24     C224,178.416,230.712,187.216,240,190.528z M248,160c4.416,0,8,3.592,8,8s-3.584,8-8,8c-4.416,0-8-3.592-8-8S243.584,160,248,160     z"/>
		</g>
	</g>
</g>
<g>
</g>
<g>
</g>
<g>
</g>
<g>
</g>
<g>
</g>
<g>
</g>
<g>
</g>
<g>
</g>
<g>
</g>
<g>
</g>
<g>
</g>
<g>
</g>
<g>
</g>
<g>
</g>
<g>
</g>
</svg>
