<?xml version="1.0" encoding="iso-8859-1"?>
<!-- Generator: Adobe Illustrator 19.0.0, SVG Export Plug-In . SVG Version: 6.00 Build 0)  -->
<svg xmlns="http://www.w3.org/2000/svg" xmlns:xlink="http://www.w3.org/1999/xlink" version="1.1" id="Capa_1" x="0px" y="0px" viewBox="0 0 496 496" style="enable-background:new 0 0 496 496;" xml:space="preserve">
<g>
	<g>
		<g>
			<rect x="424" y="112" width="16" height="64"/>
			<path d="M188,232h-4v-16h-16v16h-4c-15.44,0-28,12.56-28,28s12.56,28,28,28h24c6.616,0,12,5.384,12,12c0,6.616-5.384,12-12,12     h-24c-6.616,0-12-5.384-12-12v-4h-16v4c0,15.44,12.56,28,28,28h4v16h16v-16h4c15.44,0,28-12.56,28-28s-12.56-28-28-28h-24     c-6.616,0-12-5.384-12-12c0-6.616,5.384-12,12-12h24c6.616,0,12,5.384,12,12v4h16v-4C216,244.56,203.44,232,188,232z"/>
			<path d="M300,152h-4v-16h-16v16h-4c-15.44,0-28,12.56-28,28s12.56,28,28,28h24c6.616,0,12,5.384,12,12c0,6.616-5.384,12-12,12     h-24c-6.616,0-12-5.384-12-12v-4h-16v4c0,15.44,12.56,28,28,28h4v16h16v-16h4c15.44,0,28-12.56,28-28s-12.56-28-28-28h-24     c-6.616,0-12-5.384-12-12c0-6.616,5.384-12,12-12h24c6.616,0,12,5.384,12,12v4h16v-4C328,164.56,315.44,152,300,152z"/>
			<rect x="88" y="32" width="16" height="16"/>
			<rect x="88" y="64" width="16" height="16"/>
			<rect x="88" y="96" width="16" height="112"/>
			<rect x="168" y="48" width="16" height="16"/>
			<rect x="168" y="80" width="16" height="96"/>
			<rect x="280" y="48" width="16" height="48"/>
			<rect x="360" y="32" width="16" height="16"/>
			<rect x="360" y="64" width="16" height="64"/>
			<rect x="200" y="32" width="16" height="16"/>
			<rect x="200" y="64" width="16" height="64"/>
			<path d="M176,368c45.824,0,83.536-35.216,87.592-80H432c22.056,0,40-17.944,40-40V40c0-22.056-17.944-40-40-40H48     C25.944,0,8,17.944,8,40v208c0,22.056,17.944,40,40,40h40.408C92.464,332.784,130.176,368,176,368z M176,352     c-39.704,0-72-32.304-72-72s32.296-72,72-72c8.64,0,17.016,1.592,25,4.56c4.128,28.68,22.072,52.904,46.912,65.688     c0.016,0.584,0.088,1.16,0.088,1.752C248,319.696,215.704,352,176,352z M216,200c0-39.696,32.296-72,72-72     c39.704,0,72,32.304,72,72s-32.296,72-72,72C248.296,272,216,239.696,216,200z M408,16h24c13.232,0,24,10.768,24,24v208     c0,13.232-10.768,24-24,24h-24V16z M56,272h-8c-13.232,0-24-10.768-24-24V40c0-13.232,10.768-24,24-24h8V272z M72,16h320v256     h-53.56c22.672-15.936,37.56-42.24,37.56-72c0-48.52-39.48-88-88-88c-47,0-85.392,37.056-87.768,83.472     C192.392,193.232,184.296,192,176,192c-45.824,0-83.536,35.216-87.592,80H72V16z"/>
			<path d="M488,384v-16h-96v16h-37.256l-63.704-49.544c-5.344-4.16-12.024-6.456-18.808-6.456h-1.608     C253.744,328,240,341.736,240,358.632c0,8.176,3.184,15.864,8.968,21.656l15.384,15.384L247.016,400h-76.592l-41.664-27.776     c-4.152-2.76-8.968-4.224-13.944-4.224h-1.672C99.28,368,88,379.28,88,393.144c0,6.48,2.464,12.632,6.928,17.336l32.168,33.792     c6.648,6.992,15.008,12.304,24.168,15.352l47.576,15.856c9,3,18.368,4.52,27.84,4.52h129.16c7.192,0,14.376-0.88,21.344-2.624     L392,473.672V496h96v-16h-16v-96H488z M392,457.176l-18.688,4.672C367.608,463.28,361.736,464,355.84,464H226.68     c-7.752,0-15.416-1.24-22.776-3.696l-47.576-15.856c-6.688-2.224-12.784-6.104-17.632-11.2l-32.168-33.792     c-1.632-1.712-2.528-3.952-2.528-6.312c0-5.04,4.104-9.144,9.144-9.144h1.672c1.816,0,3.56,0.528,5.072,1.536L165.576,416H248     l29.52-7.168l3.488,3.488l7.408,22.208l15.168-5.064l-8.592-25.792l-34.712-34.704c-2.76-2.76-4.28-6.432-4.28-10.336     c0-8.072,6.56-14.632,14.624-14.632h1.608c3.24,0,6.432,1.096,8.976,3.08L349.256,400H392V457.176z M456,480h-16v-16h-16v16h-16     v-96h16v64h16v-64h16V480z"/>
		</g>
	</g>
</g>
<g>
</g>
<g>
</g>
<g>
</g>
<g>
</g>
<g>
</g>
<g>
</g>
<g>
</g>
<g>
</g>
<g>
</g>
<g>
</g>
<g>
</g>
<g>
</g>
<g>
</g>
<g>
</g>
<g>
</g>
</svg>
