<?xml version="1.0" encoding="iso-8859-1"?>
<!-- Generator: Adobe Illustrator 19.0.0, SVG Export Plug-In . SVG Version: 6.00 Build 0)  -->
<svg xmlns="http://www.w3.org/2000/svg" xmlns:xlink="http://www.w3.org/1999/xlink" version="1.1" id="Capa_1" x="0px" y="0px" viewBox="0 0 496 496" style="enable-background:new 0 0 496 496;" xml:space="preserve">
<g>
	<g>
		<g>
			<path d="M424.504,411.608c-11.152-35.696-42.24-62.432-79.192-68.12L304,337.136v-8.288c26.92-15.624,46.784-42.072,53.488-73.4     C376.928,252.736,392,236.176,392,216v-72C392,64.6,327.4,0,248,0S104,64.6,104,144v72c0,20.176,15.072,36.736,34.512,39.448     c6.704,31.328,26.568,57.776,53.488,73.4v8.288l-41.312,6.352c-36.952,5.688-68.048,32.424-79.192,68.12L45.12,496h405.76     L424.504,411.608z M401.832,400c2.92,5.048,5.464,10.336,7.264,16H256v-0.328c16.624-1.36,31.984-6.984,44.752-15.672H401.832z      M256,399.56v-16.136c8.488-0.92,15.736-3.168,21.768-6.344l11.44,11.44C279.56,394.496,268.2,398.36,256,399.56z      M332.696,357.736l10.176,1.568c18.184,2.8,34.552,11.792,46.96,24.696h-71.44C324.784,376.256,329.712,367.416,332.696,357.736z      M316.616,355.264c-3.088,8.76-8.176,16.632-14.792,23.248l-11.016-11.016c4.768-4.776,8.232-9.928,10.424-14.6L316.616,355.264z      M359.664,238.632C359.792,236.424,360,234.24,360,232v-38.528c9.288,3.312,16,12.112,16,22.528     C376,226.536,369.128,235.416,359.664,238.632z M376,184.208c-4.672-3.536-10.056-6.184-16-7.392V152h16V184.208z M375.592,136     H360h-8v-16h21.664C374.664,125.224,375.256,130.576,375.592,136z M256,16.408C309.08,19.712,353.464,55.4,369.512,104H256     V16.408z M336,120v16h-16v-16H336z M304,120v16h-16v-16H304z M256,120h16v16h-16V120z M256,152h88v72h-64     c-13.232,0-24-10.768-24-24V152z M240,16.408V104H126.488C142.536,55.4,186.92,19.712,240,16.408z M120,152h16v24.808     c-5.944,1.216-11.328,3.856-16,7.392V152z M120,216c0-10.416,6.712-19.216,16-22.528V232c0,2.24,0.208,4.424,0.336,6.632     C126.872,235.416,120,226.536,120,216z M136,136h-15.592c0.336-5.424,0.936-10.776,1.928-16H240v16h-96H136z M152,232v-80h88v48     c0,22.056,17.944,40,40,40h63.592c-4.088,49.2-45.352,88-95.592,88C195.064,328,152,284.936,152,232z M194.768,352.904     c5.712,12.2,19.664,27.736,45.232,30.52v16.144c-28.368-2.784-52.104-20.2-60.616-44.296L194.768,352.904z M240.008,480h-94.944     l6.872-55.008l-15.872-1.984L128.936,480H66.88l19.88-63.624c9.352-29.896,35.4-52.304,66.368-57.072l10.184-1.568     c9.824,31.856,40.36,54.952,76.696,57.928V480z M208,342.832v-6.344c12.44,4.784,25.896,7.512,40,7.512s27.56-2.728,40-7.512     v6.344C286.624,347,278.216,368,248,368C217.792,368,209.4,347.096,208,342.832z M256,480v-16h16v-16h-16v-16h88.936l2,16H288v16     h60.936l2,16H256z M361.064,432h53.064l5,16h-56.056L361.064,432z M365.064,464h59.056l5,16h-62.056L365.064,464z"/>
			<path d="M216,188c0-11.032-8.968-20-20-20s-20,8.968-20,20s8.968,20,20,20S216,199.032,216,188z M192,188c0-2.2,1.8-4,4-4     s4,1.8,4,4s-1.8,4-4,4S192,190.2,192,188z"/>
			<path d="M300,208c11.032,0,20-8.968,20-20s-8.968-20-20-20c-11.032,0-20,8.968-20,20S288.968,208,300,208z M300,184     c2.2,0,4,1.8,4,4s-1.8,4-4,4s-4-1.8-4-4S297.8,184,300,184z"/>
			<path d="M312,248h-16c0,26.472-21.528,48-48,48s-48-21.528-48-48h-16c0,35.288,28.712,64,64,64C283.288,312,312,283.288,312,248z     "/>
		</g>
	</g>
</g>
<g>
</g>
<g>
</g>
<g>
</g>
<g>
</g>
<g>
</g>
<g>
</g>
<g>
</g>
<g>
</g>
<g>
</g>
<g>
</g>
<g>
</g>
<g>
</g>
<g>
</g>
<g>
</g>
<g>
</g>
</svg>
