<?xml version="1.0" encoding="iso-8859-1"?>
<!-- Generator: Adobe Illustrator 19.0.0, SVG Export Plug-In . SVG Version: 6.00 Build 0)  -->
<svg xmlns="http://www.w3.org/2000/svg" xmlns:xlink="http://www.w3.org/1999/xlink" version="1.1" id="Capa_1" x="0px" y="0px" viewBox="0 0 496 496" style="enable-background:new 0 0 496 496;" xml:space="preserve">
<g>
	<g>
		<g>
			<path d="M496,0H368v80.4l-4.688-4.688c-6.904-6.904-16.184-9.84-25.224-9.112c0.072-0.864,0.256-1.712,0.256-2.6     c0-8.544-3.328-16.584-9.376-22.624l-11.312-11.32c-10.424-10.424-26.248-12.008-38.472-5.024C275.992,10.736,263.248,0,248,0     c-14.856,0-27.272,10.224-30.856,23.976c-11.912-5.72-26.608-3.776-36.456,6.08l-11.312,11.32C163.328,47.416,160,55.456,160,64     c0,0.888,0.184,1.736,0.256,2.608c-9.04-0.736-18.32,2.208-25.224,9.112L128,82.744V0H0v144h21.752l-3.128,12.504     C16.88,163.48,16,170.664,16,177.848v129.168c0,9.48,1.52,18.832,4.512,27.832l13.92,41.768     c4.304,12.896,11.656,24.792,21.264,34.4L56,411.312V456c0,22.056,17.944,40,40,40h304c22.056,0,40-17.944,40-40v-45.288     l0.304,0.304c9.608-9.608,16.96-21.504,21.264-34.4l13.92-41.768c2.992-8.992,4.512-18.352,4.512-27.832V177.848     c0-7.184-0.88-14.368-2.624-21.344L474.248,144H496V0z M329.368,87.024c3.128-3.112,7.224-4.672,11.32-4.672     c4.096,0,8.192,1.56,11.312,4.672l11.312,11.32c3.024,3.024,4.688,7.04,4.688,11.312c0,4.272-1.664,8.296-4.688,11.32     c-6.24,6.232-16.384,6.232-22.624,0l-11.32-11.32C323.128,103.416,323.136,93.264,329.368,87.024z M283.712,41.368     c3.12-3.112,7.224-4.68,11.32-4.68s8.192,1.56,11.312,4.68l11.312,11.32c3.024,3.024,4.688,7.04,4.688,11.312     c0,4.272-1.664,8.288-4.688,11.312c-6.048,6.048-16.584,6.048-22.632,0L283.712,64C277.472,57.76,277.48,47.608,283.712,41.368z      M248,16c8.824,0,16,7.176,16,16s-7.176,16-16,16c-8.824,0-16-7.176-16-16S239.176,16,248,16z M180.688,52.688L192,41.368     c3.12-3.12,7.216-4.672,11.312-4.672s8.192,1.56,11.32,4.672c6.232,6.24,6.24,16.392,0,22.632l-11.32,11.312     c-6.048,6.048-16.576,6.048-22.624,0C177.664,72.288,176,68.272,176,64C176,59.728,177.664,55.712,180.688,52.688z      M135.024,98.344l11.32-11.32c3.12-3.12,7.216-4.672,11.312-4.672s8.192,1.56,11.32,4.672c6.232,6.24,6.24,16.392,0,22.632     l-11.32,11.32c-6.24,6.232-16.384,6.232-22.632,0C128.792,114.736,128.792,104.584,135.024,98.344z M128,135.784     c5.496,3.856,11.896,5.856,18.344,5.856c8.192,0,16.384-3.12,22.624-9.352l11.32-11.32c6.904-6.896,9.84-16.184,9.112-25.224     C190.264,95.816,191.112,96,192,96c8.544,0,16.584-3.328,22.624-9.376l11.32-11.312c4.176-4.176,6.824-9.256,8.208-14.6     C238.36,62.76,243.016,64,248,64c5.8,0,11.176-1.672,15.872-4.384c1.272,5.752,4.064,11.232,8.528,15.696l11.312,11.312     C289.76,92.672,297.8,96,306.344,96c0.888,0,1.736-0.184,2.608-0.256c-0.736,9.04,2.208,18.328,9.112,25.224l11.32,11.32     c6.24,6.24,14.432,9.36,22.624,9.36c5.552,0,11.056-1.552,16-4.416V144h31.12v9.552c0,12.616-4.504,25-12.696,34.872     l-23.816,28.72C342.64,178.52,302.392,152,256,152c-51.272,0-95.016,32.384-112.168,77.728l-34.256-41.312     c-8.184-9.864-12.696-22.256-12.696-34.872V144H128V135.784z M360,272c0,57.344-46.656,104-104,104s-104-46.656-104-104     s46.656-104,104-104S360,214.656,360,272z M16,80h64V64H16V16h96v48H96v16h16v16H16V80z M16,128v-16h96v16H16z M120,480H96     c-13.232,0-24-10.768-24-24v-50.496l0.408-0.408L72,404.688V328c0-13.232,10.768-24,24-24h24V480z M96.272,288     c0.024-0.104,0.032-0.208,0.056-0.32l4.832-19.32c0.872,0.912,1.68,1.896,2.408,2.944L115.096,288H96.272z M130.448,282.064     l-13.72-19.856c-9.632-13.92-27.368-20.576-44.112-16.52l-10.496,2.528l3.752,15.552l10.496-2.528     c3.4-0.824,6.848-0.88,10.168-0.36l-5.728,22.904c-0.48,1.888-0.808,3.808-1,5.728l-0.208,2.096C65.72,297.896,56,311.8,56,328     v57.368c-2.584-4.384-4.776-9-6.384-13.816l-13.92-41.768C33.24,322.432,32,314.768,32,307.016V177.848     c0-5.88,0.72-11.76,2.152-17.464L38.248,144h42.64v9.552c0,16.336,5.816,32.352,16.384,45.088l41.12,49.584     C136.832,255.912,136,263.856,136,272c0,4.632,0.328,9.184,0.84,13.672C134.28,285.44,131.904,284.168,130.448,282.064z M376,480     H136V304h4.464c14.056,50.656,60.464,88,115.536,88s101.48-37.344,115.536-88H376V480z M424,456c0,13.232-10.768,24-24,24h-8V304     h8c13.232,0,24,10.768,24,24V456z M380.912,288l11.528-16.688c0.728-1.056,1.536-2.032,2.408-2.944l4.832,19.328     c0.024,0.096,0.032,0.208,0.056,0.304H380.912z M464,307.016c0,7.752-1.24,15.408-3.696,22.768l-13.92,41.768     c-1.608,4.824-3.792,9.44-6.384,13.816V328c0-16.2-9.72-30.104-23.6-36.392l-0.208-2.08c-0.192-1.936-0.52-3.856-1-5.728     l-5.728-22.904c3.32-0.512,6.768-0.464,10.16,0.352l10.496,2.528l3.752-15.552l-10.496-2.528     c-16.768-4.048-34.488,2.6-44.112,16.52l-3.512,5.08c-0.456-11.696-2.544-22.96-6.128-33.568l29.104-35.088     c10.568-12.736,16.384-28.744,16.384-45.088V144h42.64l4.096,16.384c1.432,5.704,2.152,11.584,2.152,17.464V307.016z M480,128     h-96v-16h96V128z M480,64h-64v16h64v16h-96V80h16V64h-16V16h96V64z"/>
			<rect x="88" y="352" width="16" height="80"/>
			<path d="M280,216h-16v-16h-16v16h-16c-13.232,0-24,10.768-24,24v16c0,13.232,10.768,24,24,24h48c4.408,0,8,3.592,8,8v16     c0,4.408-3.592,8-8,8h-48c-4.408,0-8-3.592-8-8h-16c0,13.232,10.768,24,24,24h16v16h16v-16h16c13.232,0,24-10.768,24-24v-16     c0-13.232-10.768-24-24-24h-48c-4.408,0-8-3.592-8-8v-16c0-4.408,3.592-8,8-8h48c4.408,0,8,3.592,8,8v8h16v-8     C304,226.768,293.232,216,280,216z"/>
		</g>
	</g>
</g>
<g>
</g>
<g>
</g>
<g>
</g>
<g>
</g>
<g>
</g>
<g>
</g>
<g>
</g>
<g>
</g>
<g>
</g>
<g>
</g>
<g>
</g>
<g>
</g>
<g>
</g>
<g>
</g>
<g>
</g>
</svg>
