<?xml version="1.0" encoding="iso-8859-1"?>
<!-- Generator: Adobe Illustrator 19.0.0, SVG Export Plug-In . SVG Version: 6.00 Build 0)  -->
<svg xmlns="http://www.w3.org/2000/svg" xmlns:xlink="http://www.w3.org/1999/xlink" version="1.1" id="Capa_1" x="0px" y="0px" viewBox="0 0 496 496" style="enable-background:new 0 0 496 496;" xml:space="preserve">
<g>
	<g>
		<g>
			<path d="M464,416V184c0-22.056-17.944-40-40-40h-34.824C366.816,87.848,312.024,48,248,48s-118.816,39.848-141.176,96H72     c-22.056,0-40,17.944-40,40v232H0v40c0,22.056,17.944,40,40,40h416c22.056,0,40-17.944,40-40v-40H464z M424,160     c13.232,0,24,10.768,24,24v232h-16V176h-34.088c-0.872-5.44-2-10.768-3.432-16H424z M256,64.408     C327.264,68.584,384,127.712,384,200s-56.736,131.416-128,135.592V64.408z M240,71.416v48.232c-12.712-0.96-24-4.08-33.656-8.176     C217.568,92.064,230.696,79,240,71.416z M206.528,288.4c9.6-4.04,20.816-7.104,33.472-8.048V328.4     C230.768,320.752,217.744,307.72,206.528,288.4z M221.368,333.344c-18.408-3.672-35.464-11.08-50.392-21.376     c4.256-4.184,11.344-10.328,21.048-16.168C201.432,312.224,212.088,324.52,221.368,333.344z M199.16,274.104     c-7.992-17.712-13.792-39.672-14.816-66.104H240v56.344C224.4,265.344,210.728,269.112,199.16,274.104z M184.336,192     c1.008-26.528,6.72-48.512,14.632-66.192c11.6,5.032,25.336,8.84,41.032,9.848V192H184.336z M221.368,66.656     c-9.264,8.816-19.912,21.096-29.304,37.488c-9.688-5.832-16.792-11.96-21.064-16.128C185.92,77.72,202.968,70.32,221.368,66.656z      M158.312,98.032c4.944,5.064,13.832,13.104,26.376,20.512c-8.896,19.624-15.312,44.008-16.344,73.456h-55.936     C114.592,154.624,131.872,121.312,158.312,98.032z M168.336,208c1.04,29.448,7.448,53.84,16.344,73.456     c-12.536,7.408-21.432,15.456-26.376,20.512c-26.44-23.28-43.72-56.592-45.904-93.968H168.336z M248,352     c83.816,0,152-68.184,152-152c0-2.704-0.264-5.336-0.408-8H416v224H288v16h16v8c0,4.416-3.584,8-8,8h-96c-4.416,0-8-3.584-8-8v-8     h80v-16H80V192h16.408c-0.144,2.664-0.408,5.296-0.408,8C96,283.816,164.184,352,248,352z M48,184c0-13.232,10.768-24,24-24     h29.52c-1.432,5.232-2.568,10.56-3.432,16H64v240H48V184z M480,456c0,13.232-10.768,24-24,24H40c-13.232,0-24-10.768-24-24v-24     h160v8c0,13.232,10.768,24,24,24h96c13.232,0,24-10.768,24-24v-8h160V456z"/>
			<path d="M368,232v-32c0-10.416-6.712-19.216-16-22.528V160c0-17.648-14.352-32-32-32s-32,14.352-32,32v17.472     c-9.288,3.312-16,12.112-16,22.528v32c0,13.232,10.768,24,24,24h48C357.232,256,368,245.232,368,232z M304,160     c0-8.824,7.176-16,16-16c8.824,0,16,7.176,16,16v16h-32V160z M352,232c0,4.416-3.584,8-8,8h-48c-4.416,0-8-3.584-8-8v-32     c0-4.416,3.584-8,8-8h48c4.416,0,8,3.584,8,8V232z"/>
			<rect x="96" y="448" width="16" height="16"/>
			<rect x="128" y="448" width="16" height="16"/>
			<path d="M128,384c8.816,0,16.808-3.584,22.6-9.368C180.248,391.192,213.832,400,248,400c53.552,0,103.856-20.888,141.664-58.824     l-11.328-11.296C343.552,364.784,297.264,384,248,384c-31.352,0-62.176-8.064-89.384-23.208c0.808-2.816,1.384-5.72,1.384-8.792     c0-17.648-14.352-32-32-32s-32,14.352-32,32S110.352,384,128,384z M128,336c8.824,0,16,7.176,16,16c0,8.824-7.176,16-16,16     c-8.824,0-16-7.176-16-16C112,343.176,119.176,336,128,336z"/>
			<path d="M248,16c31.352,0,62.176,8.064,89.384,23.208C336.576,42.024,336,44.928,336,48c0,17.648,14.352,32,32,32     s32-14.352,32-32s-14.352-32-32-32c-8.816,0-16.808,3.584-22.6,9.368C315.752,8.808,282.168,0,248,0     c-53.552,0-103.856,20.888-141.664,58.824l11.328,11.296C152.448,35.216,198.736,16,248,16z M368,32c8.824,0,16,7.176,16,16     s-7.176,16-16,16c-8.824,0-16-7.176-16-16S359.176,32,368,32z"/>
		</g>
	</g>
</g>
<g>
</g>
<g>
</g>
<g>
</g>
<g>
</g>
<g>
</g>
<g>
</g>
<g>
</g>
<g>
</g>
<g>
</g>
<g>
</g>
<g>
</g>
<g>
</g>
<g>
</g>
<g>
</g>
<g>
</g>
</svg>
