<?xml version="1.0" encoding="iso-8859-1"?>
<!-- Generator: Adobe Illustrator 19.0.0, SVG Export Plug-In . SVG Version: 6.00 Build 0)  -->
<svg xmlns="http://www.w3.org/2000/svg" xmlns:xlink="http://www.w3.org/1999/xlink" version="1.1" id="Capa_1" x="0px" y="0px" viewBox="0 0 496 496" style="enable-background:new 0 0 496 496;" xml:space="preserve">
<g>
	<g>
		<g>
			<path d="M472,208H296v-32.552c31.52-3.96,56-30.872,56-63.448s-24.48-59.488-56-63.448V0h-16v48.552     c-31.52,3.96-56,30.872-56,63.448s24.48,59.488,56,63.448V208h-80v-27.056l20.424,10.208l7.16-14.312L184,155.056V208H24     c-13.232,0-24,10.768-24,24v240c0,13.232,10.768,24,24,24h448c13.232,0,24-10.768,24-24V232C496,218.768,485.232,208,472,208z      M288,64c17.72,0,33.192,9.68,41.504,24h-83.008C254.808,73.68,270.28,64,288,64z M246.496,136H304v-16h-63.28     c-0.44-2.608-0.72-5.272-0.72-8c0-2.728,0.28-5.392,0.72-8h94.56c0.44,2.608,0.72,5.272,0.72,8c0,2.728-0.28,5.392-0.72,8H320v16     h9.504c-8.312,14.32-23.784,24-41.504,24C270.28,160,254.808,150.32,246.496,136z M16,232c0-4.416,3.584-8,8-8h160v16H16V232z      M16,256h168.64c1.792,12.448,7.656,23.592,16.248,32H16V256z M480,472c0,4.416-3.584,8-8,8H24c-4.416,0-8-3.584-8-8V304h464V472     z M480,240H216v16h264v32H240c-22.056,0-40-17.944-40-40v-24h272c4.416,0,8,3.584,8,8V240z"/>
			<path d="M344,464c11.496,0,22.6-3.592,31.96-10.136C385.048,460.232,396.088,464,408,464c30.872,0,56-25.128,56-56     s-25.128-56-56-56c-11.912,0-22.952,3.768-32.04,10.136C366.6,355.592,355.496,352,344,352c-30.872,0-56,25.128-56,56     S313.128,464,344,464z M408,368c22.056,0,40,17.944,40,40c0,22.056-17.944,40-40,40c-22.056,0-40-17.944-40-40     C368,385.944,385.944,368,408,368z M344,368c7.08,0,13.936,1.952,20,5.48c-7.488,9.528-12,21.496-12,34.52s4.512,24.992,12,34.52     c-6.064,3.528-12.928,5.48-20,5.48c-22.056,0-40-17.944-40-40C304,385.944,321.944,368,344,368z"/>
		</g>
	</g>
</g>
<g>
</g>
<g>
</g>
<g>
</g>
<g>
</g>
<g>
</g>
<g>
</g>
<g>
</g>
<g>
</g>
<g>
</g>
<g>
</g>
<g>
</g>
<g>
</g>
<g>
</g>
<g>
</g>
<g>
</g>
</svg>
