<?xml version="1.0" encoding="iso-8859-1"?>
<!-- Generator: Adobe Illustrator 19.0.0, SVG Export Plug-In . SVG Version: 6.00 Build 0)  -->
<svg xmlns="http://www.w3.org/2000/svg" xmlns:xlink="http://www.w3.org/1999/xlink" version="1.1" id="Capa_1" x="0px" y="0px" viewBox="0 0 496 496" style="enable-background:new 0 0 496 496;" xml:space="preserve">
<g>
	<g>
		<g>
			<path d="M288,336v56c0,30.872,25.12,56,56,56s56-25.128,56-56v-32h-16v32c0,22.056-17.944,40-40,40c-22.056,0-40-17.944-40-40     v-56H288z"/>
			<path d="M400,312c0-30.872-25.12-56-56-56s-56,25.128-56,56v8h16v-8c0-22.056,17.944-40,40-40c22.056,0,40,17.944,40,40v32h16     V312z"/>
			<path d="M344,224c-48.52,0-88,39.48-88,88v80c0,48.52,39.48,88,88,88c48.52,0,88-39.48,88-88v-16h-16v16     c0,39.704-32.304,72-72,72s-72-32.296-72-72v-80c0-39.704,32.304-72,72-72s72,32.296,72,72v48h16v-48     C432,263.48,392.52,224,344,224z"/>
			<path d="M320,384v8c0,13.232,10.768,24,24,24s24-10.768,24-24v-80c0-13.232-10.768-24-24-24s-24,10.768-24,24v56h16v-56     c0-4.416,3.592-8,8-8c4.408,0,8,3.584,8,8v80c0,4.416-3.592,8-8,8c-4.408,0-8-3.584-8-8v-8H320z"/>
			<path d="M496,0H0v288h226.416c-1.576,7.76-2.416,15.784-2.416,24v184h16V312c0-57.344,46.656-104,104-104s104,46.656,104,104v184     h16V312c0-8.216-0.84-16.24-2.416-24H496V0z M480,272h-23c-5.176-14.576-13.064-27.848-23.104-39.224     c6.992-8,15.576-14.496,25.304-18.744l4.8-2.096V76.064l-4.792-2.096c-16.68-7.296-29.888-20.496-37.176-37.168l-2.096-4.8H344     v16h65.64c8.448,16.536,21.824,29.912,38.36,38.36v115.28c-9.648,4.944-18.256,11.712-25.496,19.808     c-19.88-17.256-45.44-28.024-73.488-29.192c2.144-4.472,4-9.072,5.528-13.776l-15.208-4.952     c-2.2,6.752-5.304,13.176-8.952,19.304c-33.52,3.808-62.816,21.512-82.152,47.16c-0.072,0-0.152,0.008-0.232,0.008     c-52.936,0-96-43.064-96-96c0-52.936,43.064-96,96-96c52.936,0,96,43.064,96,96c0,4.952-0.384,9.92-1.144,14.768l15.816,2.472     c0.88-5.672,1.328-11.464,1.328-17.24c0-61.76-50.24-112-112-112S136,82.24,136,144c0,58.448,45.016,106.512,102.184,111.504     c-2.824,5.264-5.168,10.8-7.184,16.496H16V16h464V272z"/>
			<path d="M260,80h-4V64h-16v16h-4c-19.848,0-36,16.152-36,36c0,19.848,16.152,36,36,36h24c11.024,0,20,8.968,20,20     s-8.976,20-20,20h-24c-11.024,0-20-8.968-20-20v-4h-16v4c0,19.848,16.152,36,36,36h4v16h16v-16h4c19.848,0,36-16.152,36-36     c0-19.848-16.152-36-36-36h-24c-11.024,0-20-8.968-20-20s8.976-20,20-20h24c11.024,0,20,8.968,20,20v4h16v-4     C296,96.152,279.848,80,260,80z"/>
			<path d="M73.968,251.2l2.096,4.8H152v-16H86.36c-8.448-16.536-21.816-29.912-38.36-38.36V86.36     C64.544,77.912,77.912,64.536,86.36,48H152V32H76.064l-2.096,4.8c-7.296,16.672-20.496,29.872-37.176,37.168L32,76.064v135.872     l4.792,2.096C53.472,221.328,66.672,234.528,73.968,251.2z"/>
		</g>
	</g>
</g>
<g>
</g>
<g>
</g>
<g>
</g>
<g>
</g>
<g>
</g>
<g>
</g>
<g>
</g>
<g>
</g>
<g>
</g>
<g>
</g>
<g>
</g>
<g>
</g>
<g>
</g>
<g>
</g>
<g>
</g>
</svg>
