<?xml version="1.0" encoding="iso-8859-1"?>
<!-- Generator: Adobe Illustrator 19.0.0, SVG Export Plug-In . SVG Version: 6.00 Build 0)  -->
<svg xmlns="http://www.w3.org/2000/svg" xmlns:xlink="http://www.w3.org/1999/xlink" version="1.1" id="Capa_1" x="0px" y="0px" viewBox="0 0 496 496" style="enable-background:new 0 0 496 496;" xml:space="preserve">
<g>
	<g>
		<g>
			<path d="M184,400h128.648c13.232,0,24-10.768,24-24v-96.12c0-10.416-6.712-19.216-16-22.528v-9.04     c0-39.872-32.448-72.32-72.328-72.32S176,208.448,176,248.32v9.04c-9.288,3.312-16,12.112-16,22.528V376     C160,389.232,170.768,400,184,400z M192,248.32c0-31.056,25.264-56.32,56.328-56.32c31.056,0,56.328,25.264,56.328,56.32v7.56     h-16v-7.56c0-22.232-18.088-40.32-40.328-40.32S208,226.088,208,248.32v7.56h-16V248.32z M272.656,248.32v7.56h-0.008H224v-7.56     c0-13.416,10.912-24.32,24.328-24.32S272.656,234.904,272.656,248.32z M176,279.88c0-4.416,3.592-8,8-8h128.648     c4.408,0,8,3.584,8,8V376c0,4.416-3.592,8-8,8H184c-4.408,0-8-3.584-8-8V279.88z"/>
			<path d="M240.648,334.528V368h16v-33.472c9.288-3.312,16-12.112,16-22.528c0-13.232-10.768-24-24-24s-24,10.768-24,24     C224.648,322.416,231.36,331.216,240.648,334.528z M248.648,304c4.408,0,8,3.584,8,8c0,4.416-3.592,8-8,8c-4.408,0-8-3.584-8-8     C240.648,307.584,244.24,304,248.648,304z"/>
			<path d="M344,96H152c-22.056,0-40,17.944-40,40v320c0,22.056,17.944,40,40,40h192c22.056,0,40-17.944,40-40V136     C384,113.944,366.056,96,344,96z M368,456c0,13.232-10.768,24-24,24H152c-13.232,0-24-10.768-24-24v-24h240V456z M368,416H128     V160h240V416z M368,144H128v-8c0-13.232,10.768-24,24-24h192c13.232,0,24,10.768,24,24V144z"/>
			<rect x="216" y="448" width="64" height="16"/>
			<path d="M128,64c0-35.288-28.712-64-64-64S0,28.712,0,64c0,32.576,24.48,59.488,56,63.448V328c0,22.056,17.944,40,40,40v-16     c-13.232,0-24-10.768-24-24V127.448C103.52,123.488,128,96.576,128,64z M64,112c-26.472,0-48-21.528-48-48s21.528-48,48-48     s48,21.528,48,48S90.472,112,64,112z"/>
			<path d="M64,32c-17.648,0-32,14.352-32,32s14.352,32,32,32V80c-8.824,0-16-7.176-16-16s7.176-16,16-16c8.824,0,16,7.176,16,16h16     C96,46.352,81.648,32,64,32z"/>
			<path d="M432,0c-35.288,0-64,28.712-64,64c0,32.576,24.48,59.488,56,63.448V328c0,13.232-10.768,24-24,24v16     c22.056,0,40-17.944,40-40V127.448c31.52-3.96,56-30.872,56-63.448C496,28.712,467.288,0,432,0z M432,112     c-26.472,0-48-21.528-48-48s21.528-48,48-48s48,21.528,48,48S458.472,112,432,112z"/>
			<path d="M432,32v16c8.824,0,16,7.176,16,16s-7.176,16-16,16c-8.824,0-16-7.176-16-16h-16c0,17.648,14.352,32,32,32     s32-14.352,32-32S449.648,32,432,32z"/>
		</g>
	</g>
</g>
<g>
</g>
<g>
</g>
<g>
</g>
<g>
</g>
<g>
</g>
<g>
</g>
<g>
</g>
<g>
</g>
<g>
</g>
<g>
</g>
<g>
</g>
<g>
</g>
<g>
</g>
<g>
</g>
<g>
</g>
</svg>
