<?xml version="1.0" encoding="iso-8859-1"?>
<!-- Generator: Adobe Illustrator 19.0.0, SVG Export Plug-In . SVG Version: 6.00 Build 0)  -->
<svg xmlns="http://www.w3.org/2000/svg" xmlns:xlink="http://www.w3.org/1999/xlink" version="1.1" id="Capa_1" x="0px" y="0px" viewBox="0 0 496 496" style="enable-background:new 0 0 496 496;" xml:space="preserve">
<g>
	<g>
		<g>
			<rect x="200" y="448" width="96" height="16"/>
			<path d="M240,302.528V336h16v-33.472c9.288-3.312,16-12.112,16-22.528c0-13.232-10.768-24-24-24s-24,10.768-24,24     C224,290.416,230.712,299.216,240,302.528z M248,272c4.416,0,8,3.584,8,8c0,4.416-3.584,8-8,8c-4.416,0-8-3.584-8-8     C240,275.584,243.584,272,248,272z"/>
			<path d="M496,72V56c0-30.872-25.128-56-56-56s-56,25.128-56,56v16c0,21.728,12.696,41.248,32,50.44v27.12     c-19.304,9.2-32,28.712-32,50.44v16c0,6.752,1.184,13.272,3.496,19.48L376,245.624V56c0-22.056-17.944-40-40-40H160     c-22.056,0-40,17.944-40,40v189.624l-11.496-10.144c2.312-6.2,3.496-12.728,3.496-19.48v-16c0-21.728-12.696-41.24-32-50.44     v-27.12c19.304-9.192,32-28.712,32-50.44V56c0-30.872-25.128-56-56-56S0,25.128,0,56v16c0,21.728,12.696,41.248,32,50.44v27.12     C12.696,158.752,0,178.272,0,200v16c0,30.872,25.128,56,56,56c6.192,0,12.208-1.016,17.968-2.976l21.64,19.096     c-5.56,18.816-1.064,39.12,12.28,53.696l10.808,11.792c0.416,0.456,0.88,0.848,1.304,1.28V456c0,22.056,17.944,40,40,40h176     c22.056,0,40-17.944,40-40V354.896c0.424-0.44,0.888-0.832,1.304-1.28l10.808-11.808c13.344-14.568,17.84-34.872,12.28-53.688     l21.64-19.096c5.76,1.96,11.776,2.976,17.968,2.976c30.872,0,56-25.128,56-56v-16c0-21.728-12.696-41.248-32-50.44v-27.12     C483.304,113.248,496,93.728,496,72z M400,200c0-12.792,6.128-24.552,16-31.976V176c0,4.368,1.256,8.408,3.304,11.936     c-2.12,3.64-3.304,7.776-3.304,12.064v12.584c-2.728,1-5.344,2.456-7.648,4.488l-7.552,6.664c-0.496-2.528-0.8-5.104-0.8-7.736     V200z M136,56c0-13.232,10.768-24,24-24h176c13.232,0,24,10.768,24,24v24H136V56z M136,96h224v153.584     c-10.608-2.592-21.704-1.968-32,1.728V248c0-7.064-3.128-13.36-8-17.76v-30.128c0-39.704-32.296-72-72-72     c-39.704,0-72,32.296-72,72v30.128c-4.872,4.392-8,10.696-8,17.76v3.176c-10.312-3.616-21.408-4.136-32-1.48V96z M348.384,270     c-3.344,2.952-5.584,6.656-6.864,10.624c-4.752,1.064-9.064,3.504-12.424,7.176L328,289v-20.232     c8.16-4.368,17.424-5.728,26.328-4.016L348.384,270z M352.952,309.016c-0.096,0.12-0.128,0.272-0.232,0.384l-10.808,11.8     c-1.448,1.576-3.416,2.496-5.552,2.592c-1.976,0.008-4.168-0.648-5.752-2.096c-3.264-2.968-3.48-8.04-0.512-11.296l10.808-11.8     c0.416-0.456,0.96-0.728,1.456-1.072c0.976,2.248,2.2,4.416,3.904,6.344l0.008,0.008     C348.208,306.072,350.512,307.712,352.952,309.016z M247.68,160.12c-22.232,0-40.328,18.088-40.328,40.32V224H192v-23.88     c0-30.872,25.128-56,56-56s56,25.128,56,56V224h-16v-23.56C288,178.2,269.912,160.12,247.68,160.12z M272,200.44V224h-48.648     v-23.56c0-13.416,10.912-24.32,24.328-24.32C261.096,176.12,272,187.024,272,200.44z M304,240c4.416,0,8,3.584,8,8v95.88     c0,4.416-3.584,8-8,8H192c-4.416,0-8-3.584-8-8V248c0-4.416,3.584-8,8-8H304z M166.896,287.792     c-3.352-3.664-7.672-6.104-12.416-7.168c-1.28-3.968-3.512-7.672-6.856-10.624l-5.896-5.208     c8.864-1.784,18.112-0.496,26.272,3.776v20.424L166.896,287.792z M165.408,321.704c-1.576,1.448-3.768,2.08-5.752,2.096     c-2.144-0.096-4.112-1.016-5.552-2.584l-10.8-11.808c-0.104-0.112-0.136-0.264-0.232-0.384c2.424-1.312,4.728-2.952,6.664-5.144     c1.712-1.944,2.944-4.112,3.912-6.352c0.496,0.344,1.032,0.616,1.456,1.064l10.8,11.808     C168.88,313.656,168.664,318.728,165.408,321.704z M96,200v16c0,2.64-0.304,5.208-0.8,7.744l-7.552-6.664     c-2.304-2.04-4.92-3.496-7.648-4.496V200c0-4.288-1.184-8.424-3.304-12.064C78.744,184.408,80,180.368,80,176v-7.976     C89.872,175.448,96,187.208,96,200z M16,72V56c0-22.056,17.944-40,40-40c22.056,0,40,17.944,40,40v16     c0,12.792-6.128,24.552-16,31.976V96c0-4.4-1.272-8.48-3.352-12.024C78.744,80.352,80,76.272,80,72V56c0-13.232-10.768-24-24-24     S32,42.768,32,56v16c0,4.272,1.256,8.352,3.352,11.968C33.28,87.52,32,91.6,32,96v7.984C22.128,96.56,16,84.792,16,72z M56,184     c-4.416,0-8-3.584-8-8V96c0-4.416,3.584-8,8-8s8,3.584,8,8v80C64,180.416,60.416,184,56,184z M64,200v12.48     c-3.816,1.296-7.384,3.472-10.232,6.704c-0.896,1.008-1.616,2.112-2.304,3.216C49.416,220.952,48,218.688,48,216v-16     c0-0.48,0.216-0.912,0.296-1.384C50.728,199.448,53.288,200,56,200c2.72,0,5.296-0.552,7.736-1.392     C63.824,199.072,64,199.52,64,200z M63.704,73.384C61.272,72.552,58.712,72,56,72s-5.272,0.552-7.704,1.384     C48.216,72.912,48,72.48,48,72V56c0-4.416,3.584-8,8-8s8,3.584,8,8v16C64,72.48,63.784,72.912,63.704,73.384z M56,256     c-22.056,0-40-17.944-40-40v-16c0-12.792,6.128-24.552,16-31.976V176c0,4.4,1.28,8.48,3.352,12.032     C33.256,191.648,32,195.728,32,200v16c0,10.464,6.776,19.296,16.144,22.568c0.8,5.416,3.328,10.6,7.736,14.496l2.992,2.64     C57.904,255.768,56.976,256,56,256z M66.472,241.072c-3.304-2.92-3.624-7.992-0.712-11.296c1.424-1.6,3.376-2.56,5.504-2.696     c0.168-0.008,0.344-0.016,0.504-0.016c1.952,0,3.816,0.704,5.28,2.008L137.032,282c3.304,2.912,3.624,7.984,0.704,11.288     c-2.92,3.304-7.992,3.616-11.288,0.712L66.472,241.072z M130.488,342.8l-10.808-11.792c-7.728-8.448-11.304-19.608-10.272-30.704     l6.456,5.696c3.104,2.744,6.744,4.456,10.536,5.312c1.04,3.248,2.712,6.288,5.088,8.888l10.808,11.816     c4.328,4.728,10.24,7.488,16.648,7.768c0.36,0.016,0.72,0.024,1.08,0.024c2.76,0,5.44-0.52,7.976-1.424v5.496     c0,3.752,0.944,7.256,2.48,10.424C156.288,358.216,140.872,354.136,130.488,342.8z M360,456c0,13.232-10.768,24-24,24H160     c-13.232,0-24-10.768-24-24v-24h224V456z M360,416H136v-49.608c7.512,3.592,15.68,5.504,23.936,5.504     c8.096,0,16.24-1.896,23.912-5.528c2.56,0.928,5.28,1.52,8.152,1.52h112c2.872,0,5.592-0.592,8.152-1.52     c7.664,3.632,15.808,5.528,23.912,5.528c8.256-0.008,16.424-1.912,23.936-5.504V416z M376.312,331.008l-10.808,11.808     c-10.376,11.328-25.792,15.408-39.992,11.496c1.544-3.168,2.48-6.672,2.48-10.424v-5.496c2.536,0.896,5.216,1.424,7.976,1.424     c0.36,0,0.72-0.008,1.08-0.024c6.408-0.28,12.32-3.04,16.648-7.776l10.816-11.808c2.368-2.6,4.04-5.64,5.08-8.888     c3.784-0.856,7.432-2.576,10.544-5.312l6.448-5.696C387.624,311.4,384.048,322.56,376.312,331.008z M429.528,241.064L369.552,294     c-3.312,2.904-8.384,2.592-11.296-0.712c-2.92-3.304-2.6-8.376,0.712-11.288l59.976-52.936c1.6-1.408,3.568-2.088,5.792-1.984     c2.136,0.136,4.088,1.096,5.504,2.688C433.16,233.08,432.832,238.152,429.528,241.064z M440,88c4.416,0,8,3.584,8,8v80     c0,4.416-3.584,8-8,8c-4.416,0-8-3.584-8-8V96C432,91.584,435.584,88,440,88z M432,72V56c0-4.416,3.584-8,8-8     c4.416,0,8,3.584,8,8v16c0,0.48-0.216,0.912-0.296,1.384C445.272,72.552,442.712,72,440,72c-2.712,0-5.272,0.552-7.704,1.384     C432.216,72.912,432,72.48,432,72z M448,200v16c0,2.688-1.416,4.96-3.456,6.408c-0.696-1.112-1.416-2.216-2.312-3.224     c-2.848-3.232-6.416-5.408-10.224-6.704V200c0-0.48,0.176-0.928,0.264-1.392c2.432,0.84,5.008,1.392,7.728,1.392     c2.712,0,5.272-0.552,7.704-1.384C447.784,199.088,448,199.52,448,200z M480,200v16c0,22.056-17.944,40-40,40     c-0.976,0-1.912-0.232-2.872-0.296l3-2.648c4.408-3.888,6.936-9.072,7.736-14.488C457.224,235.296,464,226.464,464,216v-16     c0-4.272-1.256-8.352-3.352-11.968C462.72,184.48,464,180.4,464,176v-7.976C473.872,175.448,480,187.208,480,200z      M460.648,83.968C462.744,80.352,464,76.272,464,72V56c0-13.232-10.768-24-24-24s-24,10.768-24,24v16     c0,4.272,1.256,8.352,3.352,11.976C417.28,87.52,416,91.6,416,96v7.976c-9.872-7.424-16-19.184-16-31.976V56     c0-22.056,17.944-40,40-40c22.056,0,40,17.944,40,40v16c0,12.792-6.128,24.56-16,31.984V96C464,91.6,462.72,87.52,460.648,83.968     z"/>
		</g>
	</g>
</g>
<g>
</g>
<g>
</g>
<g>
</g>
<g>
</g>
<g>
</g>
<g>
</g>
<g>
</g>
<g>
</g>
<g>
</g>
<g>
</g>
<g>
</g>
<g>
</g>
<g>
</g>
<g>
</g>
<g>
</g>
</svg>
