<?xml version="1.0" encoding="iso-8859-1"?>
<!-- Generator: Adobe Illustrator 19.0.0, SVG Export Plug-In . SVG Version: 6.00 Build 0)  -->
<svg xmlns="http://www.w3.org/2000/svg" xmlns:xlink="http://www.w3.org/1999/xlink" version="1.1" id="Capa_1" x="0px" y="0px" viewBox="0 0 496 496" style="enable-background:new 0 0 496 496;" xml:space="preserve">
<g>
	<g>
		<g>
			<path d="M456,112H333.64l-2.8-27.984C328.784,63.488,311.672,48,291.04,48h-86.08c-20.632,0-37.744,15.488-39.808,36.016     L162.36,112H40c-22.056,0-40,17.944-40,40v256c0,22.056,17.944,40,40,40h88v32H96v16h304v-16h-32v-32h88     c22.056,0,40-17.944,40-40V152C496,129.944,478.056,112,456,112z M296,224v-16h-40v-55.36L285.192,176H304V80h-18.808L248,109.76     L210.808,80H192v96h18.808L240,152.64V208h-71.16l12.24-122.392C182.312,73.288,192.576,64,204.96,64h86.08     c12.384,0,22.648,9.288,23.88,21.608L327.16,208H312v16h40c4.416,0,8,3.584,8,8v16c0,4.416-3.584,8-8,8h-8H144     c-4.416,0-8-3.584-8-8v-16c0-4.416,3.584-8,8-8H296z M240,132.16l-32,25.6V98.24l32,25.6V128V132.16z M256,132.152V128v-4.16     l32-25.6v59.512L256,132.152z M448,272v80H256v-80h88h8H448z M144,272h64v64H48V160h109.56l-4.8,48H144     c-13.232,0-24,10.768-24,24v16C120,261.232,130.768,272,144,272z M352,480H144v-32h208V480z M480,408c0,13.232-10.768,24-24,24     H40c-13.232,0-24-10.768-24-24v-8h464V408z M480,384H16V152c0-13.232,10.768-24,24-24h120.76l-1.6,16H32v208h192v-80h16v96h224     V256h-89.472c0.896-2.512,1.472-5.184,1.472-8v-16c0-13.232-10.768-24-24-24h-8.76l-8-80H456c13.232,0,24,10.768,24,24V384z"/>
			<rect x="240" width="16" height="32"/>
			<rect x="130.173" y="50.17" transform="matrix(0.7071 0.7071 -0.7071 0.7071 83.9452 -86.3226)" width="32" height="16"/>
			<rect x="341.818" y="42.176" transform="matrix(0.7071 0.7071 -0.7071 0.7071 143.5959 -230.3197)" width="16" height="32"/>
			<rect x="64" y="176" width="16" height="16"/>
			<rect x="96" y="176" width="40" height="16"/>
			<rect x="64" y="208" width="40" height="16"/>
			<rect x="64" y="240" width="40" height="16"/>
			<rect x="64" y="272" width="56" height="16"/>
			<rect x="64" y="304" width="96" height="16"/>
			<rect x="176" y="304" width="16" height="16"/>
			<rect x="272" y="288" width="16" height="16"/>
			<rect x="304" y="288" width="128" height="16"/>
			<rect x="272" y="320" width="128" height="16"/>
			<rect x="416" y="320" width="16" height="16"/>
		</g>
	</g>
</g>
<g>
</g>
<g>
</g>
<g>
</g>
<g>
</g>
<g>
</g>
<g>
</g>
<g>
</g>
<g>
</g>
<g>
</g>
<g>
</g>
<g>
</g>
<g>
</g>
<g>
</g>
<g>
</g>
<g>
</g>
</svg>
