<?xml version="1.0" encoding="iso-8859-1"?>
<!-- Generator: Adobe Illustrator 19.0.0, SVG Export Plug-In . SVG Version: 6.00 Build 0)  -->
<svg xmlns="http://www.w3.org/2000/svg" xmlns:xlink="http://www.w3.org/1999/xlink" version="1.1" id="Capa_1" x="0px" y="0px" viewBox="0 0 496 496" style="enable-background:new 0 0 496 496;" xml:space="preserve">
<g>
	<g>
		<g>
			<path d="M352,15.986h-58.904C278.192,3.994,259-1.67,239.744,0.45c-13.784,1.536-26.456,7.152-36.832,15.536H144v43.36l-56,32     v204.64h64v176c0,13.232,10.768,24,24,24h144c13.232,0,24-10.768,24-24v-176h64V91.346l-56-32V15.986z M192.432,64.89     c3.104-25.304,23.744-45.712,49.088-48.536c2.2-0.248,4.384-0.368,6.552-0.368c13.816,0,26.848,4.944,37.248,14.24     C297.192,40.85,304,56.074,304,71.986c0,17.048-7.656,32.96-21.008,43.672L280,118.066v17.92h-8v-32h-16v32h-16v-32h-16v32h-8     v-17.92l-3-2.408C197.728,103.41,190.04,84.434,192.432,64.89z M160,31.986h28.248c-6.144,9.112-10.312,19.632-11.696,30.952     c-2.912,23.776,5.816,46.912,23.448,62.664v10.384c0,8.824,7.176,16,16,16h64c8.824,0,16-7.176,16-16v-10.384     c15.304-13.672,24-33,24-53.616c0-14.368-4.4-28.248-12.256-40H336v94.96l-88,55.584l-88-55.584V31.986z M257.88,195.21     l28.768,20.776h-77.296l28.768-20.776l9.88,6.24L257.88,195.21z M144,77.77v39.072L111.528,96.33L144,77.77z M152,279.986     h-31.264L152,257.41V279.986z M152.256,237.49L104,272.338v-161.84l119.544,75.504l-41.52,29.984H176     C163.624,215.986,153.52,225.442,152.256,237.49z M328,471.986c0,4.416-3.592,8-8,8H176c-4.408,0-8-3.584-8-8v-40h160V471.986z      M328,415.986H168v-136h160V415.986z M328,263.986H168v-24c0-4.416,3.592-8,8-8h144c4.408,0,8,3.584,8,8V263.986z M344,279.986     V257.41l31.264,22.576H344z M392,272.346l-48.256-34.856c-1.264-12.048-11.368-21.504-23.744-21.504h-6.024l-41.52-29.984     L392,110.506V272.346z M384.472,96.33L352,116.842V77.778L384.472,96.33z"/>
			<rect x="224" y="447.986" width="48" height="16"/>
			<path d="M48,87.986c-17.648,0-32,14.352-32,32c0,8.168,3.168,15.552,8.224,21.208C8.216,174.634,0,210.506,0,247.986     c0,35.112,7.192,69.048,21.368,100.856l14.616-6.512C22.72,312.578,16,280.834,16,247.986c0-34.312,7.352-67.168,21.688-97.856     c3.256,1.12,6.688,1.856,10.312,1.856c17.648,0,32-14.352,32-32S65.648,87.986,48,87.986z M48,135.986c-8.824,0-16-7.176-16-16     c0-8.824,7.176-16,16-16c8.824,0,16,7.176,16,16S56.824,135.986,48,135.986z"/>
			<path d="M496,193.586c0-35.112-7.192-69.048-21.368-100.856l-14.616,6.512C473.28,128.994,480,160.738,480,193.586     c0,34.296-7.352,67.16-21.688,97.856c-3.256-1.12-6.68-1.856-10.312-1.856c-17.648,0-32,14.352-32,32s14.352,32,32,32     s32-14.352,32-32c0-8.168-3.168-15.552-8.216-21.208C487.792,266.938,496,231.066,496,193.586z M448,337.586     c-8.824,0-16-7.176-16-16c0-8.824,7.176-16,16-16c8.824,0,16,7.176,16,16C464,330.41,456.824,337.586,448,337.586z"/>
			<path d="M240,59.986c0-11.032-8.976-20-20-20s-20,8.968-20,20s8.976,20,20,20S240,71.018,240,59.986z M216,59.986     c0-2.2,1.792-4,4-4s4,1.8,4,4s-1.792,4-4,4S216,62.186,216,59.986z"/>
			<path d="M276,79.986c11.024,0,20-8.968,20-20s-8.976-20-20-20s-20,8.968-20,20S264.976,79.986,276,79.986z M276,55.986     c2.208,0,4,1.8,4,4s-1.792,4-4,4s-4-1.8-4-4S273.792,55.986,276,55.986z"/>
			<rect x="184" y="383.986" width="16" height="16"/>
			<rect x="184" y="295.986" width="16" height="72"/>
		</g>
	</g>
</g>
<g>
</g>
<g>
</g>
<g>
</g>
<g>
</g>
<g>
</g>
<g>
</g>
<g>
</g>
<g>
</g>
<g>
</g>
<g>
</g>
<g>
</g>
<g>
</g>
<g>
</g>
<g>
</g>
<g>
</g>
</svg>
