<?xml version="1.0" encoding="iso-8859-1"?>
<!-- Generator: Adobe Illustrator 19.0.0, SVG Export Plug-In . SVG Version: 6.00 Build 0)  -->
<svg xmlns="http://www.w3.org/2000/svg" xmlns:xlink="http://www.w3.org/1999/xlink" version="1.1" id="Capa_1" x="0px" y="0px" viewBox="0 0 496 496" style="enable-background:new 0 0 496 496;" xml:space="preserve">
<g>
	<g>
		<g>
			<path d="M288,64c0-17.648-14.352-32-32-32s-32,14.352-32,32c0,9.6,4.336,18.128,11.056,24C228.336,93.872,224,102.4,224,112     c0,17.648,14.352,32,32,32s32-14.352,32-32c0-9.6-4.336-18.128-11.056-24C283.664,82.128,288,73.6,288,64z M256,128     c-8.824,0-16-7.176-16-16c0-8.824,7.176-16,16-16c8.824,0,16,7.176,16,16S264.824,128,256,128z M256,80c-8.824,0-16-7.176-16-16     s7.176-16,16-16c8.824,0,16,7.176,16,16S264.824,80,256,80z"/>
			<path d="M456,96H320V24c0-13.232-10.768-24-24-24H136c-13.232,0-24,10.768-24,24v29.12c-0.792-0.352-1.56-0.736-2.392-1.016     c-9.72-3.232-20.272-0.744-27.52,6.496l-7.936,7.936c-21.68,21.68-38.264,48.512-47.96,77.6C19.424,164.416,16,185.536,16,206.92     v88.096c0,19.144,2.12,38.248,6.072,56.984H0v144h120V352H96.344c1.616-21.168,9.576-41.6,22.896-58.24l4.6-5.76H240v168     c0,22.056,17.944,40,40,40h176c22.056,0,40-17.944,40-40V136C496,113.944,478.056,96,456,96z M320,192h128v64H320V192z      M128,80.168v-2.552V24c0-4.408,3.592-8,8-8h8v179.84c-0.288-0.08-0.544-0.224-0.832-0.296     c-5.128-1.272-10.368-0.944-15.168,0.64V80.168z M104,416H88v16h16v48H16v-48h56v-16H16v-16h88V416z M104,368v16H16v-16H104z      M106.744,283.768c-15.576,19.464-24.752,43.44-26.4,68.232H38.44c-4.2-18.696-6.44-37.824-6.44-56.984V206.92     c0-19.656,3.152-39.072,9.368-57.72c8.912-26.744,24.16-51.408,44.096-71.344L93.4,69.92c2.936-2.936,7.224-3.952,11.152-2.632     C109,68.768,112,72.92,112,77.624v2.552c0,2.864-1.168,5.68-3.192,7.704c-23.608,23.608-35.24,56.192-31.92,89.416L80.04,208.8     l5.704,23.072c-6.344,1.776-13.136,2.048-19.808,0.376l-3.88,15.52c22.416,5.608,46.08-3.544,58.896-22.768l6.144-9.208     c2.656-3.984,7.568-5.864,12.2-4.712c6.064,1.512,9.768,7.688,8.256,13.76c-1.912,7.656-5.384,14.664-10.312,20.824     L106.744,283.768z M112,108.56v101.016l-4.36,6.536c-2.064,3.104-4.576,5.784-7.336,8.112l-4.4-17.6l-3.088-30.92     C90.384,151.432,97.36,127.592,112,108.56z M192,272h-55.36l13.088-16.352c6.376-7.968,10.864-17.032,13.344-26.936     c1.768-7.088,0.672-14.44-3.08-20.696l-0.008-0.008H160V16h32V272z M208,272V16h88c4.408,0,8,3.592,8,8v240c0,4.408-3.592,8-8,8     H208z M480,456c0,13.232-10.768,24-24,24H280c-13.232,0-24-10.768-24-24v-24h224V456z M480,416H256V288h40     c10.416,0,19.216-6.712,22.528-16H464v-96H320v-16h160V416z M480,144H320v-32h136c13.232,0,24,10.768,24,24V144z"/>
			<rect x="328" y="448" width="80" height="16"/>
			<rect x="448" y="384" width="16" height="16"/>
			<rect x="272" y="384" width="160" height="16"/>
			<rect x="272" y="352" width="192" height="16"/>
			<rect x="272" y="320" width="192" height="16"/>
			<rect x="312" y="288" width="16" height="16"/>
			<rect x="344" y="288" width="120" height="16"/>
		</g>
	</g>
</g>
<g>
</g>
<g>
</g>
<g>
</g>
<g>
</g>
<g>
</g>
<g>
</g>
<g>
</g>
<g>
</g>
<g>
</g>
<g>
</g>
<g>
</g>
<g>
</g>
<g>
</g>
<g>
</g>
<g>
</g>
</svg>
