<?xml version="1.0" encoding="iso-8859-1"?>
<!-- Generator: Adobe Illustrator 19.0.0, SVG Export Plug-In . SVG Version: 6.00 Build 0)  -->
<svg xmlns="http://www.w3.org/2000/svg" xmlns:xlink="http://www.w3.org/1999/xlink" version="1.1" id="Capa_1" x="0px" y="0px" viewBox="0 0 496.008 496.008" style="enable-background:new 0 0 496.008 496.008;" xml:space="preserve">
<g>
	<g>
		<g>
			<path d="M456.008,0.004h-208c-22.056,0-40,17.944-40,40v164.4l-10.576-8.464c-1.776-1.424-3.76-2.456-5.832-3.312     c0.256-2.864,0.408-5.736,0.408-8.624c0-52.936-43.064-96-96-96c-52.936,0-96,43.064-96,96c0,15.704,3.84,30.92,11.064,44.632     c-3.92,2.872-6.984,6.928-8.6,11.776l-1.232,3.68c-2.88,8.68-0.664,18.088,5.808,24.56l27.656,27.656     c9.616,9.616,21.504,16.96,34.392,21.248l41.768,13.936c8.976,3,18.344,4.512,27.824,4.512h6.792     c-0.896,2.512-1.472,5.184-1.472,8v16c0,4.216,1.184,8.128,3.104,11.576c-25.048,8.688-43.104,32.456-43.104,60.424     c0,35.288,28.712,64,64,64c17.336,0,33.064-6.96,44.6-18.192c6.04,10.792,17.448,18.192,30.664,18.192h212.736     c22.056,0,40-17.944,40-40v-416C496.008,17.948,478.064,0.004,456.008,0.004z M96.008,104.004c44.112,0,80,35.888,80,80     c0,1.432-0.096,2.856-0.168,4.288l-0.672-0.168c-12.864-3.192-25.88,4.64-29.112,17.472l-1.376,5.536     c-2.464,9.816,1.544,20.176,9.968,25.792l0.688,0.456c-9,10.024-20.176,17.664-32.96,22.12l-30.384,3.04     c-7.192,0.712-14.248-1.808-19.36-6.912l-24.584-24.584c-4.536-4.544-10.56-7.04-16.968-7.04h-4.12     c-7.048-12.144-10.952-25.8-10.952-40C16.008,139.892,51.896,104.004,96.008,104.004z M168.008,480.004     c-26.472,0-48-21.528-48-48s21.528-48,48-48s48,21.528,48,48S194.48,480.004,168.008,480.004z M160.008,360.004v-16     c0-4.416,3.584-8,8-8s8,3.584,8,8v16c0,4.416-3.584,8-8,8S160.008,364.42,160.008,360.004z M190.536,336.004h17.472v46.12     c-5.656-4.544-12.112-8.12-19.104-10.544c1.92-3.448,3.104-7.36,3.104-11.576v-16     C192.008,341.188,191.432,338.516,190.536,336.004z M138.688,320.004c-7.76,0-15.424-1.24-22.776-3.688L74.136,302.38     C63.6,298.876,53.872,292.868,46,284.996L18.344,257.34c-2.16-2.16-2.896-5.296-1.936-8.184l1.224-3.672     c1.104-3.28,4.16-5.48,7.6-5.48h5.84c2.104,0,4.168,0.856,5.656,2.344l24.584,24.584c8.52,8.52,20.32,12.696,32.264,11.52     l62.6-6.256c1.928-0.192,3.84-0.528,5.712-1l22.8-5.704c0.672,3.392,0.656,6.952-0.224,10.44l-2.528,10.128l15.512,3.872     l2.528-10.128c4.096-16.352-2.584-33.624-16.616-42.976l-19.848-13.24c-2.808-1.872-4.144-5.328-3.32-8.6l1.376-5.528     c1.08-4.288,5.432-6.928,9.712-5.832l13.088,3.272c1.128,0.28,2.16,0.792,3.056,1.512l59.744,47.8     c12.728,10.192,28.696,15.792,44.984,15.792h9.552v41.76l-16.384,4.096c-5.712,1.416-11.592,2.144-17.472,2.144H138.688z      M160.504,255.052c2.96-2.688,5.8-5.536,8.424-8.616l5.568,3.712c0.488,0.32,0.904,0.712,1.36,1.064L160.504,255.052z      M480.008,456.004c0,13.232-10.768,24-24,24H243.272c-9.984,0-18.12-7.656-19.08-17.392c4.984-9.104,7.816-19.528,7.816-30.608     h248V456.004z M480.008,416.004H229.904c-1.36-5.256-3.32-10.272-5.896-14.912v-65.088h43.84c7.184,0,14.368-0.88,21.344-2.632     l12.504-3.128v21.76h146.312v32h16v-192h-16v32H301.704v32h-9.552c-12.664,0-25.088-4.36-34.976-12.272l-33.168-26.528v-153.2     h256V416.004z M432.008,304.004v-64h16v96h-16v-16h-16v16h-98.304v-96h98.304v64H432.008z M480.008,48.004h-256v-8     c0-13.232,10.768-24,24-24h208c13.232,0,24,10.768,24,24V48.004z"/>
			<path d="M365.704,256.004c-17.648,0-32,14.352-32,32s14.352,32,32,32s32-14.352,32-32S383.352,256.004,365.704,256.004z      M365.704,304.004c-8.824,0-16-7.176-16-16c0-8.824,7.176-16,16-16c8.824,0,16,7.176,16,16     C381.704,296.828,374.52,304.004,365.704,304.004z"/>
			<path d="M120.008,216.004h-48c-4.416,0-8-3.592-8-8h-16c0,13.232,10.768,24,24,24h16v16h16v-16h16c13.232,0,24-10.768,24-24v-8     c0-13.232-10.768-24-24-24h-48c-4.416,0-8-3.592-8-8v-8c0-4.416,3.584-8,8-8h48c4.416,0,8,3.592,8,8h16c0-13.232-10.768-24-24-24     h-16v-16h-16v16h-16c-13.232,0-24,10.768-24,24v8c0,13.232,10.768,24,24,24h48c4.416,0,8,3.592,8,8v8     C128.008,212.412,124.424,216.004,120.008,216.004z"/>
			<rect x="296.008" y="448.004" width="112" height="16"/>
			<path d="M168.008,400.004c-17.648,0-32,14.352-32,32s14.352,32,32,32s32-14.352,32-32S185.656,400.004,168.008,400.004z      M168.008,448.004c-8.824,0-16-7.176-16-16c0-8.824,7.176-16,16-16c8.824,0,16,7.176,16,16     C184.008,440.828,176.832,448.004,168.008,448.004z"/>
		</g>
	</g>
</g>
<g>
</g>
<g>
</g>
<g>
</g>
<g>
</g>
<g>
</g>
<g>
</g>
<g>
</g>
<g>
</g>
<g>
</g>
<g>
</g>
<g>
</g>
<g>
</g>
<g>
</g>
<g>
</g>
<g>
</g>
</svg>
