<?xml version="1.0" encoding="iso-8859-1"?>
<!-- Generator: Adobe Illustrator 19.0.0, SVG Export Plug-In . SVG Version: 6.00 Build 0)  -->
<svg xmlns="http://www.w3.org/2000/svg" xmlns:xlink="http://www.w3.org/1999/xlink" version="1.1" id="Capa_1" x="0px" y="0px" viewBox="0 0 496 496" style="enable-background:new 0 0 496 496;" xml:space="preserve">
<g>
	<g>
		<g>
			<path d="M456,192H296v-16.552c31.52-3.96,56-30.872,56-63.448s-24.48-59.488-56-63.448V0h-16v48.552     c-31.52,3.96-56,30.872-56,63.448s24.48,59.488,56,63.448V192H40c-22.056,0-40,17.944-40,40v224c0,22.056,17.944,40,40,40h416     c22.056,0,40-17.944,40-40V232C496,209.944,478.056,192,456,192z M288,64c17.72,0,33.192,9.68,41.504,24h-83.008     C254.808,73.68,270.28,64,288,64z M246.496,136H304v-16h-63.28c-0.44-2.608-0.72-5.272-0.72-8c0-2.728,0.28-5.392,0.72-8h94.56     c0.44,2.608,0.72,5.272,0.72,8c0,2.728-0.28,5.392-0.72,8H320v16h9.504c-8.312,14.32-23.784,24-41.504,24     C270.28,160,254.808,150.32,246.496,136z M328,384c0,24.232-10.184,47.352-27.896,64H248v-8c17.648,0,32-14.352,32-32     s-14.352-32-32-32h-16c-8.824,0-16-7.176-16-16c0-8.824,7.176-16,16-16h16c8.824,0,16,7.176,16,16v8h16v-8     c0-17.648-14.352-32-32-32v-16h-16v15.192c-12.832-2.616-23.408-11.424-28.576-23.128C214.584,298.936,226.944,296,240,296     C288.52,296,328,335.48,328,384z M200,400v8c0,17.648,14.352,32,32,32v8h-52.104C162.184,431.352,152,408.232,152,384     c0-29.728,14.864-56.016,37.504-71.952c4.744,9.92,12.304,18.216,21.656,23.864C204.384,341.784,200,350.344,200,360     c0,17.648,14.352,32,32,32h16c8.824,0,16,7.176,16,16c0,8.824-7.176,16-16,16h-16c-8.824,0-16-7.176-16-16v-8H200z M48,480h-8     c-13.232,0-24-10.768-24-24V232c0-13.232,10.768-24,24-24h8V480z M416,480H64V208h216v80c0,0.008,0,0.016,0,0.024     c-12.32-5.152-25.832-8.024-40-8.024c-14.168,0-27.68,2.872-40,8.024c0-0.008,0-0.016,0-0.024v-40h-16v40     c0,2.76,0.272,5.456,0.656,8.104C155.48,314.544,136,347.008,136,384c0,23.36,8.024,45.824,22.288,64H120v16h240v-16h-38.288     C335.976,429.824,344,407.36,344,384c0-37.008-19.488-69.472-48.688-87.912c0.392-2.672,0.688-5.36,0.688-8.088v-80h120V480z      M480,456c0,13.232-10.768,24-24,24h-24V208h24c13.232,0,24,10.768,24,24V456z"/>
			<rect x="448" y="304" width="16" height="80"/>
		</g>
	</g>
</g>
<g>
</g>
<g>
</g>
<g>
</g>
<g>
</g>
<g>
</g>
<g>
</g>
<g>
</g>
<g>
</g>
<g>
</g>
<g>
</g>
<g>
</g>
<g>
</g>
<g>
</g>
<g>
</g>
<g>
</g>
</svg>
