<?xml version="1.0" encoding="iso-8859-1"?>
<!-- Generator: Adobe Illustrator 19.0.0, SVG Export Plug-In . SVG Version: 6.00 Build 0)  -->
<svg xmlns="http://www.w3.org/2000/svg" xmlns:xlink="http://www.w3.org/1999/xlink" version="1.1" id="Capa_1" x="0px" y="0px" viewBox="0 0 496 496" style="enable-background:new 0 0 496 496;" xml:space="preserve">
<g>
	<g>
		<g>
			<path d="M456,128h-8V88c0-13.232-10.768-24-24-24h-8v-8c0-13.232-10.768-24-24-24H208v-8c0-13.232-10.768-24-24-24H72     C58.768,0,48,10.768,48,24v104h-8c-22.056,0-40,17.944-40,40v240c0,22.056,17.944,40,40,40h88v32H96v16h304v-16h-32v-32h88     c22.056,0,40-17.944,40-40V168C496,145.944,478.056,128,456,128z M208,48h184c4.416,0,8,3.592,8,8v8H208V48z M64,24     c0-4.408,3.584-8,8-8h112c4.416,0,8,3.592,8,8v56h232c4.416,0,8,3.592,8,8v192c0,4.416-3.584,8-8,8h-63     c4.448-12.536,7-25.96,7-40c0-66.168-53.832-120-120-120s-120,53.832-120,120c0,14.04,2.552,27.464,7,40H72c-4.416,0-8-3.584-8-8     V24z M352,248c0,57.344-46.656,104-104,104s-104-46.656-104-104s46.656-104,104-104S352,190.656,352,248z M352,480H144v-32h208     V480z M480,408c0,13.232-10.768,24-24,24H40c-13.232,0-24-10.768-24-24v-8h464V408z M480,384H16V168c0-13.232,10.768-24,24-24h8     v136c0,13.232,10.768,24,24,24h69.944c20.152,38.016,60.104,64,106.056,64c45.952,0,85.896-25.984,106.056-64H424     c13.232,0,24-10.768,24-24V144h8c13.232,0,24,10.768,24,24V384z"/>
			<path d="M248,192c-17.648,0-32,14.352-32,32c0,14.864,10.232,27.288,24,30.864V304h16v-49.136c13.768-3.576,24-16,24-30.864     C280,206.352,265.648,192,248,192z M248,240c-8.824,0-16-7.176-16-16c0-8.824,7.176-16,16-16c8.824,0,16,7.176,16,16     C264,232.824,256.824,240,248,240z"/>
			<path d="M255.208,176.36l1.576-15.92c-5.784-0.576-11.8-0.576-17.576,0l1.576,15.92     C245.536,175.896,250.464,175.896,255.208,176.36z"/>
			<path d="M212.008,185.648c2.104-1.216,4.24-2.304,6.416-3.288l-6.576-14.584c-2.656,1.2-5.28,2.536-7.84,4.016     c-2.56,1.48-5.024,3.08-7.384,4.776l9.312,13.008C207.864,188.184,209.888,186.864,212.008,185.648z"/>
			<path d="M171.784,204c-1.488,2.576-2.824,5.192-4.016,7.84l14.592,6.568c0.984-2.16,2.072-4.304,3.288-6.408     c1.208-2.104,2.52-4.12,3.912-6.048l-12.984-9.352C174.872,198.96,173.28,201.432,171.784,204z"/>
			<path d="M176,248c0-2.432,0.128-4.832,0.368-7.192l-15.92-1.608c-0.288,2.896-0.448,5.832-0.448,8.8s0.16,5.904,0.448,8.808     l15.92-1.608C176.128,252.832,176,250.432,176,248z"/>
			<path d="M182.368,277.584l-14.592,6.56c1.192,2.656,2.528,5.28,4.024,7.856c1.488,2.568,3.08,5.032,4.784,7.392l12.976-9.336     c-1.392-1.936-2.704-3.96-3.92-6.064C184.432,281.896,183.344,279.76,182.368,277.584z"/>
			<path d="M205.936,306.44l-9.344,12.984c2.36,1.704,4.824,3.296,7.392,4.784c2.584,1.488,5.208,2.824,7.864,4.016l6.56-14.592     c-2.168-0.976-4.312-2.064-6.408-3.272C209.896,309.144,207.872,307.832,205.936,306.44z"/>
			<path d="M240.808,319.632l-1.608,15.92c2.896,0.288,5.824,0.448,8.8,0.448s5.904-0.16,8.808-0.448l-1.608-15.92     C250.464,320.12,245.536,320.12,240.808,319.632z"/>
			<path d="M283.992,310.36c-2.096,1.208-4.232,2.296-6.408,3.272l6.56,14.592c2.656-1.192,5.28-2.528,7.856-4.024     c2.568-1.488,5.032-3.08,7.392-4.784l-9.344-12.984C288.12,307.832,286.096,309.144,283.992,310.36z"/>
			<path d="M310.36,284c-1.216,2.104-2.528,4.128-3.92,6.064l12.984,9.344c1.704-2.368,3.296-4.832,4.776-7.4     c1.496-2.576,2.832-5.2,4.024-7.856l-14.592-6.56C312.656,279.76,311.568,281.904,310.36,284z"/>
			<path d="M320,248c0,2.432-0.128,4.832-0.368,7.192l15.92,1.608c0.288-2.896,0.448-5.832,0.448-8.8     c0-2.968-0.16-5.904-0.448-8.808l-15.92,1.608C319.872,243.168,320,245.568,320,248z"/>
			<path d="M306.432,205.96c1.392,1.936,2.704,3.944,3.912,6.048c1.224,2.096,2.312,4.24,3.288,6.408l14.592-6.568     c-1.192-2.656-2.528-5.272-4.016-7.84c-1.496-2.576-3.088-5.04-4.792-7.4L306.432,205.96z"/>
			<path d="M290.072,189.568l9.312-13.008c-2.36-1.688-4.824-3.296-7.376-4.768c-2.568-1.488-5.192-2.824-7.848-4.016l-6.576,14.584     c2.168,0.984,4.312,2.064,6.424,3.288C286.112,186.864,288.136,188.184,290.072,189.568z"/>
		</g>
	</g>
</g>
<g>
</g>
<g>
</g>
<g>
</g>
<g>
</g>
<g>
</g>
<g>
</g>
<g>
</g>
<g>
</g>
<g>
</g>
<g>
</g>
<g>
</g>
<g>
</g>
<g>
</g>
<g>
</g>
<g>
</g>
</svg>
