<?xml version="1.0" encoding="iso-8859-1"?>
<!-- Generator: Adobe Illustrator 19.0.0, SVG Export Plug-In . SVG Version: 6.00 Build 0)  -->
<svg xmlns="http://www.w3.org/2000/svg" xmlns:xlink="http://www.w3.org/1999/xlink" version="1.1" id="Capa_1" x="0px" y="0px" viewBox="0 0 496 496" style="enable-background:new 0 0 496 496;" xml:space="preserve">
<g>
	<g>
		<g>
			<rect x="200" y="448" width="96" height="16"/>
			<path d="M432,272c-17.648,0-32,14.352-32,32s14.352,32,32,32s32-14.352,32-32S449.648,272,432,272z M432,320     c-8.824,0-16-7.176-16-16c0-8.824,7.176-16,16-16c8.824,0,16,7.176,16,16C448,312.824,440.824,320,432,320z"/>
			<path d="M400,208c-2.688,0-5.352,0.128-8,0.352V40c0-22.056-17.944-40-40-40H144c-22.056,0-40,17.944-40,40v40.408     C59.216,84.464,24,122.176,24,168v40c-13.232,0-24,10.768-24,24v144c0,13.232,10.768,24,24,24h80v56c0,22.056,17.944,40,40,40     h208c22.056,0,40-17.944,40-40v-56.352c2.648,0.224,5.312,0.352,8,0.352c52.936,0,96-43.064,96-96     C496,251.064,452.936,208,400,208z M120,40c0-13.232,10.768-24,24-24h208c13.232,0,24,10.768,24,24v8H120V40z M120,64h256     v147.136c-5.528,1.44-10.872,3.384-16,5.76V80H136v3.408c-5.16-1.464-10.496-2.504-16-3.008V64z M224,240v-8     c0-2.816-0.576-5.488-1.472-8H296v-16h-96v-16h128v-16H200v-8c0-2.704-0.168-5.36-0.408-8H216v-16h-19.408     c-1.584-5.584-3.704-10.928-6.304-16H328v-16H179.832c-5.04-6.088-10.912-11.448-17.384-16H344v130.2     c-5.592,4.032-10.76,8.656-15.384,13.8H224z M317.024,256c-2.936,5.056-5.48,10.376-7.472,16H224v-16H317.024z M40,168     c0-39.696,32.304-72,72-72s72,32.304,72,72v40h-16v-40c0-30.88-25.12-56-56-56s-56,25.12-56,56v40H40V168z M152,168v40H72v-40     c0-22.056,17.944-40,40-40C134.056,128,152,145.944,152,168z M24,384c-4.408,0-8-3.584-8-8V232c0-4.408,3.592-8,8-8h176     c4.408,0,8,3.592,8,8v40h-56.808c-3.72-18.232-19.872-32-39.192-32c-22.056,0-40,17.944-40,40c0,12.504,6.032,24.32,16,31.832     V368h48v-32h72v40c0,4.416-3.592,8-8,8H24z M134.528,272H89.48c3.312-9.288,12.112-16,22.528-16S131.216,262.712,134.528,272z      M104,352v-16h16v16H104z M376,456c0,13.232-10.768,24-24,24H144c-13.232,0-24-10.768-24-24v-24h256V456z M376,416H120v-16h80     c13.232,0,24-10.768,24-24v-40h85.552c10.712,30.28,36.024,52.92,66.448,60.864V416z M400,384     c-35.576,0-67.2-23.92-76.904-58.176L321.448,320H104v-17.04l-3.976-2.312c-5.056-2.944-8.584-7.456-10.464-12.648H208h16h97.448     l1.648-5.824C332.8,247.928,364.424,224,400,224c44.112,0,80,35.888,80,80S444.112,384,400,384z"/>
			<rect x="232" y="144" width="96" height="16"/>
			<rect x="312" y="208" width="16" height="16"/>
		</g>
	</g>
</g>
<g>
</g>
<g>
</g>
<g>
</g>
<g>
</g>
<g>
</g>
<g>
</g>
<g>
</g>
<g>
</g>
<g>
</g>
<g>
</g>
<g>
</g>
<g>
</g>
<g>
</g>
<g>
</g>
<g>
</g>
</svg>
