<?xml version="1.0" encoding="iso-8859-1"?>
<!-- Generator: Adobe Illustrator 19.0.0, SVG Export Plug-In . SVG Version: 6.00 Build 0)  -->
<svg xmlns="http://www.w3.org/2000/svg" xmlns:xlink="http://www.w3.org/1999/xlink" version="1.1" id="Capa_1" x="0px" y="0px" viewBox="0 0 496 496" style="enable-background:new 0 0 496 496;" xml:space="preserve">
<g>
	<g>
		<g>
			<rect x="120" y="448" width="112" height="16"/>
			<path d="M352,80V40c0-22.056-17.944-40-40-40H40C17.944,0,0,17.944,0,40v416c0,22.056,17.944,40,40,40h272     c22.056,0,40-17.944,40-40v-56h144V80H352z M16,40c0-13.232,10.768-24,24-24h272c13.232,0,24,10.768,24,24v8H16V40z M336,456     c0,13.232-10.768,24-24,24H40c-13.232,0-24-10.768-24-24v-24h320V456z M480,384H320v16h16v16H16V64h320v16H32v320h272v-16H48V160     h432V384z M480,144H48V96h432V144z"/>
			<rect x="64" y="112" width="16" height="16"/>
			<rect x="96" y="112" width="16" height="16"/>
			<rect x="128" y="112" width="16" height="16"/>
			<path d="M232,280c13.232,0,24-10.768,24-24s-10.768-24-24-24s-24,10.768-24,24S218.768,280,232,280z M232,248     c4.408,0,8,3.592,8,8c0,4.416-3.592,8-8,8s-8-3.584-8-8C224,251.592,227.592,248,232,248z"/>
			<path d="M296,280c13.232,0,24-10.768,24-24s-10.768-24-24-24s-24,10.768-24,24S282.768,280,296,280z M296,248     c4.408,0,8,3.592,8,8c0,4.416-3.592,8-8,8c-4.408,0-8-3.584-8-8C288,251.592,291.592,248,296,248z"/>
			<path d="M96,272h16v32h16v-32h48.44c2.096,23.376,13.248,44.68,31.56,59.776V368h112v-36.224     c18.312-15.096,29.464-36.4,31.56-59.776h17.16c3.824,22.664,23.536,40,47.28,40c26.472,0,48-21.528,48-48s-21.528-48-48-48     c-23.736,0-43.448,17.336-47.28,40h-17.128c-4.056-44.784-41.768-80-87.592-80c-45.824,0-83.536,35.216-87.592,80H80v48h16V272z      M416,232c17.648,0,32,14.352,32,32s-14.352,32-32,32s-32-14.352-32-32S398.352,232,416,232z M264,192c39.696,0,72,32.304,72,72     c0,22.768-10.496,43.728-28.808,57.504L304,323.896V352h-16v-32h-16v32h-16v-32h-16v32h-16v-28.104l-3.192-2.4     C202.496,307.728,192,286.768,192,264C192,224.304,224.304,192,264,192z"/>
		</g>
	</g>
</g>
<g>
</g>
<g>
</g>
<g>
</g>
<g>
</g>
<g>
</g>
<g>
</g>
<g>
</g>
<g>
</g>
<g>
</g>
<g>
</g>
<g>
</g>
<g>
</g>
<g>
</g>
<g>
</g>
<g>
</g>
</svg>
