<?xml version="1.0" encoding="iso-8859-1"?>
<!-- Generator: Adobe Illustrator 19.0.0, SVG Export Plug-In . SVG Version: 6.00 Build 0)  -->
<svg xmlns="http://www.w3.org/2000/svg" xmlns:xlink="http://www.w3.org/1999/xlink" version="1.1" id="Capa_1" x="0px" y="0px" viewBox="0 0 496 496" style="enable-background:new 0 0 496 496;" xml:space="preserve">
<g>
	<g>
		<g>
			<path d="M392,192h-72v-8c0-2.704-0.176-5.368-0.472-8H360c26.472,0,48-21.528,48-48c0-20.952-13.512-38.768-32.272-45.296     C373.048,54.304,349.088,32,320,32c-0.056,0-0.12,0.008-0.176,0.008C304.728,11.952,281.256,0,256,0     c-25.504,0-49.2,12.184-64.272,32.6c-2.536-0.352-5.104-0.6-7.728-0.6c-28.376,0-51.84,21.232-55.456,48.64     C105.608,84.24,88,104.072,88,128c0,26.472,21.528,48,48,48h40.472c-0.296,2.632-0.472,5.296-0.472,8v8h-72     c-22.056,0-40,17.944-40,40v176c0,22.056,17.944,40,40,40h48v32h-32v16h256v-16h-32v-32h48c22.056,0,40-17.944,40-40V232     C432,209.944,414.056,192,392,192z M136,160c-17.648,0-32-14.352-32-32s14.352-32,32-32s32,14.352,32,32h16     c0-23.488-16.96-43.048-39.272-47.168C148.12,62.2,164.4,48,184,48c22.056,0,40,17.944,40,40h16     c0-22.224-13.04-41.408-31.848-50.448C220.224,23.944,237.536,16,256,16c17.344,0,33.608,7.072,45.536,19.192     C279.712,42.848,264,63.6,264,88h16c0-22.056,17.944-40,40-40c19.328,0,35.496,13.784,39.192,32.04     C333.096,80.48,312,101.8,312,128h16c0-17.648,14.352-32,32-32s32,14.352,32,32s-14.352,32-32,32h-44.2     c-9.92-27.92-36.52-48-67.8-48s-57.88,20.08-67.8,48H136z M248,144c-22.056,0-40,17.944-40,40v24h-16v-24c0-30.88,25.12-56,56-56     s56,25.12,56,56v24h-16v-24C288,161.944,270.056,144,248,144z M272,184v24h-48v-24c0-13.232,10.768-24,24-24S272,170.768,272,184     z M184,224h128c4.408,0,8,3.592,8,8v96c0,4.416-3.592,8-8,8H184c-4.408,0-8-3.584-8-8v-96C176,227.592,179.592,224,184,224z      M328,480H168v-32h160V480z M416,408c0,13.232-10.768,24-24,24H104c-13.232,0-24-10.768-24-24v-8h336V408z M416,384H80V232     c0-13.232,10.768-24,24-24h72v1.472c-9.288,3.312-16,12.112-16,22.528v96c0,13.232,10.768,24,24,24h128c13.232,0,24-10.768,24-24     v-96c0-10.416-6.712-19.216-16-22.528V208h72c13.232,0,24,10.768,24,24V384z"/>
			<path d="M240,286.528V320h16v-33.472c9.288-3.312,16-12.112,16-22.528c0-13.232-10.768-24-24-24s-24,10.768-24,24     C224,274.416,230.712,283.216,240,286.528z M248,256c4.408,0,8,3.584,8,8c0,4.416-3.592,8-8,8c-4.408,0-8-3.584-8-8     C240,259.584,243.592,256,248,256z"/>
			<path d="M480.392,161.432C485.048,157.048,488,150.88,488,144c0-13.232-10.768-24-24-24s-24,10.768-24,24s10.768,24,24,24     c0.584,0,1.136-0.128,1.712-0.176C475.152,193.44,480,220.368,480,248c0,29.448-5.44,58.136-16.168,85.264l14.88,5.888     C490.184,310.144,496,279.472,496,248C496,218.16,490.712,189.08,480.392,161.432z M464,152c-4.408,0-8-3.592-8-8s3.592-8,8-8     c4.408,0,8,3.592,8,8S468.408,152,464,152z"/>
			<path d="M32,328c-0.6,0-1.168,0.136-1.76,0.176C20.8,302.568,16,275.648,16,248c0-29.92,5.616-59.04,16.68-86.56l-14.84-5.968     C6,184.888,0,216.024,0,248c0,29.872,5.256,58.944,15.576,86.592C10.936,338.968,8,345.136,8,352c0,13.232,10.768,24,24,24     s24-10.768,24-24S45.232,328,32,328z M32,360c-4.408,0-8-3.584-8-8c0-4.416,3.592-8,8-8s8,3.584,8,8     C40,356.416,36.408,360,32,360z"/>
			<rect x="352" y="256" width="16" height="16"/>
			<rect x="352" y="288" width="16" height="16"/>
			<rect x="352" y="320" width="16" height="16"/>
			<rect x="128" y="256" width="16" height="16"/>
			<rect x="128" y="288" width="16" height="16"/>
			<rect x="128" y="320" width="16" height="16"/>
		</g>
	</g>
</g>
<g>
</g>
<g>
</g>
<g>
</g>
<g>
</g>
<g>
</g>
<g>
</g>
<g>
</g>
<g>
</g>
<g>
</g>
<g>
</g>
<g>
</g>
<g>
</g>
<g>
</g>
<g>
</g>
<g>
</g>
</svg>
