<?xml version="1.0" encoding="iso-8859-1"?>
<!-- Generator: Adobe Illustrator 19.0.0, SVG Export Plug-In . SVG Version: 6.00 Build 0)  -->
<svg xmlns="http://www.w3.org/2000/svg" xmlns:xlink="http://www.w3.org/1999/xlink" version="1.1" id="Capa_1" x="0px" y="0px" viewBox="0 0 496 496" style="enable-background:new 0 0 496 496;" xml:space="preserve">
<g>
	<g>
		<g>
			<path d="M311.28,216h-8.752c-2.416-6.776-7.752-12.112-14.528-14.528V200c0-13.016-6.344-24.488-16-31.792v-9.144     c0-10.344,6.592-19.496,16.416-22.768l2.12-0.704l-5.064-15.176l-2.12,0.704C266.992,126.568,256,141.824,256,159.064v1.744     c-2.584-0.528-5.264-0.808-8-0.808c-2.736,0-5.416,0.28-8,0.808v-1.744c0-17.24-10.992-32.496-27.352-37.944l-2.12-0.704     l-5.064,15.176l2.12,0.704C217.408,139.568,224,148.72,224,159.064v9.144c-9.656,7.312-16,18.784-16,31.792v1.472     c-6.776,2.416-12.112,7.752-14.528,14.528h-8.752c-18.296,0-34.752,10.168-42.928,26.536l-4.944,9.888l14.312,7.16l4.944-9.888     C161.552,238.776,172.512,232,184.72,232H192v24h-7.28c-18.296,0-34.752,10.168-42.928,26.536l-4.944,9.888l14.312,7.16     l4.944-9.888C161.552,278.776,172.512,272,184.72,272H192v24h-7.28c-18.296,0-34.752,10.168-42.928,26.536l-4.944,9.888     l14.312,7.16l4.944-9.888C161.552,318.776,172.512,312,184.72,312H192v16c0,17.648,14.352,32,32,32h4l20-26.664L268,360h4     c17.648,0,32-14.352,32-32v-16h7.28c12.2,0,23.168,6.776,28.616,17.688l4.944,9.888l14.312-7.16l-4.944-9.88     C346.032,306.168,329.576,296,311.28,296H304v-24h7.28c12.2,0,23.168,6.776,28.616,17.688l4.944,9.888l14.312-7.16l-4.944-9.88     C346.032,266.168,329.576,256,311.28,256H304v-24h7.28c12.2,0,23.168,6.776,28.616,17.688l4.944,9.888l14.312-7.16l-4.944-9.88     C346.032,226.168,329.576,216,311.28,216z M248,176c13.232,0,24,10.768,24,24h-16h-8h-24C224,186.768,234.768,176,248,176z      M288,328c0,7.552-5.264,13.904-12.32,15.576L256,317.336V248h-16v69.336l-19.68,26.24C213.264,341.904,208,335.552,208,328V224     c0-4.408,3.584-8,8-8h24v16h16v-16h24c4.416,0,8,3.592,8,8V328z"/>
			<path d="M496,280c0-16.896-13.208-30.64-29.824-31.784l-12.624-67.336C464.416,175.76,472,164.784,472,152     c0-13.688-8.68-25.304-20.792-29.864l3.816-26.704C478.168,92.008,496,72.08,496,48c0-26.472-21.528-48-48-48s-48,21.528-48,48     c0,8.248,2.096,16.008,5.768,22.792l-24.264,18.92L332.416,46.4C334.632,42.056,336,37.208,336,32c0-17.648-14.352-32-32-32     c-16.68,0-30.256,12.872-31.712,29.176l-57.792,9.632C210.512,25.664,198.432,16,184,16c-14.872,0-27.288,10.24-30.864,24H95.28     C91.448,17.336,71.736,0,48,0C21.528,0,0,21.528,0,48c0,23.048,16.328,42.336,38.024,46.944l-20.52,82.064     C7.44,179.856,0,189.032,0,200c0,10.392,6.672,19.176,15.928,22.504l25.608,89.984C18.128,315.656,0,335.728,0,360     c0,26.472,21.528,48,48,48c8.792,0,17.016-2.416,24.112-6.56l24.776,29.736C91.416,438.016,88,446.576,88,456     c0,22.056,17.944,40,40,40c19.456,0,35.672-13.984,39.232-32.416l122.032-7.176C292.984,469.96,305.28,480,320,480     c14.872,0,27.288-10.24,30.864-24h49.856c3.824,22.664,23.536,40,47.28,40c26.472,0,48-21.528,48-48     c0-22.16-15.112-40.8-35.552-46.304l8.584-90.2C484.28,309.056,496,295.92,496,280z M456,152c0,8.824-7.176,16-16,16     c-8.824,0-16-7.176-16-16c0-8.824,7.176-16,16-16C448.824,136,456,143.176,456,152z M448,16c17.648,0,32,14.352,32,32     s-14.352,32-32,32s-32-14.352-32-32S430.352,16,448,16z M415.664,83.368c6.408,5.864,14.376,10.032,23.24,11.736l-3.624,25.376     c-4.824,0.72-9.336,2.408-13.208,5.032l-28.36-25.024L415.664,83.368z M411.576,137.608C409.368,141.952,408,146.792,408,152     c0,16.896,13.208,30.64,29.824,31.776l12.624,67.344c-8.056,3.8-14.184,10.832-16.864,19.44l-26.552-5.312     C407.648,259.576,408,253.832,408,248c0-46.688-20.224-88.64-52.232-117.912l25.104-19.576L411.576,137.608z M392,248     c0,79.4-64.6,144-144,144s-144-64.6-144-144s64.6-144,144-144S392,168.6,392,248z M304,16c8.824,0,16,7.176,16,16     s-7.176,16-16,16c-8.824,0-16-7.176-16-16S295.176,16,304,16z M215.2,54.912l59.6-9.936C279.8,56.16,290.976,64,304,64     c6.64,0,12.808-2.04,17.928-5.512l46.736,41.24l-25.536,19.92C316.496,99.864,283.648,88,248,88     c-22.448,0-43.8,4.688-63.208,13.072l2.944-21.448C201.304,78.016,212.296,68.032,215.2,54.912z M184,32c8.824,0,16,7.176,16,16     s-7.176,16-16,16c-8.824,0-16-7.176-16-16S175.176,32,184,32z M95.28,56.008h57.856c2.544,9.776,9.512,17.776,18.728,21.568     l-4.448,32.432c-15.872,9.304-30.048,21.176-41.832,35.184L82.512,81.288C89.08,74.472,93.632,65.736,95.28,56.008z M16,48     c0-17.648,14.352-32,32-32s32,14.352,32,32S65.648,80,48,80S16,65.648,16,48z M54.36,95.528     c5.432-0.72,10.568-2.352,15.264-4.736l45.72,67.84c-12.592,18.632-21.184,40.112-25.008,63.176l-42.552-19.64     C47.848,201.44,48,200.744,48,200c0-9.768-5.888-18.16-14.28-21.904L54.36,95.528z M24,208c-4.416,0-8-3.592-8-8s3.584-8,8-8     s8,3.592,8,8S28.416,208,24,208z M48,392c-17.648,0-32-14.352-32-32s14.352-32,32-32s32,14.352,32,32S65.648,392,48,392z      M58.376,313.16l-25.84-90.8c3.28-1.256,6.224-3.168,8.632-5.632l47.32,21.84C88.296,241.704,88,244.816,88,248     c0,21.648,4.368,42.288,12.2,61.136l-19.864,15.488C74.24,319.048,66.72,315.008,58.376,313.16z M84.416,391.192     C91.616,382.792,96,371.912,96,360c0-8.248-2.096-16.008-5.768-22.792l16.992-13.248c7.016,12.952,15.824,24.768,25.992,35.256     l-7.832,57.048c-5.848,0.384-11.304,2.016-16.2,4.656L84.416,391.192z M128,480c-13.232,0-24-10.768-24-24s10.768-24,24-24     s24,10.768,24,24S141.232,480,128,480z M289.016,440.408l-121.944,7.176c-2.944-13.648-12.888-24.584-25.848-29.16l6.328-46.056     C175.04,394.608,209.968,408,248,408c11.336,0,22.384-1.224,33.056-3.472l15.08,22.376     C292.76,430.72,290.272,435.304,289.016,440.408z M320,464c-8.824,0-16-7.176-16-16c0-8.824,7.176-16,16-16     c8.824,0,16,7.176,16,16C336,456.824,328.824,464,320,464z M400.72,440h-49.856c-3.576-13.76-15.992-24-30.864-24     c-3.736,0-7.272,0.768-10.608,1.944l-12.016-17.832c23.352-7.6,44.328-20.44,61.608-37.12l50,57.144     C404.832,425.936,401.952,432.68,400.72,440z M370.008,351.272c16.84-19.864,28.952-43.824,34.52-70.216l28.208,5.64     c2.32,10.816,10.152,19.528,20.376,23.264l-8.584,90.208c-8.96,0.656-17.24,3.752-24.168,8.656L370.008,351.272z M480,448     c0,17.648-14.352,32-32,32s-32-14.352-32-32s14.352-32,32-32S480,430.352,480,448z M448,280c0-8.824,7.176-16,16-16     c8.824,0,16,7.176,16,16c0,8.824-7.176,16-16,16C455.176,296,448,288.824,448,280z"/>
		</g>
	</g>
</g>
<g>
</g>
<g>
</g>
<g>
</g>
<g>
</g>
<g>
</g>
<g>
</g>
<g>
</g>
<g>
</g>
<g>
</g>
<g>
</g>
<g>
</g>
<g>
</g>
<g>
</g>
<g>
</g>
<g>
</g>
</svg>
