<?xml version="1.0" encoding="iso-8859-1"?>
<!-- Generator: Adobe Illustrator 19.0.0, SVG Export Plug-In . SVG Version: 6.00 Build 0)  -->
<svg xmlns="http://www.w3.org/2000/svg" xmlns:xlink="http://www.w3.org/1999/xlink" version="1.1" id="Capa_1" x="0px" y="0px" viewBox="0 0 501.504 501.504" style="enable-background:new 0 0 501.504 501.504;" xml:space="preserve">
<g>
	<g>
		<path d="M473.088,404.016c-9.84-32.768-32.2-60.864-61.632-78.136c14.872-20.848,23.296-46.096,23.296-72.632v-66.496    c0-101.456-82.536-184-184-184s-184,82.544-184,184v66.496c0,26.536,8.424,51.784,23.296,72.624    c-29.432,17.28-51.8,45.376-61.632,78.144L0,498.752h250.752h250.752L473.088,404.016z M361.912,349.008L260.96,404.072    c6.368-21.752,25.808-42.784,47.72-66.456c34.992-37.816,77.672-84.144,84.896-154.136c15.904,19.256,25.176,43.928,25.176,69.768    C418.752,293.192,396.968,329.888,361.912,349.008z M298.752,146.752h-96c-13.232,0-24,10.768-24,24v127.216    c-28.704-33.832-54.096-73.736-55.792-129.384c6.144-5.008,12.848-9.384,20.088-12.936c33.664-16.52,69.896-24.896,107.704-24.896    s74.04,8.376,107.704,24.896c7.24,3.552,13.944,7.928,20.088,12.936c-1.696,55.648-27.088,95.552-55.792,129.384V170.752    C322.752,157.52,311.984,146.752,298.752,146.752z M194.752,178.752v-8c0-4.408,3.584-8,8-8h96c4.416,0,8,3.592,8,8v8H194.752z     M306.752,194.752v88h-112v-88H306.752z M194.752,298.752h112v8c0,4.408-3.584,8-8,8h-96c-4.416,0-8-3.592-8-8V298.752z     M293.232,330.752c-2.336,2.528-4.656,5.048-6.92,7.536c-11.24,5.432-23.816,8.464-35.56,8.464    c-11.744,0-24.32-3.032-35.568-8.464c-2.264-2.488-4.576-5-6.92-7.536H293.232z M250.752,362.752    c5.256,0,10.648-0.656,16.04-1.608c-6.456,8.312-11.928,16.616-16.04,25.12c-4.112-8.504-9.584-16.808-16.04-25.12    C240.104,362.096,245.496,362.752,250.752,362.752z M82.752,186.752c0-92.64,75.368-168,168-168s168,75.36,168,168v5.472    c-12.096-21.696-30.464-39.752-53.248-50.936c-35.88-17.608-74.488-26.536-114.752-26.536c-40.264,0-78.872,8.928-114.752,26.536    c-22.792,11.184-41.152,29.24-53.248,50.936V186.752z M82.752,253.248c0-25.84,9.272-50.512,25.176-69.768    c7.224,69.992,49.904,116.32,84.896,154.136c21.912,23.672,41.352,44.704,47.72,66.456l-100.952-55.064    C104.536,329.888,82.752,293.192,82.752,253.248z M386.712,409.952l-15.92,1.592l7.12,71.2h-127.16H123.593l7.119-71.192    l-15.92-1.592l-7.28,72.8H21.504l22.24-74.136c8.912-29.704,29.472-55.104,56.52-70.216c9.04,9.72,19.656,18.104,31.68,24.656    l62.808,34.256v69.432h16v-60.704l40,21.816l40-21.816v60.704h16V397.32l62.816-34.264c12.024-6.56,22.648-14.944,31.68-24.664    c27.04,15.112,47.6,40.512,56.512,70.216L480,482.752h-86.008L386.712,409.952z"/>
	</g>
</g>
<g>
</g>
<g>
</g>
<g>
</g>
<g>
</g>
<g>
</g>
<g>
</g>
<g>
</g>
<g>
</g>
<g>
</g>
<g>
</g>
<g>
</g>
<g>
</g>
<g>
</g>
<g>
</g>
<g>
</g>
</svg>
