<?xml version="1.0" encoding="iso-8859-1"?>
<!-- Generator: Adobe Illustrator 19.0.0, SVG Export Plug-In . SVG Version: 6.00 Build 0)  -->
<svg xmlns="http://www.w3.org/2000/svg" xmlns:xlink="http://www.w3.org/1999/xlink" version="1.1" id="Capa_1" x="0px" y="0px" viewBox="0 0 496 496" style="enable-background:new 0 0 496 496;" xml:space="preserve">
<g>
	<g>
		<g>
			<path d="M332.848,181.896l-25.752,25.752c-8.576-4.88-17.656-8.656-27.104-11.264V160h-64v36.384     c-9.448,2.616-18.52,6.384-27.104,11.264l-25.752-25.752l-45.256,45.256l25.76,25.752c-4.88,8.584-8.656,17.656-11.264,27.096H96     v64h36.384c2.608,9.44,6.384,18.512,11.264,27.096l-25.76,25.752l45.256,45.256l25.752-25.752     c8.576,4.88,17.656,8.656,27.104,11.264V464h64v-36.384c9.448-2.616,18.52-6.384,27.104-11.264l25.752,25.752l45.256-45.256     l-25.76-25.752c4.872-8.576,8.648-17.648,11.264-27.096H400v-64h-36.384c-2.616-9.448-6.392-18.52-11.264-27.096l25.76-25.752     L332.848,181.896z M335.528,256c6.68,10.408,11.392,21.752,14.016,33.712L350.92,296H384v32h-33.08l-1.376,6.288     c-2.624,11.96-7.336,23.304-14.016,33.712l-3.48,5.424l23.432,23.424l-22.632,22.632l-23.424-23.424l-5.424,3.48     c-10.416,6.68-21.76,11.4-33.72,14.008L264,414.92V448h-32v-33.08l-6.288-1.376c-11.96-2.616-23.304-7.328-33.72-14.008     l-5.424-3.48l-23.424,23.424l-22.632-22.632l23.432-23.424L160.472,368c-6.688-10.424-11.408-21.768-14.016-33.712L145.088,328     H112v-32h33.088l1.368-6.296c2.608-11.944,7.328-23.288,14.016-33.712l3.48-5.424l-23.432-23.424l22.632-22.632l23.424,23.424     l5.424-3.48c10.416-6.68,21.76-11.4,33.72-14.008l6.28-1.368V176h32v33.08l6.288,1.376c11.96,2.616,23.304,7.328,33.72,14.008     l5.424,3.48l23.424-23.424l22.632,22.632l-23.432,23.424L335.528,256z"/>
			<path d="M296,297.472V280c0-26.472-21.528-48-48-48s-48,21.528-48,48v17.472c-9.288,3.312-16,12.112-16,22.528v48     c0,13.232,10.768,24,24,24h80c13.232,0,24-10.768,24-24v-48C312,309.584,305.288,300.784,296,297.472z M216,280     c0-17.648,14.352-32,32-32s32,14.352,32,32v16h-64V280z M296,368c0,4.408-3.584,8-8,8h-80c-4.416,0-8-3.592-8-8v-48     c0-4.408,3.584-8,8-8h80c4.416,0,8,3.592,8,8V368z"/>
			<path d="M496,184c0-48.52-39.48-88-88-88c-3.512,0-6.984,0.208-10.408,0.6C386.576,41.128,337.184,0,280,0     c-40.248,0-77.936,20.44-100.056,53.776C171.264,50.128,161.856,48,152,48c-31.352,0-58.008,20.176-67.872,48.2     C37.408,98.24,0,136.784,0,184c0,41.904,29,77.12,68.928,85.864C65.736,283.408,64,297.504,64,312c0,101.456,82.536,184,184,184     s184-82.544,184-184c0-14.496-1.736-28.592-4.928-42.136C467,261.12,496,225.904,496,184z M248,480c-92.632,0-168-75.36-168-168     s75.368-168,168-168s168,75.36,168,168S340.632,480,248,480z M422.736,254.472C398.528,181.112,329.368,128,248,128     S97.472,181.112,73.264,254.472C40.136,247.648,16,218.6,16,184c0-37.136,28.264-67.784,64.408-71.592     C80.144,114.904,80,117.432,80,120c0,16.312,5.608,32.296,15.8,45l12.488-10C100.248,144.976,96,132.864,96,120     c0-30.88,25.128-56,56-56c22.936,0,43.32,13.736,51.928,34.992l14.832-6.008c-5.248-12.968-13.984-23.648-24.784-31.408     C213.248,33.296,245.528,16,280,16c49.672,0,92.552,35.792,101.968,84.024c-17.48,5.368-32.984,16.016-44.368,31.168l12.8,9.608     c13.744-18.304,34.744-28.8,57.6-28.8c39.704,0,72,32.304,72,72C480,218.6,455.864,247.648,422.736,254.472z"/>
		</g>
	</g>
</g>
<g>
</g>
<g>
</g>
<g>
</g>
<g>
</g>
<g>
</g>
<g>
</g>
<g>
</g>
<g>
</g>
<g>
</g>
<g>
</g>
<g>
</g>
<g>
</g>
<g>
</g>
<g>
</g>
<g>
</g>
</svg>
