<?xml version="1.0" encoding="iso-8859-1"?>
<!-- Generator: Adobe Illustrator 19.0.0, SVG Export Plug-In . SVG Version: 6.00 Build 0)  -->
<svg xmlns="http://www.w3.org/2000/svg" xmlns:xlink="http://www.w3.org/1999/xlink" version="1.1" id="Capa_1" x="0px" y="0px" viewBox="0 0 496 496" style="enable-background:new 0 0 496 496;" xml:space="preserve">
<g>
	<g>
		<g>
			<path d="M464,64V32h-32V0H0v336h32v32h32v32h64.44c27.032,56.656,84.712,96,151.56,96s124.528-39.344,151.56-96H496V64H464z      M32,320H16V16h400v16H32V320z M64,352H48V48h400v16H64V352z M128,328c0-83.816,68.184-152,152-152     c39.032,0,74.56,14.912,101.504,39.184l-29.936,29.936L280,223.648l-88,26.4v87.792c0,18.704,5.832,36.272,16.08,50.776     l-40.896,40.896C142.912,402.56,128,367.032,128,328z M280,257.056l-56,16.808v63.976c0,9.936,2.696,19.304,7.336,27.52     l-11.696,11.696C212.232,365.648,208,352.16,208,337.832v-75.88l72-21.6l58.72,17.616l-12.848,12.848L280,257.056z      M313.016,283.664l-69.776,69.784c-2.048-4.84-3.24-10.104-3.24-15.616V285.76l40-12.008L313.016,283.664z M241.216,378.096     c5.104,4.904,11.096,8.984,17.984,11.736l20.8,8.328l20.8-8.32c21.384-8.552,35.2-28.96,35.2-52V320h-16v17.832     c0,16.456-9.864,31.032-25.144,37.144L280,380.92l-14.856-5.944c-4.824-1.928-9.024-4.776-12.624-8.176L320,299.312V304h16     v-20.688l16-16v70.52c0,29.608-17.768,55.848-45.264,66.856L280,415.384l-26.736-10.688c-8.944-3.584-16.728-8.904-23.336-15.304     L241.216,378.096z M280,480c-39.032,0-74.56-14.912-101.504-39.184l40-40c8.112,7.896,17.808,14.328,28.816,18.736L280,432.616     l32.68-13.072c33.608-13.448,55.32-45.52,55.32-81.712v-86.52l24.816-24.816C417.088,253.44,432,288.968,432,328     C432,411.816,363.816,480,280,480z M480,384h-41.8c6.232-17.544,9.8-36.344,9.8-56c0-92.64-75.36-168-168-168s-168,75.36-168,168     c0,19.656,3.568,38.456,9.8,56H80V144h400V384z M480,128H80V80h400V128z"/>
			<rect x="96" y="96" width="16" height="16"/>
			<rect x="128" y="96" width="16" height="16"/>
			<rect x="160" y="96" width="16" height="16"/>
		</g>
	</g>
</g>
<g>
</g>
<g>
</g>
<g>
</g>
<g>
</g>
<g>
</g>
<g>
</g>
<g>
</g>
<g>
</g>
<g>
</g>
<g>
</g>
<g>
</g>
<g>
</g>
<g>
</g>
<g>
</g>
<g>
</g>
</svg>
