<?xml version="1.0" encoding="UTF-8" standalone="no"?>
<svg
   xmlns:dc="http://purl.org/dc/elements/1.1/"
   xmlns:cc="http://creativecommons.org/ns#"
   xmlns:rdf="http://www.w3.org/1999/02/22-rdf-syntax-ns#"
   xmlns:svg="http://www.w3.org/2000/svg"
   xmlns="http://www.w3.org/2000/svg"
   xmlns:sodipodi="http://sodipodi.sourceforge.net/DTD/sodipodi-0.dtd"
   xmlns:inkscape="http://www.inkscape.org/namespaces/inkscape"
   version="1.0"
   width="936.000000pt"
   height="405.000000pt"
   viewBox="0 0 936.000000 405.000000"
   preserveAspectRatio="xMidYMid meet"
   id="svg2"
   inkscape:version="0.91 r13725"
   sodipodi:docname="icon.svg"
   inkscape:export-filename="/home/ldmorad/Totem_Venighanz/src/totemVenighanz/images/logo.png"
   inkscape:export-xdpi="90"
   inkscape:export-ydpi="90">
  <defs
     id="defs56" />
  <sodipodi:namedview
     pagecolor="#ffffff"
     bordercolor="#666666"
     borderopacity="1"
     objecttolerance="10"
     gridtolerance="10"
     guidetolerance="10"
     inkscape:pageopacity="0"
     inkscape:pageshadow="2"
     inkscape:window-width="1366"
     inkscape:window-height="694"
     id="namedview54"
     showgrid="false"
     inkscape:zoom="0.3191046"
     inkscape:cx="144.73103"
     inkscape:cy="241.06146"
     inkscape:window-x="0"
     inkscape:window-y="21"
     inkscape:window-maximized="1"
     inkscape:current-layer="g6" />
  <metadata
     id="metadata4">
Created by potrace 1.15, written by Peter Selinger 2001-2017
<rdf:RDF>
  <cc:Work
     rdf:about="">
    <dc:format>image/svg+xml</dc:format>
    <dc:type
       rdf:resource="http://purl.org/dc/dcmitype/StillImage" />
    <dc:title></dc:title>
  </cc:Work>
</rdf:RDF>
</metadata>
  <g
     transform="translate(0.000000,405.000000) scale(0.100000,-0.100000)"
     fill="#000000"
     stroke="none"
     id="g6">
    <ellipse
       style="opacity:0.98000004;fill:#21953d;fill-opacity:1;fill-rule:nonzero;stroke:none;stroke-width:3;stroke-linecap:round;stroke-linejoin:miter;stroke-miterlimit:4;stroke-dasharray:none;stroke-dashoffset:0;stroke-opacity:1"
       id="path4157"
       cx="4500.0918"
       cy="-2059.2024"
       rx="1303.6477"
       ry="1312.7324"
       inkscape:export-xdpi="90"
       inkscape:export-ydpi="90"
       transform="scale(1,-1)" />
    <ellipse
       style="opacity:0.98000004;fill:#ffffff;fill-opacity:1;fill-rule:nonzero;stroke:none;stroke-width:3;stroke-linecap:round;stroke-linejoin:miter;stroke-miterlimit:4;stroke-dasharray:none;stroke-dashoffset:0;stroke-opacity:1"
       id="path4157-3"
       cx="4495.5493"
       cy="-2063.9504"
       rx="1221.8859"
       ry="1230.4008"
       inkscape:export-xdpi="90"
       inkscape:export-ydpi="90"
       transform="scale(1,-1)" />
    <g
       id="g4174"
       transform="matrix(0.29295911,0,0,0.29295911,3141.6457,1443.661)"
       inkscape:export-xdpi="90"
       inkscape:export-ydpi="90">
      <path
         id="path8"
         d="m 7950,3458 c -162,-22 -296,-41 -296,-41 -5,-6 -10,-397 -5,-397 3,0 19,26 36,57 39,76 97,147 143,178 36,23 147,54 158,43 2,-3 -58,-169 -134,-369 -200,-524 -206,-539 -201,-543 5,-4 647,81 666,88 10,4 13,52 13,201 0,107 -3,195 -7,195 -5,0 -24,-28 -43,-63 -62,-109 -126,-166 -205,-180 -93,-17 -105,-18 -105,-4 0,7 67,197 149,422 180,498 167,455 144,454 -10,-1 -151,-19 -313,-41 z"
         inkscape:connector-curvature="0" />
      <path
         id="path10"
         d="m 7415,3403 c -54,-7 -101,-16 -104,-18 -2,-3 4,-14 14,-24 14,-16 21,-65 39,-256 12,-130 19,-238 15,-241 -4,-2 -98,102 -209,232 -112,130 -208,238 -215,240 -14,6 -154,-12 -162,-20 -3,-3 1,-12 10,-20 21,-22 23,-38 58,-519 29,-398 30,-429 15,-452 -16,-24 -16,-25 6,-25 28,0 199,20 216,26 10,3 8,11 -7,31 -16,23 -26,75 -49,273 -16,135 -27,248 -25,252 2,4 123,-117 270,-268 147,-151 270,-274 274,-274 4,0 9,6 11,13 4,11 -11,271 -46,782 -14,193 -14,223 -1,249 8,16 15,31 15,33 0,4 -8,3 -125,-14 z"
         inkscape:connector-curvature="0" />
      <path
         id="path12"
         d="m 6373,3261 c -12,-15 -43,-38 -70,-52 -26,-13 -50,-27 -53,-31 -8,-10 -33,-120 -129,-553 -86,-389 -87,-392 -108,-417 -8,-9 -11,-18 -6,-21 8,-5 204,20 210,27 3,2 -1,13 -8,23 -9,16 -8,35 5,95 l 17,76 97,11 c 53,7 109,14 125,17 25,5 29,1 57,-62 22,-48 29,-76 24,-96 -6,-28 -5,-29 28,-24 18,3 84,13 147,21 63,9 117,18 120,20 3,3 -4,12 -15,19 -28,20 -41,50 -296,706 -76,196 -105,264 -114,266 -5,2 -19,-10 -31,-25 z m -8,-503 c 21,-57 44,-115 52,-130 7,-15 9,-29 4,-32 -12,-8 -153,-27 -158,-22 -6,6 51,286 58,286 4,0 24,-46 44,-102 z"
         inkscape:connector-curvature="0" />
      <path
         id="path14"
         d="m 5735,3153 c -60,-8 -112,-17 -114,-19 -2,-2 4,-13 13,-23 13,-14 21,-55 32,-158 7,-76 14,-159 14,-184 l 0,-45 -127,-17 c -70,-9 -128,-16 -129,-14 -1,1 -9,82 -19,180 -15,166 -15,181 0,204 9,13 15,27 12,29 -5,5 -287,-33 -294,-40 -3,-3 2,-12 11,-21 9,-9 18,-26 21,-38 8,-36 75,-818 75,-873 0,-27 -5,-55 -12,-62 -6,-6 -9,-14 -6,-17 5,-5 255,22 286,31 9,3 7,11 -8,31 -17,23 -23,59 -37,215 -9,103 -13,191 -10,195 11,11 247,40 253,32 2,-5 12,-81 20,-171 15,-157 15,-226 0,-258 -6,-14 10,-14 141,3 81,11 149,21 151,22 2,2 -5,12 -16,23 -24,24 -24,23 -68,525 -34,389 -35,419 -20,442 l 16,25 -37,-1 c -21,-1 -87,-8 -148,-16 z"
         inkscape:connector-curvature="0" />
      <path
         id="path16"
         d="m 4653,3020 c -119,-28 -238,-129 -296,-250 -44,-94 -59,-167 -58,-289 1,-229 92,-408 243,-476 76,-34 195,-44 291,-25 81,16 190,70 251,123 l 48,42 -20,70 c -12,39 -26,134 -33,213 -11,132 -13,142 -32,142 -64,0 -337,-44 -337,-55 0,-6 29,-30 64,-52 78,-50 95,-79 103,-181 7,-98 0,-106 -106,-110 -75,-4 -77,-3 -117,32 -79,68 -123,227 -111,401 7,101 30,167 74,211 28,29 41,34 79,34 58,0 94,-33 119,-110 10,-30 19,-57 21,-59 3,-3 220,123 233,135 2,2 -8,23 -23,47 -38,66 -119,134 -179,152 -53,16 -159,18 -214,5 z"
         inkscape:connector-curvature="0" />
      <path
         id="path18"
         d="m 4030,2958 c -74,-10 -136,-21 -138,-23 -2,-2 6,-13 17,-24 12,-12 21,-29 21,-38 0,-10 18,-216 40,-458 35,-398 37,-442 24,-463 -9,-13 -13,-26 -11,-29 6,-5 261,24 287,33 13,5 13,7 -1,17 -24,18 -27,34 -48,272 -11,121 -30,323 -41,449 -19,207 -19,231 -5,252 8,13 15,26 15,29 0,6 3,7 -160,-17 z"
         inkscape:connector-curvature="0" />
      <path
         id="path20"
         d="m 3675,2913 c -55,-8 -102,-17 -105,-19 -3,-3 3,-10 11,-15 23,-12 26,-28 43,-234 9,-99 18,-202 21,-228 3,-28 2,-47 -3,-45 -5,1 -100,109 -212,238 -111,129 -208,236 -216,238 -17,4 -154,-15 -162,-22 -3,-4 2,-12 12,-19 23,-17 28,-62 62,-550 23,-328 26,-401 15,-418 -7,-12 -10,-23 -7,-26 6,-6 236,18 236,25 0,2 -8,16 -18,30 -14,21 -25,84 -45,267 -15,132 -27,245 -27,252 0,7 107,-97 238,-230 130,-133 252,-256 270,-274 49,-50 55,-44 48,50 -4,45 -13,186 -21,312 -8,127 -20,307 -26,401 -11,167 -10,232 5,267 9,20 17,20 -119,0 z"
         inkscape:connector-curvature="0" />
      <path
         id="path22"
         d="m 1261,2854 c -167,-22 -262,-40 -300,-56 -192,-77 -330,-220 -370,-382 -30,-122 -7,-289 53,-384 76,-122 271,-206 364,-158 18,9 32,18 32,21 0,2 -21,14 -47,27 -77,38 -175,137 -217,220 -96,193 -85,354 31,472 56,57 109,89 200,120 69,23 328,64 339,53 3,-3 -7,-25 -23,-49 -96,-141 -176,-356 -194,-517 -30,-262 57,-565 204,-714 75,-77 134,-105 230,-113 153,-13 259,29 383,151 122,119 247,326 308,507 90,269 43,506 -136,690 -91,93 -150,131 -214,136 -66,5 -107,-18 -160,-89 -38,-52 -87,-159 -99,-217 -7,-32 -6,-34 16,-27 13,4 38,23 55,41 36,39 53,41 109,14 85,-40 130,-102 194,-263 18,-46 32,-207 25,-292 -16,-212 -93,-396 -215,-514 -43,-42 -58,-51 -88,-51 -136,1 -251,166 -322,463 -57,236 -50,479 19,703 15,48 81,177 104,201 23,25 17,44 -15,42 -12,-1 -132,-16 -266,-35 z"
         inkscape:connector-curvature="0" />
      <path
         id="path24"
         d="m 2650,2778 c -162,-22 -297,-42 -300,-45 -3,-3 1,-8 8,-10 7,-3 17,-13 22,-23 5,-10 28,-224 51,-475 37,-422 39,-458 24,-481 -15,-23 -14,-24 7,-24 23,0 523,64 586,75 l 32,6 0,199 c 0,110 -3,200 -7,200 -5,-1 -33,-42 -63,-92 -90,-147 -167,-200 -269,-181 l -46,8 -13,134 c -7,73 -11,135 -9,137 2,3 26,7 53,10 43,6 56,2 104,-26 30,-17 65,-41 77,-53 13,-11 26,-18 29,-14 3,3 1,52 -4,109 -6,57 -14,140 -17,186 -4,45 -11,82 -16,82 -5,0 -9,-4 -9,-9 0,-6 -25,-37 -55,-69 -51,-56 -59,-60 -111,-67 -41,-5 -59,-3 -64,6 -6,9 -22,165 -25,244 0,16 65,34 123,34 72,1 114,-20 188,-97 34,-35 64,-60 66,-55 5,8 -38,295 -47,321 -2,6 -8,11 -12,11 -4,-1 -141,-19 -303,-41 z"
         inkscape:connector-curvature="0" />
      <path
         style="fill:#21953d;fill-opacity:1"
         id="path26"
         d="m 7660,2324 c -36,-7 -85,-15 -110,-18 -25,-3 -72,-9 -105,-15 -33,-5 -107,-17 -165,-26 -58,-8 -145,-22 -195,-30 -49,-8 -106,-15 -125,-16 -19,-1 -51,-5 -70,-10 -19,-5 -125,-22 -235,-39 -110,-17 -224,-35 -254,-40 -29,-5 -57,-7 -62,-4 -5,3 -17,1 -26,-4 -10,-6 -40,-12 -68,-15 -27,-3 -139,-20 -249,-37 -109,-17 -215,-32 -235,-34 -20,-2 -43,-6 -51,-10 -8,-3 -35,-8 -60,-10 -25,-3 -133,-19 -240,-36 -107,-17 -215,-33 -240,-35 -25,-3 -56,-7 -70,-10 -85,-16 -450,-72 -530,-81 -19,-2 -55,-8 -80,-13 -45,-9 -92,-17 -295,-46 -60,-9 -153,-23 -205,-32 -52,-8 -108,-17 -125,-18 -16,-2 -86,-13 -155,-24 -69,-11 -161,-25 -205,-31 -44,-7 -98,-14 -120,-17 -63,-9 -74,-46 -27,-92 25,-25 118,-68 167,-76 11,-2 47,-9 80,-14 33,-6 126,-18 207,-26 193,-20 301,-53 498,-150 74,-37 226,-124 285,-165 44,-29 75,-25 172,24 182,92 1178,495 1263,511 10,2 27,8 37,13 45,24 413,153 473,166 8,2 22,5 30,8 25,10 150,46 250,73 52,14 109,30 125,35 74,23 278,69 285,65 5,-3 10,-1 12,3 1,5 68,23 148,41 80,17 163,36 184,41 22,5 44,6 48,4 5,-3 14,-1 21,4 7,5 28,13 47,17 19,4 80,17 135,30 55,13 114,23 130,23 17,1 68,10 115,20 47,11 92,20 100,20 50,3 225,43 231,54 24,37 19,38 -333,37 -241,-1 -362,-5 -408,-15 z"
         inkscape:connector-curvature="0" />
      <path
         inkscape:export-ydpi="90"
         inkscape:export-xdpi="90"
         style="fill:#21953d;fill-opacity:1"
         id="path28"
         d="m 1843,1188 c 6,-19 2218,-19 2225,0 3,9 -224,12 -1113,12 -889,0 -1116,-3 -1112,-12 z"
         inkscape:connector-curvature="0" />
      <path
         inkscape:export-ydpi="90"
         inkscape:export-xdpi="90"
         style="fill:#21953d;fill-opacity:1"
         id="path30"
         d="m 5350,1185 c 0,-13 127,-15 1110,-15 974,0 1110,2 1110,15 0,13 -136,15 -1110,15 -983,0 -1110,-2 -1110,-15 z"
         inkscape:connector-curvature="0" />
      <path
         inkscape:export-ydpi="90"
         inkscape:export-xdpi="90"
         style="fill:#21953d;fill-opacity:1"
         id="path32"
         d="m 2244,964 c -48,-23 -75,-58 -90,-113 -38,-150 103,-277 228,-204 32,19 32,19 31,91 -1,40 -5,77 -8,82 -3,6 -33,10 -66,10 -56,0 -59,-1 -59,-25 0,-23 4,-25 45,-25 l 45,0 0,-45 c 0,-49 -16,-65 -65,-65 -111,0 -161,153 -76,234 27,26 35,28 85,24 53,-4 56,-3 56,18 0,36 -70,46 -126,18 z"
         inkscape:connector-curvature="0" />
      <path
         inkscape:export-ydpi="90"
         inkscape:export-xdpi="90"
         style="fill:#21953d;fill-opacity:1"
         id="path34"
         d="m 2693,973 c -23,-4 -23,-6 -23,-174 0,-162 1,-169 20,-169 18,0 20,7 20,69 0,39 4,72 8,75 15,9 75,-28 93,-58 11,-17 19,-43 19,-58 0,-23 4,-28 25,-28 23,0 25,3 19,28 -13,55 -33,91 -63,113 -29,22 -30,23 -11,36 29,20 37,79 15,118 -25,47 -59,60 -122,48 z"
         inkscape:connector-curvature="0" />
      <path
         inkscape:export-ydpi="90"
         inkscape:export-xdpi="90"
         style="fill:#21953d;fill-opacity:1"
         id="path36"
         d="m 4445,973 c -32,-2 -65,-9 -72,-15 -16,-13 -17,-105 -3,-143 9,-23 6,-32 -20,-61 -16,-19 -33,-46 -36,-60 -10,-39 3,-112 26,-144 24,-34 86,-60 143,-60 70,0 78,12 86,125 6,95 7,99 31,105 18,4 26,14 28,32 l 3,27 -67,-18 c -68,-19 -84,-31 -84,-65 0,-16 2,-16 16,-5 29,24 36,-17 25,-143 -1,-5 -23,-8 -50,-8 -84,0 -137,67 -117,146 9,33 61,84 86,84 15,0 13,5 -11,30 -26,26 -30,36 -27,77 l 3,48 58,0 c 56,0 57,0 57,27 0,16 -3,27 -7,26 -5,-1 -35,-3 -68,-5 z"
         inkscape:connector-curvature="0" />
      <path
         inkscape:export-ydpi="90"
         inkscape:export-xdpi="90"
         style="fill:#21953d;fill-opacity:1"
         id="path38"
         d="m 6613,973 c -23,-4 -23,-6 -23,-174 0,-162 1,-169 20,-169 18,0 20,7 20,75 0,80 3,84 50,60 41,-21 70,-63 70,-101 0,-30 3,-34 26,-34 24,0 25,2 19,33 -7,33 -44,107 -54,107 -3,0 -12,4 -20,9 -12,7 -10,14 8,36 37,48 22,124 -30,151 -28,14 -43,15 -86,7 z"
         inkscape:connector-curvature="0" />
      <path
         inkscape:export-ydpi="90"
         inkscape:export-xdpi="90"
         style="fill:#21953d;fill-opacity:1"
         id="path40"
         d="m 3460,800 0,-170 74,0 c 65,0 74,2 79,19 7,28 1,31 -60,31 l -53,0 0,145 c 0,138 -1,145 -20,145 -19,0 -20,-7 -20,-170 z"
         inkscape:connector-curvature="0" />
      <path
         inkscape:export-ydpi="90"
         inkscape:export-xdpi="90"
         style="fill:#21953d;fill-opacity:1"
         id="path42"
         d="m 3840,800 0,-170 80,0 c 79,0 80,0 80,25 0,24 -3,25 -60,25 l -60,0 0,145 c 0,138 -1,145 -20,145 -19,0 -20,-7 -20,-170 z"
         inkscape:connector-curvature="0" />
      <path
         inkscape:export-ydpi="90"
         inkscape:export-xdpi="90"
         style="fill:#21953d;fill-opacity:1"
         id="path44"
         d="m 4940,950 c 0,-16 7,-20 35,-20 l 35,0 0,-150 c 0,-143 1,-150 20,-150 19,0 20,7 20,150 l 0,150 35,0 c 28,0 35,4 35,20 0,19 -7,20 -90,20 -83,0 -90,-1 -90,-20 z"
         inkscape:connector-curvature="0" />
      <path
         inkscape:export-ydpi="90"
         inkscape:export-xdpi="90"
         style="fill:#21953d;fill-opacity:1"
         id="path46"
         d="m 5373,811 c -35,-87 -63,-164 -63,-170 0,-7 10,-11 22,-9 14,2 25,14 33,38 12,35 12,35 78,38 l 66,3 12,-41 c 10,-32 17,-40 36,-40 12,0 23,4 23,8 0,4 -29,76 -65,160 -36,83 -65,156 -65,162 0,34 -22,-9 -77,-149 z"
         inkscape:connector-curvature="0" />
      <path
         inkscape:export-ydpi="90"
         inkscape:export-xdpi="90"
         style="fill:#21953d;fill-opacity:1"
         id="path48"
         d="m 5767,863 c 24,-60 56,-136 71,-171 l 26,-63 66,168 c 60,153 64,168 46,171 -24,5 -27,-1 -66,-117 -18,-53 -36,-100 -40,-105 -10,-10 -28,30 -68,146 -25,71 -29,78 -54,78 l -27,0 46,-107 z"
         inkscape:connector-curvature="0" />
      <path
         inkscape:export-ydpi="90"
         inkscape:export-xdpi="90"
         style="fill:#21953d;fill-opacity:1"
         id="path50"
         d="m 6200,800 0,-170 85,0 c 84,0 85,0 85,25 0,24 -2,25 -65,25 l -65,0 0,50 0,50 45,0 c 41,0 45,2 45,25 0,23 -4,25 -45,25 l -45,0 0,50 0,50 65,0 c 58,0 65,2 65,20 0,18 -7,20 -85,20 l -85,0 0,-170 z"
         inkscape:connector-curvature="0" />
      <path
         inkscape:export-ydpi="90"
         inkscape:export-xdpi="90"
         style="fill:#21953d;fill-opacity:1"
         id="path52"
         d="m 7010,800 c 0,-162 1,-170 20,-170 18,0 20,8 22,113 l 3,112 84,-107 c 46,-60 85,-108 87,-108 2,0 4,74 4,165 0,158 -1,165 -20,165 -19,0 -20,-7 -20,-100 0,-55 -4,-100 -9,-100 -4,0 -43,45 -86,100 -43,55 -79,100 -81,100 -2,0 -4,-76 -4,-170 z"
         inkscape:connector-curvature="0" />
      <path
         inkscape:export-ydpi="90"
         inkscape:export-xdpi="90"
         style="fill:#21953d;fill-opacity:1"
         sodipodi:nodetypes="sccss"
         id="path40-3"
         d="m 3139.8477,797.72727 0,-170 c 46.3592,-12.34931 40,13.22355 40,195 0,138 -1,144.99998 -20,144.99998 -19,0 -20,-6.99998 -20,-169.99998 z"
         inkscape:connector-curvature="0" />
    </g>
  </g>
</svg>
